<?xml version="1.0" encoding="UTF-8" standalone="no"?>
<!-- Created with Inkscape (http://www.inkscape.org/) -->

<svg
   xmlns:dc="http://purl.org/dc/elements/1.1/"
   xmlns:cc="http://creativecommons.org/ns#"
   xmlns:rdf="http://www.w3.org/1999/02/22-rdf-syntax-ns#"
   xmlns:svg="http://www.w3.org/2000/svg"
   xmlns="http://www.w3.org/2000/svg"
   xmlns:sodipodi="http://sodipodi.sourceforge.net/DTD/sodipodi-0.dtd"
   xmlns:inkscape="http://www.inkscape.org/namespaces/inkscape"
   
   viewBox="0 0 100 100"
   preserveAspectRatio="xMinYMin meet"
   
   id="svg3921"
   version="1.1"
   inkscape:version="0.48.4 r9939"
   sodipodi:docname="4dot.svg">
  <defs
     id="defs3923" />
  <sodipodi:namedview
     id="base"
     pagecolor="#ffffff"
     bordercolor="#666666"
     borderopacity="1.0"
     inkscape:pageopacity="0.0"
     inkscape:pageshadow="2"
     inkscape:zoom="5.65"
     inkscape:cx="36.017699"
     inkscape:cy="50"
     inkscape:document-units="px"
     inkscape:current-layer="g3831"
     showgrid="false"
     inkscape:window-width="1317"
     inkscape:window-height="744"
     inkscape:window-x="49"
     inkscape:window-y="24"
     inkscape:window-maximized="1" />
  <metadata
     id="metadata3926">
    <rdf:RDF>
      <cc:Work
         rdf:about="">
        <dc:format>image/svg+xml</dc:format>
        <dc:type
           rdf:resource="http://purl.org/dc/dcmitype/StillImage" />
        <dc:title />
      </cc:Work>
    </rdf:RDF>
  </metadata>
  <g
     inkscape:label="Layer 1"
     inkscape:groupmode="layer"
     id="layer1"
     transform="translate(0,-952.36218)">
    <g
       id="g3831"
       transform="matrix(0.76251738,0,0,0.76409825,-122.73783,777.88066)">
      <rect
         style="color:#000000;fill:#dedede;fill-opacity:1;fill-rule:nonzero;stroke:none;stroke-width:1;marker:none;visibility:visible;display:inline;overflow:visible;enable-background:accumulate"
         id="rect3829"
         width="130.92751"
         height="130.46327"
         x="161.18904"
         y="228.67038" />
      <g
         id="g3560"
         transform="matrix(1.18309,0,0,1.2255421,-43.952052,-65.355657)">
        <path
           d="m 236.75116,266.96939 c 0,5.56916 -4.3184,10.08385 -9.64542,10.08385 -5.32701,0 -9.64541,-4.51469 -9.64541,-10.08385 0,-5.56915 4.3184,-10.08385 9.64541,-10.08385 5.32702,0 9.64542,4.5147 9.64542,10.08385 z"
           sodipodi:ry="10.083846"
           sodipodi:rx="9.6454182"
           sodipodi:cy="266.96939"
           sodipodi:cx="227.10574"
           id="path2995"
           style="color:#000000;fill:#20e4fa;fill-opacity:1;fill-rule:nonzero;stroke:none;stroke-width:11.90400028;marker:none;visibility:visible;display:inline;overflow:visible;enable-background:accumulate"
           sodipodi:type="arc"
           transform="matrix(0.55466118,0,0,0.55466118,83.40733,144.91795)" />
        <path
           transform="matrix(0.55466118,0,0,0.55466118,121.91655,145.02162)"
           sodipodi:type="arc"
           style="color:#000000;fill:#20e4fa;fill-opacity:1;fill-rule:nonzero;stroke:none;stroke-width:11.90400028;marker:none;visibility:visible;display:inline;overflow:visible;enable-background:accumulate"
           id="path2997"
           sodipodi:cx="227.10574"
           sodipodi:cy="266.96939"
           sodipodi:rx="9.6454182"
           sodipodi:ry="10.083846"
           d="m 236.75116,266.96939 c 0,5.56916 -4.3184,10.08385 -9.64542,10.08385 -5.32701,0 -9.64541,-4.51469 -9.64541,-10.08385 0,-5.56915 4.3184,-10.08385 9.64541,-10.08385 5.32702,0 9.64542,4.5147 9.64542,10.08385 z" />
      </g>
      <g
         id="g3564"
         transform="matrix(1.18309,0,0,1.2255421,-39.585089,-60.543946)">
        <path
           transform="matrix(0.55466118,0,0,0.55466118,98.97079,121.98847)"
           sodipodi:type="arc"
           style="color:#000000;fill:#f10708;fill-opacity:1;fill-rule:nonzero;stroke:none;stroke-width:11.90400028;marker:none;visibility:visible;display:inline;overflow:visible;enable-background:accumulate"
           id="path2993"
           sodipodi:cx="227.10574"
           sodipodi:cy="266.96939"
           sodipodi:rx="9.6454182"
           sodipodi:ry="10.083846"
           d="m 236.75116,266.96939 c 0,5.56916 -4.3184,10.08385 -9.64542,10.08385 -5.32701,0 -9.64541,-4.51469 -9.64541,-10.08385 0,-5.56915 4.3184,-10.08385 9.64541,-10.08385 5.32702,0 9.64542,4.5147 9.64542,10.08385 z" />
        <path
           d="m 236.75116,266.96939 c 0,5.56916 -4.3184,10.08385 -9.64542,10.08385 -5.32701,0 -9.64541,-4.51469 -9.64541,-10.08385 0,-5.56915 4.3184,-10.08385 9.64541,-10.08385 5.32702,0 9.64542,4.5147 9.64542,10.08385 z"
           sodipodi:ry="10.083846"
           sodipodi:rx="9.6454182"
           sodipodi:cy="266.96939"
           sodipodi:cx="227.10574"
           id="path2999"
           style="color:#000000;fill:#000000;fill-opacity:1;fill-rule:nonzero;stroke:none;stroke-width:11.90400028;marker:none;visibility:visible;display:inline;overflow:visible;enable-background:accumulate"
           sodipodi:type="arc"
           transform="matrix(0.55466118,0,0,0.55466118,98.97079,160.09872)" />
      </g>
    </g>
  </g>
</svg>
