<?xml version="1.0" encoding="UTF-8" standalone="no"?>
<!-- Created with Inkscape (http://www.inkscape.org/) -->

<svg
   xmlns:dc="http://purl.org/dc/elements/1.1/"
   xmlns:cc="http://creativecommons.org/ns#"
   xmlns:rdf="http://www.w3.org/1999/02/22-rdf-syntax-ns#"
   xmlns:svg="http://www.w3.org/2000/svg"
   xmlns="http://www.w3.org/2000/svg"
   xmlns:sodipodi="http://sodipodi.sourceforge.net/DTD/sodipodi-0.dtd"
   xmlns:inkscape="http://www.inkscape.org/namespaces/inkscape"
   width="744.09448819"
   height="1052.3622047"
   id="svg2"
   version="1.1"
   inkscape:version="0.48.4 r9939"
   inkscape:export-filename="javal.png"
   inkscape:export-xdpi="72"
   inkscape:export-ydpi="72"
   sodipodi:docname="New document 1">
  <defs
     id="defs4">
    <marker
       inkscape:stockid="Arrow1Lstart"
       orient="auto"
       refY="0.0"
       refX="0.0"
       id="Arrow1Lstart"
       style="overflow:visible">
      <path
         id="path3968"
         d="M 0.0,0.0 L 5.0,-5.0 L -12.5,0.0 L 5.0,5.0 L 0.0,0.0 z "
         style="fill-rule:evenodd;stroke:#000000;stroke-width:1.0pt"
         transform="scale(0.8) translate(12.5,0)" />
    </marker>
  </defs>
  <sodipodi:namedview
     id="base"
     pagecolor="#ffffff"
     bordercolor="#666666"
     borderopacity="1.0"
     inkscape:pageopacity="0.0"
     inkscape:pageshadow="2"
     inkscape:zoom="0.35"
     inkscape:cx="-130.71429"
     inkscape:cy="520"
     inkscape:document-units="px"
     inkscape:current-layer="layer1"
     showgrid="false"
     inkscape:window-width="1317"
     inkscape:window-height="744"
     inkscape:window-x="49"
     inkscape:window-y="24"
     inkscape:window-maximized="1" />
  <metadata
     id="metadata7">
    <rdf:RDF>
      <cc:Work
         rdf:about="">
        <dc:format>image/svg+xml</dc:format>
        <dc:type
           rdf:resource="http://purl.org/dc/dcmitype/StillImage" />
        <dc:title></dc:title>
      </cc:Work>
    </rdf:RDF>
  </metadata>
  <g
     inkscape:label="Layer 1"
     inkscape:groupmode="layer"
     id="layer1">
    <g
       id="g3776"
       transform="matrix(0.70252082,0,0,0.70252082,134.16131,-11.974113)">
      <rect
         y="249.50505"
         x="380"
         height="157.14285"
         width="111.42857"
         id="rect2985"
         style="color:#000000;fill:#ff0000;fill-opacity:1;fill-rule:nonzero;stroke:#000000;stroke-width:2.72099996;stroke-linecap:round;stroke-linejoin:round;stroke-miterlimit:4;stroke-opacity:1;stroke-dasharray:none;stroke-dashoffset:0;marker:none;visibility:visible;display:inline;overflow:visible;enable-background:accumulate" />
      <path
         sodipodi:nodetypes="cc"
         inkscape:connector-curvature="0"
         id="path2987"
         d="m 491.42858,326.64789 -111.42858,0"
         style="fill:none;stroke:#000000;stroke-width:2;stroke-linecap:butt;stroke-linejoin:miter;stroke-miterlimit:4;stroke-opacity:1;stroke-dasharray:none" />
    </g>
    <g
       id="g3770"
       transform="matrix(0.70252082,0,0,0.70252082,134.16131,-24.017326)">
      <path
         inkscape:connector-curvature="0"
         id="rect3757"
         d="m 308.20982,208.30804 0,54.96875 0.28125,0 0,24.28125 25.78125,0 0,38.3125 42.96875,0 0,-44.71875 -25.78125,0 0,-38.3125 -25.40625,0 0,-34.53125 -17.84375,0 z"
         style="color:#000000;fill:#00ff00;fill-opacity:1;fill-rule:nonzero;stroke:#000000;stroke-width:1.81758094;stroke-linecap:round;stroke-linejoin:round;stroke-miterlimit:4;stroke-opacity:1;stroke-dasharray:none;stroke-dashoffset:0;marker:none;visibility:visible;display:inline;overflow:visible;enable-background:accumulate" />
      <path
         inkscape:connector-curvature="0"
         style="color:#000000;fill:#00ff00;fill-opacity:1;fill-rule:nonzero;stroke:#000000;stroke-width:1.81758094;stroke-linecap:round;stroke-linejoin:round;stroke-miterlimit:4;stroke-opacity:1;stroke-dasharray:none;stroke-dashoffset:0;marker:none;visibility:visible;display:inline;overflow:visible;enable-background:accumulate"
         d="m 308.20982,445.87054 0,-54.96875 0.28125,0 0,-24.28125 25.78125,0 0,-38.3125 42.96875,0 0,44.71875 -25.78125,0 0,38.3125 -25.40625,0 0,34.53125 -17.84375,0 z"
         id="path3764" />
      <path
         style="color:#000000;fill:#00ff00;fill-opacity:1;fill-rule:nonzero;stroke:#000000;stroke-width:1.81758094;stroke-linecap:round;stroke-linejoin:round;stroke-miterlimit:4;stroke-opacity:1;stroke-dasharray:none;stroke-dashoffset:0;marker:none;visibility:visible;display:inline;overflow:visible;enable-background:accumulate"
         d="m 233.92411,208.30804 0,54.96875 0.28125,0 0,24.28125 25.78125,0 0,38.3125 42.96875,0 0,-44.71875 -25.78125,0 0,-38.3125 -25.40625,0 0,-34.53125 -17.84375,0 z"
         id="path3766"
         inkscape:connector-curvature="0" />
      <path
         id="path3768"
         d="m 233.92411,445.87054 0,-54.96875 0.28125,0 0,-24.28125 25.78125,0 0,-38.3125 42.96875,0 0,44.71875 -25.78125,0 0,38.3125 -25.40625,0 0,34.53125 -17.84375,0 z"
         style="color:#000000;fill:#00ff00;fill-opacity:1;fill-rule:nonzero;stroke:#000000;stroke-width:1.81758094;stroke-linecap:round;stroke-linejoin:round;stroke-miterlimit:4;stroke-opacity:1;stroke-dasharray:none;stroke-dashoffset:0;marker:none;visibility:visible;display:inline;overflow:visible;enable-background:accumulate"
         inkscape:connector-curvature="0" />
    </g>
    <path
       style="fill:none;stroke:#000000;stroke-width:3.65310812;stroke-linecap:butt;stroke-linejoin:miter;stroke-miterlimit:4;stroke-opacity:1;stroke-dasharray:none;marker-start:url(#Arrow1Lstart);marker-end:none"
       d="m 232.51423,247.61087 c 17.41628,43.35306 40.34345,105.55882 162.58338,102.36732 113.42393,-2.96134 141.50424,-73.50938 148.53298,-108.38893"
       id="path3782"
       inkscape:connector-curvature="0"
       sodipodi:nodetypes="csc" />
    <g
       id="g4408"
       transform="matrix(0.6041939,0.35844835,-0.35844835,0.6041939,61.741301,467.00358)">
      <rect
         style="color:#000000;fill:#ff0000;fill-opacity:1;fill-rule:nonzero;stroke:#000000;stroke-width:2.72099996;stroke-linecap:round;stroke-linejoin:round;stroke-miterlimit:4;stroke-opacity:1;stroke-dasharray:none;stroke-dashoffset:0;marker:none;visibility:visible;display:inline;overflow:visible;enable-background:accumulate"
         id="rect4410"
         width="111.42857"
         height="157.14285"
         x="380"
         y="249.50505" />
      <path
         style="fill:none;stroke:#000000;stroke-width:2;stroke-linecap:butt;stroke-linejoin:miter;stroke-miterlimit:4;stroke-opacity:1;stroke-dasharray:none"
         d="m 491.42858,326.64789 -111.42858,0"
         id="path4412"
         inkscape:connector-curvature="0"
         sodipodi:nodetypes="cc" />
    </g>
    <g
       transform="matrix(0.6041939,0.35844835,-0.35844835,0.6041939,63.871723,466.68198)"
       id="g4414">
      <path
         style="color:#000000;fill:#00ff00;fill-opacity:1;fill-rule:nonzero;stroke:#000000;stroke-width:1.81758094;stroke-linecap:round;stroke-linejoin:round;stroke-miterlimit:4;stroke-opacity:1;stroke-dasharray:none;stroke-dashoffset:0;marker:none;visibility:visible;display:inline;overflow:visible;enable-background:accumulate"
         d="m 308.20982,208.30804 0,54.96875 0.28125,0 0,24.28125 25.78125,0 0,38.3125 42.96875,0 0,-44.71875 -25.78125,0 0,-38.3125 -25.40625,0 0,-34.53125 -17.84375,0 z"
         id="path4416"
         inkscape:connector-curvature="0" />
      <path
         id="path4418"
         d="m 308.20982,445.87054 0,-54.96875 0.28125,0 0,-24.28125 25.78125,0 0,-38.3125 42.96875,0 0,44.71875 -25.78125,0 0,38.3125 -25.40625,0 0,34.53125 -17.84375,0 z"
         style="color:#000000;fill:#00ff00;fill-opacity:1;fill-rule:nonzero;stroke:#000000;stroke-width:1.81758094;stroke-linecap:round;stroke-linejoin:round;stroke-miterlimit:4;stroke-opacity:1;stroke-dasharray:none;stroke-dashoffset:0;marker:none;visibility:visible;display:inline;overflow:visible;enable-background:accumulate"
         inkscape:connector-curvature="0" />
      <path
         inkscape:connector-curvature="0"
         id="path4420"
         d="m 233.92411,208.30804 0,54.96875 0.28125,0 0,24.28125 25.78125,0 0,38.3125 42.96875,0 0,-44.71875 -25.78125,0 0,-38.3125 -25.40625,0 0,-34.53125 -17.84375,0 z"
         style="color:#000000;fill:#00ff00;fill-opacity:1;fill-rule:nonzero;stroke:#000000;stroke-width:1.81758094;stroke-linecap:round;stroke-linejoin:round;stroke-miterlimit:4;stroke-opacity:1;stroke-dasharray:none;stroke-dashoffset:0;marker:none;visibility:visible;display:inline;overflow:visible;enable-background:accumulate" />
      <path
         inkscape:connector-curvature="0"
         style="color:#000000;fill:#00ff00;fill-opacity:1;fill-rule:nonzero;stroke:#000000;stroke-width:1.81758094;stroke-linecap:round;stroke-linejoin:round;stroke-miterlimit:4;stroke-opacity:1;stroke-dasharray:none;stroke-dashoffset:0;marker:none;visibility:visible;display:inline;overflow:visible;enable-background:accumulate"
         d="m 233.92411,445.87054 0,-54.96875 0.28125,0 0,-24.28125 25.78125,0 0,-38.3125 42.96875,0 0,44.71875 -25.78125,0 0,38.3125 -25.40625,0 0,34.53125 -17.84375,0 z"
         id="path4422" />
    </g>
    <text
       xml:space="preserve"
       style="font-size:33.72100067px;font-style:normal;font-variant:normal;font-weight:bold;font-stretch:normal;line-height:125%;letter-spacing:0px;word-spacing:0px;fill:#000000;fill-opacity:1;stroke:none;font-family:Arial;-inkscape-font-specification:Arial Bold"
       x="46.27655"
       y="641.22424"
       id="text4424"
       sodipodi:linespacing="125%"><tspan
         sodipodi:role="line"
         id="tspan4426"
         x="46.27655"
         y="641.22424">1st meridian</tspan></text>
    <g
       transform="matrix(-0.35844835,0.6041939,-0.6041939,-0.35844835,881.80162,710.03472)"
       id="g4428">
      <rect
         y="249.50505"
         x="380"
         height="157.14285"
         width="111.42857"
         id="rect4430"
         style="color:#000000;fill:#ff0000;fill-opacity:1;fill-rule:nonzero;stroke:#000000;stroke-width:2.72099996;stroke-linecap:round;stroke-linejoin:round;stroke-miterlimit:4;stroke-opacity:1;stroke-dasharray:none;stroke-dashoffset:0;marker:none;visibility:visible;display:inline;overflow:visible;enable-background:accumulate" />
      <path
         sodipodi:nodetypes="cc"
         inkscape:connector-curvature="0"
         id="path4432"
         d="m 491.42858,326.64789 -111.42858,0"
         style="fill:none;stroke:#000000;stroke-width:2;stroke-linecap:butt;stroke-linejoin:miter;stroke-miterlimit:4;stroke-opacity:1;stroke-dasharray:none" />
    </g>
    <g
       id="g4434"
       transform="matrix(-0.35844835,0.6041939,-0.6041939,-0.35844835,881.90407,710.33771)">
      <path
         inkscape:connector-curvature="0"
         id="path4436"
         d="m 308.20982,208.30804 0,54.96875 0.28125,0 0,24.28125 25.78125,0 0,38.3125 42.96875,0 0,-44.71875 -25.78125,0 0,-38.3125 -25.40625,0 0,-34.53125 -17.84375,0 z"
         style="color:#000000;fill:#00ff00;fill-opacity:1;fill-rule:nonzero;stroke:#000000;stroke-width:1.81758094;stroke-linecap:round;stroke-linejoin:round;stroke-miterlimit:4;stroke-opacity:1;stroke-dasharray:none;stroke-dashoffset:0;marker:none;visibility:visible;display:inline;overflow:visible;enable-background:accumulate" />
      <path
         inkscape:connector-curvature="0"
         style="color:#000000;fill:#00ff00;fill-opacity:1;fill-rule:nonzero;stroke:#000000;stroke-width:1.81758094;stroke-linecap:round;stroke-linejoin:round;stroke-miterlimit:4;stroke-opacity:1;stroke-dasharray:none;stroke-dashoffset:0;marker:none;visibility:visible;display:inline;overflow:visible;enable-background:accumulate"
         d="m 308.20982,445.87054 0,-54.96875 0.28125,0 0,-24.28125 25.78125,0 0,-38.3125 42.96875,0 0,44.71875 -25.78125,0 0,38.3125 -25.40625,0 0,34.53125 -17.84375,0 z"
         id="path4438" />
      <path
         style="color:#000000;fill:#00ff00;fill-opacity:1;fill-rule:nonzero;stroke:#000000;stroke-width:1.81758094;stroke-linecap:round;stroke-linejoin:round;stroke-miterlimit:4;stroke-opacity:1;stroke-dasharray:none;stroke-dashoffset:0;marker:none;visibility:visible;display:inline;overflow:visible;enable-background:accumulate"
         d="m 233.92411,208.30804 0,54.96875 0.28125,0 0,24.28125 25.78125,0 0,38.3125 42.96875,0 0,-44.71875 -25.78125,0 0,-38.3125 -25.40625,0 0,-34.53125 -17.84375,0 z"
         id="path4440"
         inkscape:connector-curvature="0" />
      <path
         id="path4442"
         d="m 233.92411,445.87054 0,-54.96875 0.28125,0 0,-24.28125 25.78125,0 0,-38.3125 42.96875,0 0,44.71875 -25.78125,0 0,38.3125 -25.40625,0 0,34.53125 -17.84375,0 z"
         style="color:#000000;fill:#00ff00;fill-opacity:1;fill-rule:nonzero;stroke:#000000;stroke-width:1.81758094;stroke-linecap:round;stroke-linejoin:round;stroke-miterlimit:4;stroke-opacity:1;stroke-dasharray:none;stroke-dashoffset:0;marker:none;visibility:visible;display:inline;overflow:visible;enable-background:accumulate"
         inkscape:connector-curvature="0" />
    </g>
    <text
       sodipodi:linespacing="125%"
       id="text4444"
       y="644.08136"
       x="480.56226"
       style="font-size:33.72100067px;font-style:normal;font-variant:normal;font-weight:bold;font-stretch:normal;line-height:125%;letter-spacing:0px;word-spacing:0px;fill:#000000;fill-opacity:1;stroke:none;font-family:Arial;-inkscape-font-specification:Arial Bold"
       xml:space="preserve"><tspan
         y="644.08136"
         x="480.56226"
         id="tspan4446"
         sodipodi:role="line">2nd meridian</tspan></text>
    <text
       xml:space="preserve"
       style="font-size:32.56087494px;font-style:normal;font-variant:normal;font-weight:bold;font-stretch:normal;text-align:center;line-height:125%;letter-spacing:0px;word-spacing:0px;text-anchor:middle;fill:#000000;fill-opacity:1;stroke:none;font-family:Arial;-inkscape-font-specification:Arial Bold"
       x="377.2341"
       y="395.40778"
       id="text4448"
       sodipodi:linespacing="125%"><tspan
         sodipodi:role="line"
         id="tspan4450"
         x="377.2341"
         y="395.40778">rotate position of keratometer until</tspan><tspan
         sodipodi:role="line"
         x="381.74939"
         y="436.10886"
         id="tspan4452">central lines are in line with each other </tspan></text>
    <path
       sodipodi:nodetypes="cc"
       inkscape:connector-curvature="0"
       id="path4454"
       d="M 182.70508,781.71897 389.71645,458.52104"
       style="fill:none;stroke:#000000;stroke-width:3.65310812;stroke-linecap:butt;stroke-linejoin:miter;stroke-miterlimit:4;stroke-opacity:1;stroke-dasharray:none;marker-start:url(#Arrow1Lstart);marker-end:none" />
  </g>
</svg>
