<svg width="160" height="160" xmlns="http://www.w3.org/2000/svg">
 <metadata id="metadata4729">image/svg+xml</metadata>
 <g>
  <title>Layer 1</title>
  <text xml:space="preserve" x="-89.830505" y="36.440678" id="text4733" font-family="TSS Symbols" fill="#000000" font-weight="500" font-style="normal" font-size="40px"/>
  <g id="svg_15">
   <g id="svg_14" transform="matrix(0.002712673481760755,0,0,0.002712673481760755,0,0) ">
    <title>Layer 1</title>
    <metadata id="svg_12">image/svg+xml</metadata>
    <rect id="svg_11" height="249.999985" width="45" y="18301.501963" x="18222.000001" stroke-width="5" fill="#000000"/>
    <rect id="svg_10" height="248.999987" width="45" y="18299.501975" x="18597.000001" stroke-width="5" fill="#000000"/>
    <rect id="svg_9" transform="rotate(90 18430,18243.501953125004) " height="238.99999" width="45" y="18124.001961" x="18407.500001" stroke-width="5" fill="#000000"/>
    <rect id="svg_8" transform="rotate(90 18434,18620.501953125004) " height="240.999992" width="45" y="18500.001954" x="18411.500001" stroke-width="5" fill="#000000"/>
   </g>
  </g>
  <!-- Created with SVG-edit - http://svg-edit.googlecode.com/ -->
  <g id="svg_34">
   <g id="svg_33" transform="matrix(0.37533045737678117,0,0,0.3706036371729344,10758.684468632884,-343.606590824543) ">
    <title transform="translate(2.664318799972534,0) ">Layer 1</title>
    <metadata transform="translate(2.664318799972534,0) " id="svg_31">image/svg+xml</metadata>
    <metadata transform="translate(2.664318799972534,0) " id="svg_30">image/svg+xml</metadata>
    <metadata transform="translate(2.664318799972534,0) " id="svg_29">image/svg+xml</metadata>
    <rect id="svg_28" height="249.999985" width="45" y="1009.482252" x="-28659.419428" stroke-width="5" fill="#000000"/>
    <rect id="svg_27" height="248.999987" width="45" y="1007.482264" x="-28284.419428" stroke-width="5" fill="#000000"/>
    <rect id="svg_26" transform="rotate(90 -28451.419921875004,951.4822387695295) " height="238.99999" width="45" y="831.98225" x="-28473.919428" stroke-width="5" fill="#000000"/>
    <rect id="svg_25" transform="rotate(90 -28447.419921875004,1328.482299804686) " height="240.999992" width="45" y="1207.982243" x="-28469.919428" stroke-width="5" fill="#000000"/>
   </g>
  </g>
 </g>
</svg>