<?xml version="1.0" encoding="UTF-8" standalone="no"?>
<!-- Created with Inkscape (http://www.inkscape.org/) -->

<svg
   xmlns:dc="http://purl.org/dc/elements/1.1/"
   xmlns:cc="http://creativecommons.org/ns#"
   xmlns:rdf="http://www.w3.org/1999/02/22-rdf-syntax-ns#"
   xmlns:svg="http://www.w3.org/2000/svg"
   xmlns="http://www.w3.org/2000/svg"
   xmlns:xlink="http://www.w3.org/1999/xlink"
   xmlns:sodipodi="http://sodipodi.sourceforge.net/DTD/sodipodi-0.dtd"
   xmlns:inkscape="http://www.inkscape.org/namespaces/inkscape"
   width="95.465683"
   height="103.23265"
   id="svg3191"
   version="1.1"
   inkscape:version="0.48.5 r10040"
   sodipodi:docname="New document 2">
  <defs
     id="defs3193">
    <radialGradient
       gradientUnits="userSpaceOnUse"
       gradientTransform="matrix(0.01379197,-0.30618173,0.20565967,0.00926297,-51.526043,370.75471)"
       r="196.5676"
       fy="738.90771"
       fx="222.56985"
       cy="738.90771"
       cx="222.56985"
       id="radialGradient3771-6"
       xlink:href="#linearGradient3765-2"
       inkscape:collect="always" />
    <linearGradient
       id="linearGradient3765-2"
       inkscape:collect="always">
      <stop
         id="stop3767-6"
         offset="0"
         style="stop-color:#000000;stop-opacity:1;" />
      <stop
         id="stop3769-8"
         offset="1"
         style="stop-color:#ffffff;stop-opacity:1" />
    </linearGradient>
    <filter
       color-interpolation-filters="sRGB"
       height="1.2408241"
       y="-0.12041206"
       width="1.2411393"
       x="-0.12056967"
       id="filter3819-1"
       inkscape:collect="always">
      <feGaussianBlur
         id="feGaussianBlur3821-5"
         stdDeviation="21.046819"
         inkscape:collect="always" />
    </filter>
    <filter
       id="filter3891"
       inkscape:collect="always"
       color-interpolation-filters="sRGB">
      <feGaussianBlur
         id="feGaussianBlur3893"
         stdDeviation="9.3348969"
         inkscape:collect="always" />
    </filter>
  </defs>
  <sodipodi:namedview
     id="base"
     pagecolor="#ffffff"
     bordercolor="#666666"
     borderopacity="1.0"
     inkscape:pageopacity="0.0"
     inkscape:pageshadow="2"
     inkscape:zoom="0.35"
     inkscape:cx="305.58998"
     inkscape:cy="-202.66939"
     inkscape:document-units="px"
     inkscape:current-layer="layer1"
     showgrid="false"
     fit-margin-top="0"
     fit-margin-left="0"
     fit-margin-right="0"
     fit-margin-bottom="0"
     inkscape:window-width="1317"
     inkscape:window-height="744"
     inkscape:window-x="49"
     inkscape:window-y="24"
     inkscape:window-maximized="1" />
  <metadata
     id="metadata3196">
    <rdf:RDF>
      <cc:Work
         rdf:about="">
        <dc:format>image/svg+xml</dc:format>
        <dc:type
           rdf:resource="http://purl.org/dc/dcmitype/StillImage" />
        <dc:title></dc:title>
      </cc:Work>
    </rdf:RDF>
  </metadata>
  <g
     inkscape:label="Layer 1"
     inkscape:groupmode="layer"
     id="layer1"
     transform="translate(-69.410017,-226.46014)">
    <path
       sodipodi:type="inkscape:offset"
       inkscape:radius="13.169814"
       inkscape:original="M 218.0625 359.46875 C 214.71893 359.508 210.9334 360.34988 206.59375 362.125 C 203.70064 363.30842 201.25863 364.63301 199.25 366.0625 C 169.12045 387.50469 232.20628 435.24291 198.90625 468.25 C 163.38622 503.45756 112.03039 428.91079 92.6875 475.03125 C 73.344619 521.15173 162.50221 505.48804 162.28125 555.5 C 162.0603 605.51196 73.065381 589.08541 92 635.375 C 110.93461 681.66458 162.91744 607.57372 198.125 643.09375 C 233.33256 678.61378 158.75453 729.93836 204.875 749.28125 C 250.99547 768.62413 235.36305 679.4353 285.375 679.65625 C 335.38697 679.87721 318.96042 768.93462 365.25 750 C 411.53958 731.06539 337.41747 679.08255 372.9375 643.875 C 408.45754 608.66744 459.78211 683.21421 479.125 637.09375 C 498.46788 590.97328 409.31029 606.6057 409.53125 556.59375 C 409.7522 506.58178 498.77836 523.00833 479.84375 476.71875 C 460.90913 430.42918 408.92631 504.55128 373.71875 469.03125 C 338.5112 433.5112 413.08922 382.18664 366.96875 362.84375 C 320.84828 343.50086 336.48071 432.65846 286.46875 432.4375 C 241.14541 432.23726 250.38364 359.08932 218.0625 359.46875 z M 288.71875 491.125 C 307.43033 491.94401 325.65417 500.81816 337.8125 516.9375 C 359.4273 545.59411 353.71911 586.3227 325.0625 607.9375 C 296.40589 629.5523 255.64605 623.87535 234.03125 595.21875 C 212.41645 566.56214 218.12464 525.8023 246.78125 504.1875 C 259.31852 494.73102 274.1653 490.48799 288.71875 491.125 z "
       style="fill:#4d4d4d;fill-opacity:1;fill-rule:nonzero;stroke:none;filter:url(#filter3891)"
       id="path3865"
       d="m 217.90625,346.3125 c -5.43714,0.0638 -10.83938,1.38624 -16.3125,3.625 -3.6768,1.50399 -6.98303,3.28139 -9.96875,5.40625 -11.18217,7.95798 -15.07467,22.07208 -13.5,32.96875 1.57467,10.89667 6.15567,20.40751 10,29.59375 3.84433,9.18624 6.99555,17.87488 7.53125,24.53125 0.5357,6.65637 -0.31014,10.79796 -6.03125,16.46875 -6.10276,6.04908 -10.49592,6.67987 -17.875,5.71875 -7.37908,-0.96112 -16.87865,-4.91541 -26.8125,-9.1875 -9.93385,-4.27209 -20.18748,-9.22822 -32.5625,-9.15625 -12.375018,0.072 -25.714731,9.04245 -31.84375,23.65625 -3.064254,7.3063 -4.446509,14.59778 -3.4375,21.625 1.009009,7.02722 4.594525,13.21928 8.90625,17.65625 8.62345,8.87394 19.33589,12.69587 29.34375,16.78125 10.00786,4.08538 19.45834,8.10271 25.3125,12.6875 5.85416,4.58479 8.50672,8.15689 8.46875,16.75 -0.038,8.59403 -2.7315,12.15258 -8.625,16.6875 -5.8935,4.53492 -15.36512,8.46882 -25.40625,12.46875 -10.04113,3.99993 -20.802062,7.76223 -29.5,16.5625 -8.697938,8.80027 -11.780239,24.55298 -5.78125,39.21875 5.999199,14.66628 19.252402,23.725 31.625,23.90625 12.3726,0.18125 22.65754,-4.69076 32.625,-8.875 9.96746,-4.18424 19.49131,-8.0105 26.875,-8.90625 7.38369,-0.89575 11.79404,-0.2284 17.84375,5.875 6.04907,6.10276 6.68174,10.50016 5.71875,17.875 -0.96299,7.37484 -4.91155,16.85152 -9.1875,26.78125 -4.27595,9.92973 -9.22376,20.18827 -9.15625,32.5625 0.0337,6.18712 1.82625,13.12333 6.03125,18.84375 4.205,5.72042 10.28719,9.93563 17.59375,13 7.30712,3.0646 14.59685,4.4479 21.625,3.4375 7.02815,-1.0104 13.21861,-4.59381 17.65625,-8.90625 8.87528,-8.62488 12.69192,-19.33194 16.78125,-29.34375 4.08933,-10.01181 8.13038,-19.48561 12.71875,-25.34375 4.58837,-5.85814 8.15827,-8.50671 16.75,-8.46875 8.59129,0.038 12.15155,2.72589 16.6875,8.625 4.53595,5.89911 8.46891,15.38873 12.46875,25.4375 3.99984,10.04877 7.7335,20.79559 16.53125,29.5 4.39888,4.3522 10.57456,7.98947 17.59375,9.0625 7.01919,1.07303 14.32219,-0.25002 21.65625,-3.25 7.33338,-2.9997 13.46338,-7.16064 17.71875,-12.84375 4.25537,-5.68311 6.09911,-12.59464 6.1875,-18.78125 0.17677,-12.37322 -4.68689,-22.65772 -8.875,-32.625 -4.18811,-9.96728 -8.03967,-19.49179 -8.9375,-26.875 -0.89783,-7.38321 -0.22772,-11.79472 5.875,-17.84375 6.10345,-6.04976 10.4997,-6.67966 17.875,-5.71875 7.3753,0.96091 16.8826,4.91541 26.8125,9.1875 9.9299,4.27209 20.15761,9.22824 32.53125,9.15625 12.37364,-0.072 25.71522,-9.04361 31.84375,-23.65625 6.12871,-14.61308 3.15287,-30.40472 -5.46875,-39.28125 -8.62162,-8.87653 -19.33576,-12.69187 -29.34375,-16.78125 -10.00799,-4.08938 -19.45715,-8.13089 -25.3125,-12.71875 -5.85535,-4.58786 -8.50672,-8.15689 -8.46875,-16.75 0.038,-8.59266 2.72869,-12.15207 8.625,-16.6875 5.89631,-4.53543 15.39255,-8.46886 25.4375,-12.46875 10.04495,-3.99989 20.79883,-7.73224 29.5,-16.53125 4.35059,-4.39951 7.95982,-10.57536 9.03125,-17.59375 1.07143,-7.01839 -0.25027,-14.32278 -3.25,-21.65625 -2.9997,-7.33338 -7.16064,-13.46338 -12.84375,-17.71875 -5.68311,-4.25537 -12.59464,-6.09911 -18.78125,-6.1875 -12.37322,-0.17677 -22.65772,4.68689 -32.625,8.875 -9.96728,4.18811 -19.49179,8.03967 -26.875,8.9375 -7.38321,0.89783 -11.79472,0.22772 -17.84375,-5.875 -6.04907,-6.10276 -6.68174,-10.50016 -5.71875,-17.875 0.96299,-7.37484 4.91155,-16.85152 9.1875,-26.78125 4.27595,-9.92973 9.22376,-20.18827 9.15625,-32.5625 -0.0338,-6.18712 -1.82625,-13.12333 -6.03125,-18.84375 -4.205,-5.72042 -10.28719,-9.93563 -17.59375,-13 -14.61308,-6.12872 -30.40472,-3.15287 -39.28125,5.46875 C 323.90472,364.77787 320.08938,375.49201 316,385.5 c -4.08938,10.00799 -8.13089,19.45715 -12.71875,25.3125 -4.58786,5.85535 -8.15689,8.50672 -16.75,8.46875 -7.78647,-0.0344 -11.24708,-2.30336 -15.40625,-7.0625 -4.15917,-4.75914 -7.95694,-12.61066 -11.53125,-21.4375 -3.57431,-8.82684 -6.83801,-18.43345 -12.5,-27.21875 -5.66199,-8.7853 -16.14804,-17.40308 -29.1875,-17.25 z m 70.25,157.96875 c 14.93278,0.65361 29.40842,7.67022 39.15625,20.59375 17.331,22.9772 12.79055,55.23086 -10.1875,72.5625 -22.9784,17.3319 -55.26856,12.81325 -72.59375,-10.15625 -17.32823,-22.97353 -12.78568,-55.26579 10.1875,-72.59375 10.05866,-7.58694 21.82739,-10.91443 33.4375,-10.40625 z"
       transform="matrix(0.20585367,0,0,0.20585367,58.23254,159.78275)" />
    <path
       sodipodi:type="inkscape:offset"
       inkscape:radius="13.169814"
       inkscape:original="M 218.0625 359.46875 C 214.71893 359.508 210.9334 360.34988 206.59375 362.125 C 203.70064 363.30842 201.25863 364.63301 199.25 366.0625 C 169.12045 387.50469 232.20628 435.24291 198.90625 468.25 C 163.38622 503.45756 112.03039 428.91079 92.6875 475.03125 C 73.344619 521.15173 162.50221 505.48804 162.28125 555.5 C 162.0603 605.51196 73.065381 589.08541 92 635.375 C 110.93461 681.66458 162.91744 607.57372 198.125 643.09375 C 233.33256 678.61378 158.75453 729.93836 204.875 749.28125 C 250.99547 768.62413 235.36305 679.4353 285.375 679.65625 C 335.38697 679.87721 318.96042 768.93462 365.25 750 C 411.53958 731.06539 337.41747 679.08255 372.9375 643.875 C 408.45754 608.66744 459.78211 683.21421 479.125 637.09375 C 498.46788 590.97328 409.31029 606.6057 409.53125 556.59375 C 409.7522 506.58178 498.77836 523.00833 479.84375 476.71875 C 460.90913 430.42918 408.92631 504.55128 373.71875 469.03125 C 338.5112 433.5112 413.08922 382.18664 366.96875 362.84375 C 320.84828 343.50086 336.48071 432.65846 286.46875 432.4375 C 241.14541 432.23726 250.38364 359.08932 218.0625 359.46875 z M 288.71875 491.125 C 307.43033 491.94401 325.65417 500.81816 337.8125 516.9375 C 359.4273 545.59411 353.71911 586.3227 325.0625 607.9375 C 296.40589 629.5523 255.64605 623.87535 234.03125 595.21875 C 212.41645 566.56214 218.12464 525.8023 246.78125 504.1875 C 259.31852 494.73102 274.1653 490.48799 288.71875 491.125 z "
       style="opacity:0.48559672;fill:#4d4d4d;fill-opacity:1;fill-rule:nonzero;stroke:none;filter:url(#filter3819-1)"
       id="path3777"
       d="m 217.90625,346.3125 c -5.43714,0.0638 -10.83938,1.38624 -16.3125,3.625 -3.6768,1.50399 -6.98303,3.28139 -9.96875,5.40625 -11.18217,7.95798 -15.07467,22.07208 -13.5,32.96875 1.57467,10.89667 6.15567,20.40751 10,29.59375 3.84433,9.18624 6.99555,17.87488 7.53125,24.53125 0.5357,6.65637 -0.31014,10.79796 -6.03125,16.46875 -6.10276,6.04908 -10.49592,6.67987 -17.875,5.71875 -7.37908,-0.96112 -16.87865,-4.91541 -26.8125,-9.1875 -9.93385,-4.27209 -20.18748,-9.22822 -32.5625,-9.15625 -12.375018,0.072 -25.714731,9.04245 -31.84375,23.65625 -3.064254,7.3063 -4.446509,14.59778 -3.4375,21.625 1.009009,7.02722 4.594525,13.21928 8.90625,17.65625 8.62345,8.87394 19.33589,12.69587 29.34375,16.78125 10.00786,4.08538 19.45834,8.10271 25.3125,12.6875 5.85416,4.58479 8.50672,8.15689 8.46875,16.75 -0.038,8.59403 -2.7315,12.15258 -8.625,16.6875 -5.8935,4.53492 -15.36512,8.46882 -25.40625,12.46875 -10.04113,3.99993 -20.802062,7.76223 -29.5,16.5625 -8.697938,8.80027 -11.780239,24.55298 -5.78125,39.21875 5.999199,14.66628 19.252402,23.725 31.625,23.90625 12.3726,0.18125 22.65754,-4.69076 32.625,-8.875 9.96746,-4.18424 19.49131,-8.0105 26.875,-8.90625 7.38369,-0.89575 11.79404,-0.2284 17.84375,5.875 6.04907,6.10276 6.68174,10.50016 5.71875,17.875 -0.96299,7.37484 -4.91155,16.85152 -9.1875,26.78125 -4.27595,9.92973 -9.22376,20.18827 -9.15625,32.5625 0.0337,6.18712 1.82625,13.12333 6.03125,18.84375 4.205,5.72042 10.28719,9.93563 17.59375,13 7.30712,3.0646 14.59685,4.4479 21.625,3.4375 7.02815,-1.0104 13.21861,-4.59381 17.65625,-8.90625 8.87528,-8.62488 12.69192,-19.33194 16.78125,-29.34375 4.08933,-10.01181 8.13038,-19.48561 12.71875,-25.34375 4.58837,-5.85814 8.15827,-8.50671 16.75,-8.46875 8.59129,0.038 12.15155,2.72589 16.6875,8.625 4.53595,5.89911 8.46891,15.38873 12.46875,25.4375 3.99984,10.04877 7.7335,20.79559 16.53125,29.5 4.39888,4.3522 10.57456,7.98947 17.59375,9.0625 7.01919,1.07303 14.32219,-0.25002 21.65625,-3.25 7.33338,-2.9997 13.46338,-7.16064 17.71875,-12.84375 4.25537,-5.68311 6.09911,-12.59464 6.1875,-18.78125 0.17677,-12.37322 -4.68689,-22.65772 -8.875,-32.625 -4.18811,-9.96728 -8.03967,-19.49179 -8.9375,-26.875 -0.89783,-7.38321 -0.22772,-11.79472 5.875,-17.84375 6.10345,-6.04976 10.4997,-6.67966 17.875,-5.71875 7.3753,0.96091 16.8826,4.91541 26.8125,9.1875 9.9299,4.27209 20.15761,9.22824 32.53125,9.15625 12.37364,-0.072 25.71522,-9.04361 31.84375,-23.65625 6.12871,-14.61308 3.15287,-30.40472 -5.46875,-39.28125 -8.62162,-8.87653 -19.33576,-12.69187 -29.34375,-16.78125 -10.00799,-4.08938 -19.45715,-8.13089 -25.3125,-12.71875 -5.85535,-4.58786 -8.50672,-8.15689 -8.46875,-16.75 0.038,-8.59266 2.72869,-12.15207 8.625,-16.6875 5.89631,-4.53543 15.39255,-8.46886 25.4375,-12.46875 10.04495,-3.99989 20.79883,-7.73224 29.5,-16.53125 4.35059,-4.39951 7.95982,-10.57536 9.03125,-17.59375 1.07143,-7.01839 -0.25027,-14.32278 -3.25,-21.65625 -2.9997,-7.33338 -7.16064,-13.46338 -12.84375,-17.71875 -5.68311,-4.25537 -12.59464,-6.09911 -18.78125,-6.1875 -12.37322,-0.17677 -22.65772,4.68689 -32.625,8.875 -9.96728,4.18811 -19.49179,8.03967 -26.875,8.9375 -7.38321,0.89783 -11.79472,0.22772 -17.84375,-5.875 -6.04907,-6.10276 -6.68174,-10.50016 -5.71875,-17.875 0.96299,-7.37484 4.91155,-16.85152 9.1875,-26.78125 4.27595,-9.92973 9.22376,-20.18827 9.15625,-32.5625 -0.0338,-6.18712 -1.82625,-13.12333 -6.03125,-18.84375 -4.205,-5.72042 -10.28719,-9.93563 -17.59375,-13 -14.61308,-6.12872 -30.40472,-3.15287 -39.28125,5.46875 C 323.90472,364.77787 320.08938,375.49201 316,385.5 c -4.08938,10.00799 -8.13089,19.45715 -12.71875,25.3125 -4.58786,5.85535 -8.15689,8.50672 -16.75,8.46875 -7.78647,-0.0344 -11.24708,-2.30336 -15.40625,-7.0625 -4.15917,-4.75914 -7.95694,-12.61066 -11.53125,-21.4375 -3.57431,-8.82684 -6.83801,-18.43345 -12.5,-27.21875 -5.66199,-8.7853 -16.14804,-17.40308 -29.1875,-17.25 z m 70.25,157.96875 c 14.93278,0.65361 29.40842,7.67022 39.15625,20.59375 17.331,22.9772 12.79055,55.23086 -10.1875,72.5625 -22.9784,17.3319 -55.26856,12.81325 -72.59375,-10.15625 -17.32823,-22.97353 -12.78568,-55.26579 10.1875,-72.59375 10.05866,-7.58694 21.82739,-10.91443 33.4375,-10.40625 z"
       transform="matrix(0.17033201,0,0,0.02676342,67.464899,307.84531)" />
    <path
       transform="matrix(0.20585367,0,0,0.20585367,58.23254,159.78275)"
       d="m 217.90625,346.3125 c -5.43714,0.0638 -10.83938,1.38624 -16.3125,3.625 -3.6768,1.50399 -6.98303,3.28139 -9.96875,5.40625 -11.18217,7.95798 -15.07467,22.07208 -13.5,32.96875 1.57467,10.89667 6.15567,20.40751 10,29.59375 3.84433,9.18624 6.99555,17.87488 7.53125,24.53125 0.5357,6.65637 -0.31014,10.79796 -6.03125,16.46875 -6.10276,6.04908 -10.49592,6.67987 -17.875,5.71875 -7.37908,-0.96112 -16.87865,-4.91541 -26.8125,-9.1875 -9.93385,-4.27209 -20.18748,-9.22822 -32.5625,-9.15625 -12.375018,0.072 -25.714731,9.04245 -31.84375,23.65625 -3.064254,7.3063 -4.446509,14.59778 -3.4375,21.625 1.009009,7.02722 4.594525,13.21928 8.90625,17.65625 8.62345,8.87394 19.33589,12.69587 29.34375,16.78125 10.00786,4.08538 19.45834,8.10271 25.3125,12.6875 5.85416,4.58479 8.50672,8.15689 8.46875,16.75 -0.038,8.59403 -2.7315,12.15258 -8.625,16.6875 -5.8935,4.53492 -15.36512,8.46882 -25.40625,12.46875 -10.04113,3.99993 -20.802062,7.76223 -29.5,16.5625 -8.697938,8.80027 -11.780239,24.55298 -5.78125,39.21875 5.999199,14.66628 19.252402,23.725 31.625,23.90625 12.3726,0.18125 22.65754,-4.69076 32.625,-8.875 9.96746,-4.18424 19.49131,-8.0105 26.875,-8.90625 7.38369,-0.89575 11.79404,-0.2284 17.84375,5.875 6.04907,6.10276 6.68174,10.50016 5.71875,17.875 -0.96299,7.37484 -4.91155,16.85152 -9.1875,26.78125 -4.27595,9.92973 -9.22376,20.18827 -9.15625,32.5625 0.0337,6.18712 1.82625,13.12333 6.03125,18.84375 4.205,5.72042 10.28719,9.93563 17.59375,13 7.30712,3.0646 14.59685,4.4479 21.625,3.4375 7.02815,-1.0104 13.21861,-4.59381 17.65625,-8.90625 8.87528,-8.62488 12.69192,-19.33194 16.78125,-29.34375 4.08933,-10.01181 8.13038,-19.48561 12.71875,-25.34375 4.58837,-5.85814 8.15827,-8.50671 16.75,-8.46875 8.59129,0.038 12.15155,2.72589 16.6875,8.625 4.53595,5.89911 8.46891,15.38873 12.46875,25.4375 3.99984,10.04877 7.7335,20.79559 16.53125,29.5 4.39888,4.3522 10.57456,7.98947 17.59375,9.0625 7.01919,1.07303 14.32219,-0.25002 21.65625,-3.25 7.33338,-2.9997 13.46338,-7.16064 17.71875,-12.84375 4.25537,-5.68311 6.09911,-12.59464 6.1875,-18.78125 0.17677,-12.37322 -4.68689,-22.65772 -8.875,-32.625 -4.18811,-9.96728 -8.03967,-19.49179 -8.9375,-26.875 -0.89783,-7.38321 -0.22772,-11.79472 5.875,-17.84375 6.10345,-6.04976 10.4997,-6.67966 17.875,-5.71875 7.3753,0.96091 16.8826,4.91541 26.8125,9.1875 9.9299,4.27209 20.15761,9.22824 32.53125,9.15625 12.37364,-0.072 25.71522,-9.04361 31.84375,-23.65625 6.12871,-14.61308 3.15287,-30.40472 -5.46875,-39.28125 -8.62162,-8.87653 -19.33576,-12.69187 -29.34375,-16.78125 -10.00799,-4.08938 -19.45715,-8.13089 -25.3125,-12.71875 -5.85535,-4.58786 -8.50672,-8.15689 -8.46875,-16.75 0.038,-8.59266 2.72869,-12.15207 8.625,-16.6875 5.89631,-4.53543 15.39255,-8.46886 25.4375,-12.46875 10.04495,-3.99989 20.79883,-7.73224 29.5,-16.53125 4.35059,-4.39951 7.95982,-10.57536 9.03125,-17.59375 1.07143,-7.01839 -0.25027,-14.32278 -3.25,-21.65625 -2.9997,-7.33338 -7.16064,-13.46338 -12.84375,-17.71875 -5.68311,-4.25537 -12.59464,-6.09911 -18.78125,-6.1875 -12.37322,-0.17677 -22.65772,4.68689 -32.625,8.875 -9.96728,4.18811 -19.49179,8.03967 -26.875,8.9375 -7.38321,0.89783 -11.79472,0.22772 -17.84375,-5.875 -6.04907,-6.10276 -6.68174,-10.50016 -5.71875,-17.875 0.96299,-7.37484 4.91155,-16.85152 9.1875,-26.78125 4.27595,-9.92973 9.22376,-20.18827 9.15625,-32.5625 -0.0338,-6.18712 -1.82625,-13.12333 -6.03125,-18.84375 -4.205,-5.72042 -10.28719,-9.93563 -17.59375,-13 -14.61308,-6.12872 -30.40472,-3.15287 -39.28125,5.46875 C 323.90472,364.77787 320.08938,375.49201 316,385.5 c -4.08938,10.00799 -8.13089,19.45715 -12.71875,25.3125 -4.58786,5.85535 -8.15689,8.50672 -16.75,8.46875 -7.78647,-0.0344 -11.24708,-2.30336 -15.40625,-7.0625 -4.15917,-4.75914 -7.95694,-12.61066 -11.53125,-21.4375 -3.57431,-8.82684 -6.83801,-18.43345 -12.5,-27.21875 -5.66199,-8.7853 -16.14804,-17.40308 -29.1875,-17.25 z m 70.25,157.96875 c 14.93278,0.65361 29.40842,7.67022 39.15625,20.59375 17.331,22.9772 12.79055,55.23086 -10.1875,72.5625 -22.9784,17.3319 -55.26856,12.81325 -72.59375,-10.15625 -17.32823,-22.97353 -12.78568,-55.26579 10.1875,-72.59375 10.05866,-7.58694 21.82739,-10.91443 33.4375,-10.40625 z"
       id="path2995"
       style="fill:#4d4d4d;fill-opacity:1;fill-rule:nonzero;stroke:none"
       inkscape:original="M 218.0625 359.46875 C 214.71893 359.508 210.9334 360.34988 206.59375 362.125 C 203.70064 363.30842 201.25863 364.63301 199.25 366.0625 C 169.12045 387.50469 232.20628 435.24291 198.90625 468.25 C 163.38622 503.45756 112.03039 428.91079 92.6875 475.03125 C 73.344619 521.15173 162.50221 505.48804 162.28125 555.5 C 162.0603 605.51196 73.065381 589.08541 92 635.375 C 110.93461 681.66458 162.91744 607.57372 198.125 643.09375 C 233.33256 678.61378 158.75453 729.93836 204.875 749.28125 C 250.99547 768.62413 235.36305 679.4353 285.375 679.65625 C 335.38697 679.87721 318.96042 768.93462 365.25 750 C 411.53958 731.06539 337.41747 679.08255 372.9375 643.875 C 408.45754 608.66744 459.78211 683.21421 479.125 637.09375 C 498.46788 590.97328 409.31029 606.6057 409.53125 556.59375 C 409.7522 506.58178 498.77836 523.00833 479.84375 476.71875 C 460.90913 430.42918 408.92631 504.55128 373.71875 469.03125 C 338.5112 433.5112 413.08922 382.18664 366.96875 362.84375 C 320.84828 343.50086 336.48071 432.65846 286.46875 432.4375 C 241.14541 432.23726 250.38364 359.08932 218.0625 359.46875 z M 288.71875 491.125 C 307.43033 491.94401 325.65417 500.81816 337.8125 516.9375 C 359.4273 545.59411 353.71911 586.3227 325.0625 607.9375 C 296.40589 629.5523 255.64605 623.87535 234.03125 595.21875 C 212.41645 566.56214 218.12464 525.8023 246.78125 504.1875 C 259.31852 494.73102 274.1653 490.48799 288.71875 491.125 z "
       inkscape:radius="13.169814"
       sodipodi:type="inkscape:offset" />
    <path
       inkscape:connector-curvature="0"
       id="path2987"
       d="m 98.70778,232.69713 c -6.20229,4.41395 6.7802,14.24264 -0.0748,21.03727 -7.31193,7.24759 -17.87997,-8.09821 -21.861771,1.39586 -3.98181,9.49408 14.372671,6.27125 14.327181,16.5664 -0.0455,10.29505 -18.369081,6.91355 -14.471321,16.44245 3.897761,9.5289 14.600851,-5.7273 21.848461,1.5846 7.24761,7.312 -8.10421,17.8792 1.38985,21.8609 9.49408,3.9818 6.27468,-14.3753 16.56983,-14.3297 10.29515,0.045 6.91278,18.375 16.44167,14.4773 9.52887,-3.8978 -5.72734,-14.6008 1.58459,-21.8484 7.31192,-7.2476 17.87655,8.1007 21.85834,-1.3933 3.98181,-9.4941 -14.36926,-6.2738 -14.32375,-16.56898 0.0454,-10.29514 18.36909,-6.91363 14.47131,-16.44251 -3.89775,-9.52887 -14.60084,5.72735 -21.84844,-1.58458 -7.24761,-7.31193 8.1042,-17.87913 -1.38987,-21.86094 -9.49408,-3.9818 -6.27468,14.37525 -16.56983,14.32976 -10.29514,-0.0455 -6.91278,-18.37508 -16.44165,-14.47732 -0.59556,0.24362 -1.09639,0.51693 -1.50987,0.81119 z m 9.78382,28.43185 c 5.89907,-4.44948 14.2893,-3.27421 18.73879,2.62484 4.44948,5.89908 3.27164,14.28579 -2.62743,18.73539 -5.89907,4.4494 -14.28671,3.2777 -18.73621,-2.6215 -4.44948,-5.89906 -3.27421,-14.28924 2.62485,-18.73873 z"
       style="fill:#b3b3b3;fill-opacity:1;fill-rule:nonzero;stroke:url(#radialGradient3771-6);stroke-width:1.81799996;stroke-linecap:butt;stroke-linejoin:bevel;stroke-miterlimit:4;stroke-opacity:1;stroke-dasharray:none;stroke-dashoffset:0" />
  </g>
</svg>
