<?xml version="1.0" encoding="UTF-8" standalone="no"?>
<!-- Created with Inkscape (http://www.inkscape.org/) -->

<svg
   xmlns:dc="http://purl.org/dc/elements/1.1/"
   xmlns:cc="http://creativecommons.org/ns#"
   xmlns:rdf="http://www.w3.org/1999/02/22-rdf-syntax-ns#"
   xmlns:svg="http://www.w3.org/2000/svg"
   xmlns="http://www.w3.org/2000/svg"
   xmlns:sodipodi="http://sodipodi.sourceforge.net/DTD/sodipodi-0.dtd"
   xmlns:inkscape="http://www.inkscape.org/namespaces/inkscape"
   viewBox="0 0 100 100"
   width="100"
   height="100"
   id="svg2"
   version="1.1"
   inkscape:version="0.48.3.1 r9886"
   sodipodi:docname="New document 1">
  <defs
     id="defs4" />
  <sodipodi:namedview
     id="base"
     pagecolor="#ffffff"
     bordercolor="#666666"
     borderopacity="1.0"
     inkscape:pageopacity="0.0"
     inkscape:pageshadow="2"
     inkscape:zoom="3.4757046"
     inkscape:cx="43.612844"
     inkscape:cy="42.15007"
     inkscape:document-units="px"
     inkscape:current-layer="g3769"
     showgrid="false"
     inkscape:window-width="1317"
     inkscape:window-height="744"
     inkscape:window-x="49"
     inkscape:window-y="24"
     inkscape:window-maximized="1" />
  <metadata
     id="metadata7">
    <rdf:RDF>
      <cc:Work
         rdf:about="">
        <dc:format>image/svg+xml</dc:format>
        <dc:type
           rdf:resource="http://purl.org/dc/dcmitype/StillImage" />
        <dc:title></dc:title>
      </cc:Work>
    </rdf:RDF>
  </metadata>
  <g
     inkscape:label="Layer 1"
     inkscape:groupmode="layer"
     id="layer1"
     transform="translate(0,-952.36218)">
    <rect
       style="fill:#ff0000;fill-opacity:1;fill-rule:nonzero;stroke:#000000;stroke-width:1.2609998;stroke-miterlimit:4;stroke-dasharray:none"
       id="rect2985"
       width="98.738998"
       height="48.680157"
       x="0.96887571"
       y="-1001.8347"
       transform="scale(1,-1)" />
    <rect
       y="-1051.7556"
       x="0.9878034"
       height="48.680157"
       width="98.738998"
       id="rect2987"
       style="fill:#00ff00;fill-opacity:1;fill-rule:nonzero;stroke:#000000;stroke-width:1.2609998;stroke-miterlimit:4;stroke-dasharray:none"
       transform="scale(1,-1)" />
    <g
       id="g3769"
       transform="matrix(0.16067207,0,0,-0.16067207,-38.031263,1083.1684)">
      <g
         id="g3814"
         transform="translate(-12.182852,30.119635)">
        <path
           transform="matrix(0.82260518,0,0,0.82260518,233.10146,104.58317)"
           d="m 328.57143,258.07648 c 0,53.65052 -44.13193,97.14286 -98.57143,97.14286 -54.4395,0 -98.57143,-43.49234 -98.57143,-97.14286 0,-53.65052 44.13193,-97.14286 98.57143,-97.14286 54.4395,0 98.57143,43.49234 98.57143,97.14286 z"
           sodipodi:ry="97.14286"
           sodipodi:rx="98.571426"
           sodipodi:cy="258.07648"
           sodipodi:cx="230"
           id="path3763"
           style="fill:none;stroke:#000000;stroke-width:31.20000076;stroke-miterlimit:4;stroke-dasharray:none"
           sodipodi:type="arc" />
        <path
           sodipodi:type="arc"
           style="fill:none;stroke:#000000;stroke-width:31.20000076;stroke-miterlimit:4;stroke-dasharray:none"
           id="path3808"
           sodipodi:cx="230"
           sodipodi:cy="258.07648"
           sodipodi:rx="98.571426"
           sodipodi:ry="97.14286"
           d="m 328.57143,258.07648 c 0,53.65052 -44.13193,97.14286 -98.57143,97.14286 -54.4395,0 -98.57143,-43.49234 -98.57143,-97.14286 0,-53.65052 44.13193,-97.14286 98.57143,-97.14286 54.4395,0 98.57143,43.49234 98.57143,97.14286 z"
           transform="matrix(0.42118372,0,0,0.42118372,325.42839,208.1806)" />
        <path
           sodipodi:type="arc"
           style="fill:none;stroke:#000000;stroke-width:31.20000076;stroke-miterlimit:4;stroke-dasharray:none"
           id="path3810"
           sodipodi:cx="230"
           sodipodi:cy="258.07648"
           sodipodi:rx="98.571426"
           sodipodi:ry="97.14286"
           d="m 328.57143,258.07648 c 0,53.65052 -44.13193,97.14286 -98.57143,97.14286 -54.4395,0 -98.57143,-43.49234 -98.57143,-97.14286 0,-53.65052 44.13193,-97.14286 98.57143,-97.14286 54.4395,0 98.57143,43.49234 98.57143,97.14286 z"
           transform="matrix(0.82260518,0,0,0.82260518,513.10146,104.58317)" />
        <path
           transform="matrix(0.42118372,0,0,0.42118372,605.42839,208.1806)"
           d="m 328.57143,258.07648 c 0,53.65052 -44.13193,97.14286 -98.57143,97.14286 -54.4395,0 -98.57143,-43.49234 -98.57143,-97.14286 0,-53.65052 44.13193,-97.14286 98.57143,-97.14286 54.4395,0 98.57143,43.49234 98.57143,97.14286 z"
           sodipodi:ry="97.14286"
           sodipodi:rx="98.571426"
           sodipodi:cy="258.07648"
           sodipodi:cx="230"
           id="path3812"
           style="fill:none;stroke:#000000;stroke-width:31.20000076;stroke-miterlimit:4;stroke-dasharray:none"
           sodipodi:type="arc" />
      </g>
      <g
         transform="translate(-12.300655,340.82222)"
         id="g3820">
        <path
           sodipodi:type="arc"
           style="fill:none;stroke:#000000;stroke-width:31.20000076;stroke-miterlimit:4;stroke-dasharray:none"
           id="path3822"
           sodipodi:cx="230"
           sodipodi:cy="258.07648"
           sodipodi:rx="98.571426"
           sodipodi:ry="97.14286"
           d="m 328.57143,258.07648 c 0,53.65052 -44.13193,97.14286 -98.57143,97.14286 -54.4395,0 -98.57143,-43.49234 -98.57143,-97.14286 0,-53.65052 44.13193,-97.14286 98.57143,-97.14286 54.4395,0 98.57143,43.49234 98.57143,97.14286 z"
           transform="matrix(0.82260518,0,0,0.82260518,233.10146,104.58317)" />
        <path
           transform="matrix(0.42118372,0,0,0.42118372,325.42839,208.1806)"
           d="m 328.57143,258.07648 c 0,53.65052 -44.13193,97.14286 -98.57143,97.14286 -54.4395,0 -98.57143,-43.49234 -98.57143,-97.14286 0,-53.65052 44.13193,-97.14286 98.57143,-97.14286 54.4395,0 98.57143,43.49234 98.57143,97.14286 z"
           sodipodi:ry="97.14286"
           sodipodi:rx="98.571426"
           sodipodi:cy="258.07648"
           sodipodi:cx="230"
           id="path3824"
           style="fill:none;stroke:#000000;stroke-width:31.20000076;stroke-miterlimit:4;stroke-dasharray:none"
           sodipodi:type="arc" />
        <path
           transform="matrix(0.82260518,0,0,0.82260518,513.10146,104.58317)"
           d="m 328.57143,258.07648 c 0,53.65052 -44.13193,97.14286 -98.57143,97.14286 -54.4395,0 -98.57143,-43.49234 -98.57143,-97.14286 0,-53.65052 44.13193,-97.14286 98.57143,-97.14286 54.4395,0 98.57143,43.49234 98.57143,97.14286 z"
           sodipodi:ry="97.14286"
           sodipodi:rx="98.571426"
           sodipodi:cy="258.07648"
           sodipodi:cx="230"
           id="path3826"
           style="fill:none;stroke:#000000;stroke-width:31.20000076;stroke-miterlimit:4;stroke-dasharray:none"
           sodipodi:type="arc" />
        <path
           sodipodi:type="arc"
           style="fill:none;stroke:#000000;stroke-width:31.20000076;stroke-miterlimit:4;stroke-dasharray:none"
           id="path3828"
           sodipodi:cx="230"
           sodipodi:cy="258.07648"
           sodipodi:rx="98.571426"
           sodipodi:ry="97.14286"
           d="m 328.57143,258.07648 c 0,53.65052 -44.13193,97.14286 -98.57143,97.14286 -54.4395,0 -98.57143,-43.49234 -98.57143,-97.14286 0,-53.65052 44.13193,-97.14286 98.57143,-97.14286 54.4395,0 98.57143,43.49234 98.57143,97.14286 z"
           transform="matrix(0.42118372,0,0,0.42118372,605.42839,208.1806)" />
      </g>
    </g>
    <g
       id="g3780"
       transform="matrix(1,0,0,-1,-2.8571428,559.95776)" />
    <g
       id="g3790"
       transform="matrix(1,0,0,-1,955.71429,574.24347)" />
    <rect
       y="1001.7831"
       x="0.9878034"
       height="2.1539888"
       width="98.738998"
       id="rect3798"
       style="fill:#000000;fill-opacity:1;fill-rule:nonzero;stroke:none" />
  </g>
</svg>
