<?xml version="1.0" encoding="UTF-8" standalone="no"?>
<!-- Created with Inkscape (http://www.inkscape.org/) -->

<svg
   xmlns:dc="http://purl.org/dc/elements/1.1/"
   xmlns:cc="http://creativecommons.org/ns#"
   xmlns:rdf="http://www.w3.org/1999/02/22-rdf-syntax-ns#"
   xmlns:svg="http://www.w3.org/2000/svg"
   xmlns="http://www.w3.org/2000/svg"
   xmlns:sodipodi="http://sodipodi.sourceforge.net/DTD/sodipodi-0.dtd"
   xmlns:inkscape="http://www.inkscape.org/namespaces/inkscape"
   id="svg4723"
   version="1.1"
   inkscape:version="0.91 r13725"
   viewBox="0 0 56.182 100.31599"
   preserveAspectRatio="none"
   width="56.181999"
   height="100.316"
   sodipodi:docname="S.svg">
  <metadata
     id="metadata4729">
    <rdf:RDF>
      <cc:Work
         rdf:about="">
        <dc:format>image/svg+xml</dc:format>
        <dc:type
           rdf:resource="http://purl.org/dc/dcmitype/StillImage" />
        <dc:title></dc:title>
      </cc:Work>
    </rdf:RDF>
  </metadata>
  <defs
     id="defs4727" />
  <sodipodi:namedview
     pagecolor="#ffffff"
     bordercolor="#666666"
     borderopacity="1"
     objecttolerance="10"
     gridtolerance="10"
     guidetolerance="10"
     inkscape:pageopacity="0"
     inkscape:pageshadow="2"
     inkscape:window-width="1920"
     inkscape:window-height="1017"
     id="namedview4725"
     showgrid="false"
     inkscape:zoom="5.6568542"
     inkscape:cx="17.121971"
     inkscape:cy="39.862715"
     inkscape:window-x="1272"
     inkscape:window-y="-8"
     inkscape:window-maximized="1"
     inkscape:current-layer="text4049"
     fit-margin-top="0"
     fit-margin-left="0"
     fit-margin-right="0"
     fit-margin-bottom="0" />
  <text
     xml:space="preserve"
     style="font-style:normal;font-variant:normal;font-weight:500;font-stretch:normal;font-size:40px;line-height:125%;font-family:'TSS Symbols';-inkscape-font-specification:'TSS Symbols Medium';letter-spacing:0px;word-spacing:0px;fill:#000000;fill-opacity:1;stroke:none"
     x="-112.04379"
     y="31.613863"
     id="text4733"
     sodipodi:linespacing="125%"><tspan
       sodipodi:role="line"
       x="-112.04379"
       y="31.613863"
       id="tspan4737" /></text>
  <!-- rect
     style="fill:#ffffff;fill-opacity:1;fill-rule:nonzero;stroke:none"
     id="rect4808"
     width="100"
     height="100"
     x="-1.317755"
     y="-0.65436798"
     ry="0" / -->
  <g
     transform="matrix(0.96287368,0,0,1.0385578,-81.49389,-163.5011)"
     style="font-style:normal;font-variant:normal;font-weight:normal;font-stretch:normal;font-size:115.48259735px;line-height:125%;font-family:UKNumberPlate;-inkscape-font-specification:UKNumberPlate;letter-spacing:0px;word-spacing:0px;display:inline;fill:#000000;fill-opacity:1;stroke:none"
     id="text3026">
    <g
       transform="matrix(0.97766734,0,0,1.0228428,980.3986,362.04052)"
       style="font-size:138.24328613px;font-family:UKNumberPlate;-inkscape-font-specification:UKNumberPlate;fill:#000000"
       id="text4049">
      <path
         style="font-style:normal;font-variant:normal;font-weight:normal;font-stretch:normal;font-size:138.24328613px;line-height:125%;font-family:UKNumberPlate;-inkscape-font-specification:UKNumberPlate;letter-spacing:0px;word-spacing:0px;display:inline;fill:#000000;fill-opacity:1;stroke:none"
         d="m -881.72063,-182.95012 -9.12363,0.0676 -0.61726,-0.0676 -0.61737,0 -0.54877,0 -0.48018,0 -0.54877,0 -0.27459,0 -0.20568,0.0676 -0.41168,0.0675 -0.41148,0.0676 -0.27439,0.0675 -0.13729,0 -0.41148,0.13512 -0.34308,0.1351 -0.20569,0.0675 -0.13729,0.13512 -0.34299,0.1351 -0.27438,0.20264 -0.20579,0.20267 -0.27439,0.27017 -0.20568,0.20266 -0.20579,0.27022 -0.34298,0.47286 -0.27459,0.47284 -0.20579,0.47286 -0.20569,0.47283 0,0.20267 -0.0691,0.20263 -0.0681,0.2702 0,0.20267 0,0.27018 0.0681,0.27018 0,0.0676 -0.1372,4.39074 0,0.60795 0,0.5404 0,0.47287 0.0691,0.47283 0.0681,0.47286 0.0691,0.40529 0.0681,0.47286 0.13719,0.40528 0.13719,0.33774 0.1372,0.33776 0.13719,0.33776 0.20579,0.27018 0.20589,0.27022 0.20579,0.2702 0.20579,0.27019 0.27438,0.20263 0.0691,0.0676 0.13709,0.13511 0.27438,0.13508 0.2059,0.20266 0.13709,0.0676 0.0691,0.0675 0.0681,0 0.20579,0.1351 0.20579,0.20264 0.13719,0 0.0681,0.13511 0.27438,0.1351 0.41158,0.20264 0.0691,0.0675 0.0681,0 0.0691,0.0676 0.20589,0.0676 0.20579,0.0675 0.20579,0.0675 0.20569,0.13511 0.20589,0 0.13719,0.0676 0.13719,0 0.0681,0.0675 0.0691,0 0.0681,0.0675 0.1373,0 0.13709,0.0675 0.0691,0 0.0681,0 0.1372,0.0676 0.0691,0 0,0.0676 0.13729,0 0.0691,0 0.0681,0 0.0691,0.0675 0.0681,0 17.83547,7.16026 0.68596,0.20264 0.68597,0.33778 0.34298,0.13508 0.34298,0.1351 0.34298,0.20265 0.41158,0.1351 0.75466,0.4053 0.34298,0.13511 0.41158,0.20264 0.41158,0.20265 0.41158,0.20264 0.41158,0.20265 0.41157,0.2702 0.41158,0.20265 0.41158,0.20264 0.82326,0.54041 0.82316,0.47286 0.34298,0.27019 0.41158,0.2702 0.68596,0.60795 0.41158,0.2702 0.34298,0.2702 0.68596,0.67549 0.61747,0.67549 0.34299,0.27021 0.34298,0.33775 0.54877,0.74305 0.27438,0.33774 0.27439,0.33775 0.27439,0.40531 0.27438,0.40529 0.20579,0.33776 0.27439,0.40528 0.48017,0.81061 0.20579,0.4053 0.20579,0.47285 0.20579,0.4053 0.13719,0.4053 0.20589,0.47284 0.13719,0.4053 0.34299,0.94571 0.13719,0.40529 0.13719,0.47285 0.0681,0.47285 0.13719,0.5404 0.1372,0.40529 0.0691,0.54041 0.0681,0.47284 0.13729,0.5404 0.0691,0.47285 0,0.5404 0.0691,0.47286 0.0681,0.5404 0,8.44372 0,0.47286 0,0.54038 0,0.54039 0,0.54041 0,0.47283 0,0.27024 0,0.27018 -0.0681,0.47285 0,0.1351 0,0.13509 0,0.27021 -0.0691,0.47286 -0.0691,0.47282 -0.0681,0.47286 -0.13729,0.5404 -0.0691,0.47286 -0.0681,0.0675 0,0.0675 0,0.0676 -0.0681,0.20264 -0.13719,0.47285 -0.0691,0.47286 -0.20569,0.47284 -0.13729,0.47286 -0.13729,0.40528 -0.20579,0.47287 -0.20569,0.40529 -0.1373,0.40529 -0.0691,0.1351 -0.0681,0.0675 -0.13719,0.20263 -0.20579,0.40532 -0.20579,0.40529 -0.13719,0.20266 -0.1372,0.20266 -0.20568,0.40529 -0.1373,0.1351 -0.13709,0.20264 -0.13729,0.20265 -0.13709,0.20265 -0.1373,0.1351 -0.13709,0.20266 -0.27438,0.33775 -0.27439,0.40529 -0.61737,0.67549 -0.34308,0.33775 -0.34298,0.33775 -0.27439,0.2702 -0.20589,0.20265 -0.13719,0.1351 -0.75446,0.6755 -0.68607,0.60796 -0.41147,0.33775 -0.0691,0.0675 -0.13719,0.0675 -0.13719,0.13507 -0.82316,0.6755 -0.20579,0.13511 -0.20579,0.1351 -0.34298,0.33775 -0.41158,0.2702 -0.41168,0.27019 -0.41158,0.20266 -0.41158,0.27018 -0.34298,0.20266 -0.41158,0.20266 -0.34298,0.20264 -0.34298,0.1351 -0.41158,0.13511 -0.34298,0.13509 -0.34298,0.1351 -0.34298,0.0675 -0.27449,0.0675 -0.34298,0.0675 -0.34298,0.0675 -0.27439,0 -0.61737,0.0675 -0.54877,0 -0.54877,0.0675 -0.48017,0 -0.20579,0.0676 -0.27439,0 -0.41158,0 -0.20579,0 -0.13729,0.0675 -0.41158,0 -19.1388,0.13508 -0.13719,0 -0.61737,-0.0675 -0.54877,-0.0676 -0.54887,-0.0675 -0.54877,-0.0675 -0.54877,-0.13507 -0.54878,-0.0676 -0.48017,-0.13509 -0.54877,-0.0675 -0.48007,-0.13498 -0.48008,-0.13497 -0.48017,-0.1351 -0.48028,-0.1351 -0.48017,-0.20266 -0.48018,-0.1351 -0.41158,-0.20264 -0.41158,-0.20265 -0.48017,-0.20265 -0.41158,-0.20264 -0.41158,-0.20266 -0.41157,-0.20264 -0.41168,-0.27021 -0.41158,-0.20264 -0.34299,-0.2702 -0.41157,-0.20266 -0.68597,-0.5404 -0.34298,-0.2702 -0.34298,-0.27018 -0.34298,-0.27022 -0.34299,-0.27018 -0.27438,-0.27021 -0.34298,-0.33776 -0.27439,-0.27018 -0.34308,-0.33776 -0.27439,-0.33774 -0.27438,-0.33776 -0.27439,-0.33774 -0.27438,-0.33774 -0.54878,-0.74306 -0.27438,-0.4053 -0.20579,-0.33775 -0.48017,-0.8106 -0.20579,-0.4053 -0.27439,-0.4053 -0.41158,-0.87814 -0.20579,-0.4053 -0.13719,-0.47285 -0.20589,-0.4053 -0.20579,-0.4053 -0.13719,-0.4053 -0.13719,-0.40529 -0.1372,-0.40529 -0.13719,-0.33776 -0.13719,-0.4053 -0.0681,-0.33775 -0.13719,-0.33776 -0.0691,-0.33775 -0.0681,-0.33774 -0.0691,-0.33774 -0.0681,-0.33775 0,-0.2702 -0.0691,-0.60794 -0.0681,-0.47285 -0.0691,-0.27021 0,-0.20264 0,-0.40532 -0.0691,-0.40529 0,-0.2702 0,-0.27019 0,-0.2702 16.25775,-4.99868 0,0.74304 0,0.6755 0,0.2702 0,0.33775 0.0691,0.60795 0,0.5404 0.0681,0.60795 0.0691,0.27019 0.0681,0.20266 0.0691,0.47283 0.13719,0.47286 0.13719,0.4053 0.1372,0.33775 0.20579,0.40529 0.13719,0.27021 0.20579,0.27019 0.20579,0.2702 0.13719,0.0675 0.13719,0.13508 0.20579,0.20266 0.27449,0.1351 0.20579,0.20264 0.27438,0.13508 0.20579,0.13512 0.27439,0.1351 0.27438,0.0675 0.27439,0.1351 0.20579,0.0675 0.27438,0.0675 0.27439,0.0675 0.27439,0.0675 0.54877,0.0675 0.27438,0 0.27439,0 0.0691,0 15.2974,-0.0675 0.34288,-0.0675 0.27439,-0.0675 0.27439,-0.0675 0.20589,-0.0675 0.20568,-0.0675 0.20579,-0.0675 0.1373,-0.0675 0.13709,0 0.27438,-0.20265 0.0691,-0.0676 0.13719,-0.13509 0.13719,-0.0675 0,-0.0676 0.0691,0 0.0681,-0.0675 0.27438,-0.20265 0.13719,-0.20266 0.0691,-0.13509 0.0681,-0.0676 0.0691,-0.0675 0.0681,-0.13509 0.13719,-0.20266 0.1372,-0.20264 0,-0.0675 0.0681,0 0.0691,-0.1351 0.0681,-0.20264 0.0691,-0.13512 0.0681,-0.0675 0.0691,-0.20265 0,-0.0675 0.0681,-0.0675 0,-0.13509 0.1372,-0.2702 0.0691,-0.20265 0,-0.1351 0,-0.1351 0.0681,-0.20265 0.0691,-0.27021 0.0681,-0.27018 0,-0.1351 0,-0.0675 0,-0.0676 0,-0.1351 0,-0.0676 0,-0.27021 0,-0.13509 0,-0.20265 0,-0.1351 0,-0.0675 0,-0.1351 0,-0.33775 0,-0.20264 0.0691,-0.20264 0,-0.20265 0,-0.27021 0,-0.47285 0,-0.2702 0,-0.27018 0,-0.33776 0,-0.27021 0,-0.2702 0,-0.33774 0,-0.6755 -0.0691,-0.1351 0,-0.20264 0,-0.33776 0,-0.74304 0,-0.27021 0,-0.0675 0,-0.1351 0,-0.20265 0,-0.27021 -0.0681,-0.40529 -0.13709,-0.47285 -0.0691,-0.2702 -0.0681,-0.20264 -0.1373,-0.27021 -0.0681,-0.20264 -0.27439,-0.47285 -0.13719,-0.2702 -0.1372,-0.20265 -0.13719,-0.27019 -0.20579,-0.27021 -0.27438,-0.20264 -0.20579,-0.27021 -0.27439,-0.20264 -0.34298,-0.20265 -0.34298,-0.27021 -0.34298,-0.1351 -0.41158,-0.27019 -0.41158,-0.20266 -0.41158,-0.20264 -0.48027,-0.13511 -0.54878,-0.20263 -0.48017,-0.20267 -0.61737,-0.13509 -0.54877,-0.20265 -20.03065,-7.76824 -0.61737,-0.33775 -0.54877,-0.33775 -0.34298,-0.20265 -0.27439,-0.1351 -0.34298,-0.20265 -0.27439,-0.1351 -0.27438,-0.20264 -0.34309,-0.20265 -0.61736,-0.33775 -0.27439,-0.20264 -0.34298,-0.20272 -0.61737,-0.33775 -0.34298,-0.27018 -0.34298,-0.20267 -0.27439,-0.20265 -0.34298,-0.27018 -0.34298,-0.27021 -0.27439,-0.27021 -0.34298,-0.27019 -0.34298,-0.33774 -0.27449,-0.27021 -0.34298,-0.33774 -0.27439,-0.33775 -0.34298,-0.33776 -0.34298,-0.40529 -0.27438,-0.4053 -0.34299,-0.4053 -0.27438,-0.4053 -0.68597,-0.8106 -0.54877,-0.87814 -0.54877,-0.81059 -0.48027,-0.81061 -0.41158,-0.87814 -0.41158,-0.81061 -0.34298,-0.81059 -0.34299,-0.87816 -0.13719,-0.40529 -0.13719,-0.4053 -0.13719,-0.4053 -0.0681,-0.47286 -0.13719,-0.40529 -0.0691,-0.47286 -0.13719,-0.40529 0,-0.47283 -0.13719,-0.47285 0,-0.47286 -0.0681,-0.47286 0,-0.47286 -0.0691,-0.54038 0,-0.47284 0,-0.47286 0,-0.47284 0,-0.0676 0,-0.13511 -0.13719,-7.29537 0,-0.0676 0,-0.0675 0,-0.0676 0.0691,-0.0675 0,-0.1351 0,-0.0676 0,-0.0675 0,-0.0676 0,-0.0675 0.0681,-0.1351 0,-0.1351 0,-0.13509 0,-0.20267 0,-0.13509 0.0691,-0.20265 0,-0.20265 0,-0.2702 0.0681,-0.2702 0,-0.27019 0,-0.2702 0.0691,-0.33775 0,-0.27021 0,-0.40528 0.0681,-0.2702 0.0691,-0.40531 0.0681,-0.33774 0.0681,-0.33775 0.13719,-0.40531 0.0681,-0.4053 0.13719,-0.33776 0.0691,-0.40528 0.13719,-0.40533 0.20579,-0.40528 0.13709,-0.40532 0.20589,-0.40529 0.20579,-0.4053 0.1373,-0.40531 0.20578,-0.47285 0.48008,-0.81058 0.20589,-0.47286 0.27438,-0.40529 0.20579,-0.4053 0.27439,-0.33774 0.27438,-0.40531 0.27439,-0.40531 0.27439,-0.33774 0.27438,-0.33775 0.27439,-0.33775 0.27438,-0.33775 0.61727,-0.6756 0.61747,-0.60795 0.27438,-0.27019 0.34298,-0.2702 0.68587,-0.5404 0.68606,-0.54038 0.41148,-0.20266 0.34308,-0.2702 0.41158,-0.27021 0.34288,-0.20264 0.82336,-0.4053 0.82316,-0.40531 0.82315,-0.40528 0.48008,-0.20265 0.41168,-0.1351 0.48017,-0.20265 0.48008,-0.1351 0.41168,-0.13509 0.54877,-0.1351 0.48027,-0.13513 0.48018,-0.1351 0.48007,-0.0676 0.54877,-0.13509 0.54877,-0.0676 0.54877,-0.0675 0.54877,-0.0676 0.54898,-0.0675 0.54877,-0.0675 0.61737,-0.0676 17.49248,0.0676 0.54877,0 0.54878,0.0675 0.54877,0 0.54877,0.0675 0.48027,0.0676 0.54878,0 0.54877,0.13509 0.54877,0.0676 0.48017,0.0675 0.48018,0.1351 0.54877,0.0675 0.48007,0.13512 0.48038,0.1351 0.54867,0.1351 0.48027,0.20264 0.48018,0.13511 0.89175,0.33775 0.48018,0.20263 0.48017,0.20264 0.41158,0.20265 0.41168,0.20267 0.41158,0.20264 0.41158,0.2702 0.75456,0.47283 0.41147,0.20268 0.34309,0.27017 0.34298,0.27022 0.41158,0.2702 0.27438,0.27019 0.34288,0.27021 0.34319,0.27019 0.27438,0.27019 0.27439,0.33775 0.34288,0.33776 0.27439,0.2702 0.27438,0.33776 0.27439,0.33774 0.27438,0.33775 0.20589,0.33775 0.27439,0.33774 0.27438,0.33774 0.20579,0.40532 0.20579,0.40529 0.27439,0.33775 0.20569,0.40529 0.20589,0.40531 0.20579,0.40528 0.0691,0.20267 0.0691,0.20264 0.34299,0.74304 0.34308,0.81058 0.27439,0.74307 0.27438,0.8106 0.13719,0.33776 0.1372,0.40528 0.0691,0.33774 0.0681,0.40532 0.13709,0.40529 0,0.0676 0,0.0676 0.0691,0.20263 0.0691,0.33775 0.0681,0.40532 0,0.0676 0,0.0675 0.0691,0.20263 0.0681,0.33777 0,0.33773 0.0691,0.33774 0,0.33774 0.0681,0.33776 0,0.33774 0,0.33776 0,0.1351 0,0.13512 0,0.20263 0,0.1351 0,0.13512 0,0.13509 0,0.33775 0,0.27018 0,0.13511 0,0.20265 -16.87511,4.25564 0.0681,-0.60795 0,-0.2702 0,-0.2702 0,-0.2702 0,-0.27019 0,-0.5404 0,-0.27018 0,-0.27024 -0.0681,-0.47284 -0.0691,-0.47284 -0.0681,-0.40531 -0.0681,-0.47285 -0.0691,-0.40528 -0.13709,-0.40531 -0.1373,-0.40528 -0.13709,-0.33775 -0.20579,-0.33776 -0.13739,-0.33774 -0.20579,-0.33775 -0.13709,-0.1351 -0.0691,-0.13512 -0.27438,-0.2702 -0.27439,-0.27018 -0.27438,-0.20265 -0.34309,-0.20266 -0.20568,-0.0676 -0.20579,-0.0675 -0.20579,-0.13508 -0.1372,-0.0675 -0.27438,-0.0676 -0.13719,-0.0676 -0.48028,-0.13508 -0.48007,-0.0676 -0.54877,-0.0675 -0.27459,0 -0.20569,-0.0676 -0.34308,0 -0.27439,0 -0.27439,0 -0.34288,0 -0.27438,0 -0.34298,0 -0.27439,0 -0.41168,0"
         id="path4852"
         inkscape:connector-curvature="0" />
    </g>
  </g>
</svg>
