<?xml version="1.0" encoding="UTF-8" standalone="no"?>
<!-- Created with Inkscape (http://www.inkscape.org/) -->

<svg
   xmlns:dc="http://purl.org/dc/elements/1.1/"
   xmlns:cc="http://creativecommons.org/ns#"
   xmlns:rdf="http://www.w3.org/1999/02/22-rdf-syntax-ns#"
   xmlns:svg="http://www.w3.org/2000/svg"
   xmlns="http://www.w3.org/2000/svg"
   xmlns:sodipodi="http://sodipodi.sourceforge.net/DTD/sodipodi-0.dtd"
   xmlns:inkscape="http://www.inkscape.org/namespaces/inkscape"
   id="svg4723"
   version="1.1"
   inkscape:version="0.48.5 r10040"
   viewBox="0 0 100 100"
   width="100"
   height="100"
   sodipodi:docname="1.svg">
  <sodipodi:namedview
     pagecolor="#ffffff"
     bordercolor="#666666"
     borderopacity="1"
     objecttolerance="10"
     gridtolerance="10"
     guidetolerance="10"
     inkscape:pageopacity="0"
     inkscape:pageshadow="2"
     inkscape:window-width="1317"
     inkscape:window-height="744"
     id="namedview4725"
     showgrid="false"
     inkscape:zoom="2.2244094"
     inkscape:cx="52"
     inkscape:cy="33"
     inkscape:window-x="49"
     inkscape:window-y="24"
     inkscape:window-maximized="1"
     inkscape:current-layer="svg4723"
     showguides="true"
     inkscape:guide-bbox="true">
    <inkscape:grid
       type="xygrid"
       id="grid3758" />
  </sodipodi:namedview>
  <metadata
     id="metadata4729">
    <rdf:RDF>
      <cc:Work
         rdf:about="">
        <dc:format>image/svg+xml</dc:format>
        <dc:type
           rdf:resource="http://purl.org/dc/dcmitype/StillImage" />
        <dc:title />
      </cc:Work>
    </rdf:RDF>
  </metadata>
  <defs
     id="defs4727" />
  <text
     xml:space="preserve"
     style="font-size:40px;font-style:normal;font-variant:normal;font-weight:500;font-stretch:normal;line-height:125%;letter-spacing:0px;word-spacing:0px;fill:#000000;fill-opacity:1;stroke:none;font-family:TSS Symbols;-inkscape-font-specification:TSS Symbols Medium"
     x="-89.830505"
     y="36.440678"
     id="text4733"
     sodipodi:linespacing="125%"><tspan
       sodipodi:role="line"
       x="-89.830505"
       y="36.440678"
       id="tspan4737" /></text>
  <path
     style="color:#000000;fill:#000000;fill-opacity:1;fill-rule:nonzero;stroke:none;stroke-width:9.3380003;marker:none;visibility:visible;display:inline;overflow:visible;enable-background:accumulate"
     d="m 344.59375,-149.90625 c -27.34484,0 -49.46875,21.56912 -49.46875,48.21875 0,26.649633 22.12391,48.28125 49.46875,48.28125 27.34484,0 49.53125,-21.631617 49.53125,-48.28125 0,-26.64963 -22.18641,-48.21875 -49.53125,-48.21875 z m 0,13.59375 c 19.74099,0 35.75,15.47559 35.75,34.53125 0,19.055655 -16.00901,34.46875 -35.75,34.46875 -19.74099,0 -35.71875,-15.413095 -35.71875,-34.46875 0,-19.05566 15.97776,-34.53125 35.71875,-34.53125 z"
     id="path4004"
     inkscape:connector-curvature="0" />
  <path
     style="color:#000000;fill:#ffffff;fill-opacity:1;fill-rule:nonzero;stroke:#000000;stroke-width:10.57008171;stroke-linecap:round;stroke-linejoin:round;stroke-miterlimit:4;stroke-opacity:1;stroke-dasharray:none;stroke-dashoffset:0;marker:none;visibility:visible;display:inline;overflow:visible;enable-background:accumulate"
     d="M 91.011087,8.6478683 C 88.203776,5.5614716 76.92913,11.666891 63.476449,22.922157 39.324207,14.424451 18.435925,11.25573 16.64415,15.822551 15.062216,19.854524 28.874215,28.603473 48.710702,36.55697 38.526263,46.876537 30.57963,56.94583 26.53298,64.217422 15.825592,59.291501 6.9387925,56.821006 6.4118096,58.707082 L 38.002376,93.714316 C 39.831697,93.273306 37.973705,84.003822 33.883289,72.692999 40.978252,68.998114 50.957906,61.423292 61.34581,51.552926 67.83637,72.2304 75.339052,86.730999 79.252511,85.325684 83.686786,83.733345 81.868158,62.303353 75.220269,37.096052 87.113,23.465779 93.863314,11.783641 91.011087,8.6478683 z"
     id="path3458"
     inkscape:connector-curvature="0"
     sodipodi:nodetypes="scsccccccscs" />
</svg>
