<?xml version="1.0" encoding="UTF-8" standalone="no"?>
<!-- Created with Inkscape (http://www.inkscape.org/) -->

<svg
   xmlns:dc="http://purl.org/dc/elements/1.1/"
   xmlns:cc="http://creativecommons.org/ns#"
   xmlns:rdf="http://www.w3.org/1999/02/22-rdf-syntax-ns#"
   xmlns:svg="http://www.w3.org/2000/svg"
   xmlns="http://www.w3.org/2000/svg"
   xmlns:sodipodi="http://sodipodi.sourceforge.net/DTD/sodipodi-0.dtd"
   xmlns:inkscape="http://www.inkscape.org/namespaces/inkscape"
   id="svg4723"
   version="1.1"
   inkscape:version="0.48.4 r9939"
   viewBox="0 0 100 100"
   width="100"
   height="100"
   sodipodi:docname="rocket.svg">
  <metadata
     id="metadata4729">
    <rdf:RDF>
      <cc:Work
         rdf:about="">
        <dc:format>image/svg+xml</dc:format>
        <dc:type
           rdf:resource="http://purl.org/dc/dcmitype/StillImage" />
        <dc:title />
      </cc:Work>
    </rdf:RDF>
  </metadata>
  <defs
     id="defs4727" />
  <sodipodi:namedview
     pagecolor="#ffffff"
     bordercolor="#666666"
     borderopacity="1"
     objecttolerance="10"
     gridtolerance="10"
     guidetolerance="10"
     inkscape:pageopacity="0"
     inkscape:pageshadow="2"
     inkscape:window-width="1317"
     inkscape:window-height="744"
     id="namedview4725"
     showgrid="false"
     inkscape:zoom="2"
     inkscape:cx="-66.5"
     inkscape:cy="70.023132"
     inkscape:window-x="49"
     inkscape:window-y="24"
     inkscape:window-maximized="1"
     inkscape:current-layer="svg4723" />
  <text
     xml:space="preserve"
     style="font-size:40px;font-style:normal;font-variant:normal;font-weight:500;font-stretch:normal;line-height:125%;letter-spacing:0px;word-spacing:0px;fill:#000000;fill-opacity:1;stroke:none;font-family:TSS Symbols;-inkscape-font-specification:TSS Symbols Medium"
     x="-89.830505"
     y="36.440678"
     id="text4733"
     sodipodi:linespacing="125%"><tspan
       sodipodi:role="line"
       x="-89.830505"
       y="36.440678"
       id="tspan4737" /></text>
  <rect
     style="fill:#ffffff;fill-opacity:1;fill-rule:nonzero;stroke:none"
     id="rect4808"
     width="100"
     height="100"
     x="0"
     y="-0.023131967"
     ry="0" />
  <path
     sodipodi:type="star"
     style="color:#000000;fill:#ffffff;fill-opacity:1;fill-rule:nonzero;stroke:#000000;stroke-width:2.72100001;stroke-linecap:round;stroke-miterlimit:4;stroke-opacity:1;stroke-dasharray:none;stroke-dashoffset:0;marker:none;visibility:visible;display:inline;overflow:visible;enable-background:accumulate"
     id="path5019"
     sodipodi:sides="4"
     sodipodi:cx="28"
     sodipodi:cy="86.5"
     sodipodi:r1="35.933968"
     sodipodi:r2="15.810945"
     sodipodi:arg1="2.1279207"
     sodipodi:arg2="2.9133189"
     inkscape:flatsided="false"
     inkscape:rounded="0"
     inkscape:randomized="0"
     d="M 9.0000003,117 12.599215,90.07796 -2.5000006,67.5 24.42204,71.099215 47,55.999999 43.400785,82.92204 58.500001,105.5 31.57796,101.90078 z"
     inkscape:transform-center-x="-8.4351401"
     inkscape:transform-center-y="0.85442111"
     transform="matrix(0.98523727,0.17119438,-0.17119438,0.98523727,19.199923,-19.059804)" />
  <path
     transform="matrix(0.55287381,0.09145196,-0.09302967,0.50883276,27.124136,23.305033)"
     inkscape:transform-center-y="0.466959"
     inkscape:transform-center-x="-4.7316184"
     d="M 9.0000003,117 12.599215,90.07796 -2.5000006,67.5 24.42204,71.099215 47,55.999999 43.400785,82.92204 58.500001,105.5 31.57796,101.90078 z"
     inkscape:randomized="0"
     inkscape:rounded="0"
     inkscape:flatsided="false"
     sodipodi:arg2="2.9133189"
     sodipodi:arg1="2.1279207"
     sodipodi:r2="15.810945"
     sodipodi:r1="35.933968"
     sodipodi:cy="86.5"
     sodipodi:cx="28"
     sodipodi:sides="4"
     id="path5021"
     style="color:#000000;fill:#ffffff;fill-opacity:1;fill-rule:nonzero;stroke:#000000;stroke-width:4.52099991;stroke-linecap:round;stroke-miterlimit:4;stroke-opacity:1;stroke-dasharray:none;stroke-dashoffset:0;marker:none;visibility:visible;display:inline;overflow:visible;enable-background:accumulate"
     sodipodi:type="star" />
  <path
     style="color:#000000;fill:#ffffff;fill-opacity:1;fill-rule:nonzero;stroke:#000000;stroke-width:9.02099991;stroke-linecap:round;stroke-miterlimit:4;stroke-opacity:1;stroke-dasharray:none;stroke-dashoffset:0;marker:none;visibility:visible;display:inline;overflow:visible;enable-background:accumulate"
     d="M 95.553536,5.045863 C 81.060862,2.9398039 71.444964,10.799626 65.994147,16.48733 c -3.539202,3.693015 -8.085799,6.963635 -12.038139,11.233777 -4.419316,4.774667 -6.162466,6.163021 -9.209224,10.864799 0.04393,-1.606627 -2.36313,0.56643 -3.296686,-0.297647 -3.141196,-2.907415 -10.933698,0.403547 -17.40504,7.39524 -6.471343,6.991694 -9.170961,15.016506 -6.029765,17.923921 3.141196,2.907416 10.933697,-0.403546 17.40504,-7.395239 0.101087,-0.109214 0.197946,-0.211386 0.29718,-0.321077 -2.120844,6.293062 -2.024343,11.326546 0.758462,13.902244 2.782807,2.575698 7.808722,2.283399 13.919313,-0.31685 -0.101706,0.107406 -0.196098,0.211865 -0.29718,0.321076 -6.471344,6.991694 -9.170961,15.016501 -6.029765,17.923917 3.141196,2.907425 10.933697,-0.403544 17.405039,-7.395236 6.471343,-6.991694 9.170963,-15.016505 6.029766,-17.923921 -0.933556,-0.864077 0.71204,-2.667499 -0.886403,-2.499696 4.452586,-3.400577 6.037441,-6.009869 10.456758,-10.784535 4.187744,-4.524475 7.174143,-9.650228 10.776764,-13.625084 4.875605,-5.379368 8.780432,-16.80762 7.703269,-30.447156 z"
     id="path5011"
     inkscape:connector-curvature="0"
     sodipodi:nodetypes="csscsssccscsssscssc" />
  <path
     sodipodi:type="arc"
     style="color:#000000;fill:#ffffff;fill-opacity:1;fill-rule:nonzero;stroke:#000000;stroke-width:4.65697906;stroke-linecap:round;stroke-miterlimit:4;stroke-opacity:1;stroke-dasharray:none;stroke-dashoffset:0;marker:none;visibility:visible;display:inline;overflow:visible;enable-background:accumulate"
     id="path5023"
     sodipodi:cx="61.75"
     sodipodi:cy="23"
     sodipodi:rx="17.25"
     sodipodi:ry="7"
     d="M 79,23 A 17.25,7 0 1 1 44.5,23 17.25,7 0 1 1 79,23 z"
     transform="matrix(0.6887099,-0.43858308,0.33875363,1.3976722,17.68083,16.186043)" />
</svg>
