<?xml version="1.0" encoding="UTF-8" standalone="no"?>
<!-- Created with Inkscape (http://www.inkscape.org/) -->

<svg
   xmlns:dc="http://purl.org/dc/elements/1.1/"
   xmlns:cc="http://creativecommons.org/ns#"
   xmlns:rdf="http://www.w3.org/1999/02/22-rdf-syntax-ns#"
   xmlns:svg="http://www.w3.org/2000/svg"
   xmlns="http://www.w3.org/2000/svg"
   xmlns:sodipodi="http://sodipodi.sourceforge.net/DTD/sodipodi-0.dtd"
   xmlns:inkscape="http://www.inkscape.org/namespaces/inkscape"
   id="svg4723"
   version="1.1"
   inkscape:version="0.48.5 r10040"
   viewBox="0 0 100 100"
   width="100"
   height="100"
   sodipodi:docname="2.svg">
  <sodipodi:namedview
     pagecolor="#ffffff"
     bordercolor="#666666"
     borderopacity="1"
     objecttolerance="10"
     gridtolerance="10"
     guidetolerance="10"
     inkscape:pageopacity="0"
     inkscape:pageshadow="2"
     inkscape:window-width="1317"
     inkscape:window-height="744"
     id="namedview4725"
     showgrid="false"
     inkscape:zoom="2.5842963"
     inkscape:cx="128.98486"
     inkscape:cy="68.817859"
     inkscape:window-x="49"
     inkscape:window-y="24"
     inkscape:window-maximized="1"
     inkscape:current-layer="svg4723"
     showguides="true"
     inkscape:guide-bbox="true">
    <inkscape:grid
       type="xygrid"
       id="grid3758" />
  </sodipodi:namedview>
  <metadata
     id="metadata4729">
    <rdf:RDF>
      <cc:Work
         rdf:about="">
        <dc:format>image/svg+xml</dc:format>
        <dc:type
           rdf:resource="http://purl.org/dc/dcmitype/StillImage" />
        <dc:title />
      </cc:Work>
    </rdf:RDF>
  </metadata>
  <defs
     id="defs4727" />
  <path
     transform="matrix(0.47132857,0.17091579,-0.17091579,0.47132857,-45.010678,19.450067)"
     d="m 188.62866,-50.991486 a 20.589748,20.811144 0 1 1 -41.1795,0 20.589748,20.811144 0 1 1 41.1795,0 z"
     sodipodi:ry="20.811144"
     sodipodi:rx="20.589748"
     sodipodi:cy="-50.991486"
     sodipodi:cx="168.03891"
     id="path3763"
     style="color:#000000;fill:#ffffff;fill-opacity:1;fill-rule:nonzero;stroke:#000000;stroke-width:8.40512085;stroke-linecap:round;stroke-linejoin:round;stroke-miterlimit:4;stroke-opacity:1;stroke-dasharray:none;stroke-dashoffset:0;marker:none;visibility:visible;display:inline;overflow:visible;enable-background:accumulate"
     sodipodi:type="arc" />
  <text
     xml:space="preserve"
     style="font-size:40px;font-style:normal;font-variant:normal;font-weight:500;font-stretch:normal;line-height:125%;letter-spacing:0px;word-spacing:0px;fill:#000000;fill-opacity:1;stroke:none;font-family:TSS Symbols;-inkscape-font-specification:TSS Symbols Medium"
     x="-89.830505"
     y="36.440678"
     id="text4733"
     sodipodi:linespacing="125%"><tspan
       sodipodi:role="line"
       x="-89.830505"
       y="36.440678"
       id="tspan4737" /></text>
  <path
     style="color:#000000;fill:#ffffff;fill-opacity:1;fill-rule:nonzero;stroke:#000000;stroke-width:4.88580036;stroke-linecap:round;stroke-linejoin:round;stroke-miterlimit:4;stroke-opacity:1;stroke-dasharray:none;stroke-dashoffset:0;marker:none;visibility:visible;display:inline;overflow:visible;enable-background:accumulate"
     d="M 74.27227,54.009141 C 70.838828,63.477428 54.600401,66.273838 38.002722,60.255095 21.405043,54.236352 2.3948334,33.969 4.3448781,28.65168 6.2690407,23.345484 33.83864,19.948652 50.436319,25.967395 67.033998,31.986138 77.705713,44.540854 74.27227,54.009141 z"
     id="path2990"
     inkscape:connector-curvature="0"
     sodipodi:nodetypes="ssccs" />
  <path
     sodipodi:type="arc"
     style="color:#000000;fill:#ffffff;fill-opacity:1;fill-rule:nonzero;stroke:#000000;stroke-width:8.40512085;stroke-linecap:round;stroke-linejoin:round;stroke-miterlimit:4;stroke-opacity:1;stroke-dasharray:none;stroke-dashoffset:0;marker:none;visibility:visible;display:inline;overflow:visible;enable-background:accumulate"
     id="path3761"
     sodipodi:cx="168.03891"
     sodipodi:cy="-50.991486"
     sodipodi:rx="20.589748"
     sodipodi:ry="20.811144"
     d="m 188.62866,-50.991486 a 20.589748,20.811144 0 1 1 -41.1795,0 20.589748,20.811144 0 1 1 41.1795,0 z"
     transform="matrix(0.39761438,0.30539423,-0.30539423,0.39761438,-45.815999,-8.1823757)" />
  <path
     style="font-size:medium;font-style:normal;font-variant:normal;font-weight:normal;font-stretch:normal;text-indent:0;text-align:start;text-decoration:none;line-height:normal;letter-spacing:normal;word-spacing:normal;text-transform:none;direction:ltr;block-progression:tb;writing-mode:lr-tb;text-anchor:start;baseline-shift:baseline;color:#000000;fill:#000000;fill-opacity:1;fill-rule:nonzero;stroke:none;stroke-width:4.36184025;marker:none;visibility:visible;display:inline;overflow:visible;enable-background:accumulate;font-family:Sans;-inkscape-font-specification:Sans"
     d="m 73.3125,55.34375 -1.03125,4.21875 c 0.90326,0.220646 4.382665,1.855278 7.84375,4.03125 3.461085,2.175972 7.183956,4.96483 9.5,7.4375 1.158022,1.236335 1.93332,2.392188 2.21875,3.15625 0.28543,0.764062 0.246242,0.830362 0.03125,1.09375 -0.214992,0.263388 -1.124183,0.882878 -3.15625,1.25 -2.032067,0.367122 -5.088177,0.487281 -9.21875,0.25 -0.419813,-0.02412 -1.974536,-0.246952 -3.90625,-0.5625 C 73.662036,75.903202 71.267979,75.506556 68.71875,75.125 63.620292,74.361887 58.024012,73.647495 54,73.96875 52.993997,74.04906 52.08558,74.20766 51.21875,74.5 c -0.86683,0.29234 -1.773461,0.734207 -2.40625,1.71875 -0.632789,0.984543 -0.640583,2.357674 -0.25,3.34375 0.390583,0.986076 1.041122,1.806227 1.90625,2.6875 3.460513,3.525092 11.009954,8.263457 25.71875,15.8125 5.746521,0.760828 4.196121,-1.629049 2,-3.875 -14.571858,-7.478762 -22.112593,-12.440707 -24.625,-15 -0.337011,-0.3433 -0.345457,-0.436986 -0.5,-0.65625 0.352569,-0.08291 0.709072,-0.17307 1.28125,-0.21875 3.130292,-0.249905 8.716193,0.376241 13.71875,1.125 2.501279,0.374379 4.897124,0.775766 6.84375,1.09375 1.946626,0.317984 3.329954,0.566762 4.34375,0.625 4.343359,0.249504 7.682432,0.120118 10.25,-0.34375 2.567568,-0.463868 4.492745,-1.240977 5.75,-2.78125 1.257255,-1.540273 1.310304,-3.70783 0.6875,-5.375 -0.622804,-1.66717 -1.741215,-3.147634 -3.125,-4.625 -2.767569,-2.954731 -6.66838,-5.814307 -10.34375,-8.125 -3.67537,-2.310693 -6.845477,-3.998032 -9.15625,-4.5625 z"
     id="path3765"
     inkscape:connector-curvature="0"
     sodipodi:nodetypes="ccsssssssssssssccscsssssssssc" />
  <path
     transform="matrix(-0.04918853,0.44629841,-0.50873193,0.01740669,16.804126,-49.965427)"
     d="m 188.62866,-50.991486 a 20.589748,20.811144 0 1 1 -41.1795,0 20.589748,20.811144 0 1 1 41.1795,0 z"
     sodipodi:ry="20.811144"
     sodipodi:rx="20.589748"
     sodipodi:cy="-50.991486"
     sodipodi:cx="168.03891"
     id="path3767"
     style="color:#000000;fill:#ffffff;fill-opacity:1;fill-rule:nonzero;stroke:none;stroke-width:8.40512085;marker:none;visibility:visible;display:inline;overflow:visible;enable-background:accumulate"
     sodipodi:type="arc" />
</svg>
