<?xml version="1.0" encoding="UTF-8" standalone="no"?>
<!-- Created with Inkscape (http://www.inkscape.org/) -->

<svg
   xmlns:dc="http://purl.org/dc/elements/1.1/"
   xmlns:cc="http://creativecommons.org/ns#"
   xmlns:rdf="http://www.w3.org/1999/02/22-rdf-syntax-ns#"
   xmlns:svg="http://www.w3.org/2000/svg"
   xmlns="http://www.w3.org/2000/svg"
   xmlns:sodipodi="http://sodipodi.sourceforge.net/DTD/sodipodi-0.dtd"
   xmlns:inkscape="http://www.inkscape.org/namespaces/inkscape"
   id="svg4723"
   version="1.1"
   inkscape:version="0.48.5 r10040"
   viewBox="0 0 100 100"
   width="100"
   height="100"
   sodipodi:docname="3.svg">
  <sodipodi:namedview
     pagecolor="#ffffff"
     bordercolor="#666666"
     borderopacity="1"
     objecttolerance="10"
     gridtolerance="10"
     guidetolerance="10"
     inkscape:pageopacity="0"
     inkscape:pageshadow="2"
     inkscape:window-width="1317"
     inkscape:window-height="744"
     id="namedview4725"
     showgrid="false"
     inkscape:zoom="2.7696078"
     inkscape:cx="-52.857968"
     inkscape:cy="58"
     inkscape:window-x="49"
     inkscape:window-y="24"
     inkscape:window-maximized="1"
     inkscape:current-layer="svg4723"
     showguides="true"
     inkscape:guide-bbox="true">
    <inkscape:grid
       type="xygrid"
       id="grid3758" />
  </sodipodi:namedview>
  <metadata
     id="metadata4729">
    <rdf:RDF>
      <cc:Work
         rdf:about="">
        <dc:format>image/svg+xml</dc:format>
        <dc:type
           rdf:resource="http://purl.org/dc/dcmitype/StillImage" />
        <dc:title />
      </cc:Work>
    </rdf:RDF>
  </metadata>
  <defs
     id="defs4727" />
  <text
     xml:space="preserve"
     style="font-size:40px;font-style:normal;font-variant:normal;font-weight:500;font-stretch:normal;line-height:125%;letter-spacing:0px;word-spacing:0px;fill:#000000;fill-opacity:1;stroke:none;font-family:TSS Symbols;-inkscape-font-specification:TSS Symbols Medium"
     x="-89.830505"
     y="36.440678"
     id="text4733"
     sodipodi:linespacing="125%"><tspan
       sodipodi:role="line"
       x="-89.830505"
       y="36.440678"
       id="tspan4737" /></text>
  <path
     style="color:#000000;fill:#000000;fill-opacity:1;fill-rule:nonzero;stroke:none;stroke-width:9.3380003;marker:none;visibility:visible;display:inline;overflow:visible;enable-background:accumulate"
     d="m 344.59375,-149.90625 c -27.34484,0 -49.46875,21.56912 -49.46875,48.21875 0,26.649633 22.12391,48.28125 49.46875,48.28125 27.34484,0 49.53125,-21.631617 49.53125,-48.28125 0,-26.64963 -22.18641,-48.21875 -49.53125,-48.21875 z m 0,13.59375 c 19.74099,0 35.75,15.47559 35.75,34.53125 0,19.055655 -16.00901,34.46875 -35.75,34.46875 -19.74099,0 -35.71875,-15.413095 -35.71875,-34.46875 0,-19.05566 15.97776,-34.53125 35.71875,-34.53125 z"
     id="path4004"
     inkscape:connector-curvature="0" />
  <path
     style="color:#000000;fill:#ffffff;fill-opacity:1;fill-rule:nonzero;stroke:#000000;stroke-width:12.40400028;stroke-linecap:round;stroke-linejoin:round;stroke-miterlimit:4;stroke-opacity:1;stroke-dashoffset:0;marker:none;visibility:visible;display:inline;overflow:visible;enable-background:accumulate"
     d="M 88.495575,48.952213 C 88.242191,58.626893 68.558059,91.696618 49.380531,92.920353 36.211762,92.815745 10.005891,62.039044 10.265488,46.594691 c 0.21389,-12.725079 0.295631,-18.473718 11.297831,-24.785114 6.025162,-3.456325 20.17308,1.27007 27.817212,1.27007 9.991424,0 28.141513,-5.271104 35.055054,0.349351 8.034352,6.531634 4.05999,14.936516 4.05999,25.523215 z"
     id="path4262"
     inkscape:connector-curvature="0"
     sodipodi:nodetypes="ccssssc" />
  <path
     style="fill:#000000;stroke:#000000;stroke-width:0.75486982px;stroke-linecap:butt;stroke-linejoin:miter;stroke-opacity:1"
     d="M 45.381944,19.989461 C 44.650301,19.111146 43.065074,11.206312 36.846106,10.035225 30.627137,8.8641387 26.603098,9.0105245 26.603098,9.0105245 c 0,0 2.194931,-2.4885589 4.877623,-2.7813306 2.682692,-0.2927716 8.291958,-1.1710865 11.340472,0.8783149 3.048514,2.0494015 5.609266,4.8307322 5.609266,4.8307322 l 2.31687,-8.3439919 3.048514,8.7831499 c 0,0 4.633741,-6.7337484 7.804196,-7.3192916 3.170454,-0.5855434 8.291958,-0.7319292 9.511364,0.5855432 1.219405,1.3174724 3.170454,3.6596455 3.170454,3.6596455 0,0 -4.38986,-1.7566298 -6.218969,-1.7566298 -1.829108,0 -4.5118,-0.1463858 -6.828671,2.4885587 -2.31687,2.634945 -5.487325,7.612063 -5.487325,7.612063 l -3.048514,4.245189 z"
     id="path4265"
     inkscape:connector-curvature="0" />
  <path
     sodipodi:type="arc"
     style="color:#000000;fill:#000000;fill-opacity:1;fill-rule:nonzero;stroke:none;stroke-width:1;marker:none;visibility:visible;display:inline;overflow:visible;enable-background:accumulate"
     id="path3767"
     sodipodi:cx="63.366371"
     sodipodi:cy="40.785839"
     sodipodi:rx="5.2353983"
     sodipodi:ry="4.6938052"
     d="m 68.601769,40.785839 a 5.2353983,4.6938052 0 1 1 -10.470796,0 5.2353983,4.6938052 0 1 1 10.470796,0 z"
     transform="matrix(0.89655172,0,0,1,7.8188587,-1.4442478)" />
  <path
     sodipodi:type="arc"
     style="color:#000000;fill:#000000;fill-opacity:1;fill-rule:nonzero;stroke:none;stroke-width:1;marker:none;visibility:visible;display:inline;overflow:visible;enable-background:accumulate"
     id="path3767-2"
     sodipodi:cx="63.366371"
     sodipodi:cy="40.785839"
     sodipodi:rx="5.2353983"
     sodipodi:ry="4.6938052"
     d="m 68.601769,40.785839 a 5.2353983,4.6938052 0 1 1 -10.470796,0 5.2353983,4.6938052 0 1 1 10.470796,0 z"
     transform="matrix(0.89655172,0,0,1,6.7356746,15.525665)" />
  <path
     sodipodi:type="arc"
     style="color:#000000;fill:#000000;fill-opacity:1;fill-rule:nonzero;stroke:none;stroke-width:1;marker:none;visibility:visible;display:inline;overflow:visible;enable-background:accumulate"
     id="path3767-1"
     sodipodi:cx="63.366371"
     sodipodi:cy="40.785839"
     sodipodi:rx="5.2353983"
     sodipodi:ry="4.6938052"
     d="m 68.601769,40.785839 a 5.2353983,4.6938052 0 1 1 -10.470796,0 5.2353983,4.6938052 0 1 1 10.470796,0 z"
     transform="matrix(0.89655172,0,0,1,-9.5121133,29.968142)" />
  <path
     sodipodi:type="arc"
     style="color:#000000;fill:#000000;fill-opacity:1;fill-rule:nonzero;stroke:none;stroke-width:1;marker:none;visibility:visible;display:inline;overflow:visible;enable-background:accumulate"
     id="path3767-15"
     sodipodi:cx="63.366371"
     sodipodi:cy="40.785839"
     sodipodi:rx="5.2353983"
     sodipodi:ry="4.6938052"
     d="m 68.601769,40.785839 a 5.2353983,4.6938052 0 1 1 -10.470796,0 5.2353983,4.6938052 0 1 1 10.470796,0 z"
     transform="matrix(0.89655172,0,0,1,-19.98291,5.7769919)" />
</svg>
