<?xml version="1.0" encoding="UTF-8" standalone="no"?>
<!-- Created with Inkscape (http://www.inkscape.org/) -->

<svg
   xmlns:dc="http://purl.org/dc/elements/1.1/"
   xmlns:cc="http://creativecommons.org/ns#"
   xmlns:rdf="http://www.w3.org/1999/02/22-rdf-syntax-ns#"
   xmlns:svg="http://www.w3.org/2000/svg"
   xmlns="http://www.w3.org/2000/svg"
   xmlns:sodipodi="http://sodipodi.sourceforge.net/DTD/sodipodi-0.dtd"
   xmlns:inkscape="http://www.inkscape.org/namespaces/inkscape"
   sodipodi:docname="crosscyl.svg"
   inkscape:version="0.48.3.1 r9886"
   version="1.1"
   id="svg2"
   viewBox="0 0 100 100"
   height="100"
   width="100">
  <sodipodi:namedview
     id="base"
     pagecolor="#ffffff"
     bordercolor="#666666"
     borderopacity="1.0"
     inkscape:pageopacity="0.0"
     inkscape:pageshadow="2"
     inkscape:zoom="2"
     inkscape:cx="58.592929"
     inkscape:cy="43.84062"
     inkscape:document-units="px"
     inkscape:current-layer="layer1"
     showgrid="false"
     inkscape:window-width="1317"
     inkscape:window-height="744"
     inkscape:window-x="49"
     inkscape:window-y="24"
     inkscape:window-maximized="1" />
  <defs
     id="defs4" />
  <metadata
     id="metadata7">
    <rdf:RDF>
      <cc:Work
         rdf:about="">
        <dc:format>image/svg+xml</dc:format>
        <dc:type
           rdf:resource="http://purl.org/dc/dcmitype/StillImage" />
        <dc:title />
      </cc:Work>
    </rdf:RDF>
  </metadata>
  <g
     inkscape:label="Layer 1"
     inkscape:groupmode="layer"
     id="layer1"
     transform="translate(0,-952.3622)">
    <rect
       style="fill:#ffffff;fill-opacity:1;fill-rule:nonzero;stroke:#000000;stroke-width:1.2609998;stroke-miterlimit:4;stroke-dasharray:none"
       id="rect2985"
       width="98.738998"
       height="48.680157"
       x="0.63050079"
       y="-1051.7023"
       transform="scale(1,-1)" />
    <g
       id="g3780"
       transform="matrix(1,0,0,-1,-2.8571428,559.95776)" />
    <g
       id="g3790"
       transform="matrix(1,0,0,-1,955.71429,574.24347)" />
    <g
       id="g4620"
       transform="translate(0.27855803,0.64001721)">
      <g
         transform="matrix(0.5599478,0,0,0.5599478,128.36606,403.4005)"
         style="fill:#000000;stroke:#000000"
         id="g4562">
        <path
           style="fill:#000000;fill-opacity:1;fill-rule:nonzero;stroke:#000000;stroke-width:0.49269733;stroke-miterlimit:4;stroke-opacity:1;stroke-dasharray:none"
           d="m -87.323414,1112.7384 c 0.072,1.2559 -0.41407,2.4358 -1.43061,3.1768 -1.01657,0.741 -1.62625,0.9335 -2.85285,0.6543 -1.22661,-0.2792 -2.06383,-1.1352 -2.5485,-2.296 -0.48467,-1.1609 -0.10783,-2.608 0.74724,-3.5306 0.85506,-0.9228 2.85725,-1.4018 4.00724,-0.892 1.15,0.5099 2.00551,1.6316 2.07748,2.8875 0,0 0,0 0,0"
           id="path4399"
           inkscape:connector-curvature="0" />
        <path
           style="fill:#000000;fill-opacity:1;fill-rule:nonzero;stroke:#000000;stroke-width:0.49269733;stroke-miterlimit:4;stroke-opacity:1;stroke-dasharray:none"
           d="m -97.575614,1094.5192 c -0.672743,1.063 -1.622841,1.7589 -2.878496,1.835 -1.25564,0.076 -1.97609,-0.241 -2.82017,-1.1737 -0.84408,-0.9327 -1.0312,-2.1192 -0.76689,-3.3491 0.2643,-1.2299 1.40712,-2.1912 2.63693,-2.4558 1.22981,-0.2646 2.980788,0.4729 3.674491,1.5223 0.693698,1.0494 0.826889,2.5584 0.154135,3.6213 0,0 0,0 0,0"
           id="path4397"
           inkscape:connector-curvature="0"
           inkscape:transform-center-x="-6.8474818"
           inkscape:transform-center-y="-17.597042" />
        <path
           style="fill:#000000;fill-opacity:1;fill-rule:nonzero;stroke:#000000;stroke-width:0.49269733;stroke-miterlimit:4;stroke-opacity:1;stroke-dasharray:none"
           d="m -89.16027,1098.5887 c -1.161007,0.4844 -2.435768,0.4143 -3.471092,-0.3003 -1.035325,-0.7146 -1.42089,-1.2361 -1.559486,-2.4864 -0.138625,-1.2503 0.394833,-2.3215 1.332495,-3.1601 0.937652,-0.8386 2.42889,-0.9578 3.580998,-0.4527 1.152099,0.5052 2.256894,2.2305 2.155743,3.4845 -0.101165,1.2538 -0.877656,2.4307 -2.038658,2.915 0,0 0,0 0,0"
           id="path4393"
           inkscape:connector-curvature="0"
           inkscape:transform-center-x="-16.107222"
           inkscape:transform-center-y="-10.986634" />
        <path
           inkscape:connector-curvature="0"
           id="path4425"
           d="m -83.922278,1106.6202 c -1.190913,-0.4052 -2.101778,-1.2991 -2.406481,-2.5195 -0.304689,-1.2205 -0.253917,-1.8578 0.465702,-2.8896 0.719614,-1.0318 1.827498,-1.4861 3.085399,-1.499 1.257905,-0.013 2.457328,0.88 2.991086,2.0192 0.533769,1.1391 0.225395,3.1746 -0.679252,4.0486 -0.904641,0.8742 -2.26555,1.2455 -3.456459,0.8403 0,0 0,0 0,0"
           style="fill:#000000;fill-opacity:1;fill-rule:nonzero;stroke:#000000;stroke-width:0.49269733;stroke-miterlimit:4;stroke-opacity:1;stroke-dasharray:none" />
        <path
           inkscape:transform-center-y="12.945888"
           inkscape:transform-center-x="-13.756943"
           inkscape:connector-curvature="0"
           id="path4427"
           d="m -83.099591,1115.4327 c -0.732247,-1.0228 -1.02015,-2.1648 -0.618813,-3.357 0.401322,-1.1922 0.965859,-1.7407 2.147411,-2.1725 1.181553,-0.4317 2.351408,-0.1593 3.391842,0.5478 1.040424,0.7071 1.501815,2.1274 1.284925,3.3665 -0.216905,1.2391 -1.558298,2.5847 -2.79145,2.8332 -1.233153,0.2486 -2.681658,-0.1951 -3.413915,-1.218 0,0 0,0 0,0"
           style="fill:#000000;fill-opacity:1;fill-rule:nonzero;stroke:#000000;stroke-width:0.49269733;stroke-miterlimit:4;stroke-opacity:1;stroke-dasharray:none" />
        <path
           inkscape:transform-center-y="18.98056"
           inkscape:transform-center-x="-4.1340681"
           inkscape:connector-curvature="0"
           id="path4429"
           d="m -86.847046,1123.551 c -0.0126,-1.2579 0.53142,-2.4129 1.58266,-3.1039 1.051212,-0.6909 1.679406,-0.8522 2.890165,-0.5109 1.210764,0.3414 2.003002,1.2382 2.427825,2.4223 0.424819,1.1841 -0.02513,2.6108 -0.926162,3.4887 -0.90102,0.8778 -2.915073,1.2534 -4.039069,0.6884 -1.123989,-0.5649 -1.922879,-1.7267 -1.935419,-2.9846 0,0 0,0 0,0"
           style="fill:#000000;fill-opacity:1;fill-rule:nonzero;stroke:#000000;stroke-width:0.49269733;stroke-miterlimit:4;stroke-opacity:1;stroke-dasharray:none" />
        <path
           style="fill:#000000;fill-opacity:1;fill-rule:nonzero;stroke:#000000;stroke-width:0.49269733;stroke-miterlimit:4;stroke-opacity:1;stroke-dasharray:none"
           d="m -93.855033,1128.9496 c 0.6369,-1.0849 1.69595,-1.7969 2.9528,-1.8494 1.25687,-0.053 1.87086,0.1257 2.73649,1.0385 0.86563,0.9127 1.08725,2.0894 0.84644,3.3242 -0.2408,1.2347 -1.3572,2.2295 -2.5805,2.5228 -1.22332,0.2932 -3.15489,-0.419 -3.82877,-1.4812 -0.67389,-1.0623 -0.76336,-2.4701 -0.12646,-3.5549 0,0 0,0 0,0"
           id="path4431"
           inkscape:connector-curvature="0" />
        <path
           style="fill:#000000;fill-opacity:1;fill-rule:nonzero;stroke:#000000;stroke-width:0.49269733;stroke-miterlimit:4;stroke-opacity:1;stroke-dasharray:none"
           d="m -102.55345,1130.3806 c 1.14941,-0.5111 2.32598,-0.563 3.412877,0.07 1.08688,0.6333 1.51037,1.2968 1.69514,2.5411 0.18477,1.2444 -0.31783,2.3353 -1.22008,3.2119 -0.90224,0.8766 -2.386367,1.0423 -3.556317,0.5802 -1.17,-0.4622 -2.21764,-2.0472 -2.21256,-3.3052 0.005,-1.2579 0.73147,-2.5873 1.88094,-3.0984 0,0 0,0 0,0"
           id="path4433"
           inkscape:connector-curvature="0"
           inkscape:transform-center-x="15.450046"
           inkscape:transform-center-y="10.874896" />
        <path
           style="fill:#000000;fill-opacity:1;fill-rule:nonzero;stroke:#000000;stroke-width:0.49269733;stroke-miterlimit:4;stroke-opacity:1;stroke-dasharray:none"
           d="m -94.998591,1118.0505 c 1.23463,0.2412 2.2563,1.0067 2.72123,2.1756 0.46495,1.1689 0.49635,1.8168 -0.082,2.9339 -0.57837,1.1171 -1.61649,1.7124 -2.8619,1.8898 -1.24537,0.1776 -2.55213,-0.5507 -3.23043,-1.6101 -0.67826,-1.0595 -0.64022,-3.1079 0.13962,-4.095 0.77984,-0.9871 2.07883,-1.5354 3.31346,-1.2942 0,0 0,0 0,0"
           id="path4435"
           inkscape:connector-curvature="0"
           inkscape:transform-center-x="19.404935"
           inkscape:transform-center-y="0.19663013" />
        <path
           inkscape:connector-curvature="0"
           id="path4518"
           d="m -92.101704,1104.2205 c 0.072,1.2559 -0.41407,2.4358 -1.43061,3.1768 -1.01657,0.741 -1.62625,0.9335 -2.85285,0.6543 -1.22661,-0.2792 -2.06383,-1.1352 -2.5485,-2.296 -0.48467,-1.1609 -0.10783,-2.608 0.74724,-3.5306 0.85506,-0.9228 2.85725,-1.4018 4.00724,-0.892 1.15,0.5099 2.00551,1.6316 2.07748,2.8875 0,0 0,0 0,0"
           style="fill:#000000;fill-opacity:1;fill-rule:nonzero;stroke:#000000;stroke-width:0.49269733;stroke-miterlimit:4;stroke-opacity:1;stroke-dasharray:none" />
        <path
           inkscape:connector-curvature="0"
           id="path4520"
           d="m -114.10472,1112.7384 c -0.072,1.2559 0.41407,2.4358 1.43061,3.1768 1.01657,0.741 1.62625,0.9335 2.85285,0.6543 1.22661,-0.2792 2.06383,-1.1352 2.5485,-2.296 0.48467,-1.1609 0.10783,-2.608 -0.74724,-3.5306 -0.85506,-0.9228 -2.85725,-1.4018 -4.00724,-0.892 -1.15,0.5099 -2.00551,1.6316 -2.07748,2.8875 0,0 0,0 0,0"
           style="fill:#000000;fill-opacity:1;fill-rule:nonzero;stroke:#000000;stroke-width:0.49269733;stroke-miterlimit:4;stroke-opacity:1;stroke-dasharray:none" />
        <path
           inkscape:transform-center-y="-10.986634"
           inkscape:transform-center-x="-16.107222"
           inkscape:connector-curvature="0"
           id="path4524"
           d="m -112.26786,1098.5887 c 1.16101,0.4844 2.43577,0.4143 3.47109,-0.3003 1.03533,-0.7146 1.42089,-1.2361 1.55949,-2.4864 0.13862,-1.2503 -0.39484,-2.3215 -1.3325,-3.1601 -0.93765,-0.8386 -2.42889,-0.9578 -3.58099,-0.4527 -1.1521,0.5052 -2.2569,2.2305 -2.15575,3.4845 0.10117,1.2538 0.87766,2.4307 2.03866,2.915 0,0 0,0 0,0"
           style="fill:#000000;fill-opacity:1;fill-rule:nonzero;stroke:#000000;stroke-width:0.49269733;stroke-miterlimit:4;stroke-opacity:1;stroke-dasharray:none" />
        <path
           style="fill:#000000;fill-opacity:1;fill-rule:nonzero;stroke:#000000;stroke-width:0.49269733;stroke-miterlimit:4;stroke-opacity:1;stroke-dasharray:none"
           d="m -117.50585,1106.6202 c 1.19091,-0.4052 2.10178,-1.2991 2.40648,-2.5195 0.30469,-1.2205 0.25392,-1.8578 -0.4657,-2.8896 -0.71962,-1.0318 -1.8275,-1.4861 -3.0854,-1.499 -1.25791,-0.013 -2.45733,0.88 -2.99109,2.0192 -0.53377,1.1391 -0.22539,3.1746 0.67925,4.0486 0.90465,0.8742 2.26555,1.2455 3.45646,0.8403 0,0 0,0 0,0"
           id="path4526"
           inkscape:connector-curvature="0" />
        <path
           style="fill:#000000;fill-opacity:1;fill-rule:nonzero;stroke:#000000;stroke-width:0.49269733;stroke-miterlimit:4;stroke-opacity:1;stroke-dasharray:none"
           d="m -118.32854,1115.4327 c 0.73225,-1.0228 1.02015,-2.1648 0.61881,-3.357 -0.40132,-1.1922 -0.96585,-1.7407 -2.14741,-2.1725 -1.18155,-0.4317 -2.35141,-0.1593 -3.39184,0.5478 -1.04042,0.7071 -1.50181,2.1274 -1.28492,3.3665 0.2169,1.2391 1.55829,2.5847 2.79145,2.8332 1.23315,0.2486 2.68165,-0.1951 3.41391,-1.218 0,0 0,0 0,0"
           id="path4528"
           inkscape:connector-curvature="0"
           inkscape:transform-center-x="-13.756943"
           inkscape:transform-center-y="12.945888" />
        <path
           style="fill:#000000;fill-opacity:1;fill-rule:nonzero;stroke:#000000;stroke-width:0.49269733;stroke-miterlimit:4;stroke-opacity:1;stroke-dasharray:none"
           d="m -114.58108,1123.551 c 0.0126,-1.2579 -0.53142,-2.4129 -1.58266,-3.1039 -1.05122,-0.6909 -1.67941,-0.8522 -2.89017,-0.5109 -1.21076,0.3414 -2.003,1.2382 -2.42782,2.4223 -0.42482,1.1841 0.0251,2.6108 0.92616,3.4887 0.90102,0.8778 2.91507,1.2534 4.03907,0.6884 1.12399,-0.5649 1.92288,-1.7267 1.93542,-2.9846 0,0 0,0 0,0"
           id="path4530"
           inkscape:connector-curvature="0"
           inkscape:transform-center-x="-4.1340681"
           inkscape:transform-center-y="18.98056" />
        <path
           inkscape:connector-curvature="0"
           id="path4532"
           d="m -107.5731,1128.9496 c -0.6369,-1.0849 -1.69595,-1.7969 -2.9528,-1.8494 -1.25687,-0.053 -1.87086,0.1257 -2.73649,1.0385 -0.86563,0.9127 -1.08725,2.0894 -0.84644,3.3242 0.2408,1.2347 1.3572,2.2295 2.5805,2.5228 1.22332,0.2932 3.15489,-0.419 3.82877,-1.4812 0.67389,-1.0623 0.76336,-2.4701 0.12646,-3.5549 0,0 0,0 0,0"
           style="fill:#000000;fill-opacity:1;fill-rule:nonzero;stroke:#000000;stroke-width:0.49269733;stroke-miterlimit:4;stroke-opacity:1;stroke-dasharray:none" />
        <path
           inkscape:transform-center-y="0.19663013"
           inkscape:transform-center-x="19.404935"
           inkscape:connector-curvature="0"
           id="path4536"
           d="m -106.42954,1118.0505 c -1.23463,0.2412 -2.2563,1.0067 -2.72123,2.1756 -0.46495,1.1689 -0.49635,1.8168 0.082,2.9339 0.57837,1.1171 1.61649,1.7124 2.8619,1.8898 1.24537,0.1776 2.55213,-0.5507 3.23043,-1.6101 0.67826,-1.0595 0.64022,-3.1079 -0.13962,-4.095 -0.77984,-0.9871 -2.07883,-1.5354 -3.31346,-1.2942 0,0 0,0 0,0"
           style="fill:#000000;fill-opacity:1;fill-rule:nonzero;stroke:#000000;stroke-width:0.49269733;stroke-miterlimit:4;stroke-opacity:1;stroke-dasharray:none" />
        <path
           style="fill:#000000;fill-opacity:1;fill-rule:nonzero;stroke:#000000;stroke-width:0.49269733;stroke-miterlimit:4;stroke-opacity:1;stroke-dasharray:none"
           d="m -109.32643,1104.2205 c -0.072,1.2559 0.41407,2.4358 1.43061,3.1768 1.01657,0.741 1.62625,0.9335 2.85285,0.6543 1.22661,-0.2792 2.06383,-1.1352 2.5485,-2.296 0.48467,-1.1609 0.10783,-2.608 -0.74724,-3.5306 -0.85506,-0.9228 -2.85725,-1.4018 -4.00724,-0.892 -1.15,0.5099 -2.00551,1.6316 -2.07748,2.8875 0,0 0,0 0,0"
           id="path4538"
           inkscape:connector-curvature="0" />
      </g>
      <g
         id="g4582"
         style="fill:#000000;stroke:#000000"
         transform="matrix(0.5599478,0,0,0.5599478,83.86606,403.4005)">
        <path
           inkscape:connector-curvature="0"
           id="path4584"
           d="m -87.323414,1112.7384 c 0.072,1.2559 -0.41407,2.4358 -1.43061,3.1768 -1.01657,0.741 -1.62625,0.9335 -2.85285,0.6543 -1.22661,-0.2792 -2.06383,-1.1352 -2.5485,-2.296 -0.48467,-1.1609 -0.10783,-2.608 0.74724,-3.5306 0.85506,-0.9228 2.85725,-1.4018 4.00724,-0.892 1.15,0.5099 2.00551,1.6316 2.07748,2.8875 0,0 0,0 0,0"
           style="fill:#000000;fill-opacity:1;fill-rule:nonzero;stroke:#000000;stroke-width:0.49269733;stroke-miterlimit:4;stroke-opacity:1;stroke-dasharray:none" />
        <path
           inkscape:transform-center-y="-17.597042"
           inkscape:transform-center-x="-6.8474818"
           inkscape:connector-curvature="0"
           id="path4586"
           d="m -97.575614,1094.5192 c -0.672743,1.063 -1.622841,1.7589 -2.878496,1.835 -1.25564,0.076 -1.97609,-0.241 -2.82017,-1.1737 -0.84408,-0.9327 -1.0312,-2.1192 -0.76689,-3.3491 0.2643,-1.2299 1.40712,-2.1912 2.63693,-2.4558 1.22981,-0.2646 2.980788,0.4729 3.674491,1.5223 0.693698,1.0494 0.826889,2.5584 0.154135,3.6213 0,0 0,0 0,0"
           style="fill:#000000;fill-opacity:1;fill-rule:nonzero;stroke:#000000;stroke-width:0.49269733;stroke-miterlimit:4;stroke-opacity:1;stroke-dasharray:none" />
        <path
           inkscape:transform-center-y="-10.986634"
           inkscape:transform-center-x="-16.107222"
           inkscape:connector-curvature="0"
           id="path4588"
           d="m -89.16027,1098.5887 c -1.161007,0.4844 -2.435768,0.4143 -3.471092,-0.3003 -1.035325,-0.7146 -1.42089,-1.2361 -1.559486,-2.4864 -0.138625,-1.2503 0.394833,-2.3215 1.332495,-3.1601 0.937652,-0.8386 2.42889,-0.9578 3.580998,-0.4527 1.152099,0.5052 2.256894,2.2305 2.155743,3.4845 -0.101165,1.2538 -0.877656,2.4307 -2.038658,2.915 0,0 0,0 0,0"
           style="fill:#000000;fill-opacity:1;fill-rule:nonzero;stroke:#000000;stroke-width:0.49269733;stroke-miterlimit:4;stroke-opacity:1;stroke-dasharray:none" />
        <path
           style="fill:#000000;fill-opacity:1;fill-rule:nonzero;stroke:#000000;stroke-width:0.49269733;stroke-miterlimit:4;stroke-opacity:1;stroke-dasharray:none"
           d="m -83.922278,1106.6202 c -1.190913,-0.4052 -2.101778,-1.2991 -2.406481,-2.5195 -0.304689,-1.2205 -0.253917,-1.8578 0.465702,-2.8896 0.719614,-1.0318 1.827498,-1.4861 3.085399,-1.499 1.257905,-0.013 2.457328,0.88 2.991086,2.0192 0.533769,1.1391 0.225395,3.1746 -0.679252,4.0486 -0.904641,0.8742 -2.26555,1.2455 -3.456459,0.8403 0,0 0,0 0,0"
           id="path4590"
           inkscape:connector-curvature="0" />
        <path
           style="fill:#000000;fill-opacity:1;fill-rule:nonzero;stroke:#000000;stroke-width:0.49269733;stroke-miterlimit:4;stroke-opacity:1;stroke-dasharray:none"
           d="m -83.099591,1115.4327 c -0.732247,-1.0228 -1.02015,-2.1648 -0.618813,-3.357 0.401322,-1.1922 0.965859,-1.7407 2.147411,-2.1725 1.181553,-0.4317 2.351408,-0.1593 3.391842,0.5478 1.040424,0.7071 1.501815,2.1274 1.284925,3.3665 -0.216905,1.2391 -1.558298,2.5847 -2.79145,2.8332 -1.233153,0.2486 -2.681658,-0.1951 -3.413915,-1.218 0,0 0,0 0,0"
           id="path4592"
           inkscape:connector-curvature="0"
           inkscape:transform-center-x="-13.756943"
           inkscape:transform-center-y="12.945888" />
        <path
           style="fill:#000000;fill-opacity:1;fill-rule:nonzero;stroke:#000000;stroke-width:0.49269733;stroke-miterlimit:4;stroke-opacity:1;stroke-dasharray:none"
           d="m -86.847046,1123.551 c -0.0126,-1.2579 0.53142,-2.4129 1.58266,-3.1039 1.051212,-0.6909 1.679406,-0.8522 2.890165,-0.5109 1.210764,0.3414 2.003002,1.2382 2.427825,2.4223 0.424819,1.1841 -0.02513,2.6108 -0.926162,3.4887 -0.90102,0.8778 -2.915073,1.2534 -4.039069,0.6884 -1.123989,-0.5649 -1.922879,-1.7267 -1.935419,-2.9846 0,0 0,0 0,0"
           id="path4594"
           inkscape:connector-curvature="0"
           inkscape:transform-center-x="-4.1340681"
           inkscape:transform-center-y="18.98056" />
        <path
           inkscape:connector-curvature="0"
           id="path4596"
           d="m -93.855033,1128.9496 c 0.6369,-1.0849 1.69595,-1.7969 2.9528,-1.8494 1.25687,-0.053 1.87086,0.1257 2.73649,1.0385 0.86563,0.9127 1.08725,2.0894 0.84644,3.3242 -0.2408,1.2347 -1.3572,2.2295 -2.5805,2.5228 -1.22332,0.2932 -3.15489,-0.419 -3.82877,-1.4812 -0.67389,-1.0623 -0.76336,-2.4701 -0.12646,-3.5549 0,0 0,0 0,0"
           style="fill:#000000;fill-opacity:1;fill-rule:nonzero;stroke:#000000;stroke-width:0.49269733;stroke-miterlimit:4;stroke-opacity:1;stroke-dasharray:none" />
        <path
           inkscape:transform-center-y="10.874896"
           inkscape:transform-center-x="15.450046"
           inkscape:connector-curvature="0"
           id="path4598"
           d="m -102.55345,1130.3806 c 1.14941,-0.5111 2.32598,-0.563 3.412877,0.07 1.08688,0.6333 1.51037,1.2968 1.69514,2.5411 0.18477,1.2444 -0.31783,2.3353 -1.22008,3.2119 -0.90224,0.8766 -2.386367,1.0423 -3.556317,0.5802 -1.17,-0.4622 -2.21764,-2.0472 -2.21256,-3.3052 0.005,-1.2579 0.73147,-2.5873 1.88094,-3.0984 0,0 0,0 0,0"
           style="fill:#000000;fill-opacity:1;fill-rule:nonzero;stroke:#000000;stroke-width:0.49269733;stroke-miterlimit:4;stroke-opacity:1;stroke-dasharray:none" />
        <path
           inkscape:transform-center-y="0.19663013"
           inkscape:transform-center-x="19.404935"
           inkscape:connector-curvature="0"
           id="path4600"
           d="m -94.998591,1118.0505 c 1.23463,0.2412 2.2563,1.0067 2.72123,2.1756 0.46495,1.1689 0.49635,1.8168 -0.082,2.9339 -0.57837,1.1171 -1.61649,1.7124 -2.8619,1.8898 -1.24537,0.1776 -2.55213,-0.5507 -3.23043,-1.6101 -0.67826,-1.0595 -0.64022,-3.1079 0.13962,-4.095 0.77984,-0.9871 2.07883,-1.5354 3.31346,-1.2942 0,0 0,0 0,0"
           style="fill:#000000;fill-opacity:1;fill-rule:nonzero;stroke:#000000;stroke-width:0.49269733;stroke-miterlimit:4;stroke-opacity:1;stroke-dasharray:none" />
        <path
           style="fill:#000000;fill-opacity:1;fill-rule:nonzero;stroke:#000000;stroke-width:0.49269733;stroke-miterlimit:4;stroke-opacity:1;stroke-dasharray:none"
           d="m -92.101704,1104.2205 c 0.072,1.2559 -0.41407,2.4358 -1.43061,3.1768 -1.01657,0.741 -1.62625,0.9335 -2.85285,0.6543 -1.22661,-0.2792 -2.06383,-1.1352 -2.5485,-2.296 -0.48467,-1.1609 -0.10783,-2.608 0.74724,-3.5306 0.85506,-0.9228 2.85725,-1.4018 4.00724,-0.892 1.15,0.5099 2.00551,1.6316 2.07748,2.8875 0,0 0,0 0,0"
           id="path4602"
           inkscape:connector-curvature="0" />
        <path
           style="fill:#000000;fill-opacity:1;fill-rule:nonzero;stroke:#000000;stroke-width:0.49269733;stroke-miterlimit:4;stroke-opacity:1;stroke-dasharray:none"
           d="m -114.10472,1112.7384 c -0.072,1.2559 0.41407,2.4358 1.43061,3.1768 1.01657,0.741 1.62625,0.9335 2.85285,0.6543 1.22661,-0.2792 2.06383,-1.1352 2.5485,-2.296 0.48467,-1.1609 0.10783,-2.608 -0.74724,-3.5306 -0.85506,-0.9228 -2.85725,-1.4018 -4.00724,-0.892 -1.15,0.5099 -2.00551,1.6316 -2.07748,2.8875 0,0 0,0 0,0"
           id="path4604"
           inkscape:connector-curvature="0" />
        <path
           style="fill:#000000;fill-opacity:1;fill-rule:nonzero;stroke:#000000;stroke-width:0.49269733;stroke-miterlimit:4;stroke-opacity:1;stroke-dasharray:none"
           d="m -112.26786,1098.5887 c 1.16101,0.4844 2.43577,0.4143 3.47109,-0.3003 1.03533,-0.7146 1.42089,-1.2361 1.55949,-2.4864 0.13862,-1.2503 -0.39484,-2.3215 -1.3325,-3.1601 -0.93765,-0.8386 -2.42889,-0.9578 -3.58099,-0.4527 -1.1521,0.5052 -2.2569,2.2305 -2.15575,3.4845 0.10117,1.2538 0.87766,2.4307 2.03866,2.915 0,0 0,0 0,0"
           id="path4606"
           inkscape:connector-curvature="0"
           inkscape:transform-center-x="-16.107222"
           inkscape:transform-center-y="-10.986634" />
        <path
           inkscape:connector-curvature="0"
           id="path4608"
           d="m -117.50585,1106.6202 c 1.19091,-0.4052 2.10178,-1.2991 2.40648,-2.5195 0.30469,-1.2205 0.25392,-1.8578 -0.4657,-2.8896 -0.71962,-1.0318 -1.8275,-1.4861 -3.0854,-1.499 -1.25791,-0.013 -2.45733,0.88 -2.99109,2.0192 -0.53377,1.1391 -0.22539,3.1746 0.67925,4.0486 0.90465,0.8742 2.26555,1.2455 3.45646,0.8403 0,0 0,0 0,0"
           style="fill:#000000;fill-opacity:1;fill-rule:nonzero;stroke:#000000;stroke-width:0.49269733;stroke-miterlimit:4;stroke-opacity:1;stroke-dasharray:none" />
        <path
           inkscape:transform-center-y="12.945888"
           inkscape:transform-center-x="-13.756943"
           inkscape:connector-curvature="0"
           id="path4610"
           d="m -118.32854,1115.4327 c 0.73225,-1.0228 1.02015,-2.1648 0.61881,-3.357 -0.40132,-1.1922 -0.96585,-1.7407 -2.14741,-2.1725 -1.18155,-0.4317 -2.35141,-0.1593 -3.39184,0.5478 -1.04042,0.7071 -1.50181,2.1274 -1.28492,3.3665 0.2169,1.2391 1.55829,2.5847 2.79145,2.8332 1.23315,0.2486 2.68165,-0.1951 3.41391,-1.218 0,0 0,0 0,0"
           style="fill:#000000;fill-opacity:1;fill-rule:nonzero;stroke:#000000;stroke-width:0.49269733;stroke-miterlimit:4;stroke-opacity:1;stroke-dasharray:none" />
        <path
           inkscape:transform-center-y="18.98056"
           inkscape:transform-center-x="-4.1340681"
           inkscape:connector-curvature="0"
           id="path4612"
           d="m -114.58108,1123.551 c 0.0126,-1.2579 -0.53142,-2.4129 -1.58266,-3.1039 -1.05122,-0.6909 -1.67941,-0.8522 -2.89017,-0.5109 -1.21076,0.3414 -2.003,1.2382 -2.42782,2.4223 -0.42482,1.1841 0.0251,2.6108 0.92616,3.4887 0.90102,0.8778 2.91507,1.2534 4.03907,0.6884 1.12399,-0.5649 1.92288,-1.7267 1.93542,-2.9846 0,0 0,0 0,0"
           style="fill:#000000;fill-opacity:1;fill-rule:nonzero;stroke:#000000;stroke-width:0.49269733;stroke-miterlimit:4;stroke-opacity:1;stroke-dasharray:none" />
        <path
           style="fill:#000000;fill-opacity:1;fill-rule:nonzero;stroke:#000000;stroke-width:0.49269733;stroke-miterlimit:4;stroke-opacity:1;stroke-dasharray:none"
           d="m -107.5731,1128.9496 c -0.6369,-1.0849 -1.69595,-1.7969 -2.9528,-1.8494 -1.25687,-0.053 -1.87086,0.1257 -2.73649,1.0385 -0.86563,0.9127 -1.08725,2.0894 -0.84644,3.3242 0.2408,1.2347 1.3572,2.2295 2.5805,2.5228 1.22332,0.2932 3.15489,-0.419 3.82877,-1.4812 0.67389,-1.0623 0.76336,-2.4701 0.12646,-3.5549 0,0 0,0 0,0"
           id="path4614"
           inkscape:connector-curvature="0" />
        <path
           style="fill:#000000;fill-opacity:1;fill-rule:nonzero;stroke:#000000;stroke-width:0.49269733;stroke-miterlimit:4;stroke-opacity:1;stroke-dasharray:none"
           d="m -106.42954,1118.0505 c -1.23463,0.2412 -2.2563,1.0067 -2.72123,2.1756 -0.46495,1.1689 -0.49635,1.8168 0.082,2.9339 0.57837,1.1171 1.61649,1.7124 2.8619,1.8898 1.24537,0.1776 2.55213,-0.5507 3.23043,-1.6101 0.67826,-1.0595 0.64022,-3.1079 -0.13962,-4.095 -0.77984,-0.9871 -2.07883,-1.5354 -3.31346,-1.2942 0,0 0,0 0,0"
           id="path4616"
           inkscape:connector-curvature="0"
           inkscape:transform-center-x="19.404935"
           inkscape:transform-center-y="0.19663013" />
        <path
           inkscape:connector-curvature="0"
           id="path4618"
           d="m -109.32643,1104.2205 c -0.072,1.2559 0.41407,2.4358 1.43061,3.1768 1.01657,0.741 1.62625,0.9335 2.85285,0.6543 1.22661,-0.2792 2.06383,-1.1352 2.5485,-2.296 0.48467,-1.1609 0.10783,-2.608 -0.74724,-3.5306 -0.85506,-0.9228 -2.85725,-1.4018 -4.00724,-0.892 -1.15,0.5099 -2.00551,1.6316 -2.07748,2.8875 0,0 0,0 0,0"
           style="fill:#000000;fill-opacity:1;fill-rule:nonzero;stroke:#000000;stroke-width:0.49269733;stroke-miterlimit:4;stroke-opacity:1;stroke-dasharray:none" />
      </g>
    </g>
    <rect
       style="fill:#ffffff;fill-opacity:1;fill-rule:nonzero;stroke:#000000;stroke-width:1.2609998;stroke-miterlimit:4;stroke-dasharray:none"
       id="rect2985-5"
       width="98.738998"
       height="48.680157"
       x="0.63050079"
       y="-1002.2023"
       transform="scale(1,-1)" />
    <g
       transform="matrix(0.16067207,0,0,-0.16067207,-40.34601,1028.7754)"
       id="g3820">
      <path
         sodipodi:type="arc"
         style="fill:none;stroke:#000000;stroke-width:31.20000076;stroke-miterlimit:4;stroke-dasharray:none"
         id="path3822"
         sodipodi:cx="230"
         sodipodi:cy="258.07648"
         sodipodi:rx="98.571426"
         sodipodi:ry="97.14286"
         d="m 328.57143,258.07648 a 98.571426,97.14286 0 1 1 -197.14286,0 98.571426,97.14286 0 1 1 197.14286,0 z"
         transform="matrix(0.82260518,0,0,0.82260518,233.10146,104.58317)" />
      <path
         transform="matrix(0.42118372,0,0,0.42118372,325.42839,208.1806)"
         d="m 328.57143,258.07648 a 98.571426,97.14286 0 1 1 -197.14286,0 98.571426,97.14286 0 1 1 197.14286,0 z"
         sodipodi:ry="97.14286"
         sodipodi:rx="98.571426"
         sodipodi:cy="258.07648"
         sodipodi:cx="230"
         id="path3824"
         style="fill:none;stroke:#000000;stroke-width:31.20000076;stroke-miterlimit:4;stroke-dasharray:none"
         sodipodi:type="arc" />
      <path
         transform="matrix(0.82260518,0,0,0.82260518,513.10146,104.58317)"
         d="m 328.57143,258.07648 a 98.571426,97.14286 0 1 1 -197.14286,0 98.571426,97.14286 0 1 1 197.14286,0 z"
         sodipodi:ry="97.14286"
         sodipodi:rx="98.571426"
         sodipodi:cy="258.07648"
         sodipodi:cx="230"
         id="path3826"
         style="fill:none;stroke:#000000;stroke-width:31.20000076;stroke-miterlimit:4;stroke-dasharray:none"
         sodipodi:type="arc" />
      <path
         sodipodi:type="arc"
         style="fill:none;stroke:#000000;stroke-width:31.20000076;stroke-miterlimit:4;stroke-dasharray:none"
         id="path3828"
         sodipodi:cx="230"
         sodipodi:cy="258.07648"
         sodipodi:rx="98.571426"
         sodipodi:ry="97.14286"
         d="m 328.57143,258.07648 a 98.571426,97.14286 0 1 1 -197.14286,0 98.571426,97.14286 0 1 1 197.14286,0 z"
         transform="matrix(0.42118372,0,0,0.42118372,605.42839,208.1806)" />
    </g>
  </g>
</svg>
