<?xml version="1.0" encoding="UTF-8" standalone="no"?>
<!-- Created with Inkscape (http://www.inkscape.org/) -->

<svg
   xmlns:dc="http://purl.org/dc/elements/1.1/"
   xmlns:cc="http://creativecommons.org/ns#"
   xmlns:rdf="http://www.w3.org/1999/02/22-rdf-syntax-ns#"
   xmlns:svg="http://www.w3.org/2000/svg"
   xmlns="http://www.w3.org/2000/svg"
   xmlns:sodipodi="http://sodipodi.sourceforge.net/DTD/sodipodi-0.dtd"
   xmlns:inkscape="http://www.inkscape.org/namespaces/inkscape"
   width="500"
   height="500"
   id="svg2"
   version="1.1"
   inkscape:version="0.48.5 r10040"
   sodipodi:docname="1.svg">
  <defs
     id="defs4" />
  <sodipodi:namedview
     id="base"
     pagecolor="#ffffff"
     bordercolor="#666666"
     borderopacity="1.0"
     inkscape:pageopacity="0.0"
     inkscape:pageshadow="2"
     inkscape:zoom="1.13"
     inkscape:cx="143.80531"
     inkscape:cy="350.19529"
     inkscape:document-units="px"
     inkscape:current-layer="layer1"
     showgrid="false"
     units="px"
     showguides="true"
     inkscape:guide-bbox="true"
     inkscape:window-width="1317"
     inkscape:window-height="744"
     inkscape:window-x="49"
     inkscape:window-y="24"
     inkscape:window-maximized="1">
    <sodipodi:guide
       orientation="1,0"
       position="100,390.26549"
       id="guide2985" />
    <sodipodi:guide
       orientation="1,0"
       position="200,383.18584"
       id="guide2987" />
    <sodipodi:guide
       orientation="1,0"
       position="300,378.76106"
       id="guide2989" />
    <sodipodi:guide
       orientation="1,0"
       position="400,340.70796"
       id="guide2991" />
    <sodipodi:guide
       orientation="0,1"
       position="29.20354,400"
       id="guide2993" />
    <sodipodi:guide
       orientation="0,1"
       position="39.823009,300"
       id="guide2995" />
    <sodipodi:guide
       orientation="0,1"
       position="59.292035,200"
       id="guide2997" />
    <sodipodi:guide
       orientation="0,1"
       position="46.017699,100"
       id="guide2999" />
    <inkscape:grid
       type="xygrid"
       id="grid3036"
       units="mm"
       empspacing="5"
       visible="true"
       enabled="true"
       snapvisiblegridlinesonly="true" />
  </sodipodi:namedview>
  <metadata
     id="metadata7">
    <rdf:RDF>
      <cc:Work
         rdf:about="">
        <dc:format>image/svg+xml</dc:format>
        <dc:type
           rdf:resource="http://purl.org/dc/dcmitype/StillImage" />
        <dc:title></dc:title>
      </cc:Work>
    </rdf:RDF>
  </metadata>
  <g
     inkscape:label="Layer 1"
     inkscape:groupmode="layer"
     id="layer1"
     transform="translate(0,-552.3609)">
    <path
       style="color:#000000;fill:#000000;fill-opacity:1;fill-rule:nonzero;stroke:#000000;stroke-width:4.80000019;stroke-linecap:round;stroke-linejoin:round;stroke-miterlimit:4;stroke-opacity:1;stroke-dasharray:none;stroke-dashoffset:0;marker:none;visibility:visible;display:inline;overflow:visible;enable-background:accumulate"
       d="M 248.03125 3.9375 L 2.6875 199.84375 C 2.644162 199.8866 2.6248718 199.94342 2.625 200 L 1.21875 200 C 1.0968948 200 0.96875 200.09689 0.96875 200.21875 L 0.96875 299.78125 C 0.96875 299.90311 1.0968948 300 1.21875 300 L 100 300 L 100 400.21875 L 100 498.46875 L 100 498.90625 C 100 499.02703 100.09797 499.125 100.21875 499.125 L 100.65625 499.125 L 199.34375 499.125 L 299.78125 499.125 C 299.90203 499.125 300 499.02703 300 498.90625 L 300 498.46875 C 300 498.83324 300.29176 499.125 300.65625 499.125 L 399.34375 499.125 C 399.70824 499.125 400 498.83324 400 498.46875 L 400 300 L 498.78125 300 C 498.90311 300 499.03125 299.90311 499.03125 299.78125 L 499.03125 200.21875 C 499.03125 200.09689 498.90311 200 498.78125 200 L 497.375 200 L 248.03125 3.9375 z M 248.03125 100 L 350.71875 200 L 300.21875 200 C 300.09689 200 300 200.09689 300 200.21875 L 300 299.78125 L 300 400.21875 C 300 400.09797 299.90203 400 299.78125 400 L 200 400 L 200 299.78125 L 200 200.65625 L 200 200.21875 C 200 200.09689 199.90311 200 199.78125 200 L 199.34375 200 L 141.875 200 L 248.03125 100 z "
       transform="translate(0,552.3609)"
       id="rect3020" />
  </g>
</svg>
