<?xml version="1.0" encoding="UTF-8" standalone="no"?>
<!-- Created with Inkscape (http://www.inkscape.org/) -->

<svg
   xmlns:dc="http://purl.org/dc/elements/1.1/"
   xmlns:cc="http://creativecommons.org/ns#"
   xmlns:rdf="http://www.w3.org/1999/02/22-rdf-syntax-ns#"
   xmlns:svg="http://www.w3.org/2000/svg"
   xmlns="http://www.w3.org/2000/svg"
   xmlns:sodipodi="http://sodipodi.sourceforge.net/DTD/sodipodi-0.dtd"
   xmlns:inkscape="http://www.inkscape.org/namespaces/inkscape"
   width="500"
   height="500"
   id="svg2"
   version="1.1"
   inkscape:version="0.48.5 r10040"
   sodipodi:docname="2.svg">
  <defs
     id="defs4" />
  <sodipodi:namedview
     id="base"
     pagecolor="#ffffff"
     bordercolor="#666666"
     borderopacity="1.0"
     inkscape:pageopacity="0.0"
     inkscape:pageshadow="2"
     inkscape:zoom="1.13"
     inkscape:cx="143.80531"
     inkscape:cy="350.19529"
     inkscape:document-units="px"
     inkscape:current-layer="layer1"
     showgrid="false"
     units="px"
     showguides="true"
     inkscape:guide-bbox="true"
     inkscape:window-width="1317"
     inkscape:window-height="744"
     inkscape:window-x="49"
     inkscape:window-y="24"
     inkscape:window-maximized="1">
    <sodipodi:guide
       orientation="1,0"
       position="100,390.26549"
       id="guide2985" />
    <sodipodi:guide
       orientation="1,0"
       position="200,383.18584"
       id="guide2987" />
    <sodipodi:guide
       orientation="1,0"
       position="300,378.76106"
       id="guide2989" />
    <sodipodi:guide
       orientation="1,0"
       position="400,340.70796"
       id="guide2991" />
    <sodipodi:guide
       orientation="0,1"
       position="29.20354,400"
       id="guide2993" />
    <sodipodi:guide
       orientation="0,1"
       position="39.823009,300"
       id="guide2995" />
    <sodipodi:guide
       orientation="0,1"
       position="59.292035,200"
       id="guide2997" />
    <sodipodi:guide
       orientation="0,1"
       position="46.017699,100"
       id="guide2999" />
    <inkscape:grid
       type="xygrid"
       id="grid3036"
       units="mm"
       empspacing="5"
       visible="true"
       enabled="true"
       snapvisiblegridlinesonly="true" />
  </sodipodi:namedview>
  <metadata
     id="metadata7">
    <rdf:RDF>
      <cc:Work
         rdf:about="">
        <dc:format>image/svg+xml</dc:format>
        <dc:type
           rdf:resource="http://purl.org/dc/dcmitype/StillImage" />
        <dc:title></dc:title>
      </cc:Work>
    </rdf:RDF>
  </metadata>
  <g
     inkscape:label="Layer 1"
     inkscape:groupmode="layer"
     id="layer1"
     transform="translate(0,-552.3609)">
    <path
       style="color:#000000;fill:#000000;fill-opacity:1;fill-rule:nonzero;stroke:#000000;stroke-width:4.80000019;stroke-linecap:round;stroke-linejoin:round;stroke-miterlimit:4;stroke-opacity:1;stroke-dasharray:none;stroke-dashoffset:0;marker:none;visibility:visible;display:inline;overflow:visible;enable-background:accumulate"
       d="M 2.40625,801.9234 198.3125,556.57965 c 0.0429,-0.0433 0.0997,-0.0626 0.15625,-0.0625 l 0,-1.40625 c 0,-0.12186 0.0969,-0.25 0.21875,-0.25 l 99.5625,0 c 0.12186,0 0.21875,0.12814 0.21875,0.25 l 0,98.78125 100.21875,0 98.25,0 0.4375,0 c 0.12078,0 0.21875,0.098 0.21875,0.21875 l 0,0.4375 0,98.6875 0,100.4375 c 0,0.12078 -0.098,0.21875 -0.21875,0.21875 l -0.4375,0 c 0.36449,0 0.65625,0.29176 0.65625,0.65625 l 0,98.6875 c 0,0.36449 -0.29176,0.65625 -0.65625,0.65625 l -198.46875,0 0,98.78125 c 0,0.1219 -0.0969,0.25 -0.21875,0.25 l -99.5625,0 c -0.12186,0 -0.21875,-0.1281 -0.21875,-0.25 l 0,-1.4062 L 2.40625,801.9234 z m 96.0625,0 100,102.6875 0,-50.5 c 0,-0.12186 0.0969,-0.21875 0.21875,-0.21875 l 99.5625,0 100.4375,0 c -0.12078,0 -0.21875,-0.098 -0.21875,-0.21875 l 0,-99.78125 -100.21875,0 -99.125,0 -0.4375,0 c -0.12186,0 -0.21875,-0.0969 -0.21875,-0.21875 l 0,-0.4375 0,-57.46875 -100,106.15625 z"
       id="rect3020"
       inkscape:connector-curvature="0" />
  </g>
</svg>
