<?xml version="1.0" encoding="UTF-8" standalone="no"?>
<!-- Created with Inkscape (http://www.inkscape.org/) -->

<svg
   xmlns:dc="http://purl.org/dc/elements/1.1/"
   xmlns:cc="http://creativecommons.org/ns#"
   xmlns:rdf="http://www.w3.org/1999/02/22-rdf-syntax-ns#"
   xmlns:svg="http://www.w3.org/2000/svg"
   xmlns="http://www.w3.org/2000/svg"
   xmlns:sodipodi="http://sodipodi.sourceforge.net/DTD/sodipodi-0.dtd"
   xmlns:inkscape="http://www.inkscape.org/namespaces/inkscape"
   id="svg4723"
   version="1.1"
   inkscape:version="0.48.3.1 r9886"
   viewBox="0 0 100 100"
   width="100"
   height="100"
   sodipodi:docname="k.svg">
  <metadata
     id="metadata4729">
    <rdf:RDF>
      <cc:Work
         rdf:about="">
        <dc:format>image/svg+xml</dc:format>
        <dc:type
           rdf:resource="http://purl.org/dc/dcmitype/StillImage" />
        <dc:title></dc:title>
      </cc:Work>
    </rdf:RDF>
  </metadata>
  <defs
     id="defs4727" />
  <sodipodi:namedview
     pagecolor="#ffffff"
     bordercolor="#666666"
     borderopacity="1"
     objecttolerance="10"
     gridtolerance="10"
     guidetolerance="10"
     inkscape:pageopacity="0"
     inkscape:pageshadow="2"
     inkscape:window-width="1317"
     inkscape:window-height="744"
     id="namedview4725"
     showgrid="false"
     inkscape:zoom="0.5"
     inkscape:cx="210"
     inkscape:cy="298.50587"
     inkscape:window-x="49"
     inkscape:window-y="24"
     inkscape:window-maximized="1"
     inkscape:current-layer="svg4723" />
  <text
     xml:space="preserve"
     style="font-size:40px;font-style:normal;font-variant:normal;font-weight:500;font-stretch:normal;line-height:125%;letter-spacing:0px;word-spacing:0px;fill:#000000;fill-opacity:1;stroke:none;font-family:TSS Symbols;-inkscape-font-specification:TSS Symbols Medium"
     x="-89.830505"
     y="36.440678"
     id="text4733"
     sodipodi:linespacing="125%"><tspan
       sodipodi:role="line"
       x="-89.830505"
       y="36.440678"
       id="tspan4737" /></text>
  <!--rect
     style="fill:#ffffff;fill-opacity:1;fill-rule:nonzero;stroke:none"
     id="rect4808"
     width="100"
     height="100"
     x="-1.317755"
     y="-0.65436798"
     ry="0" /-->
  <path
     style="font-size:94.94715881px;font-style:normal;font-variant:normal;font-weight:500;font-stretch:normal;line-height:125%;letter-spacing:4.84230518px;word-spacing:0px;fill:#000000;fill-opacity:1;stroke:none;font-family:TSS Letters;-inkscape-font-specification:TSS Letters Medium"
     id="path6228"
     d="m 51.03554,5.59272 c 13.0119,9e-5 23.99943,4.528 32.96261,13.58375 8.99393,9.0559 13.49094,20.02797 13.49103,32.91625 -9e-5,12.76474 -4.52801,23.675 -13.58375,32.73081 -9.025,9.05583 -19.98161,13.58375 -32.86989,13.58375 -12.76474,0 -23.675,-4.52792 -32.730805,-13.58375 -9.02493,-9.05581 -13.53739,-19.96607 -13.53739,-32.73081 0,-12.88828 4.48155,-23.86035 13.44467,-32.91625 C 27.20601,10.12072 38.14718,5.59281 51.03554,5.59272 m 0,18.96161 c -7.72686,8e-5 -14.29465,2.70446 -19.70339,8.11317 -5.4088,5.40883 -8.11318,11.97662 -8.11316,19.70339 -2e-5,7.66504 2.70436,14.21737 8.11316,19.65702 5.40874,5.43971 11.97653,8.15954 19.70339,8.15953 7.69586,1e-5 14.24819,-2.71982 19.65703,-8.15953 5.43961,-5.43965 8.15945,-11.99198 8.15952,-19.65702 C 78.85202,44.64412 76.14763,38.07633 70.73893,32.6675 65.3301,27.25879 58.76231,24.55441 51.03554,24.55433"
     inkscape:connector-curvature="0" />
</svg>
