<?xml version="1.0" encoding="UTF-8" standalone="no"?>
<!-- Created with Inkscape (http://www.inkscape.org/) -->

<svg
   xmlns:dc="http://purl.org/dc/elements/1.1/"
   xmlns:cc="http://creativecommons.org/ns#"
   xmlns:rdf="http://www.w3.org/1999/02/22-rdf-syntax-ns#"
   xmlns:svg="http://www.w3.org/2000/svg"
   xmlns="http://www.w3.org/2000/svg"
   xmlns:sodipodi="http://sodipodi.sourceforge.net/DTD/sodipodi-0.dtd"
   xmlns:inkscape="http://www.inkscape.org/namespaces/inkscape"
   id="svg4723"
   version="1.1"
   inkscape:version="0.48.3.1 r9886"
   viewBox="0 0 100 100"
   width="100"
   height="100"
   sodipodi:docname="d.svg">
  <metadata
     id="metadata4729">
    <rdf:RDF>
      <cc:Work
         rdf:about="">
        <dc:format>image/svg+xml</dc:format>
        <dc:type
           rdf:resource="http://purl.org/dc/dcmitype/StillImage" />
        <dc:title></dc:title>
      </cc:Work>
    </rdf:RDF>
  </metadata>
  <defs
     id="defs4727" />
  <sodipodi:namedview
     pagecolor="#ffffff"
     bordercolor="#666666"
     borderopacity="1"
     objecttolerance="10"
     gridtolerance="10"
     guidetolerance="10"
     inkscape:pageopacity="0"
     inkscape:pageshadow="2"
     inkscape:window-width="1317"
     inkscape:window-height="744"
     id="namedview4725"
     showgrid="false"
     inkscape:zoom="0.5"
     inkscape:cx="210"
     inkscape:cy="298.50587"
     inkscape:window-x="49"
     inkscape:window-y="24"
     inkscape:window-maximized="1"
     inkscape:current-layer="svg4723" />
  <text
     xml:space="preserve"
     style="font-size:40px;font-style:normal;font-variant:normal;font-weight:500;font-stretch:normal;line-height:125%;letter-spacing:0px;word-spacing:0px;fill:#000000;fill-opacity:1;stroke:none;font-family:TSS Symbols;-inkscape-font-specification:TSS Symbols Medium"
     x="-89.830505"
     y="36.440678"
     id="text4733"
     sodipodi:linespacing="125%"><tspan
       sodipodi:role="line"
       x="-89.830505"
       y="36.440678"
       id="tspan4737" /></text>
  <!--rect
     style="fill:#ffffff;fill-opacity:1;fill-rule:nonzero;stroke:none"
     id="rect4808"
     width="100"
     height="100"
     x="-1.317755"
     y="-0.65436798"
     ry="0" /-->
  <path
     style="font-size:94.94715881px;font-style:normal;font-variant:normal;font-weight:500;font-stretch:normal;line-height:125%;letter-spacing:4.84230518px;word-spacing:0px;fill:#000000;fill-opacity:1;stroke:none;font-family:TSS Letters;-inkscape-font-specification:TSS Letters Medium"
     id="path6236"
     d="M 27.02521,5.59443 C 15.92948,8.9325 8.97535,15.65483 6.16279,25.76143 3.87565,37.72261 7.73906,46.74752 17.75302,52.8362 c 4.63607,3.30713 9.76668,5.45518 15.39183,6.44417 5.62509,0.95817 11.89926,1.48359 18.82253,1.57627 6.95408,0.0618 12.3165,0.38638 16.08724,0.97358 3.80152,0.55637 6.7068,1.86993 8.71585,3.94068 2.03981,2.07082 2.73523,4.7752 2.08624,8.11316 -0.61821,3.33801 -3.24534,5.30062 -7.88135,5.88784 l -39.31406,0 c -4.1107,-0.40178 -6.58328,-1.68443 -7.41775,-3.84796 -0.83452,-2.16348 -1.06632,-4.68242 -0.69541,-7.55683 l -18.54437,0 c -0.46361,13.38287 4.94516,22.79413 16.22632,28.2338 l 6.95415,1.71535 44.04287,0 2.31804,0 6.3978,-1.71535 C 93.15124,89.39952 98.56001,79.41648 97.16927,66.65176 95.9947,62.54113 93.46031,58.35319 89.56608,54.08795 85.67168,49.79189 76.7704,46.84024 62.86219,45.23301 L 43.25153,44.12035 c -7.72686,-1.0817 -12.87291,-2.59615 -15.43819,-4.54337 -2.53442,-1.9471 -3.87888,-3.97152 -4.0334,-6.07328 -0.15456,-2.10163 0.0772,-3.83243 0.69542,-5.19242 0.64903,-1.39076 1.51443,-2.4416 2.59621,-3.15254 1.11263,-0.7417 2.44164,-1.08168 3.98704,-1.01994 l 42.9302,0 c 4.17241,2.00904 5.90322,6.38242 5.19243,13.12014 l 18.59073,0 C 98.01913,24.09251 93.18214,14.31037 83.261,7.91248 78.96481,6.30539 75.28685,5.53271 72.2271,5.59443 l -45.20189,0"
     inkscape:connector-curvature="0" />
</svg>
