<?xml version="1.0" encoding="UTF-8" standalone="no"?>
<!-- Created with Inkscape (http://www.inkscape.org/) -->

<svg
   xmlns:dc="http://purl.org/dc/elements/1.1/"
   xmlns:cc="http://creativecommons.org/ns#"
   xmlns:rdf="http://www.w3.org/1999/02/22-rdf-syntax-ns#"
   xmlns:svg="http://www.w3.org/2000/svg"
   xmlns="http://www.w3.org/2000/svg"
   xmlns:xlink="http://www.w3.org/1999/xlink"
   xmlns:sodipodi="http://sodipodi.sourceforge.net/DTD/sodipodi-0.dtd"
   xmlns:inkscape="http://www.inkscape.org/namespaces/inkscape"
   width="582.76337"
   height="460.37946"
   id="svg5662"
   version="1.1"
   inkscape:version="0.48.4 r9939"
   sodipodi:docname="1.svg">
  <defs
     id="defs5664">
    <inkscape:path-effect
       effect="skeletal"
       id="path-effect7011"
       is_visible="true"
       pattern="m 4.2897445,38.245518 c 0,-2.76 2.24,-5 5,-5 2.7599995,0 4.9999995,2.24 4.9999995,5 0,2.76 -2.24,5 -4.9999995,5 -2.76,0 -5,-2.24 -5,-5 z"
       copytype="single_stretched"
       prop_scale="1"
       scale_y_rel="false"
       spacing="0"
       normal_offset="0"
       tang_offset="0"
       prop_units="false"
       vertical_pattern="false"
       fuse_tolerance="0" />
    <linearGradient
       inkscape:collect="always"
       id="linearGradient5785">
      <stop
         style="stop-color:#ffffff;stop-opacity:1;"
         offset="0"
         id="stop5787" />
      <stop
         style="stop-color:#ffffff;stop-opacity:0"
         offset="1"
         id="stop5789" />
    </linearGradient>
    <linearGradient
       inkscape:collect="always"
       xlink:href="#linearGradient4480"
       id="linearGradient5351"
       gradientUnits="userSpaceOnUse"
       x1="791.4809"
       y1="744.99097"
       x2="791.4809"
       y2="780.85095"
       gradientTransform="matrix(1.6052034,0,0,0.90731427,-945.5743,-310.87781)" />
    <linearGradient
       inkscape:collect="always"
       id="linearGradient4480">
      <stop
         style="stop-color:#ffffff;stop-opacity:1;"
         offset="0"
         id="stop4482" />
      <stop
         style="stop-color:#ffffff;stop-opacity:0;"
         offset="1"
         id="stop4484" />
    </linearGradient>
    <radialGradient
       inkscape:collect="always"
       xlink:href="#linearGradient5552"
       id="radialGradient5560"
       cx="565.59491"
       cy="520.89777"
       fx="565.59491"
       fy="520.89777"
       r="56.456993"
       gradientTransform="matrix(0.23146702,6.4082104,-4.8245184,0.17281809,2656.9435,-3445.346)"
       gradientUnits="userSpaceOnUse" />
    <linearGradient
       inkscape:collect="always"
       id="linearGradient5552">
      <stop
         id="stop5556"
         offset="0"
         style="stop-color:#552200;stop-opacity:0;" />
      <stop
         id="stop5554"
         offset="1"
         style="stop-color:#552200;stop-opacity:1;" />
    </linearGradient>
    <linearGradient
       inkscape:collect="always"
       xlink:href="#linearGradient4336"
       id="linearGradient5353"
       gradientUnits="userSpaceOnUse"
       gradientTransform="matrix(1.6052034,0,0,1.6052034,-1117.774,-688.99688)"
       x1="794.0423"
       y1="747.55243"
       x2="795.323"
       y2="770.60522" />
    <linearGradient
       inkscape:collect="always"
       id="linearGradient4336">
      <stop
         style="stop-color:#ffffff;stop-opacity:1;"
         offset="0"
         id="stop4338" />
      <stop
         id="stop4344"
         offset="0.48007023"
         style="stop-color:#ffffff;stop-opacity:0.78823529;" />
      <stop
         style="stop-color:#ffffff;stop-opacity:0;"
         offset="1"
         id="stop4340" />
    </linearGradient>
    <inkscape:path-effect
       effect="skeletal"
       id="path-effect4376"
       is_visible="true"
       pattern="m -679.71947,11.979731 c 0,-2.7600004 2.24,-5.0000004 5,-5.0000004 2.76,0 5,2.24 5,5.0000004 0,2.76 -2.24,5 -5,5 -2.76,0 -5,-2.24 -5,-5 z"
       copytype="single_stretched"
       prop_scale="1"
       scale_y_rel="false"
       spacing="0"
       normal_offset="0"
       tang_offset="0"
       prop_units="false"
       vertical_pattern="false"
       fuse_tolerance="0" />
    <radialGradient
       inkscape:collect="always"
       xlink:href="#linearGradient5785"
       id="radialGradient5791"
       cx="405.38083"
       cy="152.67528"
       fx="405.38083"
       fy="152.67528"
       r="27.125404"
       gradientTransform="matrix(0.5139712,1.6209852,-1.0472842,0.33206586,356.92116,-556.29868)"
       gradientUnits="userSpaceOnUse" />
  </defs>
  <sodipodi:namedview
     id="base"
     pagecolor="#ffffff"
     bordercolor="#666666"
     borderopacity="1.0"
     inkscape:pageopacity="0.0"
     inkscape:pageshadow="2"
     inkscape:zoom="0.5"
     inkscape:cx="291.38168"
     inkscape:cy="229.64247"
     inkscape:document-units="px"
     inkscape:current-layer="layer1"
     showgrid="false"
     inkscape:window-width="1317"
     inkscape:window-height="744"
     inkscape:window-x="49"
     inkscape:window-y="24"
     inkscape:window-maximized="1"
     fit-margin-top="0"
     fit-margin-left="0"
     fit-margin-right="0"
     fit-margin-bottom="0" />
  <metadata
     id="metadata5667">
    <rdf:RDF>
      <cc:Work
         rdf:about="">
        <dc:format>image/svg+xml</dc:format>
        <dc:type
           rdf:resource="http://purl.org/dc/dcmitype/StillImage" />
        <dc:title />
      </cc:Work>
    </rdf:RDF>
  </metadata>
  <g
     inkscape:label="Layer 1"
     inkscape:groupmode="layer"
     id="layer1"
     transform="translate(-42.904034,-100.8877)">
    <rect
       ry="37.604172"
       y="447.64725"
       x="241.98613"
       height="101.75246"
       width="174.51593"
       id="rect4488"
       style="fill:#803300;fill-opacity:1;stroke:#ffb380;stroke-width:2.80843687;stroke-miterlimit:4;stroke-opacity:1;stroke-dasharray:none" />
    <path
       style="fill:#000000;fill-opacity:1;stroke:#000000;stroke-width:2.80843687;stroke-miterlimit:4;stroke-opacity:1;stroke-dasharray:none"
       d="m 240.90354,496.31538 2.10529,25.97578 c 1.68294,20.76463 16.73907,37.57179 37.57178,37.57179 l 99.32196,0 c 20.83271,0 37.62197,-16.73907 37.62197,-37.57179 l 0,-14.39666 c -10.9021,17.75236 -16.78926,37.57178 -37.62197,37.57178 l -99.32196,0 c -20.83271,0 -32.44554,-29.61357 -39.67707,-49.1509 z"
       id="rect4449"
       inkscape:connector-curvature="0"
       sodipodi:nodetypes="csssscssc" />
    <path
       style="fill:#000000;fill-rule:evenodd;stroke:none"
       d="m 388.77303,128.7755 c -0.0185,-0.0719 0.0568,-0.17167 0.24451,-0.27407 0.18776,-0.10241 0.49447,-0.1979 0.86703,-0.27235 0.47045,-0.096 1.08972,-0.16724 1.83279,-0.20848 1.33502,-0.0745 3.11263,-0.0554 5.27592,0.0553 3.65398,0.18661 8.46877,0.63679 14.30684,1.31677 4.21644,0.49107 8.97391,1.10813 14.2313,1.80071 1.67808,0.22106 3.4002,0.45025 5.16498,0.66725 0.98714,0.11923 1.88698,0.25434 2.69122,0.2812 2.66902,0.18597 5.14659,1.07088 7.30463,2.19775 1.98045,0.97591 3.72075,2.01727 5.38545,2.46543 5.54931,1.67365 11.0742,4.68164 15.86037,9.07807 4.14822,3.83104 7.68602,8.52926 10.63998,13.68019 2.58498,4.51012 4.76882,9.32727 6.81791,14.27711 2.04908,4.94984 3.96297,10.03248 6.14015,15.01027 3.7028,8.49613 6.75852,17.58544 9.48785,27.06635 2.72934,9.48091 5.13241,19.35309 7.76169,29.33345 0.94978,3.60063 2.17942,7.27735 3.4173,11.11458 1.55345,4.80295 3.15291,9.69513 4.68604,14.71088 1.43906,4.69902 2.85545,9.5507 3.98851,14.6134 0.45004,2.00116 0.85975,4.09856 1.13434,6.30163 0.10356,1.03158 0.11453,2.35324 -0.21374,3.93353 2.89811,4.29986 5.09192,8.90392 6.91163,13.5168 2.35048,6.18798 4.23145,12.64445 5.53584,19.29621 1.29388,6.52113 2.03456,13.37011 1.65788,20.38654 -0.0866,1.95623 -0.28646,3.95185 -0.63094,5.95622 -0.73371,4.26903 -2.1186,8.53781 -4.41553,12.51278 -5.65686,8.89891 -15.60508,13.21066 -25.0686,13.27298 -7.44013,0.038 -14.47487,-1.59457 -20.98207,-4.17318 -6.50719,-2.57862 -12.48677,-6.10261 -17.84267,-9.92454 -1.92419,-2.53011 -2.5859,-4.36284 -2.29589,-5.21225 0,-10e-6 10e-6,-3e-5 10e-6,-4e-5 -0.31149,-0.64113 0.0597,-0.22549 0.74383,1.45193 1.64834,0.94138 1.58958,1.42067 0.438,0.76866 -10e-6,0 -10e-6,0 -2e-5,10e-6 -0.65325,0.40973 -2.71725,-0.40723 -5.47767,-3.10268 -4.34649,-6.84956 -6.67467,-14.23859 -8.34779,-21.22474 -1.83575,-7.46445 -3.03959,-14.66172 -4.7069,-21.37101 -10e-6,0 -10e-6,-10e-6 -10e-6,-2e-5 -1.77185,-7.24671 -2.59829,-14.36757 -3.03867,-21.262 -0.44037,-6.89443 -0.49483,-13.56252 -0.59429,-19.93257 -0.0956,-5.50768 -0.76874,-11.06069 -1.2416,-16.60538 -0.47287,-5.54468 -0.74613,-11.08088 -0.28387,-16.55202 0.332,-2.95098 -0.0426,-5.96782 -0.69301,-9.00156 -0.65047,-3.03375 -1.57722,-6.08438 -2.44839,-9.10862 -1.01044,-3.36799 -2.13784,-6.66152 -3.18043,-9.91163 -1.04259,-3.25012 -2.00085,-6.45665 -2.74294,-9.63208 -0.81147,-3.52343 -1.25781,-6.86416 -1.65788,-9.99245 -0.40008,-3.12829 -0.75238,-6.0445 -1.23953,-8.74039 0,-1e-5 0,-1e-5 0,-1e-5 -0.61891,-3.38355 -1.357,-6.43534 -2.38743,-9.08798 -1.11737,-2.82927 -2.49811,-5.18575 -4.18414,-6.82586 0,0 0,0 0,0 -0.6062,-0.66794 -1.57255,-1.05279 -2.53722,-1.31073 -1.27541,-0.32303 -2.59238,-0.37678 -3.81588,-0.43887 -1.30738,-0.045 -2.54707,-0.0687 -3.61265,-0.17341 -1.06557,-0.10471 -1.95976,-0.28238 -2.65412,-0.4968 -0.69437,-0.21441 -1.19127,-0.45955 -1.50207,-0.66662 -0.3108,-0.20708 -0.43733,-0.37269 -0.39918,-0.46682 0.0381,-0.0941 0.23922,-0.11579 0.58906,-0.10255 0.34983,0.0132 0.84851,0.0575 1.50437,0.0646 0.65586,0.007 1.46984,-0.0293 2.46497,-0.13058 0.99513,-0.10124 2.17303,-0.27558 3.55205,-0.38617 1.24965,-0.12246 2.6976,-0.23686 4.37711,-0.0343 1.33446,0.15102 2.82581,0.60761 4.20099,1.69346 1e-5,0 1e-5,0 1e-5,1e-5 1.13896,0.93426 2.20524,2.05975 3.16724,3.35212 0.962,1.29237 1.81945,2.75219 2.55273,4.31614 1.37894,2.90203 2.4427,6.19635 3.3015,9.70418 0,10e-6 0,10e-6 0,2e-5 0.70046,2.84258 1.24955,5.84279 1.81515,8.92272 0.56561,3.07994 1.1462,6.23987 2.0432,9.36725 0.8207,2.9083 1.87133,5.90418 3.03208,9.04087 1.16076,3.13668 2.43213,6.41405 3.62572,9.90826 1.05102,2.96048 2.15214,6.14819 2.96858,9.58778 0.81644,3.43959 1.34856,7.13112 1.16263,11.09678 -0.30638,4.79313 0.12035,9.8493 0.74574,15.22426 0.6254,5.37496 1.45016,11.06885 1.69797,17.14254 0.27966,6.41628 0.47538,12.97589 1.00641,19.55387 0.53103,6.57798 1.39748,13.17421 3.14782,19.6388 0,0 0,10e-6 0,2e-5 1.88758,7.12933 3.20612,14.34577 5.02543,21.32362 1.75748,6.5692 3.76778,13.00648 7.32306,18.28011 -1.81114,-1.23905 -1.85306,-1.84423 -0.7909,-1.11383 10e-6,0 10e-6,1e-5 2e-5,2e-5 0.59596,-0.32535 2.55904,0.32408 5.32281,2.65858 1.3453,2.5033 1.68907,4.07954 1.38595,4.49867 10e-6,0 10e-6,0 10e-6,0 0.29826,0.19306 -0.26896,-0.47619 -1.41081,-2.31383 4.98349,3.30924 10.28058,6.37634 15.76406,8.56498 5.48349,2.18863 11.15318,3.49816 16.866,3.21332 6.74538,-0.3355 13.90089,-3.09136 16.72248,-8.45668 1.60609,-2.59154 2.551,-5.71144 3.10451,-9.07659 0.25988,-1.57998 0.43275,-3.20698 0.54914,-4.84982 0.35249,-5.91284 -0.31935,-11.94327 -1.45708,-17.92052 -1.17172,-6.0754 -2.87507,-12.00371 -5.00747,-17.71247 -1.93071,-5.34004 -4.03975,-10.42738 -6.67328,-14.98353 0.0145,-1.32497 -0.22112,-2.93901 -0.46254,-4.79625 -0.19638,-1.74065 -0.53848,-3.53338 -0.93117,-5.38206 -0.99634,-4.66514 -2.3081,-9.29731 -3.6715,-13.93865 -1.4466,-4.91545 -2.97735,-9.782 -4.47746,-14.62549 -1.17821,-3.79537 -2.40684,-7.6597 -3.4075,-11.65185 -2.54077,-10.1458 -4.76133,-19.98492 -7.23874,-29.29781 -2.47741,-9.3129 -5.21198,-18.09975 -8.55098,-26.22793 -2.17607,-5.29938 -3.97202,-10.47062 -5.81721,-15.34078 -1.84518,-4.87015 -3.73923,-9.4395 -5.97862,-13.59672 -2.5603,-4.75581 -5.48524,-8.99982 -8.90745,-12.37021 -3.87929,-3.84663 -8.45565,-6.61217 -13.09933,-8.23989 -2.52877,-0.91004 -4.48489,-2.15498 -6.2018,-3.14367 -1.81412,-0.98376 -3.48139,-1.76853 -5.03704,-1.89001 -1.16058,-0.11613 -2.17716,-0.3186 -3.08039,-0.48687 -1.78656,-0.32309 -3.50828,-0.65617 -5.17013,-0.97984 -5.21554,-1.01554 -9.90563,-1.96273 -14.05031,-2.79319 -5.75243,-1.15197 -10.43747,-2.08856 -13.99146,-2.78111 -2.11022,-0.41052 -3.80058,-0.73433 -5.08004,-0.97178 -0.71396,-0.13204 -1.28659,-0.23774 -1.73199,-0.32026 -0.37229,-0.0635 -0.63095,-0.1245 -0.81469,-0.17146 -0.18374,-0.0469 -0.29131,-0.0913 -0.30978,-0.16321 z"
       id="path4374"
       inkscape:path-effect="#path-effect4376"
       inkscape:original-d="m 388.77303,128.7755 c 4.02216,-1.03324 40.44402,5.72756 44.42168,6.01703 4.68767,0.34113 7.77977,3.49307 11.96447,4.84843 23.21588,7.51932 29.25012,33.37296 36.63051,50.79662 7.53862,17.79721 11.67289,37.09517 16.51963,55.96277 2.91647,11.35337 14.07416,41.27231 12.98131,50.53416 9.09564,14.56187 19.98481,50.08157 9.27153,68.10574 -7.62928,12.83558 -29.21785,16.82837 -56.62294,-2.07318 -0.82727,-0.73224 -0.0983,-2.14151 -0.7636,-2.9726 -0.9411,-1.17539 -3.97671,-0.69805 -4.78581,-1.93939 -7.4359,-11.40844 -9.22471,-27.56479 -12.70159,-41.09974 -3.50188,-13.63224 -3.47868,-26.19979 -3.8936,-40.19364 -0.3224,-10.87301 -2.8106,-21.73174 -1.98459,-32.7621 0.81046,-10.82322 -7.19831,-28.02183 -9.92689,-38.64379 -2.56202,-9.97353 -2.72085,-27.67204 -11.1744,-35.15456 -3.75878,-3.32704 -10.94788,-0.44174 -15.60484,-2.3289"
       inkscape:connector-curvature="0"
       sodipodi:nodetypes="csssscscsssssssc" />
    <path
       style="fill:#552200;fill-opacity:1;stroke:#552200;stroke-width:1.61836171;stroke-miterlimit:4;stroke-opacity:1;stroke-dasharray:none"
       d="m 500.9441,372.40638 c -8.74264,0.1261 -31.6135,-7.90862 -32.7187,-11.88047 -5.71323,-7.29552 -7.65333,-8.6503 -10.34587,-15.40585 -5.30783,-13.36359 -11.40371,-42.89089 -12.19519,-59.07108 -0.32454,-6.63488 -1.11062,-16.03774 -1.74683,-20.89528 -0.63623,-4.85754 -1.2592,-12.78161 -1.38439,-17.60905 -0.25449,-9.81325 -2.11942,-17.45408 -6.752,-27.66349 -1.72105,-3.79307 -5.01299,-13.80782 -7.31537,-22.25503 -6.21596,-22.80554 -10.89503,-29.85647 -20.25564,-30.52347 -2.60175,-0.18526 -5.81727,-0.099 -7.14561,0.19205 l -2.41513,0.52901 -5.07602,-18.24204 c -2.7918,-10.03311 -4.84883,-18.29337 -4.57118,-18.35612 0.27762,-0.0628 9.12169,1.54127 19.65341,3.5645 33.8675,6.50619 46.31312,13.99888 56.16632,33.81402 7.49548,15.07371 10.67157,37.74475 24.71123,86.3993 4.69677,16.27668 14.79448,32.16419 8.75709,45.59567 11.29743,10.52587 12.67592,20.16318 13.69374,22.40453 7.32219,16.1242 10.31794,29.07036 6.34426,38.6949 -3.21319,7.78254 -7.74158,10.5686 -17.40412,10.70784 l 0,0 z"
       id="path4442"
       inkscape:connector-curvature="0"
       sodipodi:nodetypes="cccssscscccscssscssccc" />
    <path
       style="fill:#000000;fill-rule:evenodd;stroke:none"
       d="m 235.19114,123.74042 c 1.63083,0.27487 -0.43977,19.72175 -5.18803,52.70723 -4.74823,32.98548 -12.62852,79.27496 -22.46003,134.32237 0.69736,0.76183 0.56005,1.50798 -0.38873,2.09711 -2e-5,2e-5 -2e-5,4e-5 -7e-5,4e-5 0.39603,-0.35364 0.52434,-0.40627 0.33226,-0.23364 l 0,0 c -0.48733,0.58374 -0.97459,1.66113 -1.68913,3.07479 l 0,2e-5 c -1.89832,3.96944 -3.49236,8.42138 -5.27637,13.16033 -1.86904,5.0076 -3.78769,10.25002 -6.11045,15.59233 -0.95677,2.21117 -2.04143,4.53067 -3.3646,6.89648 -0.88526,1.69916 -2.21225,3.73475 -4.2262,5.86636 1.63932,-2.83214 2.36492,-3.91424 1.76174,-3.59919 l 0,2e-5 c -0.0293,0.17691 0.10506,0.75996 0.24574,1.75996 l 0,2e-5 c 0.16106,0.90088 0.37738,2.11295 0.5264,3.65485 0.40751,0.81023 0.20447,3.01708 -1.01681,6.45778 -1.70129,3.68176 -3.4568,9.26757 -8.02626,15.1233 -2.44178,2.97032 -5.91169,5.27641 -10.17777,6.435 -5.3995,1.06645 -10.21911,0.40161 -13.98375,-1.04906 l -2e-5,-2e-5 c -1.73135,-0.59911 -3.987,-0.9984 -6.65521,-1.6075 -3.52943,-0.77877 -7.1596,-1.56425 -10.86524,-2.46856 -2.65139,-0.6364 -5.46066,-1.35644 -8.37139,-2.31414 -0.79085,-0.26021 -1.58786,-0.53755 -2.38982,-0.83502 -1.31485,-0.45973 -2.91946,-1.15761 -4.72027,-2.22699 -1.11677,-0.0738 -2.94176,-1.9734 -4.97398,-5.87518 -2.30466,-7.40572 -2.35643,-14.56146 -1.66554,-20.83994 0.72334,-7.8415 2.30453,-15.29222 4.15576,-22.36454 3.5082,-13.45206 8.11962,-25.90346 12.20693,-37.83248 0.43041,-0.79147 -7.8e-4,-5.00285 2.55119,-11.24881 1.86954,-2.90447 3.46861,-4.40161 4.38049,-4.77075 l 0,-2e-5 c 0.67723,-0.77474 0.74057,-0.45505 -0.22123,0.68295 2.111,-4.07446 3.78151,-8.58358 5.46543,-13.25028 1.68946,-4.72334 3.22309,-9.44257 4.63044,-14.13435 2.35508,-7.78682 4.02743,-15.73939 5.67064,-23.62153 1.6432,-7.88211 3.25725,-15.69348 5.29245,-23.24293 1.1865,-3.78968 0.87404,-8.56355 0.89442,-13.74949 -0.15997,-5.30787 -0.0299,-11.34706 1.95489,-17.34486 3.32114,-9.22611 6.84,-17.98049 11.04338,-25.71172 2.46622,-4.54852 5.24605,-8.81372 8.41628,-12.51453 3.05257,-3.63418 6.78074,-6.75104 10.96946,-8.70677 4.15281,-1.76899 8.10204,-2.33112 11.67636,-2.43561 3.57431,-0.10441 6.77702,0.25463 9.56458,0.66692 3.26051,0.42351 6.06005,0.94309 8.4593,1.34056 2.39925,0.39746 4.39857,0.68465 6.02241,0.8837 2.06166,0.13588 3.99978,0.56683 5.55035,1.25579 z"
       id="path4397"
       inkscape:connector-curvature="0" />
    <path
       style="fill:#803300;fill-rule:evenodd;stroke:none"
       d="m 231.17903,123.84533 c -1.71588,0.28053 -3.86553,0.46879 -6.386,0.53479 -2.52043,0.066 -5.41305,-0.002 -8.5428,-0.001 -2.7179,0.0478 -5.69539,0.1005 -8.69473,0.47242 -2.99936,0.37187 -6.02369,1.05694 -8.64257,2.67379 -2.70175,1.4895 -5.14459,4.085 -7.52424,7.23477 -2.40587,3.26275 -4.50884,7.12415 -6.51017,11.41732 -3.38059,7.27816 -6.16099,15.65363 -8.98744,24.87031 -1.1735,3.47688 -0.8132,7.99791 -0.63543,13.31018 0.34168,4.92008 0.77125,10.72085 -0.62685,17.26964 -1.63363,7.1258 -2.91423,14.72055 -4.32023,22.70563 -1.406,7.98513 -2.93755,16.36089 -5.27474,24.99697 -1.34783,4.95129 -2.84451,9.95644 -4.52173,14.99407 -1.60429,4.86685 -3.42277,10.00098 -5.94045,15.18386 -1.83526,2.88493 -3.42735,4.40936 -4.33287,4.79454 l 0,2e-5 c -0.6636,0.78546 -0.72316,0.49032 0.26892,-0.65913 -0.56167,-0.0195 0.24517,3.39255 -1.56041,9.30921 -3.97094,12.24567 -8.34172,24.42704 -11.44934,36.88624 -1.65301,6.65239 -3.04497,13.27222 -3.58966,19.84273 -0.33938,5.43135 -0.51429,10.44803 0.95483,14.36368 -1.5526,-2.46301 -1.99439,-3.43115 -1.81837,-2.70692 0.2791,0.21468 0.95262,0.4544 1.93253,0.85638 0.56798,0.21706 1.15301,0.42246 1.75403,0.61949 2.21212,0.72514 4.6272,1.33161 7.18339,1.97127 3.43017,0.84431 6.94899,1.61238 10.5263,2.41512 2.34006,0.50543 5.1289,1.06296 8.23202,2.07531 l 2e-5,0 c 2.42949,0.61405 4.29325,1.18056 5.18184,0.7271 0.44994,0.0195 1.14645,-0.55193 1.82857,-1.24763 2.08473,-1.95317 3.21869,-6.52068 6.02947,-11.8631 -0.52801,2.05421 -0.84817,2.61766 -0.56838,1.88725 -0.0217,-0.50782 -0.17669,-1.31877 -0.34387,-2.44063 l 0,-4e-5 c -0.17734,-0.95931 -0.3677,-2.34119 -0.41359,-4.14192 l 0,-4e-5 c -0.61507,-1.09949 0.20599,-3.75947 2.84291,-7.58928 0.42954,-0.31185 0.94131,-1.24038 1.75666,-2.52334 0.96508,-1.64672 1.84605,-3.49221 2.74692,-5.46402 2.15415,-4.73879 4.05913,-9.71853 6.05297,-14.76659 1.80609,-4.60664 3.67345,-9.44656 6.06509,-14.25781 l 2e-5,-5e-5 c 0.76684,-1.61841 1.83107,-3.55131 3.3949,-5.60979 l 2e-5,-5e-5 c 0.4972,-0.7153 1.37652,-1.62069 2.67885,-2.63352 l 16.80842,-48.68657 c -0.30289,0.11939 -3.44323,-18.05551 -1.94893,-17.29369 8.29828,-52.52279 7.81187,-29.94426 13.94973,-61.5496 4.80129,-24.72301 4.46784,-35.04221 6.73709,-40.88307 -1.96256,-0.3753 -3.58697,-7.19433 -4.2927,-7.09391 z"
       id="path4366"
       inkscape:connector-curvature="0"
       sodipodi:nodetypes="ccccccccccsccccccccccccscccccccccccccccccccccccscc" />
    <path
       style="fill:#ffb380;fill-rule:evenodd;stroke:none"
       d="m 300.43566,103.64413 c -9.44753,0.145 -18.82496,0.78794 -27.99073,2.0065 -8.25442,1.09124 -16.45294,2.73364 -24.4292,5.21692 -6.59419,2.00828 -13.26343,4.80504 -19.36277,8.9791 -5.56842,3.94819 -9.7882,9.02017 -12.74131,14.39667 -3.51714,6.36691 -5.67851,13.00256 -7.07292,19.36277 -1.91599,8.6839 -2.77015,17.16716 -3.05991,25.33211 -0.28977,8.16496 0.0195,15.99077 0.50161,23.42595 0.67526,10.86001 1.80279,21.03367 3.16025,30.49886 1.35745,9.46517 2.90836,18.20872 4.46447,26.18488 3.5145,18.0342 7.07039,32.23445 9.83188,41.88577 1.1185,3.90916 2.11475,6.85847 2.9596,9.22994 -4.30348,2.56936 -8.2419,5.85922 -11.58756,9.73154 -5.38555,6.14039 -9.59161,13.33637 -12.64099,20.96797 -1.77663,4.42659 -3.26945,9.04504 -4.46446,13.74455 -3.41711,13.43801 -4.20528,26.83042 -3.5114,39.177 0.48874,9.93242 1.97774,19.45461 4.36417,28.09106 2.38642,8.63642 5.67517,16.41233 9.43057,23.02463 2.22195,3.92175 4.64843,7.44258 7.22341,10.48399 2.57499,3.04139 5.28458,5.59777 7.92568,7.67488 2.78217,2.18721 5.49187,3.77589 7.97586,4.91594 2.48397,1.14005 4.73612,1.83027 6.5713,2.20715 0.0174,0.002 0.033,-0.002 0.0501,0 0.0456,3.91999 0.26761,8.0951 0.80259,12.44033 0.61491,5.21399 1.77609,10.94921 4.4143,16.80448 2.2706,4.97982 6.30312,9.9373 12.54066,13.39341 6.59066,1.94537 12.93439,2.00187 18.30934,1.60519 3.57632,-0.23106 7.16772,-0.61118 10.73481,-1.15373 3.54157,-0.53868 6.96696,-1.20545 10.33351,-1.95633 7.07399,-1.5625 14.00031,-3.56909 20.51649,-6.06969 2.74784,-1.02228 5.65525,-2.22437 8.52766,-3.76219 4.46944,3.25578 9.3038,5.4149 13.69439,7.02277 6.55343,2.50861 13.46434,4.47601 20.56666,6.0195 3.35198,0.73586 6.81186,1.37832 10.3335,1.90617 3.60416,0.54023 7.22535,0.9261 10.83511,1.15375 5.31234,0.38824 11.58003,0.3819 18.15888,-1.55503 2.25955,-1.25201 4.21886,-2.73108 5.91918,-4.314 0.32216,0.43458 0.70517,0.9328 1.15375,1.45473 3.94358,1.18381 8.66751,1.87939 13.9452,1.35438 3.90577,-0.65776 7.82771,-2.19287 11.43707,-4.66512 3.49279,-2.40698 6.66044,-5.47592 9.28008,-8.9791 2.77195,-3.68227 5.13456,-7.79976 7.12309,-12.13936 4.27035,-9.31088 7.22758,-19.92289 9.28008,-31.00049 2.14056,-11.40878 3.41152,-23.55445 4.01302,-36.16724 0.59115,-12.22492 0.63962,-24.97415 -0.0501,-38.02326 -0.57834,-10.9408 -1.6292,-21.64535 -3.11009,-31.95358 -1.1867,-8.37022 -2.68043,-16.7516 -5.06643,-24.83048 -0.75539,-2.63266 -1.74936,-5.53296 -3.21041,-8.47749 -0.47632,-1.00081 -1.19784,-2.15734 -2.20715,-3.46121 -0.15737,-0.663 -1.13172,-1.54214 -2.9596,-2.45797 -4.7608,-4.85978 -10.28909,-7.99423 -15.65073,-10.08269 -1.11181,-0.46616 -2.19751,-0.90035 -3.31074,-1.30424 0.41904,-1.38158 0.87509,-2.79867 1.35441,-4.51463 2.34329,-8.38902 5.42866,-20.68012 8.82861,-36.36787 1.45462,-6.70445 2.94903,-14.07766 4.36414,-22.02139 1.41514,-7.94374 2.77486,-16.48177 3.76221,-25.63311 0.69523,-6.3126 1.23254,-12.99085 1.35438,-19.96471 0.12177,-6.97385 -0.19036,-14.24105 -1.30422,-21.77057 -0.84684,-5.72606 -2.30517,-11.65917 -4.76544,-17.55692 -2.12656,-5.1127 -5.16428,-10.13728 -9.33025,-14.54716 -5.29753,-5.47671 -11.52378,-9.73287 -17.95822,-13.14259 -7.4955,-4.02171 -15.48539,-7.22342 -23.62659,-9.83187 -17.96599,-5.76988 -37.24322,-9.2246 -56.98472,-10.8853 -4.15678,-0.35674 -8.31432,-0.60945 -12.54065,-0.80259 -5.72484,-0.26165 -11.43694,-0.38791 -17.10546,-0.30098 z"
       id="path4517"
       inkscape:connector-curvature="0" />
    <path
       style="fill:#d40000;fill-opacity:1;stroke:none"
       d="m 346.02678,502.18745 c 0,26.14134 -9.2374,47.33308 -20.63234,47.33308 -11.39494,0 -20.63237,-21.19174 -20.63237,-47.33308 0,-16.26919 10.33433,-5.6508 21.72927,-5.6508 11.39494,0 19.53544,-6.23081 19.53544,5.6508 z"
       id="path4460"
       inkscape:connector-curvature="0"
       sodipodi:nodetypes="sssss" />
    <path
       style="fill:url(#linearGradient5353);fill-opacity:1;fill-rule:evenodd;stroke:none"
       d="m 146.31695,515.39579 c -0.0263,0.68889 -0.68019,-0.36555 -2.71052,0.1806 -2.03034,0.54609 -4.99899,0.96745 -8.55073,1.57921 -1.19347,0.22996 -2.41269,0.45 -3.54428,0.74038 -1.13159,0.29041 -2.17579,0.65019 -2.97238,1.22777 -0.83558,0.54101 -1.53682,1.60802 -1.76656,2.68521 -0.70137,1.95753 -0.48264,4.74261 -0.37762,8.3509 0.097,2.17301 0.009,4.15255 -0.0308,5.85469 -0.0569,2.51438 -0.13089,5.05614 -0.14934,7.6023 -0.0109,2.34499 -0.0195,4.56829 0.18755,6.60236 0.0909,0.74847 0.14152,1.25396 0.24321,1.47096 0.45115,0.37636 -0.0495,-0.25205 -1.30517,-2.16398 -3.05252,-1.67646 -4.49201,-2.42261 -4.62701,-1.79384 -0.082,-0.0523 1.02747,-0.34726 3.43523,-0.52684 2.82552,-0.0603 5.49582,0.0564 7.97141,0.14088 3.50341,0.11482 7.03314,0.25246 10.5731,0.34489 3.33238,0.0836 6.58601,0.15867 9.73229,0.0393 0.65581,-0.028 1.26573,-0.0556 1.82677,-0.0957 0.45704,-0.0328 0.87977,-0.0736 1.26751,-0.1298 0.79703,-0.23471 0.8284,-0.0988 -0.009,0.15259 l 0,0 c 5.04459,-2.47806 9.78883,-4.14897 13.91779,-5.8361 4.09374,-1.87221 7.38623,-2.97742 8.97239,-4.69228 -1.78558,3.49952 -2.53731,4.19297 -1.61783,2.72439 0.0944,-0.80506 0.0818,-1.81915 0.0682,-3.01273 -0.0217,-1.1826 -0.0755,-2.40965 -0.13393,-3.67517 l 0,0 c -0.0332,-0.56842 -0.11656,-1.58162 -0.10549,-3.00596 0.13653,-3.32995 0.64982,-5.8887 0.90319,-7.87858 0.14348,-1.32562 0.27622,-2.44542 0.29124,-3.38784 -0.31657,-1.0663 0.0938,-0.95509 0.62472,0.43263 -0.38828,-0.31607 -0.0256,-0.34993 0.83749,0.21795 l 0,0 c 1.02156,0.19644 1.45695,0.27007 1.48425,0.112 -0.87359,0.42447 -3.7634,0.51783 -7.79038,-0.78127 -2.57518,-1.52171 -4.66862,-2.82317 -6.60199,-3.59995 -1.25957,-0.54316 -2.50592,-0.86628 -3.65498,-0.92597 -1.7437,-0.10506 -3.71213,0.22575 -5.61264,0.42089 l 0,0 c -3.17707,0.34074 -5.71702,0.38587 -7.4749,0.18623 -1.75786,-0.19969 -2.73392,0.97815 -2.85606,0.36743 z"
       id="path4334"
       inkscape:connector-curvature="0" />
    <path
       inkscape:connector-curvature="0"
       id="path5540"
       d="m 299.39426,112.19415 c -9.07385,0.1387 -18.08039,0.75366 -26.88365,1.91917 -7.92793,1.04372 -15.80221,2.61467 -23.46301,4.98987 -6.33335,1.92089 -12.73881,4.59592 -18.59691,8.58833 -5.34821,3.77636 -9.40109,8.62759 -12.23737,13.77009 -3.37805,6.08983 -5.45395,12.43671 -6.79318,18.52009 -1.84023,8.30597 -2.6606,16.42006 -2.93889,24.22965 -0.27832,7.80962 0.0174,15.29485 0.48177,22.40644 0.64854,10.38736 1.73146,20.11827 3.03524,29.17152 1.30377,9.05323 2.79333,17.41627 4.28789,25.04529 3.37551,17.24934 6.79075,30.83159 9.44303,40.06287 1.07426,3.73903 2.03112,6.55999 2.84252,8.82825 -4.13324,2.45755 -7.91589,5.60424 -11.12926,9.30803 -5.17252,5.87316 -9.21222,12.75594 -12.14098,20.05542 -1.70639,4.23395 -3.14015,8.6514 -4.28791,13.14639 -3.28196,12.85316 -4.03894,25.66271 -3.37252,37.47198 0.46942,9.50014 1.89954,18.60794 4.19156,26.8685 2.29203,8.26058 5.45074,15.69808 9.05759,22.0226 2.13405,3.75105 4.46456,7.11866 6.93772,10.02771 2.47314,2.90902 5.07557,5.35416 7.6122,7.34087 2.67214,2.09202 3.6509,6.20956 6.03663,7.30001 2.38573,1.09044 3.57455,3.69916 5.33714,4.05961 -1.93333,3.89911 4.25346,-0.65158 4.27018,-0.64952 0.0436,3.74941 -1.36671,3.8458 -0.85293,8.00191 0.59061,4.98707 1.70585,10.47269 4.23975,16.07313 2.18078,4.7631 6.0538,9.5048 12.04463,12.81051 6.33001,1.86072 12.42281,1.91477 17.5852,1.53532 3.43486,-0.22088 6.88421,-0.58455 10.31021,-1.10348 3.40152,-0.51526 6.69142,-1.15301 9.92482,-1.87122 6.7942,-1.4945 13.44659,-3.41374 19.70503,-5.80553 2.63915,-0.97777 5.43159,-2.12755 8.19039,-3.59845 4.29269,3.11408 8.93582,5.17925 13.15275,6.71714 6.29424,2.39942 12.9318,4.28118 19.75322,5.75753 3.2194,0.70384 6.54245,1.31832 9.9248,1.82321 3.46162,0.5167 6.93958,0.88577 10.40656,1.10355 5.1022,0.37132 11.12203,0.36527 17.44064,-1.48738 2.17021,-1.19753 4.05203,-2.61221 5.6851,-4.12624 0.3094,0.41565 0.67728,0.89219 1.1081,1.39141 3.78763,1.1323 8.32471,5.69462 13.39365,5.19247 3.75131,-0.62913 8.16766,-2.74694 11.63425,-5.11159 3.35463,-2.30223 5.74748,-8.48514 8.26353,-11.83586 2.66229,-3.52201 4.93148,-7.46032 6.84132,-11.61105 4.10148,-8.90564 6.94174,-19.05584 8.91308,-29.65129 2.05588,-10.91228 3.27657,-22.52936 3.85428,-34.59324 0.56779,-11.69288 0.61433,-23.88728 -0.0484,-36.36846 -0.55549,-10.46463 -1.56476,-20.70334 -2.98706,-30.56296 -1.13977,-8.00592 -2.57442,-16.02253 -4.86606,-23.74981 -0.72551,-2.5181 -1.68019,-5.29217 -3.08343,-8.10855 -0.4575,-0.95725 -1.15045,-2.06344 -2.11987,-3.31057 -0.15108,-0.63415 -1.08696,-1.47502 -2.84252,-2.35098 -4.5725,-4.6483 -9.88214,-7.64634 -15.03173,-9.64392 -1.06785,-0.44586 -2.1106,-0.86113 -3.17978,-1.24748 0.40247,-1.32145 0.84046,-2.67685 1.30083,-4.31814 2.25063,-8.0239 5.21396,-19.7801 8.4794,-34.78512 1.3971,-6.41265 2.8324,-13.46498 4.19154,-21.06298 1.35918,-7.59802 2.66511,-15.7645 3.61343,-24.51756 0.66771,-6.03786 1.18379,-12.42546 1.30081,-19.0958 0.117,-6.67037 -0.18276,-13.6213 -1.25262,-20.8231 -0.81338,-5.47687 -2.21403,-11.15174 -4.57697,-16.79284 -2.04247,-4.89019 -4.96003,-9.69612 -8.96124,-13.91407 -5.088,-5.23834 -11.06798,-9.30928 -17.24793,-12.57062 -7.19904,-3.84666 -14.87295,-6.90904 -22.69214,-9.40395 -17.25542,-5.51879 -35.77021,-8.82317 -54.73087,-10.41161 -3.9924,-0.34117 -7.98548,-0.58292 -12.04469,-0.76764 -5.49838,-0.25025 -10.98459,-0.37102 -16.42887,-0.28786 z"
       style="fill:url(#radialGradient5560);fill-opacity:1;fill-rule:evenodd;stroke:none"
       sodipodi:nodetypes="ccccccscscscccscscscsccccccccccccsccccccccccccccccccscscsccccccsc" />
    <path
       style="fill:#ffffff;fill-opacity:1;stroke:#ffffff;stroke-width:3.01931739;stroke-miterlimit:4;stroke-opacity:1"
       d="m 288.26296,199.83483 c -0.64291,0.0152 -1.26111,0.0536 -1.90978,0.0986 -20.75704,1.44184 -36.13099,30.82869 -34.48826,49.04736 l 5.05529,42.50422 c 1.64268,18.21868 19.62904,31.76182 40.38608,30.31998 12.82783,-0.89101 23.62724,-7.31938 29.60153,-16.36785 5.26957,10.99062 17.15208,19.0563 31.67976,20.06542 10.96386,-15.73266 10.09506,-15.27636 17.52502,-21.34724 6.63667,-5.42269 22.14222,-0.3278 22.91726,-8.92344 l 5.05532,-48.78118 c 1.6427,-18.21868 -13.7874,-41.37789 -34.54447,-42.8197 -20.75709,-1.44184 -38.79957,12.05198 -40.44228,30.27068 l -1.01105,10.94477 -1.29191,-14.64231 c -1.59137,-17.64937 -18.60197,-30.87069 -38.53251,-30.3693 z"
       id="rect4446"
       inkscape:connector-curvature="0"
       sodipodi:nodetypes="ccccsccsccscccc" />
    <path
       style="fill:#ffffff;fill-opacity:1;stroke:none"
       d="m 368.90166,199.83544 c 0.67064,0.0152 1.31548,0.056 1.99211,0.10267 21.65188,1.504 37.68861,32.15772 35.97506,51.16179 l -5.27323,44.33657 c -0.93677,10.38942 -12.23203,5.63678 -21.04602,11.35381 -7.30835,4.74044 -11.26617,20.95503 -21.08109,20.27325 -13.38084,-0.92948 -24.6458,-7.63492 -30.87764,-17.07345 l -2.28505,-74.61935 1.05464,11.4166 1.3476,-15.27353 c 1.65997,-18.41024 19.40388,-32.20152 40.19362,-31.67851 z"
       id="path5590"
       inkscape:connector-curvature="0"
       sodipodi:nodetypes="ccccsscccccc" />
    <path
       sodipodi:nodetypes="ccccscccccc"
       inkscape:connector-curvature="0"
       id="path5576"
       d="m 287.55521,196.67749 c -0.67064,0.0152 -1.31548,0.056 -1.99211,0.10267 -21.65188,1.504 -37.68861,32.15772 -35.97506,51.16179 l 5.27323,44.33657 c 1.71351,19.00408 20.47523,33.13107 42.12711,31.62706 13.38084,-0.92943 24.6458,-7.63492 30.87764,-17.07345 l 2.28505,-74.61935 -1.05464,11.4166 -1.3476,-15.27353 c -1.65997,-18.41024 -19.40388,-32.20152 -40.19362,-31.67851 z"
       style="fill:#ffffff;fill-opacity:1;stroke:none" />
    <path
       style="fill:#000000;fill-rule:evenodd;stroke:none"
       d="m 300.06157,101.98771 c -26.59659,1.31115 -56.84765,2.53728 -77.67799,21.28937 -19.83045,23.01654 -17.97784,56.0679 -16.28759,84.53184 3.19262,34.78838 9.54517,69.45158 20.04055,102.79777 -28.08565,18.99308 -34.22201,56.59281 -32.05509,88.21335 2.32267,26.74471 11.42874,57.72489 36.78227,71.20256 14.43981,4.60572 2.97717,29.55898 16.66285,39.11371 11.2239,12.70512 30.17524,7.2992 44.71124,5.21968 17.32825,-2.31745 32.29967,-16.55833 47.86978,-2.46505 18.35225,5.77312 38.36923,11.22613 57.56501,6.67598 10.58314,-6.249 30.58187,3.79823 39.77136,-12.73482 20.04288,-26.87839 21.57951,-62.13548 22.92711,-94.40724 -0.17654,-31.05342 -0.14255,-64.83572 -11.04143,-94.23887 -7.16172,-14.3629 -31.58875,-10.31005 -18.2675,-29.95286 7.23298,-47.27787 19.57837,-81.37048 12.06473,-122.44916 -3.99708,-24.53082 -28.1159,-41.30766 -50.12876,-48.59334 -29.70139,-10.58528 -61.52285,-14.37387 -92.93654,-14.20292 z m 0.201,16.21522 c 37.90405,0.53436 78.02876,4.1043 111.16694,24.05318 20.63195,13.79779 19.81434,41.83631 19.31631,63.93982 -1.3691,31.47473 -7.42967,62.4832 -10.24193,93.82021 -4.78358,-2.51616 -15.27727,-5.66561 -25.15625,-2.74743 -10.03137,2.9632 -23.35163,11.8154 -21.51577,22.84188 3.98488,-14.10081 28.03978,-17.00403 40.74609,-13.21894 14.07424,4.19259 17.52757,11.62761 20.06646,17.77635 13.04554,31.59393 10.095,68.47128 9.49247,102.43915 -1.92904,25.51123 -2.18191,54.06549 -18.80335,74.96456 -9.4828,8.11668 -22.85646,11.69623 -12.67261,-3.66654 5.20812,-20.24802 2.21924,-41.44155 0.14885,-61.92772 -2.83834,-6.11093 -3.59059,-16.22352 -5.73922,-3.4642 -6.8399,22.26227 -0.004,48.24728 -12.75765,68.90391 -13.51008,6.12539 -30.44074,-1.02555 -44.67895,-3.59007 -22.76277,-0.0116 -14.64414,-22.92264 -17.33706,-38.28687 -1.71578,-10.92255 0.35762,-30.95776 -7.34206,-35.97753 -5.5717,21.19914 -4.1681,43.49105 -5.73294,65.2156 -18.20237,7.58791 -38.32473,12.57814 -58.08396,11.40141 -13.67461,-14.35621 -9.58111,-37.17087 -12.43323,-55.46735 -0.36498,-8.49105 -4.91257,-34.55467 -8.48702,-11.92717 -2.67348,9.52858 0.0102,29.15165 -4.67008,31.94201 -23.96872,-20.95463 -27.67017,-55.92019 -25.80166,-85.89448 2.28144,-22.5604 8.7206,-50.31774 31.88661,-59.93783 20.86973,-4.41139 26.64263,0.18902 40.83399,15.34128 4.588,-10.75719 -20.9091,-23.01563 -33.41784,-26.97979 -14.13134,-1.78209 -14.29986,1.53577 -20.21012,-2.74517 -5.00148,-48.47513 -15.67961,-97.7023 -7.10615,-146.35451 2.38219,-15.42226 12.17371,-30.22065 28.21349,-33.63836 16.21046,-5.14684 33.40066,-6.48703 50.31664,-6.8154 z M 243.637,422.84644 c 1.10642,-1.86049 -0.90241,-0.30331 0,0 z m 0.15086,-0.86143 c -0.67086,1.90548 1.27313,0.24826 0,0 z m 165.25009,4.05381 c 1.1013,-1.85687 -0.89176,-0.31022 0,0 z m 0.15086,-0.86143 c -0.66168,1.91081 1.25733,0.24447 0,0 z m -89.96727,65.01291 c 0.0415,1.80421 -0.51432,2.37875 0,0 z m 14.53355,3.19238 c 0.53717,2.29882 -0.27087,1.40666 0,0 z"
       id="path4323"
       inkscape:connector-curvature="0"
       sodipodi:nodetypes="cccccccccccccccccccccscsscccccccccccccccccccccccccccccccccc" />
    <path
       style="fill:none;stroke:#000000;stroke-width:1.60520339px;stroke-linecap:butt;stroke-linejoin:miter;stroke-opacity:1"
       d="M 252.45761,357.01433 C 105.60373,332.74095 43.706636,348.51863 43.706636,348.51863"
       id="path4462"
       inkscape:connector-curvature="0" />
    <path
       style="fill:none;stroke:#000000;stroke-width:1.60520339px;stroke-linecap:butt;stroke-linejoin:miter;stroke-opacity:1"
       d="m 248.81661,380.07402 c 0,0 -104.37549,-12.13668 -143.21288,3.641 C 66.766336,399.4927 63.125336,399.4927 63.125336,399.4927"
       id="path4464"
       inkscape:connector-curvature="0" />
    <path
       style="fill:none;stroke:#000000;stroke-width:1.60520339px;stroke-linecap:butt;stroke-linejoin:miter;stroke-opacity:1"
       d="M 245.17558,398.27904 C 193.7498,399.68993 124.38245,417.02453 78.903016,435.90275"
       id="path4466"
       inkscape:connector-curvature="0"
       sodipodi:nodetypes="cc" />
    <path
       inkscape:connector-curvature="0"
       id="path4468"
       d="M 416.11385,360.22473 C 562.9677,335.95136 624.8648,351.72904 624.8648,351.72904"
       style="fill:none;stroke:#000000;stroke-width:1.60520339px;stroke-linecap:butt;stroke-linejoin:miter;stroke-opacity:1" />
    <path
       inkscape:connector-curvature="0"
       id="path4470"
       d="m 419.75485,383.28443 c 0,0 104.37549,-12.1367 143.21285,3.641 38.83741,15.77769 42.47842,15.77769 42.47842,15.77769"
       style="fill:none;stroke:#000000;stroke-width:1.60520339px;stroke-linecap:butt;stroke-linejoin:miter;stroke-opacity:1" />
    <path
       sodipodi:nodetypes="cc"
       inkscape:connector-curvature="0"
       id="path4472"
       d="m 423.39587,401.48944 c 51.42576,1.4109 120.79314,18.7455 166.27256,37.62373"
       style="fill:none;stroke:#000000;stroke-width:1.60520339px;stroke-linecap:butt;stroke-linejoin:miter;stroke-opacity:1" />
    <path
       style="fill:#000000;fill-opacity:1;fill-rule:evenodd;stroke:none"
       d="m 354.53788,370.17607 c 10.84028,10.26383 15.35356,33.24811 5.48368,44.44827 -15.69756,17.81336 -55.72565,18.222 -71.22853,0.23897 -9.91521,-11.50143 -3.58094,-34.01219 6.86257,-45.03612 7.70614,-8.13441 51.03505,-7.08109 58.88228,0.34888 z"
       id="path4319"
       inkscape:connector-curvature="0"
       sodipodi:nodetypes="saass" />
    <path
       sodipodi:nodetypes="saass"
       inkscape:connector-curvature="0"
       id="path4478"
       d="m 348.08757,368.44398 c 8.11094,3.75206 11.48789,12.15421 4.10302,16.24856 -11.7453,6.51185 -41.69525,6.66123 -53.29488,0.0874 -7.41879,-4.20448 -2.67935,-12.43353 5.13474,-16.46344 5.76593,-2.97362 38.18563,-2.58857 44.05712,0.12752 z"
       style="fill:url(#linearGradient5351);fill-opacity:1;fill-rule:evenodd;stroke:none" />
    <path
       style="fill:#080303;fill-opacity:0.95294118;stroke:none"
       d="m 293.8679,249.12793 c -4.9666,0 -8.97912,12.76628 -8.97912,28.54253 0,15.77627 4.01252,28.54252 8.97912,28.54252 4.96658,0 8.9791,-12.76625 8.9791,-28.54252 0,-5.43513 -0.47467,-10.47271 -1.30424,-14.79796 l -7.07293,7.82536 c 0,0 2.48615,-6.20021 5.96936,-12.49048 -1.64157,-5.5915 -3.97449,-9.07945 -6.57129,-9.07945 z"
       id="path4386"
       inkscape:connector-curvature="0" />
    <path
       style="fill:#080303;fill-opacity:0.95294118;stroke:none"
       d="m 372.17172,249.12793 c -4.9666,0 -8.9791,12.76628 -8.9791,28.54253 0,15.77627 4.0125,28.54252 8.9791,28.54252 4.9666,0 8.9791,-12.76625 8.9791,-28.54252 0,-5.45538 -0.5191,-10.51241 -1.35438,-14.84812 l -6.52115,7.27358 c 0,0 2.26925,-5.73163 5.51789,-11.73807 -1.64361,-5.67865 -4.00156,-9.22992 -6.62146,-9.22992 z"
       id="path4388"
       inkscape:connector-curvature="0" />
    <path
       style="fill:#000000;fill-rule:evenodd;stroke:none"
       d="m 243.5113,419.59726 c 0.0464,-0.2974 0.13046,-0.63271 0.15043,-0.85277 -0.56931,0.5114 -0.42024,0.77586 -0.15043,0.85277 z"
       id="path4513"
       inkscape:connector-curvature="0" />
    <path
       style="fill:#000000;fill-rule:evenodd;stroke:none"
       d="m 243.66179,418.74449 c 0.0195,0.22006 0.10397,0.55537 0.15043,0.85277 0.26974,-0.0768 0.41882,-0.34137 -0.15043,-0.85277 z"
       id="path4511"
       inkscape:connector-curvature="0" />
    <path
       style="fill:#000000;fill-rule:evenodd;stroke:none"
       d="m 408.49612,422.75751 c 0.0441,-0.28637 0.1311,-0.63929 0.15042,-0.85277 -0.56442,0.50699 -0.41589,0.77274 -0.15042,0.85277 z"
       id="path4509"
       inkscape:connector-curvature="0" />
    <path
       style="fill:#000000;fill-rule:evenodd;stroke:none"
       d="m 408.64661,421.90474 c 0.0195,0.21359 0.10636,0.5664 0.15042,0.85277 0.2654,-0.0799 0.41392,-0.34578 -0.15042,-0.85277 z"
       id="path4507"
       inkscape:connector-curvature="0" />
    <path
       style="fill:#000000;fill-rule:evenodd;stroke:none"
       d="m 318.90571,486.26336 c -0.009,0.36202 0.007,0.73658 0,1.10359 -0.0519,0.0877 -0.0608,0.13045 -0.10028,0.20057 -0.009,0.0879 -0.0393,0.22066 -0.0501,0.30095 -0.0795,0.0829 -0.16497,0.12785 -0.20057,0.15043 0.0109,-0.0577 0.13784,-0.25112 0.25082,-0.45147 0.0417,-0.37845 0.0645,-0.7887 0.10028,-1.30424 z"
       id="path4505"
       inkscape:connector-curvature="0" />
    <path
       style="fill:#000000;fill-rule:evenodd;stroke:none"
       d="m 333.40271,489.42361 c 0.0343,0.49484 0.0623,0.83239 0.10028,1.2039 0.3656,0.62928 0.37665,0.73981 0.0501,0.4013 -0.0152,-0.11005 -0.0373,-0.27701 -0.0501,-0.4013 -0.0373,-0.064 -0.15628,-0.27689 -0.20056,-0.35115 0.0471,-0.33596 0.0896,-0.66744 0.10028,-0.85275 z"
       id="path4501"
       inkscape:connector-curvature="0" />
    <path
       style="fill:url(#radialGradient5791);fill-opacity:1;stroke:none"
       d="m 422.75492,193.72747 c -8.14553,-28.80686 -8.19147,-40.59368 -53.25081,-58.60364 45.4328,11.58403 51.05898,15.30859 53.25081,58.60364 z"
       id="path5783"
       inkscape:connector-curvature="0"
       sodipodi:nodetypes="ccc" />
    <path
       style="fill:#2b1100;fill-rule:evenodd;stroke:none"
       d="m 166.22759,371.36528 c -2.5493,-1.05766 5.73888,-26.77318 18.17323,-57.52515 12.43435,-30.75197 24.29852,-55.0131 26.86908,-54.0082 1.28528,0.50245 0.003,7.23577 -3.15882,17.69976 -3.16178,10.46398 -8.21173,24.65462 -14.43953,40.05698 -12.45561,30.80473 -24.89466,54.83427 -27.44396,53.77661 0,0 0,0 0,0 z"
       id="path7009"
       inkscape:path-effect="#path-effect7011"
       inkscape:original-d="m 166.22759,371.36528 c 19.21257,-46.30844 27.91373,-67.71803 45.04231,-111.53335"
       inkscape:connector-curvature="0"
       sodipodi:nodetypes="cc" />
  </g>
</svg>
