<?xml version="1.0" encoding="UTF-8" standalone="no"?>
<!-- Created with Inkscape (http://www.inkscape.org/) -->

<svg
   xmlns:dc="http://purl.org/dc/elements/1.1/"
   xmlns:cc="http://creativecommons.org/ns#"
   xmlns:rdf="http://www.w3.org/1999/02/22-rdf-syntax-ns#"
   xmlns:svg="http://www.w3.org/2000/svg"
   xmlns="http://www.w3.org/2000/svg"
   xmlns:sodipodi="http://sodipodi.sourceforge.net/DTD/sodipodi-0.dtd"
   xmlns:inkscape="http://www.inkscape.org/namespaces/inkscape"
   width="292.54926"
   height="469.06766"
   id="svg3179"
   version="1.1"
   inkscape:version="0.48.4 r9939"
   sodipodi:docname="New document 2">
  <defs
     id="defs3181">
    <filter
       color-interpolation-filters="sRGB"
       inkscape:collect="always"
       id="filter4005">
      <feGaussianBlur
         inkscape:collect="always"
         stdDeviation="3.8804087"
         id="feGaussianBlur4007" />
    </filter>
  </defs>
  <sodipodi:namedview
     id="base"
     pagecolor="#ffffff"
     bordercolor="#666666"
     borderopacity="1.0"
     inkscape:pageopacity="0.0"
     inkscape:pageshadow="2"
     inkscape:zoom="0.35"
     inkscape:cx="363.59399"
     inkscape:cy="-9.751854"
     inkscape:document-units="px"
     inkscape:current-layer="layer1"
     showgrid="false"
     fit-margin-top="0"
     fit-margin-left="0"
     fit-margin-right="0"
     fit-margin-bottom="0"
     inkscape:window-width="1317"
     inkscape:window-height="744"
     inkscape:window-x="49"
     inkscape:window-y="24"
     inkscape:window-maximized="1" />
  <metadata
     id="metadata3184">
    <rdf:RDF>
      <cc:Work
         rdf:about="">
        <dc:format>image/svg+xml</dc:format>
        <dc:type
           rdf:resource="http://purl.org/dc/dcmitype/StillImage" />
        <dc:title></dc:title>
      </cc:Work>
    </rdf:RDF>
  </metadata>
  <g
     inkscape:label="Layer 1"
     inkscape:groupmode="layer"
     id="layer1"
     transform="translate(-11.406014,-53.542645)">
    <path
       sodipodi:nodetypes="cccccccccccccccccc"
       inkscape:connector-curvature="0"
       id="path3803"
       d="m 49.36817,286.3444 0.10414,5.06536 c 43.37362,25.1265 82.51892,47.92886 125.59144,93.2296 l 80.40236,105.50602 11.23912,-6.80181 -86.93717,-103.08374 -0.10814,-0.11237 -0.10814,-0.11237 C 135.85584,334.07864 92.76298,311.48302 49.36815,286.34424 z m -1.64541,17.32973 0.0926,5.93958 c 39.88459,30.48767 66.03011,57.34293 103.40243,108.04061 l 54.45187,92.01546 11.08852,-2.87559 -60.34942,-92.90177 -0.10814,-0.11237 -0.10814,-0.11237 C 118.49805,362.53318 87.85367,334.34993 47.72273,303.67399 z"
       style="font-size:medium;font-style:normal;font-variant:normal;font-weight:normal;font-stretch:normal;text-indent:0;text-align:start;text-decoration:none;line-height:normal;letter-spacing:normal;word-spacing:normal;text-transform:none;direction:ltr;block-progression:tb;writing-mode:lr-tb;text-anchor:start;baseline-shift:baseline;color:#000000;fill:#ffffff;fill-opacity:1;stroke:none;stroke-width:3.6466713;marker:none;visibility:visible;display:inline;overflow:visible;enable-background:accumulate;font-family:Sans;-inkscape-font-specification:Sans" />
    <path
       transform="matrix(1.1491451,0,0,1.1893338,-228.42452,-386.91021)"
       inkscape:connector-curvature="0"
       id="path3944"
       d="m 411.86484,526.7092 -3.4375,16.625 -3.875,0 c -0.0106,0 -0.0208,-4e-5 -0.0312,0 l -4.9375,-13.15625 -3,14.25 c -2.4846,1.41782 -0.28125,4.07735 -0.28125,7.15625 l 0,77.71875 c -4.36238,-1.67863 -10.80968,-4.99908 -22.28125,-12.0625 -4.08928,-4.44811 -9.12992,-7.0625 -14.59375,-7.0625 -13.63276,0 -24.6875,16.35235 -24.6875,36.53125 0,1.44394 0.0774,2.84968 0.1875,4.25 -2.98068,2.63354 -5.15625,10.67257 -5.15625,20.15625 0,11.62629 3.26184,21.03125 7.28125,21.03125 3.50549,0 6.43391,-7.17294 7.125,-16.71875 2.29909,2.67667 4.92871,4.78702 7.78125,6.125 l 9.75,10.03125 c -0.21673,3.3675 -0.3125,6.8678 -0.3125,10.4375 0,28.73027 7.37689,52.03125 16.46875,52.03125 6.55259,0 12.19418,-12.1435 14.84375,-29.65625 5.57213,3.76913 11.93577,5.9375 18.71875,5.9375 3.27695,0 6.45449,-0.52924 9.5,-1.46875 2.96937,13.60325 7.93733,22.53125 13.5625,22.53125 9.09186,0 16.46875,-23.26973 16.46875,-52 0,-3.92967 -0.14493,-7.75705 -0.40625,-11.4375 0.26153,-2.29365 0.40625,-4.61596 0.40625,-7 0,-20.57425 -10.06425,-38.20106 -24.375,-45.625 9.8e-4,-0.0526 0,-0.10339 0,-0.15625 l 0,-83.59375 c 0,-2.7028 1.43202,-4.71614 -0.5625,-6.21875 l -2.7188,-17.84375 -3.375,15.96875 c -0.51939,-0.10159 -1.04357,-0.15625 -1.59375,-0.15625 l -3.375,0 -3.09375,-16.625 z"
       style="color:#000000;fill:#000000;fill-opacity:0.96078431;fill-rule:nonzero;stroke:#000000;stroke-width:2.7776351;stroke-linecap:round;stroke-linejoin:round;stroke-miterlimit:4;stroke-opacity:1;stroke-dasharray:none;stroke-dashoffset:0;marker:none;visibility:visible;display:inline;overflow:visible;filter:url(#filter4005);enable-background:accumulate" />
    <path
       sodipodi:type="arc"
       style="color:#000000;fill:#002b6c;fill-opacity:1;fill-rule:nonzero;stroke:#ffffff;stroke-width:4.5999999;stroke-linecap:round;stroke-linejoin:round;stroke-miterlimit:4;stroke-opacity:1;stroke-dasharray:none;stroke-dashoffset:0;marker:none;visibility:visible;display:inline;overflow:visible;enable-background:accumulate"
       id="path3790"
       sodipodi:cx="473.4548"
       sodipodi:cy="589.34918"
       sodipodi:rx="16.462267"
       sodipodi:ry="52.020763"
       d="m 489.91707,589.34918 c 0,28.73028 -7.37041,52.02077 -16.46227,52.02077 -9.09186,0 -16.46226,-23.29049 -16.46226,-52.02077 0,-28.73027 7.3704,-52.02076 16.46226,-52.02076 9.09186,0 16.46227,23.29049 16.46227,52.02076 z"
       transform="matrix(1.1491451,0,0,1.1893338,-261.71938,-253.66025)" />
    <path
       style="opacity:0.58436213;color:#000000;fill:#000000;stroke:#000000;stroke-width:9.19536686;stroke-linecap:round;stroke-linejoin:round;stroke-miterlimit:4;stroke-opacity:1;stroke-dasharray:none;stroke-dashoffset:0;marker:none;visibility:visible;display:inline;overflow:visible;enable-background:accumulate"
       d="m 87.596929,58.140328 c -39.540214,0 -71.593232,23.865163 -71.593232,53.270862 0,12.95687 6.24181,24.83044 16.586601,34.06238 -2.811816,4.54758 -4.456906,9.55768 -4.456906,14.85393 0,20.27063 22.881825,36.72348 51.11381,36.72348 7.54141,0 14.712154,-1.18507 21.156368,-3.2901 4.5036,16.96566 25.27056,29.80458 50.2112,29.80458 5.94544,0 11.61757,-0.74057 16.9251,-2.08052 9.16936,9.84012 24.75453,16.35384 42.48201,16.35384 28.23199,0 51.11384,-16.45288 51.11384,-36.72352 0,-13.43734 -10.0447,-25.19934 -25.04917,-31.59481 5.55189,-7.56557 8.68824,-16.27237 8.68824,-25.49839 0,-29.4057 -32.053,-53.222479 -71.59324,-53.222479 -6.44464,0 -12.67711,0.602731 -18.61762,1.790205 C 144.33204,72.483935 118.21642,58.140328 87.596929,58.140328 z"
       id="path3903"
       inkscape:connector-curvature="0" />
    <path
       inkscape:connector-curvature="0"
       id="path4009"
       d="m 92.805579,58.140328 c -41.860466,0 -75.79436,24.873003 -75.79436,55.520482 0,13.50403 6.608074,25.87903 17.559929,35.50084 -2.976827,4.73961 -4.718501,9.96129 -4.718501,15.48119 0,21.12667 24.224566,38.27432 54.113236,38.27432 7.983976,0 15.575438,-1.23514 22.397857,-3.42907 4.76784,17.68214 26.75344,31.06324 53.1576,31.06324 6.29433,0 12.2993,-0.77186 17.91827,-2.16837 9.70745,10.25568 26.20717,17.04447 44.97489,17.04447 29.88867,0 54.11325,-17.1477 54.11325,-38.27438 0,-14.0048 -10.63414,-26.26351 -26.51909,-32.92901 5.87768,-7.88511 9.19809,-16.95958 9.19809,-26.57522 0,-30.6475 -33.93389,-55.470061 -75.79437,-55.470061 -6.82286,0 -13.42102,0.628205 -19.71014,1.865812 C 152.86994,73.08965 125.22185,58.140328 92.805579,58.140328 z"
       style="color:#000000;fill:#808080;stroke:none;stroke-width:7.77545786;marker:none;visibility:visible;display:inline;overflow:visible;enable-background:accumulate" />
    <path
       inkscape:connector-curvature="0"
       id="path3810"
       d="m 158.18043,94.898373 c -30.35023,0 -58.985833,19.659507 -63.954424,43.883227 -2.189303,10.67358 0.59553,20.4547 6.976084,28.05975 -2.926696,3.74619 -5.035987,7.87341 -5.930867,12.23632 -3.425039,16.69847 11.358567,30.2519 33.028827,30.2519 5.78864,0 11.49299,-0.97622 16.79513,-2.71031 0.5902,13.9759 14.3611,24.55227 33.50503,24.55227 4.5636,0 9.04253,-0.61003 13.34291,-1.71385 5.37555,8.10606 16.2378,13.47191 29.84503,13.47191 21.67027,0 42.0139,-13.55351 45.43896,-30.25198 2.27046,-11.06933 -3.45228,-20.75859 -13.88876,-26.02701 5.53986,-6.23235 9.41843,-13.40481 10.97731,-21.00494 4.9686,-24.22371 -15.61036,-43.84342 -45.96059,-43.84342 -4.94679,0 -9.83251,0.49655 -14.59299,1.47472 -4.45656,-16.56265 -22.07874,-28.378587 -45.58165,-28.378587 z"
       style="opacity:0.53497943;color:#000000;fill:#cccccc;stroke:none;stroke-width:6.84247112;marker:none;visibility:visible;display:inline;overflow:visible;enable-background:accumulate" />
    <path
       style="opacity:0.80658438;color:#000000;fill:#ffffff;stroke:none;stroke-width:4.08763504;marker:none;visibility:visible;display:inline;overflow:visible;enable-background:accumulate"
       d="m 199.53628,139.6931 c -19.61949,-4.37566 -38.63966,4.67486 -42.47876,20.19719 -1.69165,6.83951 -0.14485,13.79792 3.78299,19.81594 -1.98891,2.08938 -3.45929,4.55198 -4.15077,7.34769 -2.64647,10.70025 6.55921,21.91735 20.56767,25.04159 3.74198,0.83459 7.45477,1.00255 10.92717,0.60452 0.0201,9.45401 8.64776,18.5294 21.02307,21.28945 2.95008,0.65795 5.86123,0.89472 8.66972,0.77476 3.26506,6.209 10.14786,11.3721 18.94404,13.33389 14.00847,3.12428 27.51028,-3.02846 30.15677,-13.72871 1.75435,-7.09311 -1.69415,-14.4135 -8.30424,-19.4499 3.74254,-3.37922 6.4355,-7.6282 7.64004,-12.49831 3.83909,-15.52233 -8.95581,-31.64153 -28.57531,-36.01721 -3.19779,-0.7132 -6.36896,-1.08473 -9.47162,-1.11531 -2.452,-11.74553 -13.53767,-22.2071 -28.73077,-25.59559 z"
       id="path3906"
       inkscape:connector-curvature="0" />
    <path
       sodipodi:nodetypes="ccscccsccccscccsscsscsscccscc"
       inkscape:connector-curvature="0"
       id="path3013"
       d="m 256.32019,241.85775 -3.89402,19.81778 -4.45031,0 c -0.0111,0 -0.0574,-4e-5 -0.0694,0 l -5.63243,-15.64561 -3.4768,16.9668 c -2.85516,1.68627 -0.34768,4.82155 -0.34768,8.4834 l 0,92.41346 c -5.01301,-1.99646 -12.40679,-5.92368 -25.58928,-14.32444 -4.69917,-5.29028 -10.47945,-8.41386 -16.75819,-8.41386 -27.95896,0.0534 -33.97498,51.61371 -34.07269,72.4566 0,13.82753 3.72545,25.03299 8.34433,25.03299 4.02449,0 7.40697,-8.48082 8.20526,-19.81779 2.63082,3.16753 5.63423,5.64607 8.90062,7.23176 l 6.04964,6.46685 c -0.44338,5.35088 -0.69536,10.92511 -0.69536,16.7582 0,34.19782 8.16151,61.95665 18.21845,61.95665 7.73402,0 14.32688,-16.43916 16.96681,-39.56603 7.68421,7.75043 17.31304,12.37742 27.81443,12.37742 25.07487,0 45.4766,-26.24868 45.4766,-58.68846 0,-24.46964 -11.57793,-45.47815 -28.02304,-54.30768 0.001,-0.0625 0,-0.0761 0,-0.13907 l 0,-99.4366 c 0,-3.21452 1.59661,-5.58373 -0.69536,-7.37082 l -3.05959,-21.27804 -3.89402,18.98335 c -0.59685,-0.12083 -1.24524,-0.13908 -1.87748,-0.13908 l -3.82448,0 z"
       style="color:#000000;fill:#00317b;fill-opacity:1;fill-rule:nonzero;stroke:#ffffff;stroke-width:3.10971737;stroke-linecap:round;stroke-linejoin:round;stroke-miterlimit:4;stroke-opacity:1;stroke-dasharray:none;stroke-dashoffset:0;marker:none;visibility:visible;display:inline;overflow:visible;enable-background:accumulate" />
    <path
       sodipodi:nodetypes="cscccc"
       inkscape:connector-curvature="0"
       id="path4965"
       d="m 209.65992,512.38547 c 3.64429,-2.60372 6.48982,-7.56613 8.34369,-17.69942 19.45136,-106.32182 -7.68204,-121.17776 -12.09367,-98.09365 7.9806,-38.34709 36.25346,-11.91101 23.41797,78.12997 l -9.98115,31.96931 z"
       style="fill:#ffffff;stroke:none" />
    <path
       style="fill:#ffffff;stroke:none"
       d="m 176.93141,419.39374 c 5.25433,-36.03989 -1.04382,-42.6104 -4.3281,-34.72154 5.10284,-13.86302 11.94806,-2.72523 7.97139,34.39068 z"
       id="path4967"
       inkscape:connector-curvature="0"
       sodipodi:nodetypes="cccc" />
  </g>
</svg>
