<?xml version="1.0" encoding="UTF-8" standalone="no"?>
<!-- Created with Inkscape (http://www.inkscape.org/) -->

<svg
   xmlns:dc="http://purl.org/dc/elements/1.1/"
   xmlns:cc="http://creativecommons.org/ns#"
   xmlns:rdf="http://www.w3.org/1999/02/22-rdf-syntax-ns#"
   xmlns:svg="http://www.w3.org/2000/svg"
   xmlns="http://www.w3.org/2000/svg"
   xmlns:sodipodi="http://sodipodi.sourceforge.net/DTD/sodipodi-0.dtd"
   xmlns:inkscape="http://www.inkscape.org/namespaces/inkscape"
   width="602.539"
   height="635.47113"
   id="svg2"
   version="1.1"
   inkscape:version="0.48.4 r9939"
   sodipodi:docname="panda.svg"
   inkscape:export-filename="/home/iain/gxeshare/Share/Graphic_Design/panda.png"
   inkscape:export-xdpi="72"
   inkscape:export-ydpi="72">
  <defs
     id="defs4" />
  <sodipodi:namedview
     id="base"
     pagecolor="#ffffff"
     bordercolor="#666666"
     borderopacity="1.0"
     inkscape:pageopacity="0.0"
     inkscape:pageshadow="2"
     inkscape:zoom="0.78081482"
     inkscape:cx="500.32815"
     inkscape:cy="282.91532"
     inkscape:document-units="px"
     inkscape:current-layer="layer1"
     showgrid="false"
     inkscape:window-width="1317"
     inkscape:window-height="744"
     inkscape:window-x="49"
     inkscape:window-y="24"
     inkscape:window-maximized="1"
     fit-margin-top="0"
     fit-margin-left="0"
     fit-margin-right="0"
     fit-margin-bottom="0" />
  <metadata
     id="metadata7">
    <rdf:RDF>
      <cc:Work
         rdf:about="">
        <dc:format>image/svg+xml</dc:format>
        <dc:type
           rdf:resource="http://purl.org/dc/dcmitype/StillImage" />
        <dc:title />
      </cc:Work>
    </rdf:RDF>
  </metadata>
  <g
     inkscape:label="Layer 1"
     inkscape:groupmode="layer"
     id="layer1"
     transform="translate(-25.852935,-327.75912)">
    <path
       transform="matrix(-0.93436132,0.35632698,-0.35632698,-0.93436132,853.65394,726.83283)"
       d="m 681.33955,339.38904 c 0,19.80491 -52.75234,35.85997 -117.82563,35.85997 -65.0733,0 -117.82563,-16.05506 -117.82563,-35.85997 0,-19.80492 52.75233,-35.85998 117.82563,-35.85998 65.07329,0 117.82563,16.05506 117.82563,35.85998 z"
       sodipodi:ry="35.859974"
       sodipodi:rx="117.82563"
       sodipodi:cy="339.38904"
       sodipodi:cx="563.51392"
       id="path3784"
       style="fill:#ffffff;fill-opacity:1;stroke:#000000;stroke-width:6.80000019;stroke-linecap:round;stroke-miterlimit:4;stroke-opacity:1;stroke-dasharray:none;stroke-dashoffset:0"
       sodipodi:type="arc" />
    <path
       sodipodi:type="arc"
       style="fill:#ffffff;fill-opacity:1;stroke:#000000;stroke-width:6.80000019;stroke-linecap:round;stroke-miterlimit:4;stroke-opacity:1;stroke-dasharray:none;stroke-dashoffset:0"
       id="path3802"
       sodipodi:cx="304.80978"
       sodipodi:cy="614.74243"
       sodipodi:rx="55.070675"
       sodipodi:ry="67.877808"
       d="m 359.88046,614.74243 c 0,37.48788 -24.65598,67.87781 -55.07068,67.87781 -30.41469,0 -55.07067,-30.38993 -55.07067,-67.87781 0,-37.48788 24.65598,-67.87781 55.07067,-67.87781 30.4147,0 55.07068,30.38993 55.07068,67.87781 z"
       transform="translate(-21.772128,184.03851)" />
    <path
       sodipodi:type="arc"
       style="fill:#ffffff;fill-opacity:1;stroke:#000000;stroke-width:2;stroke-linecap:round;stroke-miterlimit:4;stroke-opacity:1;stroke-dasharray:none;stroke-dashoffset:0"
       id="path3012"
       sodipodi:cx="434.16183"
       sodipodi:cy="448.89005"
       sodipodi:rx="149.84346"
       sodipodi:ry="178.65952"
       d="m 584.00529,448.89005 c 0,98.67092 -67.0872,178.65951 -149.84346,178.65951 -82.75625,0 -149.84346,-79.98859 -149.84346,-178.65951 0,-98.67093 67.08721,-178.65952 149.84346,-178.65952 82.75626,0 149.84346,79.98859 149.84346,178.65952 z"
       transform="translate(-38.421402,203.24921)" />
    <path
       style="fill:#000000;fill-opacity:1;stroke:#000000;stroke-width:2;stroke-linecap:round;stroke-miterlimit:4;stroke-opacity:1;stroke-dashoffset:0"
       d="m 331.70476,531.75219 c -11.3788,29.97348 -17.78393,66.35515 -75.81061,42.9039 -15.17257,-16.3161 -15.26771,-16.37945 -4.87434,-42.9039 10.39337,-26.52444 36.8808,-48.02675 59.16133,-48.02675 22.28054,0 31.63444,21.39333 21.52362,48.02675 z"
       id="path2994"
       inkscape:connector-curvature="0"
       sodipodi:nodetypes="scsss" />
    <path
       sodipodi:type="arc"
       style="fill:#000000;fill-opacity:1;stroke:#000000;stroke-width:2;stroke-linecap:round;stroke-miterlimit:4;stroke-opacity:1;stroke-dasharray:none;stroke-dashoffset:0"
       id="path2990"
       sodipodi:cx="243.33554"
       sodipodi:cy="164.57167"
       sodipodi:rx="46.105682"
       sodipodi:ry="48.026752"
       d="m 289.44122,164.57167 c 0,26.52444 -20.64221,48.02675 -46.10568,48.02675 -25.46346,0 -46.10568,-21.50231 -46.10568,-48.02675 0,-26.52444 20.64222,-48.02675 46.10568,-48.02675 25.46347,0 46.10568,21.50231 46.10568,48.02675 z"
       transform="translate(25.614268,212.2142)" />
    <path
       style="fill:#000000;fill-opacity:1;stroke:#000000;stroke-width:2;stroke-linecap:round;stroke-miterlimit:4;stroke-opacity:1;stroke-dasharray:none;stroke-dashoffset:0"
       d="m 395.73927,473.4642 c -82.75626,0 -149.84375,80.01657 -149.84375,178.6875 0,1.4893 0.0321,2.95692 0.0625,4.4375 78.92209,-28.90582 179.30792,-30.97855 299.5625,-8.21875 -1.6839,-96.92929 -68.0822,-174.90625 -149.78125,-174.90625 z"
       id="path3797"
       inkscape:connector-curvature="0" />
    <path
       style="fill:#ffffff;fill-opacity:1;stroke:#000000;stroke-width:6.80000019;stroke-linecap:round;stroke-miterlimit:4;stroke-opacity:1;stroke-dasharray:none;stroke-dashoffset:0"
       d="m 472.58323,469.6376 c 0,52.75584 -84.67718,101.69103 -149.95485,111.99721 -18.94879,32.72466 -39.18553,5.44245 -48.15164,1.87697 -43.00862,-17.1029 7.43002,-6.2369 24.56982,0.10932 24.10581,-24.46078 29.21596,-64.62521 14.65216,-49.783 -19.62572,20.00091 -32.71908,-19.36167 -51.64505,17.1412 -18.62698,26.37162 -126.29806,-36.61477 -28.96384,-81.3417 0,-59.41476 53.61243,-107.57993 119.7467,-107.57993 66.13427,0 119.7467,48.16517 119.7467,107.57993 z"
       id="path2985"
       inkscape:connector-curvature="0"
       sodipodi:nodetypes="scscscccs" />
    <path
       sodipodi:type="arc"
       style="fill:#000000;fill-opacity:1;stroke:#000000;stroke-width:2;stroke-linecap:round;stroke-miterlimit:4;stroke-opacity:1;stroke-dasharray:none;stroke-dashoffset:0"
       id="path2988"
       sodipodi:cx="176.0981"
       sodipodi:cy="292.00266"
       sodipodi:rx="21.131771"
       sodipodi:ry="24.333555"
       d="m 197.22987,292.00266 c 0,13.43905 -9.46102,24.33355 -21.13177,24.33355 -11.67076,0 -21.13177,-10.8945 -21.13177,-24.33355 0,-13.43906 9.46101,-24.33356 21.13177,-24.33356 11.67075,0 21.13177,10.8945 21.13177,24.33356 z"
       transform="translate(25.614268,212.2142)" />
    <path
       transform="translate(207.47557,226.30205)"
       d="m 289.44122,164.57167 c 0,26.52444 -20.64221,48.02675 -46.10568,48.02675 -25.46346,0 -46.10568,-21.50231 -46.10568,-48.02675 0,-26.52444 20.64222,-48.02675 46.10568,-48.02675 25.46347,0 46.10568,21.50231 46.10568,48.02675 z"
       sodipodi:ry="48.026752"
       sodipodi:rx="46.105682"
       sodipodi:cy="164.57167"
       sodipodi:cx="243.33554"
       id="path2992"
       style="fill:#000000;fill-opacity:1;stroke:#000000;stroke-width:2;stroke-linecap:round;stroke-miterlimit:4;stroke-opacity:1;stroke-dasharray:none;stroke-dashoffset:0"
       sodipodi:type="arc" />
    <path
       sodipodi:type="arc"
       style="fill:#000000;fill-opacity:1;stroke:#000000;stroke-width:2;stroke-linecap:round;stroke-miterlimit:4;stroke-opacity:1;stroke-dasharray:none;stroke-dashoffset:0"
       id="path2997"
       sodipodi:cx="243.33554"
       sodipodi:cy="164.57167"
       sodipodi:rx="46.105682"
       sodipodi:ry="48.026752"
       d="m 289.44122,164.57167 c 0,26.52444 -20.64221,48.02675 -46.10568,48.02675 -25.46346,0 -46.10568,-21.50231 -46.10568,-48.02675 0,-26.52444 20.64222,-48.02675 46.10568,-48.02675 25.46347,0 46.10568,21.50231 46.10568,48.02675 z"
       transform="translate(92.211362,301.86414)" />
    <path
       style="fill:#000000;fill-opacity:1;stroke:#000000;stroke-width:2;stroke-linecap:round;stroke-miterlimit:4;stroke-opacity:1;stroke-dasharray:none;stroke-dashoffset:0"
       d="m 260.36427,401.2767 c -17.04643,18.5866 -27.28125,42.41163 -27.28125,68.375 -8.93532,4.10595 -8.45195,3.2342 -14.15947,7.56465 7.58303,5.70541 9.21546,14.18535 19.28447,14.18535 25.46347,0 46.125,-21.50681 46.125,-48.03125 0,-18.15287 -9.70338,-33.92815 -23.96875,-42.09375 z"
       id="path2999"
       inkscape:connector-curvature="0"
       sodipodi:nodetypes="cccssc" />
    <path
       transform="matrix(0.57883292,0,0,0.5556796,183.81022,380.10955)"
       d="m 289.44122,164.57167 c 0,26.52444 -20.64221,48.02675 -46.10568,48.02675 -25.46346,0 -46.10568,-21.50231 -46.10568,-48.02675 0,-26.52444 20.64222,-48.02675 46.10568,-48.02675 25.46347,0 46.10568,21.50231 46.10568,48.02675 z"
       sodipodi:ry="48.026752"
       sodipodi:rx="46.105682"
       sodipodi:cy="164.57167"
       sodipodi:cx="243.33554"
       id="path3004"
       style="fill:#ffffff;fill-opacity:1;stroke:#000000;stroke-width:2;stroke-linecap:round;stroke-miterlimit:4;stroke-opacity:1;stroke-dasharray:none;stroke-dashoffset:0"
       sodipodi:type="arc" />
    <path
       sodipodi:type="arc"
       style="fill:#ffffff;fill-opacity:1;stroke:#000000;stroke-width:2;stroke-linecap:round;stroke-miterlimit:4;stroke-opacity:1;stroke-dasharray:none;stroke-dashoffset:0"
       id="path3006"
       sodipodi:cx="243.33554"
       sodipodi:cy="164.57167"
       sodipodi:rx="46.105682"
       sodipodi:ry="48.026752"
       d="m 289.44122,164.57167 c 0,26.52444 -20.64221,48.02675 -46.10568,48.02675 -25.46346,0 -46.10568,-21.50231 -46.10568,-48.02675 0,-26.52444 20.64222,-48.02675 46.10568,-48.02675 25.46347,0 46.10568,21.50231 46.10568,48.02675 z"
       transform="matrix(0.37476226,0,-0.06667321,0.47866953,175.92221,377.41467)" />
    <path
       sodipodi:type="arc"
       style="fill:#000000;fill-opacity:1;stroke:#000000;stroke-width:2;stroke-linecap:round;stroke-miterlimit:4;stroke-opacity:1;stroke-dasharray:none;stroke-dashoffset:0"
       id="path3008"
       sodipodi:cx="243.33554"
       sodipodi:cy="164.57167"
       sodipodi:rx="46.105682"
       sodipodi:ry="48.026752"
       d="m 289.44122,164.57167 c 0,26.52444 -20.64221,48.02675 -46.10568,48.02675 -25.46346,0 -46.10568,-21.50231 -46.10568,-48.02675 0,-26.52444 20.64222,-48.02675 46.10568,-48.02675 25.46347,0 46.10568,21.50231 46.10568,48.02675 z"
       transform="matrix(0.27935347,0,0,0.29484599,248.99994,430.71966)" />
    <path
       transform="matrix(0.21135616,0,0,0.22956857,204.71222,426.73428)"
       d="m 289.44122,164.57167 c 0,26.52444 -20.64221,48.02675 -46.10568,48.02675 -25.46346,0 -46.10568,-21.50231 -46.10568,-48.02675 0,-26.52444 20.64222,-48.02675 46.10568,-48.02675 25.46347,0 46.10568,21.50231 46.10568,48.02675 z"
       sodipodi:ry="48.026752"
       sodipodi:rx="46.105682"
       sodipodi:cy="164.57167"
       sodipodi:cx="243.33554"
       id="path3010"
       style="fill:#000000;fill-opacity:1;stroke:#000000;stroke-width:2;stroke-linecap:round;stroke-miterlimit:4;stroke-opacity:1;stroke-dasharray:none;stroke-dashoffset:0"
       sodipodi:type="arc" />
    <path
       sodipodi:type="arc"
       style="fill:#ffffff;fill-opacity:1;stroke:#000000;stroke-width:6.80000019;stroke-linecap:round;stroke-miterlimit:4;stroke-opacity:1;stroke-dasharray:none;stroke-dashoffset:0"
       id="path3782"
       sodipodi:cx="563.51392"
       sodipodi:cy="339.38904"
       sodipodi:rx="117.82563"
       sodipodi:ry="35.859974"
       d="m 681.33955,339.38904 c 0,19.80491 -52.75234,35.85997 -117.82563,35.85997 -65.0733,0 -117.82563,-16.05506 -117.82563,-35.85997 0,-19.80492 52.75233,-35.85998 117.82563,-35.85998 65.07329,0 117.82563,16.05506 117.82563,35.85998 z"
       transform="matrix(0.35632698,0.93436132,-0.93436132,0.35632698,641.40929,-13.890189)" />
    <path
       style="fill:#000000;fill-opacity:1;stroke:#000000;stroke-width:6.80000019;stroke-linecap:round;stroke-miterlimit:4;stroke-opacity:1;stroke-dasharray:none;stroke-dashoffset:0"
       d="m 57.955431,571.71208 c -10.468254,1.72714 -17.39252,12.45164 -15.492662,23.96671 1.899859,11.51507 11.90729,19.4777 22.375544,17.75055 0.812643,-0.13407 1.606757,-0.34303 2.374464,-0.58179 -1.831831,3.60228 -3.111588,7.52958 -3.748815,11.64053 -4.287629,-5.91304 -11.244459,-9.26183 -18.404654,-8.08048 -10.468254,1.72715 -17.39252,12.45164 -15.492661,23.96672 1.899858,11.51507 11.90729,19.47769 22.375544,17.75055 6.603062,-1.08943 11.806689,-5.79052 14.270923,-11.98298 1.089342,2.55328 2.43726,4.92085 3.995584,7.1322 -8.690712,3.134 -14.102969,12.80899 -12.39855,23.1395 1.899859,11.51507 11.90729,19.47769 22.375544,17.75055 10.468254,-1.72715 17.418266,-12.48756 15.518407,-24.00263 -0.06782,-0.41108 -0.141016,-0.79573 -0.229231,-1.19741 3.556506,0.50677 7.256472,0.51308 10.973812,-0.10024 20.23863,-3.33915 33.82692,-23.03179 30.37263,-43.96829 -1.46262,-8.86498 -5.7402,-16.5239 -11.73376,-22.16682 4.69151,-4.53088 7.55482,-11.95359 7.08613,-19.82422 -0.70416,-11.82468 -8.68667,-20.16743 -17.86852,-18.65252 -9.18183,1.5149 -16.073797,12.31176 -15.369634,24.13644 0.08608,1.44549 0.30093,2.84757 0.594263,4.17774 -1.847179,0.0156 -3.713698,0.16931 -5.590355,0.47893 -5.098793,0.84125 -9.779579,2.71796 -13.869713,5.39225 0.671865,-2.83321 0.799927,-5.9018 0.287,-9.01066 -1.899859,-11.51507 -11.933037,-19.44178 -22.40129,-17.71463 z"
       id="path3786"
       inkscape:connector-curvature="0" />
    <path
       transform="matrix(0.80704105,-0.59049533,0.59049533,0.80704105,-313.15175,579.98153)"
       d="m 359.88046,614.74243 c 0,37.48788 -24.65598,67.87781 -55.07068,67.87781 -30.41469,0 -55.07067,-30.38993 -55.07067,-67.87781 0,-37.48788 24.65598,-67.87781 55.07067,-67.87781 30.4147,0 55.07068,30.38993 55.07068,67.87781 z"
       sodipodi:ry="67.877808"
       sodipodi:rx="55.070675"
       sodipodi:cy="614.74243"
       sodipodi:cx="304.80978"
       id="path3804"
       style="fill:#000000;fill-opacity:1;stroke:#000000;stroke-width:6.80000019;stroke-linecap:round;stroke-miterlimit:4;stroke-opacity:1;stroke-dasharray:none;stroke-dashoffset:0"
       sodipodi:type="arc" />
    <path
       transform="matrix(-1,0,0,1,774.48691,181.47708)"
       d="m 359.88046,614.74243 c 0,37.48788 -24.65598,67.87781 -55.07068,67.87781 -30.41469,0 -55.07067,-30.38993 -55.07067,-67.87781 0,-37.48788 24.65598,-67.87781 55.07067,-67.87781 30.4147,0 55.07068,30.38993 55.07068,67.87781 z"
       sodipodi:ry="67.877808"
       sodipodi:rx="55.070675"
       sodipodi:cy="614.74243"
       sodipodi:cx="304.80978"
       id="path3806"
       style="fill:#ffffff;fill-opacity:1;stroke:#000000;stroke-width:6.80000019;stroke-linecap:round;stroke-miterlimit:4;stroke-opacity:1;stroke-dasharray:none;stroke-dashoffset:0"
       sodipodi:type="arc" />
    <path
       sodipodi:type="arc"
       style="fill:#000000;fill-opacity:1;stroke:#000000;stroke-width:6.80000019;stroke-linecap:round;stroke-miterlimit:4;stroke-opacity:1;stroke-dasharray:none;stroke-dashoffset:0"
       id="path3808"
       sodipodi:cx="304.80978"
       sodipodi:cy="614.74243"
       sodipodi:rx="55.070675"
       sodipodi:ry="67.877808"
       d="m 359.88046,614.74243 c 0,37.48788 -24.65598,67.87781 -55.07068,67.87781 -30.41469,0 -55.07067,-30.38993 -55.07067,-67.87781 0,-37.48788 24.65598,-67.87781 55.07067,-67.87781 30.4147,0 55.07068,30.38993 55.07068,67.87781 z"
       transform="matrix(-0.80704105,-0.59049533,-0.59049533,0.80704105,1065.8666,577.4201)" />
    <path
       inkscape:connector-curvature="0"
       id="path3810"
       d="m 509.59563,800.35484 c 4.09296,9.78852 16.12445,14.05508 26.89181,9.55284 10.76736,-4.50225 16.20958,-16.07526 12.11662,-25.86378 -0.31773,-0.75987 -0.70406,-1.48446 -1.11331,-2.17648 3.92746,0.95242 8.04397,1.29273 12.19112,0.96548 -4.76586,5.53483 -6.42139,13.07612 -3.62185,19.77139 4.09297,9.78851 16.12445,14.05508 26.89182,9.55282 10.76736,-4.50225 16.20957,-16.07525 12.11661,-25.86377 -2.58171,-6.1743 -8.3554,-10.15456 -14.94905,-11.12549 2.23353,-1.6484 4.22677,-3.50563 6.01951,-5.53159 5.05233,7.73462 15.71413,10.77172 25.37385,6.73261 10.76736,-4.50225 16.20957,-16.07525 12.11662,-25.86377 -4.09297,-9.78851 -16.16533,-14.07185 -26.93269,-9.5696 -0.3844,0.16071 -0.74182,0.32058 -1.11236,0.49899 -0.32643,-3.57757 -1.17291,-7.17942 -2.62634,-10.65537 -7.91306,-18.92447 -30.20698,-27.60909 -49.78401,-19.42318 -8.28935,3.4661 -14.75642,9.39347 -18.86632,16.52608 -5.49005,-3.52116 -13.3728,-4.59692 -20.92361,-2.32714 -11.34417,3.41008 -17.6229,13.10025 -14.03291,21.68588 3.58999,8.58563 15.68445,12.80409 27.02862,9.39401 1.38675,-0.41688 2.70159,-0.94903 3.92836,-1.54098 0.44085,1.79387 1.02054,3.57472 1.75428,5.32953 1.99357,4.7677 4.89841,8.89005 8.44325,12.25384 -2.91178,-8.9e-4 -5.92729,0.58162 -8.83429,1.79714 -10.76735,4.50225 -16.16869,16.09203 -12.07573,25.88054 z"
       style="fill:#000000;fill-opacity:1;stroke:#000000;stroke-width:6.80000019;stroke-linecap:round;stroke-miterlimit:4;stroke-opacity:1;stroke-dasharray:none;stroke-dashoffset:0" />
    <path
       style="fill:#ff0000;fill-opacity:1;stroke:#000000;stroke-width:0;stroke-linecap:round;stroke-miterlimit:4;stroke-opacity:1;stroke-dasharray:none;stroke-dashoffset:0"
       d="m 285.42677,540.55795 c -8.45373,0 -19.68588,4.88074 -19.68588,10.73042 0,5.84968 5.21875,10.73042 13.67248,10.73042 1.43626,0 2.8069,-0.15031 4.125,-0.40625 2.11906,0.76738 4.50503,1.21875 7.0625,1.21875 8.45373,0 21.3259,-5.01741 21.3259,-10.86709 0,-5.84968 -6.85877,-10.59375 -15.3125,-10.59375 -1.41619,0 -2.76085,0.15718 -4.0625,0.40625 -2.13193,-0.7795 -4.54599,-1.21875 -7.125,-1.21875 z"
       id="path3812"
       inkscape:connector-curvature="0"
       sodipodi:nodetypes="ssscssscs" />
    <path
       style="fill:#000000;stroke:#000000;stroke-width:1px;stroke-linecap:butt;stroke-linejoin:miter;stroke-opacity:1"
       d="m 288.83725,541.11066 c -5.67797,3.7901 -9.31635,11.33273 -8.47344,10.93346 l 5.1934,-5.6034 7.24341,-5.46673 z"
       id="path3814"
       inkscape:connector-curvature="0"
       sodipodi:nodetypes="ccccc" />
  </g>
</svg>
