<?xml version="1.0" encoding="UTF-8" standalone="no"?>
<!-- Created with Inkscape (http://www.inkscape.org/) -->

<svg
   xmlns:dc="http://purl.org/dc/elements/1.1/"
   xmlns:cc="http://creativecommons.org/ns#"
   xmlns:rdf="http://www.w3.org/1999/02/22-rdf-syntax-ns#"
   xmlns:svg="http://www.w3.org/2000/svg"
   xmlns="http://www.w3.org/2000/svg"
   xmlns:sodipodi="http://sodipodi.sourceforge.net/DTD/sodipodi-0.dtd"
   xmlns:inkscape="http://www.inkscape.org/namespaces/inkscape"
   width="701.03455"
   height="635.47113"
   id="svg2"
   version="1.1"
   inkscape:version="0.48.4 r9939"
   sodipodi:docname="panda2.svg"
   inkscape:export-filename="/home/iain/gxeshare/Share/Graphic_Design/panda2.png"
   inkscape:export-xdpi="200"
   inkscape:export-ydpi="200">
  <defs
     id="defs4" />
  <sodipodi:namedview
     id="base"
     pagecolor="#ffffff"
     bordercolor="#666666"
     borderopacity="1.0"
     inkscape:pageopacity="0.0"
     inkscape:pageshadow="2"
     inkscape:zoom="0.78081482"
     inkscape:cx="377.37966"
     inkscape:cy="282.91532"
     inkscape:document-units="px"
     inkscape:current-layer="layer1"
     showgrid="false"
     inkscape:window-width="1317"
     inkscape:window-height="744"
     inkscape:window-x="49"
     inkscape:window-y="24"
     inkscape:window-maximized="1"
     fit-margin-top="0"
     fit-margin-left="0"
     fit-margin-right="0"
     fit-margin-bottom="0" />
  <metadata
     id="metadata7">
    <rdf:RDF>
      <cc:Work
         rdf:about="">
        <dc:format>image/svg+xml</dc:format>
        <dc:type
           rdf:resource="http://purl.org/dc/dcmitype/StillImage" />
        <dc:title />
      </cc:Work>
    </rdf:RDF>
  </metadata>
  <g
     inkscape:label="Layer 1"
     inkscape:groupmode="layer"
     id="layer1"
     transform="translate(-25.852935,-327.75912)">
    <path
       transform="matrix(-0.93436132,0.35632698,-0.35632698,-0.93436132,853.65394,726.83283)"
       d="m 681.33955,339.38904 c 0,19.80491 -52.75234,35.85997 -117.82563,35.85997 -65.0733,0 -117.82563,-16.05506 -117.82563,-35.85997 0,-19.80492 52.75233,-35.85998 117.82563,-35.85998 65.07329,0 117.82563,16.05506 117.82563,35.85998 z"
       sodipodi:ry="35.859974"
       sodipodi:rx="117.82563"
       sodipodi:cy="339.38904"
       sodipodi:cx="563.51392"
       id="path3784"
       style="fill:#ffffff;fill-opacity:1;stroke:#000000;stroke-width:6.80000019;stroke-linecap:round;stroke-miterlimit:4;stroke-opacity:1;stroke-dasharray:none;stroke-dashoffset:0"
       sodipodi:type="arc" />
    <path
       sodipodi:type="arc"
       style="fill:#ffffff;fill-opacity:1;stroke:#000000;stroke-width:6.80000019;stroke-linecap:round;stroke-miterlimit:4;stroke-opacity:1;stroke-dasharray:none;stroke-dashoffset:0"
       id="path3802"
       sodipodi:cx="304.80978"
       sodipodi:cy="614.74243"
       sodipodi:rx="55.070675"
       sodipodi:ry="67.877808"
       d="m 359.88046,614.74243 c 0,37.48788 -24.65598,67.87781 -55.07068,67.87781 -30.41469,0 -55.07067,-30.38993 -55.07067,-67.87781 0,-37.48788 24.65598,-67.87781 55.07067,-67.87781 30.4147,0 55.07068,30.38993 55.07068,67.87781 z"
       transform="translate(-21.772128,184.03851)" />
    <path
       sodipodi:type="arc"
       style="fill:#ffffff;fill-opacity:1;stroke:#000000;stroke-width:2;stroke-linecap:round;stroke-miterlimit:4;stroke-opacity:1;stroke-dasharray:none;stroke-dashoffset:0"
       id="path3012"
       sodipodi:cx="434.16183"
       sodipodi:cy="448.89005"
       sodipodi:rx="149.84346"
       sodipodi:ry="178.65952"
       d="m 584.00529,448.89005 c 0,98.67092 -67.0872,178.65951 -149.84346,178.65951 -82.75625,0 -149.84346,-79.98859 -149.84346,-178.65951 0,-98.67093 67.08721,-178.65952 149.84346,-178.65952 82.75626,0 149.84346,79.98859 149.84346,178.65952 z"
       transform="translate(-38.421402,203.24921)" />
    <path
       style="fill:#000000;fill-opacity:1;stroke:#000000;stroke-width:2;stroke-linecap:round;stroke-miterlimit:4;stroke-opacity:1;stroke-dashoffset:0"
       d="m 331.70476,531.75219 c -11.3788,29.97348 -17.78393,66.35515 -75.81061,42.9039 -15.17257,-16.3161 -15.26771,-16.37945 -4.87434,-42.9039 10.39337,-26.52444 36.8808,-48.02675 59.16133,-48.02675 22.28054,0 31.63444,21.39333 21.52362,48.02675 z"
       id="path2994"
       inkscape:connector-curvature="0"
       sodipodi:nodetypes="scsss" />
    <path
       sodipodi:type="arc"
       style="fill:#000000;fill-opacity:1;stroke:#000000;stroke-width:2;stroke-linecap:round;stroke-miterlimit:4;stroke-opacity:1;stroke-dasharray:none;stroke-dashoffset:0"
       id="path2990"
       sodipodi:cx="243.33554"
       sodipodi:cy="164.57167"
       sodipodi:rx="46.105682"
       sodipodi:ry="48.026752"
       d="m 289.44122,164.57167 c 0,26.52444 -20.64221,48.02675 -46.10568,48.02675 -25.46346,0 -46.10568,-21.50231 -46.10568,-48.02675 0,-26.52444 20.64222,-48.02675 46.10568,-48.02675 25.46347,0 46.10568,21.50231 46.10568,48.02675 z"
       transform="translate(25.614268,212.2142)" />
    <path
       style="fill:#000000;fill-opacity:1;stroke:#000000;stroke-width:2;stroke-linecap:round;stroke-miterlimit:4;stroke-opacity:1;stroke-dasharray:none;stroke-dashoffset:0"
       d="m 395.73927,473.4642 c -82.75626,0 -149.84375,80.01657 -149.84375,178.6875 0,1.4893 0.0321,2.95692 0.0625,4.4375 78.92209,-28.90582 179.30792,-30.97855 299.5625,-8.21875 -1.6839,-96.92929 -68.0822,-174.90625 -149.78125,-174.90625 z"
       id="path3797"
       inkscape:connector-curvature="0" />
    <path
       style="fill:#ffffff;fill-opacity:1;stroke:#000000;stroke-width:6.80000019;stroke-linecap:round;stroke-miterlimit:4;stroke-opacity:1;stroke-dasharray:none;stroke-dashoffset:0"
       d="m 352.84375,53.78125 c -66.13427,0 -119.75,48.17899 -119.75,107.59375 -70.98855,32.62059 -32.93563,74.95378 0.0937,85.25 1.46968,17.17161 21.72379,30.97582 47.28125,32.4375 10.35201,7.71439 26.67639,21.0463 42.15625,-5.6875 65.27767,-10.30618 149.96875,-59.24416 149.96875,-112 0,-59.41476 -53.61573,-107.59375 -119.75,-107.59375 z"
       transform="translate(0,308.2677)"
       id="path2985"
       inkscape:connector-curvature="0" />
    <path
       sodipodi:type="arc"
       style="fill:#000000;fill-opacity:1;stroke:#000000;stroke-width:2;stroke-linecap:round;stroke-miterlimit:4;stroke-opacity:1;stroke-dasharray:none;stroke-dashoffset:0"
       id="path2988"
       sodipodi:cx="176.0981"
       sodipodi:cy="292.00266"
       sodipodi:rx="21.131771"
       sodipodi:ry="24.333555"
       d="m 197.22987,292.00266 c 0,13.43905 -9.46102,24.33355 -21.13177,24.33355 -11.67076,0 -21.13177,-10.8945 -21.13177,-24.33355 0,-13.43906 9.46101,-24.33356 21.13177,-24.33356 11.67075,0 21.13177,10.8945 21.13177,24.33356 z"
       transform="translate(25.614268,212.2142)" />
    <path
       transform="translate(207.47557,226.30205)"
       d="m 289.44122,164.57167 c 0,26.52444 -20.64221,48.02675 -46.10568,48.02675 -25.46346,0 -46.10568,-21.50231 -46.10568,-48.02675 0,-26.52444 20.64222,-48.02675 46.10568,-48.02675 25.46347,0 46.10568,21.50231 46.10568,48.02675 z"
       sodipodi:ry="48.026752"
       sodipodi:rx="46.105682"
       sodipodi:cy="164.57167"
       sodipodi:cx="243.33554"
       id="path2992"
       style="fill:#000000;fill-opacity:1;stroke:#000000;stroke-width:2;stroke-linecap:round;stroke-miterlimit:4;stroke-opacity:1;stroke-dasharray:none;stroke-dashoffset:0"
       sodipodi:type="arc" />
    <path
       sodipodi:type="arc"
       style="fill:#000000;fill-opacity:1;stroke:#000000;stroke-width:2;stroke-linecap:round;stroke-miterlimit:4;stroke-opacity:1;stroke-dasharray:none;stroke-dashoffset:0"
       id="path2997"
       sodipodi:cx="243.33554"
       sodipodi:cy="164.57167"
       sodipodi:rx="46.105682"
       sodipodi:ry="48.026752"
       d="m 289.44122,164.57167 c 0,26.52444 -20.64221,48.02675 -46.10568,48.02675 -25.46346,0 -46.10568,-21.50231 -46.10568,-48.02675 0,-26.52444 20.64222,-48.02675 46.10568,-48.02675 25.46347,0 46.10568,21.50231 46.10568,48.02675 z"
       transform="translate(92.211362,301.86414)" />
    <path
       style="fill:#000000;fill-opacity:1;stroke:#000000;stroke-width:2;stroke-linecap:round;stroke-miterlimit:4;stroke-opacity:1;stroke-dasharray:none;stroke-dashoffset:0"
       d="m 260.36427,401.2767 c -17.04643,18.5866 -27.28125,42.41163 -27.28125,68.375 -8.93532,4.10595 -8.45195,3.2342 -14.15947,7.56465 7.58303,5.70541 9.21546,14.18535 19.28447,14.18535 25.46347,0 46.125,-21.50681 46.125,-48.03125 0,-18.15287 -9.70338,-33.92815 -23.96875,-42.09375 z"
       id="path2999"
       inkscape:connector-curvature="0"
       sodipodi:nodetypes="cccssc" />
    <path
       transform="matrix(0.57883292,0,0,0.5556796,183.81022,380.10955)"
       d="m 289.44122,164.57167 c 0,26.52444 -20.64221,48.02675 -46.10568,48.02675 -25.46346,0 -46.10568,-21.50231 -46.10568,-48.02675 0,-26.52444 20.64222,-48.02675 46.10568,-48.02675 25.46347,0 46.10568,21.50231 46.10568,48.02675 z"
       sodipodi:ry="48.026752"
       sodipodi:rx="46.105682"
       sodipodi:cy="164.57167"
       sodipodi:cx="243.33554"
       id="path3004"
       style="fill:#ffffff;fill-opacity:1;stroke:#000000;stroke-width:2;stroke-linecap:round;stroke-miterlimit:4;stroke-opacity:1;stroke-dasharray:none;stroke-dashoffset:0"
       sodipodi:type="arc" />
    <path
       sodipodi:type="arc"
       style="fill:#ffffff;fill-opacity:1;stroke:#000000;stroke-width:2;stroke-linecap:round;stroke-miterlimit:4;stroke-opacity:1;stroke-dasharray:none;stroke-dashoffset:0"
       id="path3006"
       sodipodi:cx="243.33554"
       sodipodi:cy="164.57167"
       sodipodi:rx="46.105682"
       sodipodi:ry="48.026752"
       d="m 289.44122,164.57167 c 0,26.52444 -20.64221,48.02675 -46.10568,48.02675 -25.46346,0 -46.10568,-21.50231 -46.10568,-48.02675 0,-26.52444 20.64222,-48.02675 46.10568,-48.02675 25.46347,0 46.10568,21.50231 46.10568,48.02675 z"
       transform="matrix(0.37476226,0,-0.06667321,0.47866953,175.92221,377.41467)" />
    <path
       sodipodi:type="arc"
       style="fill:#000000;fill-opacity:1;stroke:#000000;stroke-width:2;stroke-linecap:round;stroke-miterlimit:4;stroke-opacity:1;stroke-dasharray:none;stroke-dashoffset:0"
       id="path3008"
       sodipodi:cx="243.33554"
       sodipodi:cy="164.57167"
       sodipodi:rx="46.105682"
       sodipodi:ry="48.026752"
       d="m 289.44122,164.57167 c 0,26.52444 -20.64221,48.02675 -46.10568,48.02675 -25.46346,0 -46.10568,-21.50231 -46.10568,-48.02675 0,-26.52444 20.64222,-48.02675 46.10568,-48.02675 25.46347,0 46.10568,21.50231 46.10568,48.02675 z"
       transform="matrix(0.12976198,0,0,0.15123816,293.81334,446.9938)" />
    <path
       transform="matrix(0.11629668,0,0,0.12497814,233.36108,439.06976)"
       d="m 289.44122,164.57167 c 0,26.52444 -20.64221,48.02675 -46.10568,48.02675 -25.46346,0 -46.10568,-21.50231 -46.10568,-48.02675 0,-26.52444 20.64222,-48.02675 46.10568,-48.02675 25.46347,0 46.10568,21.50231 46.10568,48.02675 z"
       sodipodi:ry="48.026752"
       sodipodi:rx="46.105682"
       sodipodi:cy="164.57167"
       sodipodi:cx="243.33554"
       id="path3010"
       style="fill:#000000;fill-opacity:1;stroke:#000000;stroke-width:2;stroke-linecap:round;stroke-miterlimit:4;stroke-opacity:1;stroke-dasharray:none;stroke-dashoffset:0"
       sodipodi:type="arc" />
    <path
       sodipodi:type="arc"
       style="fill:#ffffff;fill-opacity:1;stroke:#000000;stroke-width:6.80000019;stroke-linecap:round;stroke-miterlimit:4;stroke-opacity:1;stroke-dasharray:none;stroke-dashoffset:0"
       id="path3782"
       sodipodi:cx="563.51392"
       sodipodi:cy="339.38904"
       sodipodi:rx="117.82563"
       sodipodi:ry="35.859974"
       d="m 681.33955,339.38904 c 0,19.80491 -52.75234,35.85997 -117.82563,35.85997 -65.0733,0 -117.82563,-16.05506 -117.82563,-35.85997 0,-19.80492 52.75233,-35.85998 117.82563,-35.85998 65.07329,0 117.82563,16.05506 117.82563,35.85998 z"
       transform="matrix(0.98109777,0.19351267,-0.19351267,0.98109777,78.889167,149.28444)" />
    <path
       style="fill:#000000;fill-opacity:1;stroke:#000000;stroke-width:6.80000019;stroke-linecap:round;stroke-miterlimit:4;stroke-opacity:1;stroke-dasharray:none;stroke-dashoffset:0"
       d="m 57.955431,571.71208 c -10.468254,1.72714 -17.39252,12.45164 -15.492662,23.96671 1.899859,11.51507 11.90729,19.4777 22.375544,17.75055 0.812643,-0.13407 1.606757,-0.34303 2.374464,-0.58179 -1.831831,3.60228 -3.111588,7.52958 -3.748815,11.64053 -4.287629,-5.91304 -11.244459,-9.26183 -18.404654,-8.08048 -10.468254,1.72715 -17.39252,12.45164 -15.492661,23.96672 1.899858,11.51507 11.90729,19.47769 22.375544,17.75055 6.603062,-1.08943 11.806689,-5.79052 14.270923,-11.98298 1.089342,2.55328 2.43726,4.92085 3.995584,7.1322 -8.690712,3.134 -14.102969,12.80899 -12.39855,23.1395 1.899859,11.51507 11.90729,19.47769 22.375544,17.75055 10.468254,-1.72715 17.418266,-12.48756 15.518407,-24.00263 -0.06782,-0.41108 -0.141016,-0.79573 -0.229231,-1.19741 3.556506,0.50677 7.256472,0.51308 10.973812,-0.10024 20.23863,-3.33915 33.82692,-23.03179 30.37263,-43.96829 -1.46262,-8.86498 -5.7402,-16.5239 -11.73376,-22.16682 4.69151,-4.53088 7.55482,-11.95359 7.08613,-19.82422 -0.70416,-11.82468 -8.68667,-20.16743 -17.86852,-18.65252 -9.18183,1.5149 -16.073797,12.31176 -15.369634,24.13644 0.08608,1.44549 0.30093,2.84757 0.594263,4.17774 -1.847179,0.0156 -3.713698,0.16931 -5.590355,0.47893 -5.098793,0.84125 -9.779579,2.71796 -13.869713,5.39225 0.671865,-2.83321 0.799927,-5.9018 0.287,-9.01066 -1.899859,-11.51507 -11.933037,-19.44178 -22.40129,-17.71463 z"
       id="path3786"
       inkscape:connector-curvature="0" />
    <path
       transform="matrix(0.80704105,-0.59049533,0.59049533,0.80704105,-313.15175,579.98153)"
       d="m 359.88046,614.74243 c 0,37.48788 -24.65598,67.87781 -55.07068,67.87781 -30.41469,0 -55.07067,-30.38993 -55.07067,-67.87781 0,-37.48788 24.65598,-67.87781 55.07067,-67.87781 30.4147,0 55.07068,30.38993 55.07068,67.87781 z"
       sodipodi:ry="67.877808"
       sodipodi:rx="55.070675"
       sodipodi:cy="614.74243"
       sodipodi:cx="304.80978"
       id="path3804"
       style="fill:#000000;fill-opacity:1;stroke:#000000;stroke-width:6.80000019;stroke-linecap:round;stroke-miterlimit:4;stroke-opacity:1;stroke-dasharray:none;stroke-dashoffset:0"
       sodipodi:type="arc" />
    <path
       transform="matrix(-1,0,0,1,774.48691,181.47708)"
       d="m 359.88046,614.74243 c 0,37.48788 -24.65598,67.87781 -55.07068,67.87781 -30.41469,0 -55.07067,-30.38993 -55.07067,-67.87781 0,-37.48788 24.65598,-67.87781 55.07067,-67.87781 30.4147,0 55.07068,30.38993 55.07068,67.87781 z"
       sodipodi:ry="67.877808"
       sodipodi:rx="55.070675"
       sodipodi:cy="614.74243"
       sodipodi:cx="304.80978"
       id="path3806"
       style="fill:#ffffff;fill-opacity:1;stroke:#000000;stroke-width:6.80000019;stroke-linecap:round;stroke-miterlimit:4;stroke-opacity:1;stroke-dasharray:none;stroke-dashoffset:0"
       sodipodi:type="arc" />
    <path
       sodipodi:type="arc"
       style="fill:#000000;fill-opacity:1;stroke:#000000;stroke-width:6.80000019;stroke-linecap:round;stroke-miterlimit:4;stroke-opacity:1;stroke-dasharray:none;stroke-dashoffset:0"
       id="path3808"
       sodipodi:cx="304.80978"
       sodipodi:cy="614.74243"
       sodipodi:rx="55.070675"
       sodipodi:ry="67.877808"
       d="m 359.88046,614.74243 c 0,37.48788 -24.65598,67.87781 -55.07068,67.87781 -30.41469,0 -55.07067,-30.38993 -55.07067,-67.87781 0,-37.48788 24.65598,-67.87781 55.07067,-67.87781 30.4147,0 55.07068,30.38993 55.07068,67.87781 z"
       transform="matrix(-0.80704105,-0.59049533,-0.59049533,0.80704105,1065.8666,577.4201)" />
    <path
       inkscape:connector-curvature="0"
       id="path3810"
       d="m 709.89219,564.19831 c 9.78852,4.09296 14.05508,16.12445 9.55284,26.89181 -4.50225,10.76736 -16.07526,16.20958 -25.86378,12.11662 -0.75987,-0.31773 -1.48446,-0.70406 -2.17648,-1.11331 0.95242,3.92746 1.29273,8.04397 0.96548,12.19112 5.53483,-4.76586 13.07612,-6.42139 19.77139,-3.62185 9.78851,4.09297 14.05508,16.12445 9.55282,26.89182 -4.50225,10.76736 -16.07525,16.20957 -25.86377,12.11661 -6.1743,-2.58171 -10.15456,-8.3554 -11.12549,-14.94905 -1.6484,2.23353 -3.50563,4.22677 -5.53159,6.01951 7.73462,5.05233 10.77172,15.71413 6.73261,25.37385 -4.50225,10.76736 -16.07525,16.20957 -25.86377,12.11662 -9.78851,-4.09297 -14.07185,-16.16533 -9.5696,-26.93269 0.16071,-0.3844 0.32058,-0.74182 0.49899,-1.11236 -3.57757,-0.32643 -7.17942,-1.17291 -10.65537,-2.62634 -18.92447,-7.91306 -27.60909,-30.20698 -19.42318,-49.78401 3.4661,-8.28935 9.39347,-14.75642 16.52608,-18.86632 -3.52116,-5.49005 -4.59692,-13.3728 -2.32714,-20.92361 3.41008,-11.34417 13.10025,-17.6229 21.68588,-14.03291 8.58563,3.58999 12.80409,15.68445 9.39401,27.02862 -0.41688,1.38675 -0.94903,2.70159 -1.54098,3.92836 1.79387,0.44085 3.57472,1.02054 5.32953,1.75428 4.7677,1.99357 8.89005,4.89841 12.25384,8.44325 -8.9e-4,-2.91178 0.58162,-5.92729 1.79714,-8.83429 4.50225,-10.76735 16.09203,-16.16869 25.88054,-12.07573 z"
       style="fill:#000000;fill-opacity:1;stroke:#000000;stroke-width:6.80000019;stroke-linecap:round;stroke-miterlimit:4;stroke-opacity:1;stroke-dasharray:none;stroke-dashoffset:0" />
    <path
       style="fill:#000000;stroke:#000000;stroke-width:1px;stroke-linecap:butt;stroke-linejoin:miter;stroke-opacity:1"
       d="m 284.99511,546.23351 c -5.67797,3.7901 -9.31635,11.33273 -8.47344,10.93346 l 5.1934,-5.6034 7.24341,-5.46673 z"
       id="path3814"
       inkscape:connector-curvature="0"
       sodipodi:nodetypes="ccccc" />
    <path
       sodipodi:type="arc"
       style="color:#000000;fill:#000000;fill-opacity:1;fill-rule:nonzero;stroke:none;stroke-width:9.02099991;marker:none;visibility:visible;display:inline;overflow:visible;enable-background:accumulate"
       id="path3510"
       sodipodi:cx="299.04657"
       sodipodi:cy="236.93198"
       sodipodi:rx="12.166778"
       sodipodi:ry="14.087848"
       d="m 311.21335,236.93198 c 0,7.7805 -5.44725,14.08784 -12.16678,14.08784 -6.71953,0 -12.16678,-6.30734 -12.16678,-14.08784 0,-7.78051 5.44725,-14.08785 12.16678,-14.08785 6.71953,0 12.16678,6.30734 12.16678,14.08785 z"
       transform="translate(0,332.60125)" />
  </g>
</svg>
