<?xml version="1.0" encoding="UTF-8" standalone="no"?>
<!-- Created with Inkscape (http://www.inkscape.org/) -->

<svg
   xmlns:dc="http://purl.org/dc/elements/1.1/"
   xmlns:cc="http://creativecommons.org/ns#"
   xmlns:rdf="http://www.w3.org/1999/02/22-rdf-syntax-ns#"
   xmlns:svg="http://www.w3.org/2000/svg"
   xmlns="http://www.w3.org/2000/svg"
   xmlns:xlink="http://www.w3.org/1999/xlink"
   xmlns:sodipodi="http://sodipodi.sourceforge.net/DTD/sodipodi-0.dtd"
   xmlns:inkscape="http://www.inkscape.org/namespaces/inkscape"
   width="80.05204"
   height="147.31665"
   id="svg2"
   version="1.1"
   inkscape:version="0.48.4 r9939"
   sodipodi:docname="8.svg"
   inkscape:export-filename="/home/iain/Graphic Design/renthop/renthop.png"
   inkscape:export-xdpi="90"
   inkscape:export-ydpi="90">
  <defs
     id="defs4">
    <linearGradient
       id="linearGradient5747"
       inkscape:collect="always">
      <stop
         id="stop5749"
         offset="0"
         style="stop-color:#77aacf;stop-opacity:1;" />
      <stop
         id="stop5751"
         offset="1"
         style="stop-color:#77aacf;stop-opacity:1" />
    </linearGradient>
    <linearGradient
       inkscape:collect="always"
       xlink:href="#linearGradient5747"
       id="linearGradient3055"
       gradientUnits="userSpaceOnUse"
       gradientTransform="matrix(0.35173337,-0.03404938,0.02384929,0.62042333,320.44708,269.70194)"
       x1="377.06458"
       y1="556.46826"
       x2="250.00462"
       y2="657.29315" />
  </defs>
  <sodipodi:namedview
     id="base"
     pagecolor="#ffffff"
     bordercolor="#666666"
     borderopacity="1.0"
     inkscape:pageopacity="0.0"
     inkscape:pageshadow="2"
     inkscape:zoom="1.6340568"
     inkscape:cx="104.67768"
     inkscape:cy="82.071598"
     inkscape:document-units="px"
     inkscape:current-layer="layer1"
     showgrid="false"
     inkscape:window-width="1317"
     inkscape:window-height="744"
     inkscape:window-x="49"
     inkscape:window-y="24"
     inkscape:window-maximized="1"
     fit-margin-top="0"
     fit-margin-left="0"
     fit-margin-right="0"
     fit-margin-bottom="0" />
  <metadata
     id="metadata7">
    <rdf:RDF>
      <cc:Work
         rdf:about="">
        <dc:format>image/svg+xml</dc:format>
        <dc:type
           rdf:resource="http://purl.org/dc/dcmitype/StillImage" />
        <dc:title />
      </cc:Work>
    </rdf:RDF>
  </metadata>
  <g
     inkscape:label="Layer 1"
     inkscape:groupmode="layer"
     id="layer1"
     transform="translate(-390.39585,-597.96164)">
    <g
       id="g3093"
       transform="translate(325.30764,211.8862)" />
    <path
       sodipodi:nodetypes="cccccccc"
       inkscape:connector-curvature="0"
       d="m 411.86701,670.40955 c 1.73136,-76.27385 29.11827,-96.44951 33.89515,-39.78334 1.28467,-30.78797 12.16358,-38.22753 15.35583,-11.05052 0.68286,-22.9325 9.22298,-24.08701 9.13173,-8.53401 -0.40021,-16.66521 -8.79441,-12.42817 -8.82491,13.14104 -4.41505,-32.9766 -14.4605,-17.36189 -14.73226,19.48734 -7.65039,-56.27832 -21.70372,-41.40069 -21.21371,29.65339 z"
       style="opacity:0.23456792;fill:#2a73b7;fill-opacity:1;stroke:#77aacf;stroke-width:0.39488897px;stroke-linecap:butt;stroke-linejoin:miter;stroke-opacity:1"
       id="path5743" />
    <path
       id="path5651"
       style="opacity:0.23456792;fill:url(#linearGradient3055);fill-opacity:1;stroke:#77aacf;stroke-width:0.41140032px;stroke-linecap:butt;stroke-linejoin:miter;stroke-opacity:1"
       d="m 411.65668,679.38818 c -1.2485,-79.48988 26.42409,-103.22704 33.65661,-44.78194 0.10527,-32.14509 11.12055,-40.97644 15.52647,-13.03699 -0.20658,-23.91577 8.62795,-25.97602 9.15478,-9.79359 -1.08235,-17.2895 -9.64192,-12.03851 -8.65155,14.55347 -5.90932,-33.84726 -15.73119,-16.59861 -14.54078,21.74751 -10.20515,-57.75256 -24.22418,-40.86694 -20.87438,32.97142 z"
       inkscape:connector-curvature="0"
       sodipodi:nodetypes="cccccccc"
       inkscape:transform-center-x="55.316462"
       inkscape:transform-center-y="57.617973" />
    <path
       style="fill:#d45500;fill-opacity:1;stroke:#552200;stroke-width:0.98911512;stroke-linecap:butt;stroke-linejoin:miter;stroke-miterlimit:4;stroke-opacity:1;stroke-dasharray:none"
       d="m 429.60746,649.70222 c 5.40084,-2.49138 10.63148,-5.68492 12.86002,-17.54212 0.2582,10.77448 -6.10896,28.94111 -6.10896,28.94111 0,0 -1.78257,-2.04718 -3.11834,-6.0588 -0.59643,-1.79122 -0.76296,-2.57697 -3.63272,-5.34019 z"
       id="path4739"
       inkscape:connector-curvature="0"
       sodipodi:nodetypes="cccsc" />
    <path
       style="fill:#d45500;fill-opacity:1;stroke:#552200;stroke-width:1.54067779;stroke-linecap:butt;stroke-linejoin:miter;stroke-miterlimit:4;stroke-opacity:1;stroke-dasharray:none"
       d="m 421.69013,622.62448 c -2.394,-0.16996 -4.99345,2.58491 -6.6875,4.5 -0.91353,1.03274 -1.53125,3.84375 -1.53125,3.84375 l -3.4375,0 c 0,0 -1.33508,-3.47003 -2.6875,-4.625 -1.88017,-1.60564 -4.89684,-4.08348 -6.9375,-2.6875 -2.11327,1.4456 -1.24896,5.45241 0,7.6875 0.95323,1.70587 5,3.0625 5,3.0625 0,0 -0.14143,0.52229 -0.34375,1.34375 -3.41073,2.837 -12.69885,10.79787 -13.1875,14.28125 -0.59362,4.23169 0.8278,4.89567 4.9375,4.71875 3.32393,-0.14292 7.94397,-4.37992 9.65625,-6.0625 0.13698,0.12189 0.25,0.25 0.25,0.25 l -2.46875,2 c 0,0 -4.98646,13.61901 -5.375,20.75 -0.33783,6.20072 0.86342,12.47026 2.6875,18.40625 1.37909,4.48787 4.65964,8.23743 6.15625,12.6875 1.45656,4.33104 2.6875,13.4375 2.6875,13.4375 l -1.9375,20.375 c 0,0 -0.44248,5.83325 2.0625,7.21875 1.20654,0.66735 2.4825,0.3944 3.34375,-0.3125 1.03315,-0.84795 1.12769,-2.50718 1.125,-3.84375 -0.007,-3.07778 -2.6875,-8.84375 -2.6875,-8.84375 l 4.625,-18.03125 c 0,0 -3.52985,-5.45329 -4.625,-8.46875 -1.11417,-3.06777 -1.90625,-9.59375 -1.90625,-9.59375 l 1.53125,-11.53125 6.90625,0 6.15625,-0.75 0,12.65625 0,9.625 -1.53125,10.34375 -6.53125,23.4375 1.15625,-1.53125 c 0,0 -1.91719,5.78434 0,7.28125 0.83209,0.64969 2.2748,-0.0471 3.0625,-0.75 2.44847,-2.18457 2.88325,-5.99002 3.46875,-9.21875 0.41112,-2.26734 0,-6.90625 0,-6.90625 0,0 3.81151,-7.46948 4.59375,-11.53125 0.79891,-4.14839 0,-12.6875 0,-12.6875 l 4.21875,-10.75 3.09375,-8.4375 c 0,0 -0.11794,-3.33994 0,-5 0.32086,-4.51476 2.51145,-8.952 1.90625,-13.4375 -0.42932,-3.18187 -2.53084,-5.91376 -3.84375,-8.84375 -0.74954,-1.67269 -1.18256,-3.52552 -2.3125,-4.96875 -2.52659,-3.22721 -5.51793,-7.25571 -9.59375,-7.6875 -1.42333,-0.15065 -3.84375,1.90625 -3.84375,1.90625 0.002,-4.00398 0.30769,-8.12785 -1.90625,-11.125 l 3.0625,-3.09375 c 0,0 3.05852,-2.98659 3.46875,-4.96875 0.26457,-1.27846 0.40256,-3.29324 -0.78125,-3.84375 -0.3312,-0.15401 -0.658,-0.25697 -1,-0.28125 z"
       id="path4727"
       inkscape:connector-curvature="0" />
    <path
       style="fill:#d45500;fill-opacity:1;stroke:#552200;stroke-width:1.35800004;stroke-linecap:butt;stroke-linejoin:miter;stroke-miterlimit:4;stroke-opacity:1;stroke-dasharray:none"
       d="m 400.87208,661.96604 c 0,0 -3.32324,11.32605 -6.03527,16.66831 -0.97208,1.91487 -3.12797,3.36864 -3.60766,5.39338 -0.40777,1.72119 0.0345,3.51953 0.83586,4.83225 0.39465,0.64626 1.70753,2.15096 2.51316,1.99721 2.10699,-0.40202 1.51193,-0.37197 2.61892,-1.99668 0.74575,-1.09479 -1.89244,-2.40283 -2.1066,-3.63963 -0.38682,-2.23383 3.50141,-9.94135 3.50141,-9.94135 l 7.98608,-10.72243"
       id="path4735"
       inkscape:connector-curvature="0"
       sodipodi:nodetypes="csssssscc" />
    <path
       sodipodi:type="arc"
       style="fill:#ffffff;fill-opacity:1;fill-rule:evenodd;stroke:#000000;stroke-width:0.69999999;stroke-linecap:square;stroke-linejoin:miter;stroke-miterlimit:4;stroke-opacity:1;stroke-dasharray:none;stroke-dashoffset:0"
       id="path3063"
       sodipodi:cx="407.15314"
       sodipodi:cy="331.38718"
       sodipodi:rx="2.2796929"
       sodipodi:ry="2.2796929"
       d="m 409.43283,331.38718 c 0,1.25904 -1.02065,2.27969 -2.27969,2.27969 -1.25904,0 -2.2797,-1.02065 -2.2797,-2.27969 0,-1.25904 1.02066,-2.2797 2.2797,-2.2797 1.25904,0 2.27969,1.02066 2.27969,2.2797 z"
       transform="translate(-2.0650941,307.15834)" />
    <path
       transform="translate(2.1626997,307.32414)"
       d="m 409.43283,331.38718 c 0,1.25904 -1.02065,2.27969 -2.27969,2.27969 -1.25904,0 -2.2797,-1.02065 -2.2797,-2.27969 0,-1.25904 1.02066,-2.2797 2.2797,-2.2797 1.25904,0 2.27969,1.02066 2.27969,2.2797 z"
       sodipodi:ry="2.2796929"
       sodipodi:rx="2.2796929"
       sodipodi:cy="331.38718"
       sodipodi:cx="407.15314"
       id="path3833"
       style="fill:#ffffff;fill-opacity:1;fill-rule:evenodd;stroke:#000000;stroke-width:0.69999999;stroke-linecap:square;stroke-linejoin:miter;stroke-miterlimit:4;stroke-opacity:1;stroke-dasharray:none;stroke-dashoffset:0"
       sodipodi:type="arc" />
    <path
       transform="matrix(0.35376205,0,0,0.35376205,261.31109,521.48672)"
       d="m 409.43283,331.38718 c 0,1.25904 -1.02065,2.27969 -2.27969,2.27969 -1.25904,0 -2.2797,-1.02065 -2.2797,-2.27969 0,-1.25904 1.02066,-2.2797 2.2797,-2.2797 1.25904,0 2.27969,1.02066 2.27969,2.2797 z"
       sodipodi:ry="2.2796929"
       sodipodi:rx="2.2796929"
       sodipodi:cy="331.38718"
       sodipodi:cx="407.15314"
       id="path3835"
       style="fill:#000000;fill-opacity:1;fill-rule:evenodd;stroke:#000000;stroke-width:0.69999999;stroke-linecap:square;stroke-linejoin:miter;stroke-miterlimit:4;stroke-opacity:1;stroke-dasharray:none;stroke-dashoffset:0"
       sodipodi:type="arc" />
    <path
       sodipodi:type="arc"
       style="fill:#000000;fill-opacity:1;fill-rule:evenodd;stroke:#000000;stroke-width:0.69999999;stroke-linecap:square;stroke-linejoin:miter;stroke-miterlimit:4;stroke-opacity:1;stroke-dasharray:none;stroke-dashoffset:0"
       id="path3837"
       sodipodi:cx="407.15314"
       sodipodi:cy="331.38718"
       sodipodi:rx="2.2796929"
       sodipodi:ry="2.2796929"
       d="m 409.43283,331.38718 c 0,1.25904 -1.02065,2.27969 -2.27969,2.27969 -1.25904,0 -2.2797,-1.02065 -2.2797,-2.27969 0,-1.25904 1.02066,-2.2797 2.2797,-2.2797 1.25904,0 2.27969,1.02066 2.27969,2.2797 z"
       transform="matrix(0.35376205,0,0,0.35376205,265.31109,521.48672)" />
    <path
       sodipodi:type="star"
       style="fill:#000000;fill-opacity:1;fill-rule:evenodd;stroke:#000000;stroke-width:0.69999999;stroke-linecap:square;stroke-linejoin:miter;stroke-miterlimit:4;stroke-opacity:1;stroke-dasharray:none;stroke-dashoffset:0"
       id="path3839"
       sodipodi:sides="3"
       sodipodi:cx="403.13257"
       sodipodi:cy="338.80655"
       sodipodi:r1="2.2626729"
       sodipodi:r2="1.4933641"
       sodipodi:arg1="-2.6451699"
       sodipodi:arg2="-1.5979723"
       inkscape:flatsided="false"
       inkscape:rounded="0.41"
       inkscape:randomized="0"
       d="m 401.14302,337.72888 c 0.38912,-0.71839 1.13227,-0.39294 1.94897,-0.41514 0.8167,-0.0222 1.54107,-0.38754 1.96865,0.30864 0.42757,0.69619 -0.22584,1.17705 -0.61497,1.89543 -0.38912,0.71839 -0.43492,1.52838 -1.25162,1.55058 -0.8167,0.0222 -0.90643,-0.78411 -1.33401,-1.48029 -0.42757,-0.69619 -1.10615,-1.14084 -0.71702,-1.85922 z"
       transform="translate(-6.1272052,309.45425)"
       inkscape:transform-center-x="0.018872034"
       inkscape:transform-center-y="0.32699674" />
    <path
       style="fill:#ffb380;stroke:#552200;stroke-width:0.93977481px;stroke-linecap:butt;stroke-linejoin:miter;stroke-opacity:1"
       d="m 407.70149,668.30726 20.16735,-1.64184 c 4.17797,27.79817 -23.58142,23.14717 -20.16735,1.64184 z"
       id="path3848"
       inkscape:connector-curvature="0"
       sodipodi:nodetypes="ccc" />
    <path
       style="fill:#d45500;fill-opacity:1;stroke:#552200;stroke-width:1.3578645;stroke-linecap:butt;stroke-linejoin:miter;stroke-miterlimit:4;stroke-opacity:1;stroke-dasharray:none"
       d="m 423.24057,665.19432 4.76184,12.57225 c 0,0 -1.39358,6.28723 -0.47744,9.33848 0.54843,1.82673 1.72557,4.47521 3.29893,4.44448 1.66864,-0.0327 2.67943,-2.83191 2.57587,-4.83221 -0.0524,-1.01032 -1.17943,-1.62476 -1.56038,-2.56864 -1.01931,-2.52544 -1.82596,-7.9952 -1.82596,-7.9952 l -0.0573,-10.64967 -2.79457,-8.77136"
       id="path4737"
       inkscape:connector-curvature="0"
       sodipodi:nodetypes="ccaaaaccc" />
  </g>
</svg>
