<?xml version="1.0" encoding="UTF-8" standalone="no"?>
<!-- Created with Inkscape (http://www.inkscape.org/) -->

<svg
   xmlns:dc="http://purl.org/dc/elements/1.1/"
   xmlns:cc="http://creativecommons.org/ns#"
   xmlns:rdf="http://www.w3.org/1999/02/22-rdf-syntax-ns#"
   xmlns:svg="http://www.w3.org/2000/svg"
   xmlns="http://www.w3.org/2000/svg"
   xmlns:sodipodi="http://sodipodi.sourceforge.net/DTD/sodipodi-0.dtd"
   xmlns:inkscape="http://www.inkscape.org/namespaces/inkscape"
   width="218.29709"
   height="208.38342"
   id="svg2"
   version="1.1"
   inkscape:version="0.48.4 r9939"
   sodipodi:docname="Juvalia.svg">
  <defs
     id="defs4" />
  <sodipodi:namedview
     id="base"
     pagecolor="#ffffff"
     bordercolor="#666666"
     borderopacity="1.0"
     inkscape:pageopacity="0.0"
     inkscape:pageshadow="2"
     inkscape:zoom="0.5"
     inkscape:cx="160.01198"
     inkscape:cy="-68.457735"
     inkscape:document-units="px"
     inkscape:current-layer="g4057"
     showgrid="false"
     inkscape:window-width="1317"
     inkscape:window-height="744"
     inkscape:window-x="49"
     inkscape:window-y="24"
     inkscape:window-maximized="1"
     fit-margin-top="0"
     fit-margin-left="0"
     fit-margin-right="0"
     fit-margin-bottom="0" />
  <metadata
     id="metadata7">
    <rdf:RDF>
      <cc:Work
         rdf:about="">
        <dc:format>image/svg+xml</dc:format>
        <dc:type
           rdf:resource="http://purl.org/dc/dcmitype/StillImage" />
        <dc:title></dc:title>
      </cc:Work>
    </rdf:RDF>
  </metadata>
  <g
     inkscape:label="Layer 1"
     inkscape:groupmode="layer"
     id="layer1"
     transform="translate(-14.169105,-323.47378)">
    <g
       id="g4057"
       transform="matrix(0.25728124,0.27974406,-0.29345426,0.28286367,169.26864,91.481667)">
      <path
         sodipodi:nodetypes="ssssssssssssssssssssssss"
         transform="translate(0,308.2677)"
         inkscape:connector-curvature="0"
         id="path3066"
         d="m 514.75883,240.55316 c -12.45471,0.47832 -24.936,-0.45234 -37.39168,0 -22.89573,0.83147 -45.78095,2.45349 -68.55142,4.98556 -16.7015,1.8572 -33.37595,4.19031 -49.85558,7.47833 -23.51843,4.6924 -47.07077,9.79327 -69.79781,17.44945 -17.99101,6.06073 -35.75952,13.20357 -52.34835,22.43501 -13.29428,7.39808 -25.61795,16.53838 -37.39168,26.17418 -9.3239,7.63083 -21.13858,13.98213 -26.17418,24.92779 -3.30375,7.18122 -4.87433,16.65838 -1.24639,23.6814 6.77116,13.10771 23.34909,19.15742 37.39168,23.6814 6.73424,2.16951 14.11659,1.03857 21.18862,1.24639 11.62795,0.3417 23.50569,-2.34956 34.89891,0 28.79811,5.93888 61.12559,13.24248 81.01531,34.8989 5.33217,5.80581 2.64145,16.21054 7.47833,22.43501 8.48562,10.91997 22.28375,16.76851 34.89891,22.43501 9.83904,4.41952 20.57477,6.65168 31.15973,8.72473 14.363,2.81297 28.98779,5.00982 43.62363,4.98555 7.11157,-0.0118 14.53624,0.0213 21.18862,-2.49278 6.14488,-2.32226 10.92199,-7.31076 16.20307,-11.2175 8.08539,-5.98127 17.7745,-10.55595 23.68139,-18.69584 4.94086,-6.80866 7.24766,-15.3996 8.72473,-23.6814 3.57441,-20.04144 0.19572,-40.71633 0,-61.07308 -0.41548,-43.21416 29.49671,-100.56751 -2.49278,-129.6245 -4.00976,-3.64218 -10.79007,1.03851 -16.20306,1.24639 z"
         style="fill:#000000;stroke:#000000;stroke-width:1px;stroke-linecap:butt;stroke-linejoin:miter;stroke-opacity:1" />
      <path
         transform="translate(0,308.2677)"
         inkscape:connector-curvature="0"
         id="path3880"
         d="m 346.49626,422.52601 8.72472,32.40613 21.18862,14.95667 44.87002,11.21751 32.40613,7.47833 31.15973,-3.73917 34.89891,-21.18862 12.46389,-23.6814 4.98556,-36.14529 -47.3628,-7.47834 -31.15973,11.21751 -17.44946,4.98556 -59.82669,6.23194 z"
         style="opacity:0.83950614;fill:#ff0000;stroke:#000000;stroke-width:1px;stroke-linecap:butt;stroke-linejoin:miter;stroke-opacity:1" />
      <path
         sodipodi:nodetypes="ccccccc"
         transform="translate(0,308.2677)"
         inkscape:connector-curvature="0"
         id="path3068"
         d="m 499.80216,256.75622 c -33.23705,14.12575 -66.47411,28.25149 -99.71116,42.37724 -21.60408,0 -43.20817,0 -64.81225,0 3.73917,-8.30926 7.47834,-16.61853 11.21751,-24.92779 14.12575,-4.15463 28.25149,-8.30926 42.37724,-12.46389 11.2175,-1.66185 22.43501,-3.32371 33.65251,-4.98556 25.75872,0 51.51743,0 77.27615,0 z"
         style="fill:#ffffff;stroke:#000000;stroke-width:1px;stroke-linecap:butt;stroke-linejoin:miter;stroke-opacity:1" />
      <path
         sodipodi:nodetypes="ssssssssssssssssssssssss"
         inkscape:connector-curvature="0"
         id="path3066-0"
         d="m 580.22632,540.84455 c 12.42551,-0.97745 24.7131,-3.35736 37.13654,-4.36072 22.83646,-1.84436 45.75468,-2.90234 68.66507,-3.04309 16.80413,-0.10325 33.63689,0.26933 50.38752,1.61301 23.90519,1.91761 47.89169,4.23694 71.35653,9.19039 18.57507,3.92122 37.05534,8.94311 54.60757,16.17692 14.06635,5.79719 27.37189,13.4379 40.18903,21.63487 10.1502,6.49138 22.62497,11.42148 28.90272,21.70519 4.1187,6.74693 6.78381,15.97625 3.99967,23.37445 -5.1963,13.80794 -20.95558,21.74972 -34.37475,27.88052 -6.43527,2.94007 -13.89914,2.67779 -20.89868,3.70895 -11.50875,1.69545 -23.6193,0.40777 -34.66077,4.07 -27.90899,9.25686 -59.16412,20.28074 -76.39249,44.10897 -4.6187,6.38804 -0.73291,16.40797 -4.81087,23.15406 -7.1542,11.83507 -20.17611,19.25287 -32.04435,26.35192 -9.25648,5.53681 -19.65863,9.00577 -29.9296,12.29912 -13.93694,4.46882 -28.20573,8.35626 -42.74453,10.03903 -7.06442,0.81765 -14.43457,1.7164 -21.33475,-0.005 -6.37378,-1.58979 -11.70006,-5.98713 -17.40072,-9.25132 -8.72777,-4.99751 -18.88427,-8.41101 -25.70015,-15.80648 -5.70119,-6.18598 -8.99414,-14.44928 -11.42698,-22.5023 -5.8873,-19.48783 -4.94282,-40.41567 -7.12249,-60.65634 -4.6271,-42.96774 -41.02387,-96.44129 -12.64137,-129.0307 3.55764,-4.08495 10.83756,-0.22694 16.23785,-0.65175 z"
         style="fill:#000000;stroke:#000000;stroke-width:1px;stroke-linecap:butt;stroke-linejoin:miter;stroke-opacity:1" />
      <path
         sodipodi:nodetypes="ccccccc"
         inkscape:connector-curvature="0"
         id="path3068-9"
         d="m 596.97058,555.19276 c 34.65763,10.15317 69.31527,20.30633 103.9729,30.4595 21.45666,-2.51952 42.91333,-5.03904 64.36999,-7.55856 -4.6827,-7.81649 -9.36541,-15.63299 -14.04811,-23.44948 -14.51388,-2.4789 -29.02775,-4.9578 -43.54164,-7.4367 -11.33476,-0.3423 -22.66954,-0.6846 -34.0043,-1.0269 -25.58295,3.00404 -51.16589,6.00809 -76.74884,9.01214 z"
         style="fill:#ffffff;stroke:#000000;stroke-width:1px;stroke-linecap:butt;stroke-linejoin:miter;stroke-opacity:1" />
      <path
         sodipodi:nodetypes="ccccccc"
         inkscape:connector-curvature="0"
         id="path3070-1"
         d="m 734.57264,636.92132 c -4.24976,10.12033 -8.49952,20.24066 -12.74928,30.36099 -16.11282,-16.09563 -32.22562,-32.19126 -48.33843,-48.28689 -11.79428,-7.81806 -23.58856,-15.63612 -35.38284,-23.45418 -12.32726,-12.35696 -24.65453,-24.71394 -36.98179,-37.0709 32.03651,9.206 64.07302,18.41199 96.10952,27.61799 12.44761,16.94434 24.89521,33.88866 37.34282,50.83299 z"
         style="fill:#ffffff;stroke:#000000;stroke-width:1px;stroke-linecap:butt;stroke-linejoin:miter;stroke-opacity:1" />
      <path
         sodipodi:nodetypes="cccccc"
         inkscape:connector-curvature="0"
         id="path3072-2"
         d="m 749.29129,591.26966 c -14.7327,-0.77994 -29.46539,-1.55988 -44.19809,-2.33981 16.54889,19.80928 33.09776,39.61857 49.64664,59.42785 9.22318,0.17193 18.44635,0.34387 27.66952,0.5158 0.60801,-5.50952 1.21601,-11.01905 1.82402,-16.52857 -11.64737,-13.69175 -23.29472,-27.38352 -34.94209,-41.07527 z"
         style="fill:#ffffff;stroke:#000000;stroke-width:1px;stroke-linecap:butt;stroke-linejoin:miter;stroke-opacity:1" />
      <path
         sodipodi:nodetypes="cccccccccccccccc"
         inkscape:connector-curvature="0"
         id="path3842-7"
         d="m 859.52864,610.95395 c -12.61954,-7.72116 -25.23908,-15.44231 -37.85862,-23.16347 -12.7899,-5.60956 -25.57981,-11.21912 -38.36971,-16.82868 -1.5286,-2.33041 -3.0572,-4.66082 -4.5858,-6.99123 7.28195,-2.11003 14.5639,-4.22005 21.84585,-6.33008 0.63145,-1.74742 1.26289,-3.49484 1.89434,-5.24226 10.65487,1.67709 21.30973,3.35419 31.96461,5.03127 -0.26727,1.28634 -0.53455,2.57267 -0.80182,3.85901 -8.39792,-0.26884 -16.79583,-0.53767 -25.19375,-0.80651 10.43605,3.37605 20.8721,6.75211 31.30815,10.12816 -1.91779,1.48015 -3.83557,2.96029 -5.75336,4.44044 -10.33914,-2.5508 -20.67829,-5.1016 -31.01743,-7.6524 10.53295,4.20131 21.06591,8.40263 31.59886,12.60394 7.78992,5.77836 15.57984,11.55672 23.36975,17.33508 2.35386,2.23351 4.70771,4.46701 7.06157,6.70051 -1.82088,2.30541 -3.64176,4.61081 -5.46264,6.91622 z"
         style="fill:#ffffff;stroke:#000000;stroke-width:1px;stroke-linecap:butt;stroke-linejoin:miter;stroke-opacity:1" />
      <path
         sodipodi:nodetypes="ccccc"
         inkscape:connector-curvature="0"
         id="path3844-4"
         d="m 776.08398,605.6929 c -6.91621,-5.46264 -13.83241,-10.92527 -20.74862,-16.38791 6.60205,-0.77524 13.2041,-1.55048 19.80615,-2.32571 3.59175,2.08815 7.18348,4.17629 10.77522,6.26444 -3.27758,4.14973 -6.55516,8.29945 -9.83275,12.44918 z"
         style="fill:#ffffff;stroke:#000000;stroke-width:1px;stroke-linecap:butt;stroke-linejoin:miter;stroke-opacity:1" />
      <path
         sodipodi:nodetypes="ccccc"
         inkscape:connector-curvature="0"
         id="path3846-7"
         d="m 811.03077,625.43342 c -7.01468,0.82369 -14.02936,1.64738 -21.04404,2.47107 -0.77524,-6.60205 -1.55047,-13.2041 -2.32571,-19.80615 5.67988,-1.50359 11.35978,-3.00718 17.03967,-4.51077 2.11002,7.28196 4.22005,14.5639 6.33008,21.84585 z"
         style="fill:#ffffff;stroke:#000000;stroke-width:1px;stroke-linecap:butt;stroke-linejoin:miter;stroke-opacity:1" />
      <path
         sodipodi:nodetypes="ccccc"
         inkscape:connector-curvature="0"
         id="path3848-2"
         d="m 847.58587,616.12117 c -6.60205,0.77524 -13.2041,1.55048 -19.80615,2.32571 -4.65926,-4.05439 -9.31851,-8.10877 -13.97777,-12.16316 3.47139,-2.49921 6.94278,-4.99842 10.41417,-7.49763 7.78991,5.77836 15.57984,11.55672 23.36975,17.33508 z"
         style="fill:#ffffff;stroke:#000000;stroke-width:1px;stroke-linecap:butt;stroke-linejoin:miter;stroke-opacity:1" />
      <path
         sodipodi:nodetypes="ccccc"
         inkscape:connector-curvature="0"
         id="path3852-0"
         d="m 902.27317,600.91491 c -3.17911,-2.13661 -6.35822,-4.2732 -9.53733,-6.4098 -0.43607,-3.71366 -0.87214,-7.42731 -1.30821,-11.14097 4.00436,2.0397 8.00872,4.0794 12.01309,6.1191 -0.38919,3.81056 -0.77836,7.62111 -1.16755,11.43167 z"
         style="fill:#ffffff;stroke:#000000;stroke-width:1px;stroke-linecap:butt;stroke-linejoin:miter;stroke-opacity:1" />
      <path
         sodipodi:nodetypes="ccccc"
         inkscape:connector-curvature="0"
         id="path3854-4"
         d="m 901.76207,607.24969 c -3.08221,-1.31134 -6.16441,-2.6227 -9.24662,-3.93404 -0.89872,3.03375 -1.79743,6.06751 -2.69615,9.10127 3.59174,2.08815 7.18348,4.17629 10.77522,6.26444 0.38918,-3.81056 0.77837,-7.62111 1.16755,-11.43167 z"
         style="fill:#ffffff;stroke:#000000;stroke-width:1px;stroke-linecap:butt;stroke-linejoin:miter;stroke-opacity:1" />
      <path
         sodipodi:nodetypes="ccccc"
         inkscape:connector-curvature="0"
         id="path3856-2"
         d="m 882.31696,623.33749 c 3.39793,0.43764 6.79586,0.87527 10.19379,1.31291 -0.12191,2.52422 -0.24383,5.04844 -0.36574,7.57267 -2.88839,0.33916 -5.7768,0.67833 -8.66519,1.0175 -0.38762,-3.30103 -0.77524,-6.60205 -1.16286,-9.90308 z"
         style="fill:#ffffff;stroke:#000000;stroke-width:1px;stroke-linecap:butt;stroke-linejoin:miter;stroke-opacity:1" />
      <path
         inkscape:connector-curvature="0"
         id="path3858-0"
         d="m 706.0966,661.59928 -39.89362,-40.49383 -34.43568,-26.07531 -36.98178,-37.0709 -6.70051,7.06157 43.17119,36.34412 30.57668,25.27348 z"
         style="fill:#ffffff;stroke:#000000;stroke-width:1px;stroke-linecap:butt;stroke-linejoin:miter;stroke-opacity:1" />
      <path
         inkscape:connector-curvature="0"
         id="path3860-3"
         d="m 683.66463,684.31258 c -0.58143,-4.95154 -4.21536,-35.89865 -4.21536,-35.89865 l -44.26373,-34.96088 -17.18032,-18.06186 -22.42258,-19.95621 -2.98687,6.62549 38.13993,68.30873 44.40909,36.19876 z"
         style="fill:#ffffff;stroke:#000000;stroke-width:1px;stroke-linecap:butt;stroke-linejoin:miter;stroke-opacity:1" />
      <path
         inkscape:connector-curvature="0"
         id="path3862-0"
         d="m 847.51084,626.1696 c 16.9636,-1.99193 -13.90328,1.63257 6.18943,-0.72679 0.41262,-0.0485 0.82525,-0.0969 1.23788,-0.14536 1.65051,-0.1938 3.30102,-0.38761 4.95154,-0.58142 0.82525,-0.0969 2.57267,0.53454 2.47576,-0.29072 -0.0485,-0.41262 -1.65051,0.19381 -1.23788,0.14536 0.82526,-0.0969 1.65052,-0.19381 2.47577,-0.29071 0.41263,-0.0485 1.28633,0.26727 1.23788,-0.14536 -0.0485,-0.41263 -1.28634,-0.26727 -1.23788,0.14536 0.0969,0.82526 1.65052,-0.19381 2.47577,-0.29072 0.41263,-0.0485 1.28633,0.26728 1.23788,-0.14536 -0.0485,-0.41262 -1.28634,-0.26726 -1.23788,0.14536 0.0485,0.41264 0.91185,-0.40286 1.23788,-0.14536 0.32604,0.25752 -0.18068,0.98039 0.14536,1.23789 0.32603,0.25751 0.91185,-0.40286 1.23788,-0.14536 0.36616,0.2892 0.37622,3.20394 0.43607,3.71366 0.0485,0.41262 -0.26726,1.28633 0.14536,1.23788 0.41263,-0.0485 0.26727,-1.28633 -0.14536,-1.23788 -0.41262,0.0485 0.0969,0.82526 0.14536,1.23788 0.0485,0.41263 -0.26727,1.28634 0.14536,1.23789 0.41262,-0.0485 -0.19381,-1.65051 -0.14536,-1.23789 0.0969,0.82526 0.19381,1.65051 0.29072,2.47577 0.0485,0.41263 -0.26727,1.28634 0.14535,1.23789 0.41263,-0.0485 0.26727,-1.28634 -0.14535,-1.23789 -0.41263,0.0485 0.0969,0.82526 0.14535,1.23789 0.0485,0.41262 -0.26726,1.28633 0.14536,1.23788 0.41263,-0.0485 -0.19381,-1.65051 -0.14536,-1.23788 0.0969,0.82526 0.57311,1.69429 0.29072,2.47577 -0.1412,0.39073 -0.82526,0.0969 -1.23789,0.14536 -2.88839,0.33916 -5.77679,0.67833 -8.66518,1.01749 -0.58366,0.0685 -6.12673,0.77632 -6.18943,0.72679 -0.65206,-0.51503 0.36135,-1.96075 -0.29071,-2.47577 -0.32604,-0.25751 -0.91185,0.40287 -1.23789,0.14536 -0.65206,-0.51502 0.36135,-1.96075 -0.29071,-2.47577 -0.32604,-0.25752 -0.91185,0.40287 -1.23789,0.14535 -0.32603,-0.25751 0.0311,-0.86175 -0.14535,-1.23788 -0.95022,-2.02553 -2.13504,-3.93247 -3.20256,-5.89871 z"
         style="fill:#ffffff;stroke:#000000;stroke-width:1px;stroke-linecap:butt;stroke-linejoin:miter;stroke-opacity:1" />
      <path
         inkscape:connector-curvature="0"
         id="path3864-4"
         d="m 816.41838,628.56564 c 1.65051,-0.19381 5.14534,1.06909 4.95153,-0.58143 -0.19381,-1.65051 -6.60205,0.77524 -4.95153,0.58143 2.06313,-0.24226 4.12628,-0.48453 6.18941,-0.72679 0.41264,-0.0485 0.91186,-0.40286 1.23789,-0.14535 0.65207,0.51502 -0.36135,1.96075 0.29071,2.47577 0.32604,0.25751 0.91185,-0.40286 1.23789,-0.14536 0.69162,0.54627 -0.25555,3.1674 0.43607,3.71365 0.32604,0.25752 0.91185,-0.40287 1.23788,-0.14535 0.69163,0.54627 -0.25554,3.16738 0.43607,3.71365 0.32604,0.25752 0.91185,-0.40287 1.23789,-0.14535 0.53896,0.42569 0.49273,4.19613 0.58143,4.95154 0.0969,0.82525 -0.53455,2.57267 0.29071,2.47577 0.41263,-0.0485 -0.19381,-1.65052 -0.14535,-1.23789 0.0969,0.82525 0.1938,1.65051 0.29071,2.47577 0.0485,0.41263 0.26727,-1.28634 -0.14536,-1.23788 -0.41262,0.0484 0.40287,0.91184 0.14536,1.23788 -0.54626,0.69162 -3.16739,-0.25555 -3.71366,0.43607 -0.2575,0.32603 0.40288,0.91185 0.14536,1.23788 -0.0495,0.0627 -5.60575,0.65825 -6.18941,0.72678 -0.82526,0.0969 -1.82371,0.80574 -2.47577,0.29072 -0.65208,-0.51502 0.36134,-1.96075 -0.29072,-2.47576 -0.32603,-0.25752 -0.91186,0.40286 -1.23788,0.14535 -0.32604,-0.25751 0.18067,-0.98038 -0.14536,-1.23788 -0.42832,-0.3383 -5.76111,1.06508 -6.18942,0.72678 -0.32604,-0.25751 0.18067,-0.98038 -0.14536,-1.23788 -0.65207,-0.51503 -1.82371,0.80573 -2.47577,0.29071 -0.65207,-0.51503 0.53454,-2.57267 -0.29072,-2.47577 -0.41262,0.0485 0.19381,1.65051 0.14536,1.23789 -0.24226,-2.06315 -0.48452,-4.12628 -0.72678,-6.18943 -0.0485,-0.41262 -0.40288,-0.91185 -0.14536,-1.23788 0.25751,-0.32604 1.18943,-0.55798 1.23788,-0.14536 0.0685,0.58354 -1.67607,1.45176 -1.09252,1.38324 0.92266,-0.10834 1.48935,-1.13404 2.33041,-1.5286 0.9089,-0.42639 2.70933,-0.31814 3.71365,-0.43607 0.82525,-0.0969 2.57268,0.53455 2.47577,-0.29071 -0.0485,-0.41263 -0.82526,0.0969 -1.23788,0.14535 0.99562,-2.20849 1.99124,-4.41699 2.98687,-6.62549 z"
         style="fill:#ffffff;stroke:#000000;stroke-width:1px;stroke-linecap:butt;stroke-linejoin:miter;stroke-opacity:1" />
      <path
         inkscape:connector-curvature="0"
         id="path3866-0"
         d="m 776.29028,660.8866 c -1.79088,-4.08719 3.32065,-4.26894 4.22474,-6.77086 0.1412,-0.39073 -0.40286,-0.91185 -0.14536,-1.23788 0.25752,-0.32603 0.98039,0.18068 1.23789,-0.14536 0.25751,-0.32603 -0.40286,-0.91185 -0.14536,-1.23787 0.25752,-0.32604 0.98038,0.18066 1.23789,-0.14536 0.25751,-0.32604 -0.40286,-0.91186 -0.14536,-1.23789 0.50504,-0.63943 3.01013,0.0254 3.71366,-0.43607 0.49129,-0.32226 0.60123,-1.06099 1.09252,-1.38324 0.96768,-0.63474 3.77799,-0.44362 4.95154,-0.58143 0.75541,-0.0887 4.41257,-1.00711 4.95154,-0.58143 0.0627,0.0495 0.65825,5.60576 0.72679,6.18942 0.0829,0.70626 0.92833,7.35616 0.87214,7.42731 -0.25751,0.32604 -0.98038,-0.18068 -1.23788,0.14536 -0.25752,0.32603 0.40286,0.91185 0.14535,1.23788 -0.25751,0.32604 -0.98038,-0.18068 -1.23788,0.14536 -0.25751,0.32603 0.40286,0.91185 0.14536,1.23788 -0.54627,0.69162 -3.1674,-0.25555 -3.71366,0.43607 -0.25751,0.32604 0.40287,0.91185 0.14536,1.23789 -0.33059,0.41856 -9.942,0.83139 -9.90308,1.16286 0.0485,0.41262 1.28633,0.26726 1.23788,-0.14536 -0.0685,-0.58355 -0.89108,-0.7716 -1.38324,-1.09253 -2.22834,-1.4531 -4.5139,-2.81651 -6.77084,-4.22475 z"
         style="fill:#ffffff;stroke:#000000;stroke-width:1px;stroke-linecap:butt;stroke-linejoin:miter;stroke-opacity:1" />
      <path
         inkscape:connector-curvature="0"
         id="path3868-0"
         d="m 744.6867,669.61742 c 1.55361,-1.01907 5.6799,-1.50359 4.66083,-3.0572 -1.01907,-1.5536 -6.50616,3.27389 -4.66083,3.0572 2.22208,-0.26092 3.87318,-2.25234 5.89872,-3.20256 0.4746,-0.22264 4.59499,-0.86303 4.95154,-0.58142 0.20341,0.16066 0.29043,3.73075 0.43607,3.71365 0.41262,-0.0485 0.26727,-1.28634 -0.14536,-1.23788 -0.41263,0.0485 -0.18068,0.98037 0.14536,1.23788 0.65206,0.51502 1.82369,-0.80574 2.47576,-0.29071 0.32603,0.25751 -0.18067,0.98037 0.14535,1.23788 1.60906,1.27087 0.99831,-2.18568 1.5286,2.33042 0.29072,2.47577 0.58143,4.95153 0.87215,7.4273 0.0485,0.41263 -0.26727,1.28633 0.14535,1.23788 0.41264,-0.0485 0.26728,-1.28634 -0.14535,-1.23788 -1.16709,0.13704 -1.20247,2.12197 -2.18505,2.76648 -0.34741,0.22787 -0.98038,-0.18067 -1.23789,0.14536 -0.25751,0.32603 0.40287,0.91185 0.14536,1.23788 -0.54627,0.69163 -3.16739,-0.25554 -3.71365,0.43607 -0.25752,0.32604 0.40286,0.91185 0.14535,1.23789 -0.25751,0.32603 -0.98037,-0.18068 -1.23788,0.14535 -0.25752,0.32604 0.40287,0.91185 0.14536,1.23789 -0.25752,0.32604 -1.28634,-0.26727 -1.23789,0.14536 0.0485,0.41262 1.65051,-0.19381 1.23789,-0.14536 -3.74132,0.43932 -5.2959,1.04967 -6.18943,0.72679 -0.21642,-0.0782 -0.3974,-3.38431 -0.43607,-3.71366 -0.58143,-4.95154 -1.16286,-9.90307 -1.74429,-14.85461 z"
         style="fill:#ffffff;stroke:#000000;stroke-width:1px;stroke-linecap:butt;stroke-linejoin:miter;stroke-opacity:1" />
      <path
         inkscape:connector-curvature="0"
         id="path3870-5"
         d="m 683.74435,652.9294 c 1.4317,1.50515 2.78992,5.94716 4.29509,4.51546 1.50515,-1.43169 -5.92526,-5.80302 -4.29509,-4.51546 2.08764,1.64887 3.74855,3.77688 5.67833,5.60799 0.42621,0.40443 1.06098,0.60123 1.38324,1.09253 0.22787,0.3474 -0.18068,0.98037 0.14536,1.23789 0.65206,0.51501 1.69429,-0.57312 2.47576,-0.29072 0.55259,0.19968 0.83066,0.89284 1.38324,1.09253 0.39074,0.14119 0.82526,-0.0969 1.23789,-0.14536 0.46108,0.36417 0.83066,0.89284 1.38324,1.09252 0.39073,0.14121 0.91186,-0.40286 1.23788,-0.14536 0.32604,0.25752 -0.18067,0.98038 0.14536,1.23789 0.32604,0.25751 0.91185,-0.40286 1.23788,-0.14536 0.32604,0.25752 -0.18067,0.98038 0.14536,1.23789 0.32604,0.25751 0.84715,-0.28656 1.23789,-0.14536 1.10516,0.39937 2.12197,1.20246 2.76648,2.18506 0.22787,0.34739 -0.18068,0.98038 0.14536,1.23788 0.32603,0.25751 0.91185,-0.40286 1.23788,-0.14536 0.32604,0.25752 -0.18068,0.98037 0.14536,1.23789 0.32604,0.25751 0.91185,-0.40287 1.23789,-0.14536 0.46527,0.36749 -0.17456,2.10828 0.29071,2.47577 0.32604,0.25752 0.91185,-0.40287 1.23788,-0.14536 0.42578,0.3363 0.55104,4.6927 0.72679,6.18943 0.0485,0.41262 0.26727,-1.28634 -0.14536,-1.23789 -0.14564,0.0171 0.59674,3.51023 0.43607,3.71366 -0.0761,0.0963 -8.95456,1.05148 -9.90308,1.16286 -0.82525,0.0969 -2.57267,-0.53455 -2.47577,0.29071 0.0485,0.41263 1.28634,0.26727 1.23789,-0.14536 -0.0685,-0.58355 -1.06098,-0.60124 -1.38324,-1.09252 -0.63634,-0.97014 0.29598,-4.25854 -0.58143,-4.95154 -0.32603,-0.25752 -0.91185,0.40287 -1.23789,0.14535 -0.32602,-0.25751 0.18068,-0.98037 -0.14535,-1.23788 -0.32603,-0.25752 -0.91185,0.40287 -1.23788,0.14535 -0.32604,-0.25751 0.18067,-0.98037 -0.14536,-1.23788 -0.32603,-0.25752 -1.28633,-0.26727 -1.23788,0.14536 0.0485,0.41262 1.28634,0.26726 1.23788,-0.14536 -0.0685,-0.58354 -1.06098,-0.60124 -1.38324,-1.09253 -0.52793,-0.80484 -0.24125,-5.80592 -0.72678,-6.18942 -0.32604,-0.25751 -0.91186,0.40287 -1.23789,0.14535 -0.32603,-0.2575 0.18067,-0.98037 -0.14536,-1.23788 -0.13832,-0.10925 -3.6044,0.29775 -3.71365,0.43607 -0.68759,0.87055 1.9958,10.27042 1.30821,11.14096 -0.25751,0.32604 -0.91184,0.40287 -1.23788,0.14536 -0.36616,-0.2892 -0.37622,-3.20394 -0.43607,-3.71365 -0.77524,-6.60205 -1.55048,-13.2041 -2.32572,-19.80615 z"
         style="fill:#ffffff;stroke:#000000;stroke-width:1px;stroke-linecap:butt;stroke-linejoin:miter;stroke-opacity:1" />
      <path
         inkscape:connector-curvature="0"
         id="path3872-5"
         d="m 686.50144,697.78395 c 0.21881,-1.69896 2.35542,-4.87808 0.65645,-5.0969 -1.69896,-0.21881 -0.45668,6.79821 -0.65645,5.0969 -0.3269,-2.78395 0.56404,-5.88392 0.22038,-8.81055 -0.0969,-0.82525 0.53455,-2.57268 -0.29071,-2.47577 -0.41263,0.0485 -0.26727,1.28634 0.14536,1.23788 2.36141,-0.27728 -0.169,-1.23511 2.33041,-1.5286 1.65051,-0.1938 3.30102,-0.38761 4.95154,-0.58142 0.41262,-0.0485 1.28634,0.26727 1.23788,-0.14536 -0.0485,-0.41263 -1.65052,0.19381 -1.23788,0.14536 0.82525,-0.0969 1.65051,-0.19381 2.47576,-0.29072 0.41263,-0.0485 0.91186,-0.40286 1.23788,-0.14535 0.87741,0.693 -0.0549,3.9814 0.58143,4.95154 0.32227,0.49129 1.06099,0.60123 1.38325,1.09252 0.70379,1.07296 0.52491,4.47025 0.72678,6.18943 0.0485,0.41262 0.26728,-1.28634 -0.14536,-1.23789 -0.82525,0.0969 0.19381,1.65051 0.29072,2.47577 0.39139,3.3332 -1.35845,-0.88134 -1.09253,1.38325 0.0485,0.41262 1.65052,-0.19381 1.23788,-0.14536 -1.65051,0.19381 -3.30102,0.38762 -4.95153,0.58143 -0.82526,0.0969 -2.57267,-0.53455 -2.47577,0.29071 0.0485,0.41263 0.82525,-0.0969 1.23789,-0.14536 -2.62113,-0.94717 -5.09539,-3.16654 -7.86338,-2.84151 -2.40602,0.28252 4.41699,1.99125 0,0 z"
         style="fill:#ffffff;stroke:#000000;stroke-width:1px;stroke-linecap:butt;stroke-linejoin:miter;stroke-opacity:1" />
      <path
         inkscape:connector-curvature="0"
         id="path3874-7"
         d="m 659.99946,685.83648 c 1.60206,-0.60644 5.41262,-0.21725 4.80619,-1.81931 -0.60644,-1.60207 -6.5075,2.01909 -4.80619,1.81931 0.51293,-0.0602 6.8422,-2.86162 8.51984,-2.25538 2.65059,0.95781 0.73428,2.82611 1.67396,3.56828 0.32602,0.25752 0.91185,-0.40286 1.23788,-0.14535 0.65207,0.51503 -0.16503,1.78098 0.29072,2.47577 1.01179,1.54253 1.75467,0.64253 2.76647,2.18505 0.22788,0.3474 0.0969,0.82526 0.14536,1.23789 0.46109,0.36418 1.06099,0.60124 1.38324,1.09253 0.22788,0.34739 -0.18067,0.98037 0.14536,1.23788 0.32603,0.25752 0.91185,-0.40287 1.23788,-0.14535 0.36616,0.2892 0.37622,3.20393 0.43607,3.71365 0.0969,0.82526 0.80575,1.8237 0.29072,2.47577 -0.0562,0.0711 -6.72106,0.78921 -7.4273,0.87214 -1.19271,0.14005 -12.24879,1.5563 -12.37885,1.45357 -0.36615,-0.2892 -0.37622,-3.20393 -0.43607,-3.71365 -0.88769,-7.55967 -1.73124,-5.52166 2.11472,-14.0528 z"
         style="fill:#ffffff;stroke:#000000;stroke-width:1px;stroke-linecap:butt;stroke-linejoin:miter;stroke-opacity:1" />
      <path
         inkscape:connector-curvature="0"
         id="path3876-0"
         d="m 585.02311,581.69473 c 1.19278,4.53469 1.21343,17.09414 2.18035,18.56827 0.32226,0.49129 1.06099,0.60123 1.38324,1.09252 0.22787,0.3474 -0.18068,0.98038 0.14536,1.23789 0.32604,0.25751 0.91185,-0.40287 1.23789,-0.14536 0.32603,0.25752 -0.18068,0.98037 0.14535,1.23789 0.32604,0.2575 0.91185,-0.40287 1.23789,-0.14536 0.32603,0.2575 -0.0825,0.89049 0.14536,1.23789 0.64451,0.98259 2.12196,1.20246 2.76648,2.18505 0.22787,0.3474 0.0969,0.82525 0.14536,1.23789 0.46107,0.36417 1.06097,0.60123 1.38324,1.09252 0.45574,0.6948 -0.36136,1.96075 0.29071,2.47576 0.32603,0.25752 0.91185,-0.40286 1.23789,-0.14535 0.63942,0.50504 -0.0254,3.01014 0.43607,3.71365 0.32225,0.4913 1.06098,0.60124 1.38324,1.09253 0.45574,0.69479 -0.16503,1.78098 0.29072,2.47577 0.32225,0.49129 1.06097,0.60124 1.38324,1.09253 0.45574,0.69479 -0.36136,1.96075 0.29071,2.47577 0.32603,0.25751 0.91185,-0.40287 1.23788,-0.14536 0.32603,0.25752 -0.0825,0.89049 0.14535,1.23789 0.32227,0.49129 1.06099,0.60123 1.38325,1.09253 0.22787,0.34739 0.0969,0.82525 0.14535,1.23788 0.46109,0.36417 1.06099,0.60123 1.38325,1.09253 0.22786,0.34739 -0.18067,0.98037 0.14535,1.23788 0.32604,0.25751 0.91186,-0.40287 1.23789,-0.14535 2.86198,2.26047 -3.92565,0.35946 1.5286,2.3304 0.39073,0.1412 0.91185,-0.40286 1.23788,-0.14536 0.65207,0.51503 -0.36135,1.96075 0.29071,2.47577 0.32604,0.25752 0.91185,-0.40286 1.23789,-0.14535 0.32604,0.25751 -0.0825,0.89048 0.14536,1.23788 0.64452,0.98259 2.12197,1.20247 2.76648,2.18506 0.45574,0.69479 -0.36135,1.96075 0.29072,2.47577 0.32603,0.25751 0.91184,-0.40288 1.23788,-0.14536 0.65206,0.51502 -0.36135,1.96075 0.29071,2.47577 0.32604,0.25751 0.91185,-0.40287 1.23789,-0.14536 0.32604,0.25752 -0.18068,0.98037 0.14536,1.23789 0.32603,0.25751 0.91185,-0.40287 1.23788,-0.14536 0.65206,0.51502 -0.36136,1.96074 0.29072,2.47577 0.32603,0.2575 0.91184,-0.40287 1.23788,-0.14536 0.32603,0.25751 0.0969,0.82525 0.14536,1.23789 0.41262,-0.0485 0.84715,-0.28655 1.23788,-0.14536 0.87371,0.31572 3.64019,2.50078 4.14973,3.27758 0.22787,0.3474 -0.18068,0.98038 0.14536,1.23788 0.32602,0.25751 0.91185,-0.40286 1.23787,-0.14536 0.32604,0.25752 -0.0825,0.89049 0.14536,1.23789 1.22289,1.86433 4.31009,2.50578 5.53297,4.37011 0.22787,0.3474 -0.18067,0.98037 0.14535,1.23788 0.32604,0.25752 0.91186,-0.40287 1.23789,-0.14535 0.65207,0.51502 -0.16503,1.78098 0.29071,2.47577 0.91717,1.39825 3.23257,1.87933 4.14973,3.27758 0.22787,0.3474 -0.18068,0.98037 0.14536,1.23789 0.32603,0.2575 0.91184,-0.40287 1.23788,-0.14536 0.32604,0.2575 -0.18068,0.98037 0.14536,1.23788 0.32603,0.25751 0.91185,-0.40287 1.23788,-0.14535 0.46527,0.36747 -0.17455,2.10828 0.29072,2.47577 0.32603,0.2575 0.91185,-0.40287 1.23788,-0.14536 0.32604,0.2575 -0.0825,0.89048 0.14536,1.23789 0.32225,0.49129 1.06099,0.60122 1.38324,1.09251 0.22787,0.34741 -0.18068,0.98038 0.14536,1.23789 0.32603,0.25751 0.91185,-0.40286 1.23788,-0.14536 0.32603,0.25752 -0.0825,0.89049 0.14536,1.23789 0.32226,0.4913 1.06098,0.60124 1.38324,1.09252 0.22787,0.3474 -0.26728,1.28634 0.14536,1.23789 0.41262,-0.0485 -0.47139,-1.49539 -0.14536,-1.23789 1.87655,1.48217 1.26582,4.36901 1.81932,4.80619 0.32602,0.25751 0.91184,-0.40287 1.23788,-0.14536 0.0627,0.0495 0.65825,5.60577 0.72679,6.18943 0.0598,0.50971 0.72526,3.3475 0.43607,3.71365 -0.0889,0.11249 -10.07068,1.18254 -11.14097,1.30821 -1.1927,0.14006 -12.24878,1.5563 -12.37884,1.45357 -0.0627,-0.0495 -0.65825,-5.60576 -0.72678,-6.18942 -0.87215,-7.42731 -1.74429,-14.85461 -2.61643,-22.28192 -0.0598,-0.50972 -0.0699,-3.42445 -0.43607,-3.71366 -0.32604,-0.25751 -0.91186,0.40288 -1.23789,0.14536 -0.32603,-0.25751 0.18067,-0.98037 -0.14535,-1.23788 -1.9862,-1.56876 -0.87432,2.4195 -0.94717,2.62112 -0.19968,0.55258 -0.89285,0.83067 -1.09253,1.38325 -0.39431,1.09116 1.27443,4.07413 0.58143,4.95154 -0.25752,0.32602 -0.98037,-0.18068 -1.23789,0.14535 -0.51502,0.65206 0.19381,1.65051 0.29072,2.47577 0.0598,0.50972 0.72527,3.3475 0.43607,3.71365 -0.25752,0.32603 -0.98037,-0.18067 -1.23789,0.14535 -0.10273,0.13007 1.31352,11.18615 1.45357,12.37885 0.0598,0.50972 0.72527,3.3475 0.43607,3.71366 -0.25751,0.32603 -0.98037,-0.18068 -1.23788,0.14536 -0.25752,0.32602 0.0969,0.82525 0.14536,1.23788 -0.41263,0.0485 -0.98038,-0.18068 -1.23789,0.14536 -0.25751,0.32603 0.40287,0.91185 0.14536,1.23788 -0.51502,0.65207 -1.65051,0.19381 -2.47577,0.29072 -0.41263,0.0485 -1.28634,-0.26728 -1.23789,0.14536 0.0485,0.41262 1.28634,0.26726 1.23789,-0.14536 -0.0485,-0.41264 -0.91185,0.40286 -1.23789,0.14536 -0.0711,-0.0562 -0.78921,-6.72107 -0.87214,-7.42731 -0.0969,-0.82526 -0.19381,-1.65051 -0.29071,-2.47577 -0.0485,-0.41263 0.26727,-1.28634 -0.14536,-1.23789 -0.41263,0.0485 0.19381,1.65051 0.14536,1.23789 -0.9206,-7.83994 -1.84119,-15.67987 -2.76179,-23.51981 -0.14536,-1.23789 -0.29071,-2.47577 -0.43607,-3.71366 -0.0485,-0.41262 0.26728,-1.28633 -0.14536,-1.23788 -0.41262,0.0485 0.19381,1.65052 0.14536,1.23788 -0.0969,-0.82525 -0.19381,-1.65051 -0.29071,-2.47577 -0.0485,-0.41262 0.18068,-0.98037 -0.14536,-1.23787 -0.2917,-0.2304 -4.73822,0.74991 -4.95154,0.58143 -0.20342,-0.16068 -0.29043,-3.73076 -0.43607,-3.71366 -0.41263,0.0485 -0.26727,1.28634 0.14536,1.23789 0.41263,-0.0485 -0.0969,-0.82526 -0.14536,-1.23789 -0.0977,-0.83202 0.015,-3.02599 -0.43607,-3.71365 -0.32226,-0.4913 -1.06098,-0.60124 -1.38324,-1.09253 -0.45574,-0.69479 0.36135,-1.96075 -0.29071,-2.47577 -0.32604,-0.25752 -0.91186,0.40287 -1.23788,0.14536 -0.32604,-0.25752 0.18066,-0.98037 -0.14536,-1.23789 -0.32604,-0.25751 -0.91186,0.40287 -1.23789,0.14536 -0.46527,-0.36749 0.17455,-2.10828 -0.29071,-2.47577 -0.32604,-0.25751 -0.98038,-0.18067 -1.23789,0.14536 -0.0761,0.0963 1.05148,8.95456 1.16286,9.90308 1.55048,13.2041 3.10095,26.4082 4.65143,39.6123 0.0685,0.58366 0.77631,6.12673 0.72678,6.18942 -0.25751,0.32603 -0.82526,0.0969 -1.23788,0.14536 -3.68629,0.43286 -2.5042,0.0486 -2.91184,-3.42294 -0.83911,-7.14594 -1.22423,-10.42568 -1.45358,-12.37885 -0.0887,-0.75541 -0.0425,-4.52584 -0.58142,-4.95153 -0.92217,-0.72836 -4.02938,1.30977 -4.95154,0.58143 -0.53897,-0.4257 -0.49273,-4.19613 -0.58143,-4.95154 -1.16286,-9.90308 -2.32571,-19.80615 -3.48857,-29.70924 -0.28929,-2.46363 -1.48182,-16.48704 -2.035,-17.33038 -4.58763,-3.62345 0.72059,1.09857 -1.5286,-2.33041 -0.32225,-0.49129 -1.06099,-0.60123 -1.38324,-1.09253 -0.22787,-0.34739 0.0825,-0.89049 -0.14536,-1.23788 -0.32225,-0.49129 -1.06098,-0.60123 -1.38324,-1.09253 -0.22787,-0.3474 0.0825,-0.89048 -0.14536,-1.23788 -0.32225,-0.49129 -1.06097,-0.60123 -1.38324,-1.09253 -0.45574,-0.69479 0.16503,-1.78097 -0.29071,-2.47576 -0.32226,-0.4913 -1.06098,-0.60124 -1.38325,-1.09253 -0.22787,-0.34741 0.26728,-1.28634 -0.14535,-1.23789 -0.82525,0.0969 0.19381,1.65051 0.29071,2.47577 0.19381,1.65051 0.38762,3.30102 0.58143,4.95153 0.48452,4.12629 0.96905,8.25258 1.45357,12.37886 2.1319,18.15564 4.26381,36.31127 6.39571,54.46691 0.11138,0.94851 1.23894,9.80673 1.16286,9.90308 -0.25751,0.32602 -0.82525,0.0969 -1.23789,0.14535 -0.41262,0.0485 -0.91185,0.40287 -1.23787,0.14536 -0.0963,-0.0761 -1.05148,-8.95457 -1.16286,-9.90308 -0.58143,-4.95154 -1.16286,-9.90307 -1.74428,-14.85461 -0.85011,-7.23963 -0.94506,-11.60358 -1.45358,-12.37885 -0.43429,-0.66209 -4.28428,1.10846 -4.95154,0.58143 -0.0627,-0.0495 -0.65824,-5.60576 -0.72678,-6.18942 -1.55047,-13.2041 -3.10095,-26.4082 -4.65143,-39.6123 -0.67833,-5.7768 -1.35666,-11.55359 -2.03499,-17.33039 -0.0969,-0.82525 -0.80575,-1.8237 -0.29072,-2.47576 0.25751,-0.32603 0.98037,0.18067 1.23789,-0.14536 2.26047,-2.86198 -3.90215,0.5597 0.94717,-2.62112 0.34739,-0.22787 0.98037,0.18067 1.23788,-0.14536 0.25751,-0.32604 -0.40287,-0.91186 -0.14535,-1.23789 0.61627,-0.78026 4.00096,-0.13549 4.95153,-0.58142 2.02553,-0.95022 3.93247,-2.13505 5.89871,-3.20256 z"
         style="fill:#ffffff;stroke:#000000;stroke-width:1px;stroke-linecap:butt;stroke-linejoin:miter;stroke-opacity:1" />
      <path
         transform="matrix(-0.99317631,0.1166225,0.1166225,0.99317631,675.37727,18.612741)"
         inkscape:connector-curvature="0"
         id="path3880-3"
         d="m -12.856923,689.54437 8.7247199,32.40613 21.1886201,14.95667 44.87002,11.21751 32.40613,7.47833 31.159733,-3.73917 34.89891,-21.18862 12.46389,-23.6814 4.98556,-36.14529 -47.3628,-7.47834 -31.159733,11.21751 -17.44946,4.98556 -59.82669,6.23194 z"
         style="opacity:0.83950614;fill:#ff0000;stroke:#000000;stroke-width:1px;stroke-linecap:butt;stroke-linejoin:miter;stroke-opacity:1" />
      <path
         sodipodi:nodetypes="ccccccc"
         transform="translate(0,308.2677)"
         inkscape:connector-curvature="0"
         id="path3070"
         d="m 372.67044,353.97459 c 5.40102,9.55565 10.80204,19.11131 16.20306,28.66696 14.12575,-17.86491 28.25149,-35.72983 42.37724,-53.59474 10.80204,-9.14019 21.60408,-18.28038 32.40612,-27.42057 10.80204,-13.71028 21.60409,-27.42057 32.40613,-41.13085 -30.74427,12.87936 -61.48855,25.75871 -92.23282,38.63807 -10.38658,18.28038 -20.77315,36.56075 -31.15973,54.84113 z"
         style="fill:#ffffff;stroke:#000000;stroke-width:1px;stroke-linecap:butt;stroke-linejoin:miter;stroke-opacity:1" />
      <path
         sodipodi:nodetypes="cccccc"
         inkscape:connector-curvature="0"
         id="path3072"
         d="m 352.72821,618.61867 c 14.54121,-2.49278 29.08241,-4.98556 43.62362,-7.47834 -14.12575,21.60408 -28.25149,43.20817 -42.37724,64.81225 -9.14019,1.24639 -18.28037,2.49278 -27.42056,3.73917 -1.24639,-5.40102 -2.49278,-10.80204 -3.73917,-16.20306 9.97112,-14.95667 19.94223,-29.91335 29.91335,-44.87002 z"
         style="fill:#ffffff;stroke:#000000;stroke-width:1px;stroke-linecap:butt;stroke-linejoin:miter;stroke-opacity:1" />
      <path
         sodipodi:nodetypes="cccccccccccccccc"
         transform="translate(0,308.2677)"
         inkscape:connector-curvature="0"
         id="path3842"
         d="m 245.53872,342.75709 c 11.63297,-9.14019 23.26593,-18.28038 34.8989,-27.42057 12.04843,-7.06287 24.09686,-14.12575 36.14529,-21.18862 1.24639,-2.49278 2.49278,-4.98555 3.73917,-7.47833 -7.47834,-1.24639 -14.95667,-2.49278 -22.43501,-3.73917 -0.83093,-1.66185 -1.66185,-3.32371 -2.49278,-4.98556 -10.38658,2.90824 -20.77315,5.81649 -31.15973,8.72473 0.41546,1.24639 0.83093,2.49277 1.24639,3.73916 8.30926,-1.24639 16.61852,-2.49277 24.92778,-3.73916 -9.97111,4.57009 -19.94223,9.14019 -29.91334,13.71028 2.07732,1.24639 4.15463,2.49278 6.23195,3.73917 9.97111,-3.73917 19.94223,-7.47834 29.91334,-11.21751 -9.97111,5.40102 -19.94223,10.80205 -29.91334,16.20307 -7.06287,6.64741 -14.12575,13.29482 -21.18862,19.94223 -2.07732,2.49278 -4.15463,4.98555 -6.23195,7.47833 2.07732,2.07732 4.15463,4.15463 6.23195,6.23195 z"
         style="fill:#ffffff;stroke:#000000;stroke-width:1px;stroke-linecap:butt;stroke-linejoin:miter;stroke-opacity:1" />
      <path
         sodipodi:nodetypes="ccccc"
         transform="translate(0,308.2677)"
         inkscape:connector-curvature="0"
         id="path3844"
         d="m 327.80042,327.80042 c 6.23195,-6.23195 12.46389,-12.46389 18.69584,-18.69584 -6.64741,0 -13.29482,0 -19.94223,0 -3.32371,2.49278 -6.64741,4.98555 -9.97112,7.47833 3.73917,3.73917 7.47834,7.47834 11.21751,11.21751 z"
         style="fill:#ffffff;stroke:#000000;stroke-width:1px;stroke-linecap:butt;stroke-linejoin:miter;stroke-opacity:1" />
      <path
         sodipodi:nodetypes="ccccc"
         transform="translate(0,308.2677)"
         inkscape:connector-curvature="0"
         id="path3846"
         d="m 295.39429,351.48182 c 7.06287,0 14.12575,0 21.18862,0 0,-6.64741 0,-13.29482 0,-19.94223 -5.81648,-0.83093 -11.63297,-1.66185 -17.44945,-2.49278 -1.24639,7.47834 -2.49278,14.95667 -3.73917,22.43501 z"
         style="fill:#ffffff;stroke:#000000;stroke-width:1px;stroke-linecap:butt;stroke-linejoin:miter;stroke-opacity:1" />
      <path
         sodipodi:nodetypes="ccccc"
         transform="translate(0,308.2677)"
         inkscape:connector-curvature="0"
         id="path3848"
         d="m 258.00261,346.49626 c 6.64741,0 13.29482,0 19.94223,0 4.15463,-4.5701 8.30926,-9.14019 12.46389,-13.71029 -3.73917,-2.07731 -7.47833,-4.15463 -11.2175,-6.23194 -7.06287,6.64741 -14.12575,13.29482 -21.18862,19.94223 z"
         style="fill:#ffffff;stroke:#000000;stroke-width:1px;stroke-linecap:butt;stroke-linejoin:miter;stroke-opacity:1" />
      <path
         sodipodi:nodetypes="ccccc"
         transform="translate(0,308.2677)"
         inkscape:connector-curvature="0"
         id="path3852"
         d="m 201.91509,337.77153 c 2.90824,-2.49278 5.81648,-4.98555 8.72472,-7.47833 0,-3.73917 0,-7.47834 0,-11.21751 -3.73917,2.49278 -7.47833,4.98556 -11.2175,7.47834 0.83093,3.73917 1.66185,7.47833 2.49278,11.2175 z"
         style="fill:#ffffff;stroke:#000000;stroke-width:1px;stroke-linecap:butt;stroke-linejoin:miter;stroke-opacity:1" />
      <path
         sodipodi:nodetypes="ccccc"
         transform="translate(0,308.2677)"
         inkscape:connector-curvature="0"
         id="path3854"
         d="m 203.16148,344.00348 c 2.90824,-1.66185 5.81648,-3.32371 8.72472,-4.98556 1.24639,2.90824 2.49278,5.81649 3.73917,8.72473 -3.32371,2.49278 -6.64741,4.98555 -9.97112,7.47833 -0.83092,-3.73917 -1.66185,-7.47833 -2.49277,-11.2175 z"
         style="fill:#ffffff;stroke:#000000;stroke-width:1px;stroke-linecap:butt;stroke-linejoin:miter;stroke-opacity:1" />
      <path
         sodipodi:nodetypes="ccccc"
         transform="translate(0,308.2677)"
         inkscape:connector-curvature="0"
         id="path3856"
         d="m 224.3501,357.71376 c -3.32371,0.83093 -6.64741,1.66185 -9.97112,2.49278 0.41546,2.49278 0.83093,4.98556 1.24639,7.47834 2.90824,0 5.81649,0 8.72473,0 0,-3.32371 0,-6.64741 0,-9.97112 z"
         style="fill:#ffffff;stroke:#000000;stroke-width:1px;stroke-linecap:butt;stroke-linejoin:miter;stroke-opacity:1" />
      <path
         transform="translate(0,308.2677)"
         inkscape:connector-curvature="0"
         id="path3858"
         d="m 403.83017,375.16321 34.89891,-44.87001 31.15973,-29.91335 32.40613,-41.13085 7.47833,6.23195 -38.63807,41.13085 -27.42057,28.66695 z"
         style="fill:#ffffff;stroke:#000000;stroke-width:1px;stroke-linecap:butt;stroke-linejoin:miter;stroke-opacity:1" />
      <path
         transform="translate(0,308.2677)"
         inkscape:connector-curvature="0"
         id="path3860"
         d="m 428.75796,395.10545 c 0,-4.98556 0,-36.1453 0,-36.1453 l 39.88446,-39.88446 14.95667,-19.94223 19.94223,-22.43501 3.73917,6.23195 -29.91334,72.29058 -39.88446,41.13085 z"
         style="fill:#ffffff;stroke:#000000;stroke-width:1px;stroke-linecap:butt;stroke-linejoin:miter;stroke-opacity:1" />
      <path
         transform="translate(0,308.2677)"
         inkscape:connector-curvature="0"
         id="path3862"
         d="m 259.249,356.46737 c -17.08015,0 13.9988,0 -6.23195,0 -0.41546,0 -0.83092,0 -1.24639,0 -1.66185,0 -3.3237,0 -4.98556,0 -0.83092,0 -2.49277,0.83093 -2.49277,0 0,-0.41546 1.66185,0 1.24639,0 -0.83093,0 -1.66186,0 -2.49278,0 -0.41547,0 -1.24639,0.41547 -1.24639,0 0,-0.41546 1.24639,-0.41546 1.24639,0 0,0.83093 -1.66186,0 -2.49278,0 -0.41547,0 -1.24639,0.41547 -1.24639,0 0,-0.41546 1.24639,-0.41546 1.24639,0 0,0.41547 -0.95261,-0.29377 -1.24639,0 -0.29378,0.29378 0.29378,0.95262 0,1.24639 -0.29378,0.29378 -0.95261,-0.29377 -1.24639,0 -0.32993,0.32993 0,3.22595 0,3.73917 0,0.41546 0.41546,1.24639 0,1.24639 -0.41546,0 -0.41546,-1.24639 0,-1.24639 0.41546,0 0,0.83093 0,1.24639 0,0.41546 0.41546,1.24639 0,1.24639 -0.41546,0 0,-1.66185 0,-1.24639 0,0.83093 0,1.66185 0,2.49278 0,0.41546 0.41546,1.24639 0,1.24639 -0.41546,0 -0.41546,-1.24639 0,-1.24639 0.41546,0 0,0.83093 0,1.24639 0,0.41546 0.41546,1.24639 0,1.24639 -0.41546,0 0,-1.66185 0,-1.24639 0,0.83093 -0.3716,1.74957 0,2.49278 0.1858,0.3716 0.83093,0 1.24639,0 2.90824,0 5.81648,0 8.72472,0 0.58767,0 6.17546,0.0565 6.23195,0 0.58755,-0.58756 -0.58755,-1.90523 0,-2.49278 0.29378,-0.29378 0.95261,0.29378 1.24639,0 0.58755,-0.58755 -0.58755,-1.90523 0,-2.49278 0.29378,-0.29378 0.95261,0.29378 1.24639,0 0.29378,-0.29378 -0.13138,-0.85225 0,-1.24639 0.70751,-2.12252 1.66185,-4.15463 2.49278,-6.23195 z"
         style="fill:#ffffff;stroke:#000000;stroke-width:1px;stroke-linecap:butt;stroke-linejoin:miter;stroke-opacity:1" />
      <path
         transform="translate(0,308.2677)"
         inkscape:connector-curvature="0"
         id="path3864"
         d="m 290.40873,355.22098 c -1.66185,0 -4.98555,1.66186 -4.98555,0 0,-1.66185 6.64741,0 4.98555,0 -2.07731,0 -4.15463,0 -6.23194,0 -0.41547,0 -0.95262,-0.29377 -1.24639,0 -0.58756,0.58756 0.58755,1.90523 0,2.49278 -0.29378,0.29378 -0.95261,-0.29377 -1.24639,0 -0.6232,0.6232 0.62319,3.11598 0,3.73917 -0.29378,0.29378 -0.95261,-0.29378 -1.24639,0 -0.6232,0.6232 0.62319,3.11597 0,3.73917 -0.29378,0.29378 -0.95261,-0.29378 -1.24639,0 -0.48564,0.48564 0,4.22496 0,4.98556 0,0.83092 0.83093,2.49278 0,2.49278 -0.41546,0 0,-1.66186 0,-1.24639 0,0.83092 0,1.66185 0,2.49278 0,0.41546 -0.41546,-1.24639 0,-1.24639 0.41546,0 -0.29378,0.95261 0,1.24639 0.62319,0.62319 3.11597,-0.6232 3.73917,0 0.29377,0.29377 -0.29378,0.95261 0,1.24638 0.0565,0.0565 5.64427,0 6.23194,0 0.83093,0 1.90523,0.58756 2.49278,0 0.58756,-0.58755 -0.58755,-1.90522 0,-2.49277 0.29378,-0.29378 0.95262,0.29377 1.24639,0 0.29378,-0.29378 -0.29377,-0.95262 0,-1.24639 0.38594,-0.38594 5.84601,0.38594 6.23195,0 0.29378,-0.29378 -0.29378,-0.95262 0,-1.24639 0.58755,-0.58756 1.90523,0.58755 2.49278,0 0.58755,-0.58756 -0.83093,-2.49278 0,-2.49278 0.41546,0 0,1.66185 0,1.24639 0,-2.07732 0,-4.15463 0,-6.23195 0,-0.41546 0.29378,-0.95261 0,-1.24639 -0.29378,-0.29378 -1.24639,-0.41546 -1.24639,0 0,0.58755 1.83394,1.24639 1.24639,1.24639 -0.929,0 -1.61145,-0.95261 -2.49278,-1.24639 -0.95243,-0.31748 -2.72795,0 -3.73917,0 -0.83092,0 -2.49278,0.83093 -2.49278,0 0,-0.41546 0.83093,0 1.24639,0 -1.24639,-2.07731 -2.49278,-4.15463 -3.73917,-6.23195 z"
         style="fill:#ffffff;stroke:#000000;stroke-width:1px;stroke-linecap:butt;stroke-linejoin:miter;stroke-opacity:1" />
      <path
         transform="translate(0,308.2677)"
         inkscape:connector-curvature="0"
         id="path3866"
         d="m 334.03236,382.64155 c 1.302,-4.26815 -3.79585,-3.85254 -4.98555,-6.23195 -0.1858,-0.3716 0.29377,-0.95261 0,-1.24639 -0.29378,-0.29377 -0.95262,0.29378 -1.24639,0 -0.29378,-0.29377 0.29377,-0.95261 0,-1.24638 -0.29378,-0.29378 -0.95262,0.29377 -1.24639,0 -0.29378,-0.29378 0.29377,-0.95262 0,-1.24639 -0.57616,-0.57617 -2.98663,0.37626 -3.73917,0 -0.52552,-0.26277 -0.72087,-0.98363 -1.24639,-1.24639 -1.0351,-0.51756 -3.80394,0 -4.98556,0 -0.7606,0 -4.49991,-0.48564 -4.98556,0 -0.0565,0.0565 0,5.64427 0,6.23194 0,0.71111 -0.0641,7.41423 0,7.47834 0.29378,0.29378 0.95262,-0.29378 1.24639,0 0.29378,0.29378 -0.29377,0.95261 0,1.24639 0.29378,0.29378 0.95262,-0.29378 1.24639,0 0.29378,0.29378 -0.29377,0.95261 0,1.24639 0.6232,0.62319 3.11598,-0.6232 3.73917,0 0.29378,0.29378 -0.29378,0.95261 0,1.24639 0.37715,0.37715 9.97112,-0.33374 9.97112,0 0,0.41546 -1.24639,0.41546 -1.24639,0 0,-0.58756 0.79502,-0.87025 1.24639,-1.24639 2.04367,-1.70306 4.15463,-3.32371 6.23194,-4.98556 z"
         style="fill:#ffffff;stroke:#000000;stroke-width:1px;stroke-linecap:butt;stroke-linejoin:miter;stroke-opacity:1" />
      <path
         transform="translate(0,308.2677)"
         inkscape:connector-curvature="0"
         id="path3868"
         d="m 366.43849,387.62711 c -1.66185,-0.83093 -5.81649,-0.83093 -4.98556,-2.49278 0.83093,-1.66185 6.84357,2.49278 4.98556,2.49278 -2.23734,0 -4.10942,-1.78527 -6.23195,-2.49278 -0.49733,-0.16578 -4.66429,-0.32127 -4.98556,0 -0.18329,0.18329 0.14664,3.73917 0,3.73917 -0.41546,0 -0.41546,-1.24639 0,-1.24639 0.41547,0 0.29378,0.95261 0,1.24639 -0.58755,0.58755 -1.90522,-0.58756 -2.49277,0 -0.29378,0.29378 0.29377,0.95261 0,1.24639 -1.44986,1.44985 -1.24639,-2.05434 -1.24639,2.49278 0,2.49278 0,4.98555 0,7.47833 0,0.41547 0.41546,1.24639 0,1.24639 -0.41547,0 -0.41547,-1.24639 0,-1.24639 1.1751,0 1.44173,1.96726 2.49277,2.49278 0.37161,0.1858 0.95262,-0.29377 1.24639,0 0.29378,0.29378 -0.29377,0.95261 0,1.24639 0.6232,0.6232 3.11598,-0.62319 3.73917,0 0.29378,0.29378 -0.29377,0.95261 0,1.24639 0.29378,0.29378 0.95261,-0.29378 1.24639,0 0.29378,0.29378 -0.29378,0.95261 0,1.24639 0.29378,0.29378 1.24639,-0.41546 1.24639,0 0,0.41546 -1.66185,0 -1.24639,0 3.76702,0 5.38217,0.42489 6.23195,0 0.20582,-0.10291 0,-3.40756 0,-3.73917 0,-4.98556 0,-9.97111 0,-14.95667 z"
         style="fill:#ffffff;stroke:#000000;stroke-width:1px;stroke-linecap:butt;stroke-linejoin:miter;stroke-opacity:1" />
      <path
         transform="translate(0,308.2677)"
         inkscape:connector-curvature="0"
         id="path3870"
         d="m 425.01879,363.94571 c -1.24639,1.66185 -2.07731,6.23195 -3.73917,4.98556 -1.66185,-1.24639 5.20806,-6.45444 3.73917,-4.98556 -1.88109,1.88109 -3.2825,4.18828 -4.98556,6.23195 -0.37614,0.45137 -0.98362,0.72086 -1.24639,1.24639 -0.1858,0.3716 0.29378,0.95261 0,1.24639 -0.58755,0.58755 -1.74957,-0.37161 -2.49277,0 -0.52553,0.26276 -0.72087,0.98362 -1.24639,1.24639 -0.37161,0.1858 -0.83093,0 -1.24639,0 -0.41547,0.41546 -0.72087,0.98362 -1.24639,1.24638 -0.3716,0.18581 -0.95262,-0.29377 -1.24639,0 -0.29378,0.29378 0.29377,0.95262 0,1.24639 -0.29378,0.29378 -0.95261,-0.29377 -1.24639,0 -0.29378,0.29378 0.29378,0.95262 0,1.24639 -0.29378,0.29378 -0.87479,-0.1858 -1.24639,0 -1.05105,0.52553 -1.96726,1.44173 -2.49278,2.49278 -0.1858,0.3716 0.29378,0.95262 0,1.24639 -0.29378,0.29378 -0.95261,-0.29377 -1.24639,0 -0.29378,0.29378 0.29378,0.95261 0,1.24639 -0.29378,0.29378 -0.95261,-0.29378 -1.24639,0 -0.41924,0.41924 0.41924,2.07354 0,2.49278 -0.29378,0.29378 -0.95261,-0.29378 -1.24639,0 -0.38365,0.38366 0,4.72494 0,6.23195 0,0.41546 -0.41546,-1.24639 0,-1.24639 0.14664,0 -0.18329,3.55587 0,3.73917 0.0868,0.0868 9.01609,0 9.97112,0 0.83092,0 2.49278,-0.83093 2.49278,0 0,0.41546 -1.24639,0.41546 -1.24639,0 0,-0.58756 0.98362,-0.72087 1.24639,-1.24639 0.51886,-1.03773 -0.7906,-4.19496 0,-4.98556 0.29377,-0.29378 0.95261,0.29378 1.24639,0 0.29377,-0.29378 -0.29378,-0.95261 0,-1.24639 0.29377,-0.29378 0.95261,0.29378 1.24638,0 0.29378,-0.29378 -0.29377,-0.95261 0,-1.24639 0.29378,-0.29378 1.24639,-0.41546 1.24639,0 0,0.41546 -1.24639,0.41546 -1.24639,0 0,-0.58755 0.98363,-0.72087 1.24639,-1.24639 0.43047,-0.86092 -0.4375,-5.79444 0,-6.23195 0.29378,-0.29377 0.95262,0.29378 1.24639,0 0.29378,-0.29377 -0.29377,-0.95261 0,-1.24639 0.12464,-0.12463 3.61453,-0.12463 3.73917,0 0.78442,0.78442 -0.78442,10.43309 0,11.21751 0.29378,0.29378 0.95261,0.29378 1.24639,0 0.32993,-0.32993 0,-3.22595 0,-3.73917 0,-6.64741 0,-13.29482 0,-19.94223 z"
         style="fill:#ffffff;stroke:#000000;stroke-width:1px;stroke-linecap:butt;stroke-linejoin:miter;stroke-opacity:1" />
      <path
         transform="translate(0,308.2677)"
         inkscape:connector-curvature="0"
         id="path3872"
         d="m 427.51157,408.81573 c -0.41546,-1.66185 -2.90824,-4.5701 -1.24639,-4.98556 1.66185,-0.41546 1.24639,6.69856 1.24639,4.98556 0,-2.80308 -1.24639,-5.77799 -1.24639,-8.72473 0,-0.83092 -0.83093,-2.49278 0,-2.49278 0.41546,0 0.41546,1.24639 0,1.24639 -2.37764,0 0.0238,-1.24639 -2.49278,-1.24639 -1.66185,0 -3.3237,0 -4.98556,0 -0.41546,0 -1.24639,0.41547 -1.24639,0 0,-0.41546 1.66186,0 1.24639,0 -0.83092,0 -1.66185,0 -2.49277,0 -0.41547,0 -0.95262,-0.29377 -1.24639,0 -0.7906,0.7906 0.51886,3.94783 0,4.98556 -0.26277,0.52553 -0.98363,0.72087 -1.24639,1.24639 -0.57386,1.14771 0,4.50096 0,6.23195 0,0.41546 -0.41547,-1.24639 0,-1.24639 0.83092,0 0,1.66185 0,2.49278 0,3.3561 1.24639,-1.03375 1.24639,1.24639 0,0.41546 -1.66186,0 -1.24639,0 1.66185,0 3.3237,0 4.98555,0 0.83093,0 2.49278,-0.83093 2.49278,0 0,0.41546 -0.83092,0 -1.24639,0 2.49278,-1.24639 4.69133,-3.73917 7.47834,-3.73917 2.42255,0 -4.15463,2.49278 0,0 z"
         style="fill:#ffffff;stroke:#000000;stroke-width:1px;stroke-linecap:butt;stroke-linejoin:miter;stroke-opacity:1" />
      <path
         transform="translate(0,308.2677)"
         inkscape:connector-curvature="0"
         id="path3874"
         d="m 452.43936,393.85906 c -1.66185,-0.41547 -5.40102,0.41546 -4.98556,-1.24639 0.41546,-1.66186 6.69856,1.24639 4.98556,1.24639 -0.51645,0 -7.12924,-2.04414 -8.72473,-1.24639 -2.5208,1.2604 -0.39968,2.89246 -1.24639,3.73916 -0.29377,0.29378 -0.95261,-0.29377 -1.24639,0 -0.58755,0.58756 0.37161,1.74958 0,2.49278 -0.825,1.65 -1.66777,0.84278 -2.49277,2.49278 -0.18581,0.3716 0,0.83093 0,1.24639 -0.41547,0.41547 -0.98363,0.72087 -1.24639,1.24639 -0.18581,0.3716 0.29377,0.95261 0,1.24639 -0.29378,0.29378 -0.95262,-0.29378 -1.24639,0 -0.32993,0.32993 0,3.22595 0,3.73917 0,0.83093 -0.58756,1.90522 0,2.49278 0.0641,0.0641 6.76723,0 7.47833,0 1.2009,0 12.3467,0.11719 12.4639,0 0.32992,-0.32993 0,-3.22595 0,-3.73917 0,-7.61161 1.07547,-5.68588 -3.73917,-13.71028 z"
         style="fill:#ffffff;stroke:#000000;stroke-width:1px;stroke-linecap:butt;stroke-linejoin:miter;stroke-opacity:1" />
      <path
         transform="translate(0,308.2677)"
         inkscape:connector-curvature="0"
         id="path3876"
         d="m 514.75883,281.68401 c -0.6558,4.64285 0.78841,17.11901 0,18.69584 -0.26276,0.52552 -0.98363,0.72087 -1.24639,1.24639 -0.1858,0.3716 0.29378,0.95261 0,1.24639 -0.29378,0.29378 -0.95261,-0.29378 -1.24639,0 -0.29378,0.29378 0.29378,0.95261 0,1.24639 -0.29378,0.29377 -0.95261,-0.29378 -1.24639,0 -0.29378,0.29377 0.1858,0.87479 0,1.24639 -0.52552,1.05105 -1.96725,1.44173 -2.49278,2.49278 -0.1858,0.3716 0,0.83092 0,1.24639 -0.41546,0.41546 -0.98362,0.72086 -1.24639,1.24639 -0.3716,0.7432 0.58756,1.90522 0,2.49277 -0.29377,0.29378 -0.95261,-0.29377 -1.24639,0 -0.57616,0.57617 0.37627,2.98664 0,3.73917 -0.26276,0.52553 -0.98362,0.72087 -1.24639,1.24639 -0.3716,0.7432 0.37161,1.74958 0,2.49278 -0.26276,0.52552 -0.98362,0.72087 -1.24639,1.24639 -0.3716,0.7432 0.58756,1.90523 0,2.49278 -0.29377,0.29378 -0.95261,-0.29378 -1.24638,0 -0.29378,0.29378 0.1858,0.87479 0,1.24639 -0.26277,0.52552 -0.98363,0.72086 -1.24639,1.24639 -0.1858,0.3716 0,0.83092 0,1.24639 -0.41547,0.41546 -0.98363,0.72086 -1.24639,1.24639 -0.1858,0.3716 0.29377,0.95261 0,1.24639 -0.29378,0.29377 -0.95262,-0.29378 -1.24639,0 -2.57883,2.57882 3.94078,-0.10081 -1.24639,2.49277 -0.3716,0.18581 -0.95261,-0.29377 -1.24639,0 -0.58756,0.58756 0.58755,1.90523 0,2.49278 -0.29378,0.29378 -0.95261,-0.29377 -1.24639,0 -0.29378,0.29378 0.1858,0.87479 0,1.24639 -0.52553,1.05105 -1.96726,1.44173 -2.49278,2.49278 -0.3716,0.7432 0.58755,1.90523 0,2.49278 -0.29378,0.29378 -0.95261,-0.29378 -1.24639,0 -0.58755,0.58755 0.58755,1.90523 0,2.49278 -0.29378,0.29378 -0.95261,-0.29378 -1.24639,0 -0.29378,0.29378 0.29378,0.95261 0,1.24639 -0.29378,0.29378 -0.95261,-0.29378 -1.24639,0 -0.58755,0.58755 0.58756,1.90522 0,2.49278 -0.29378,0.29377 -0.95261,-0.29378 -1.24639,0 -0.29377,0.29377 0,0.83092 0,1.24639 -0.41546,0 -0.87479,-0.1858 -1.24639,0 -0.83092,0.41546 -3.3237,2.90824 -3.73917,3.73917 -0.1858,0.3716 0.29378,0.95261 0,1.24638 -0.29377,0.29378 -0.95261,-0.29377 -1.24638,0 -0.29378,0.29378 0.1858,0.87479 0,1.24639 -0.99712,1.99423 -3.98845,2.99134 -4.98556,4.98556 -0.1858,0.3716 0.29377,0.95261 0,1.24639 -0.29378,0.29378 -0.95262,-0.29378 -1.24639,0 -0.58756,0.58755 0.3716,1.74958 0,2.49278 -0.74784,1.49567 -2.99134,2.2435 -3.73917,3.73917 -0.1858,0.3716 0.29378,0.95261 0,1.24639 -0.29378,0.29377 -0.95261,-0.29378 -1.24639,0 -0.29378,0.29377 0.29378,0.95261 0,1.24639 -0.29378,0.29377 -0.95261,-0.29378 -1.24639,0 -0.41924,0.41923 0.41924,2.07354 0,2.49278 -0.29378,0.29377 -0.95261,-0.29378 -1.24639,0 -0.29378,0.29377 0.1858,0.87478 0,1.24639 -0.26276,0.52552 -0.98363,0.72086 -1.24639,1.24638 -0.1858,0.37161 0.29378,0.95262 0,1.24639 -0.29377,0.29378 -0.95261,-0.29377 -1.24639,0 -0.29377,0.29378 0.1858,0.87479 0,1.24639 -0.26276,0.52553 -0.98362,0.72087 -1.24639,1.24639 -0.1858,0.3716 0.41547,1.24639 0,1.24639 -0.41546,0 0.29378,-1.54016 0,-1.24639 -1.69089,1.6909 -0.74765,4.48682 -1.24639,4.98556 -0.29377,0.29378 -0.95261,-0.29378 -1.24639,0 -0.0565,0.0565 0,5.64428 0,6.23195 0,0.51322 -0.32992,3.40924 0,3.73917 0.10137,0.10136 10.13987,0 11.21751,0 1.2009,0 12.3467,0.11719 12.46389,0 0.0565,-0.0565 0,-5.64428 0,-6.23195 0,-7.47834 0,-14.95667 0,-22.43501 0,-0.51322 -0.32992,-3.40924 0,-3.73917 0.29378,-0.29378 0.95262,0.29378 1.24639,0 0.29378,-0.29378 -0.29377,-0.95261 0,-1.24639 1.78969,-1.78969 1.15052,2.30103 1.24639,2.49278 0.26276,0.52552 0.98363,0.72087 1.24639,1.24639 0.51887,1.03773 -0.7906,4.19496 0,4.98556 0.29378,0.29377 0.95261,-0.29378 1.24639,0 0.58755,0.58755 0,1.66185 0,2.49278 0,0.51322 -0.32993,3.40924 0,3.73916 0.29378,0.29378 0.95261,-0.29377 1.24639,0 0.1172,0.1172 0,11.263 0,12.4639 0,0.51322 -0.32993,3.40924 0,3.73917 0.29378,0.29377 0.95261,-0.29378 1.24639,0 0.29378,0.29377 0,0.83092 0,1.24639 0.41546,0 0.95261,-0.29378 1.24639,0 0.29378,0.29377 -0.29378,0.95261 0,1.24639 0.58755,0.58755 1.66185,0 2.49278,0 0.41546,0 1.24639,-0.41547 1.24639,0 0,0.41546 -1.24639,0.41546 -1.24639,0 0,-0.41547 0.95261,0.29377 1.24639,0 0.0641,-0.0641 0,-6.76724 0,-7.47834 0,-0.83093 0,-1.66185 0,-2.49278 0,-0.41546 -0.41547,-1.24639 0,-1.24639 0.41546,0 0,1.66185 0,1.24639 0,-7.8938 0,-15.7876 0,-23.6814 0,-1.24639 0,-2.49278 0,-3.73917 0,-0.41546 -0.41547,-1.24639 0,-1.24639 0.41546,0 0,1.66186 0,1.24639 0,-0.83092 0,-1.66185 0,-2.49278 0,-0.41546 -0.29378,-0.95261 0,-1.24638 0.26284,-0.26285 4.79334,0.19221 4.98556,0 0.18329,-0.1833 -0.14664,-3.73917 0,-3.73917 0.41546,0 0.41546,1.24639 0,1.24639 -0.41547,0 0,-0.83093 0,-1.24639 0,-0.83774 -0.36779,-3.0036 0,-3.73917 0.26276,-0.52553 0.98362,-0.72087 1.24638,-1.24639 0.37161,-0.7432 -0.58755,-1.90523 0,-2.49278 0.29378,-0.29378 0.95262,0.29378 1.24639,0 0.29378,-0.29378 -0.29377,-0.95261 0,-1.24639 0.29378,-0.29378 0.95262,0.29378 1.24639,0 0.41924,-0.41924 -0.41923,-2.07354 0,-2.49278 0.29378,-0.29377 0.95262,-0.29377 1.24639,0 0.0868,0.0868 0,9.01609 0,9.97112 0,13.29482 0,26.58964 0,39.88446 0,0.58767 -0.0565,6.17546 0,6.23195 0.29378,0.29377 0.83093,0 1.24639,0 3.71161,0 2.49278,-0.24375 2.49278,-3.73917 0,-7.19503 0,-10.49731 0,-12.4639 0,-0.7606 -0.48564,-4.49991 0,-4.98555 0.83093,-0.83093 4.15463,0.83092 4.98556,0 0.48564,-0.48565 0,-4.22496 0,-4.98556 0,-9.97112 0,-19.94223 0,-29.91335 0,-2.48056 -0.45105,-16.54736 0,-17.44945 4.13375,-4.13375 -0.58755,1.17511 1.24639,-2.49278 0.26276,-0.52552 0.98363,-0.72086 1.24639,-1.24639 0.1858,-0.3716 -0.1858,-0.87479 0,-1.24639 0.26276,-0.52552 0.98363,-0.72086 1.24639,-1.24639 0.1858,-0.3716 -0.1858,-0.87478 0,-1.24639 0.26276,-0.52552 0.98362,-0.72086 1.24639,-1.24639 0.3716,-0.7432 -0.3716,-1.74957 0,-2.49277 0.26276,-0.52553 0.98362,-0.72087 1.24639,-1.24639 0.1858,-0.37161 -0.41547,-1.24639 0,-1.24639 0.83092,0 0,1.66185 0,2.49278 0,1.66185 0,3.3237 0,4.98555 0,4.15463 0,8.30927 0,12.4639 0,18.28038 0,36.56075 0,54.84113 0,0.95503 -0.0868,9.8843 0,9.97112 0.29377,0.29377 0.83092,0 1.24639,0 0.41546,0 0.95261,0.29377 1.24638,0 0.0868,-0.0868 0,-9.01609 0,-9.97112 0,-4.98556 0,-9.97111 0,-14.95667 0,-7.28937 -0.41463,-11.63462 0,-12.4639 0.35412,-0.70822 4.38432,0.60125 4.98556,0 0.0565,-0.0565 0,-5.64427 0,-6.23194 0,-13.29482 0,-26.58964 0,-39.88446 0,-5.81649 0,-11.63297 0,-17.44946 0,-0.83092 0.58756,-1.90522 0,-2.49277 -0.29377,-0.29378 -0.95261,0.29377 -1.24639,0 -2.57882,-2.57883 3.94079,0.1008 -1.24639,-2.49278 -0.3716,-0.1858 -0.95261,0.29377 -1.24639,0 -0.29377,-0.29378 0.29378,-0.95262 0,-1.24639 -0.70307,-0.70307 -3.98946,0.33203 -4.98555,0 -2.12253,-0.70751 -4.15463,-1.66186 -6.23195,-2.49278 z"
         style="fill:#ffffff;stroke:#000000;stroke-width:1px;stroke-linecap:butt;stroke-linejoin:miter;stroke-opacity:1" />
      <path
         transform="matrix(0.36496295,0,0,0.41773471,350.66332,489.80517)"
         d="m 575.83191,115.91422 c 0,25.46939 -19.80998,46.11641 -44.24683,46.11641 -24.43684,0 -44.24682,-20.64702 -44.24682,-46.11641 0,-25.469387 19.80998,-46.116407 44.24682,-46.116407 24.43685,0 44.24683,20.64702 44.24683,46.116407 z"
         sodipodi:ry="46.116409"
         sodipodi:rx="44.246826"
         sodipodi:cy="115.91422"
         sodipodi:cx="531.58508"
         id="path4019"
         style="fill:#000000;fill-opacity:1;stroke:#000000;stroke-width:8;stroke-linecap:square;stroke-miterlimit:4;stroke-opacity:1;stroke-dasharray:none"
         sodipodi:type="arc" />
      <path
         transform="matrix(0.99739391,-0.07214834,0.10548076,1.4581882,-26.577453,243.50235)"
         d="m 563.36802,289.16235 c 0,26.15775 -6.41731,47.3628 -14.33347,47.3628 -7.91617,0 -14.33348,-21.20505 -14.33348,-47.3628 0,-26.15775 6.41731,-47.36279 14.33348,-47.36279 7.91616,0 14.33347,21.20504 14.33347,47.36279 z"
         sodipodi:ry="47.362797"
         sodipodi:rx="14.333478"
         sodipodi:cy="289.16235"
         sodipodi:cx="549.03455"
         id="path4021"
         style="fill:#000000;fill-opacity:1;stroke:#000000;stroke-width:8;stroke-linecap:square;stroke-miterlimit:4;stroke-opacity:1;stroke-dasharray:none"
         sodipodi:type="arc" />
      <path
         transform="translate(0,308.2677)"
         inkscape:connector-curvature="0"
         id="path4023"
         d="m 525.97633,253.01705 c -1.24639,1.66185 -2.07731,6.23195 -3.73916,4.98556 -1.66186,-1.24639 3.73916,-7.06287 3.73916,-4.98556 0,2.42255 -2.65577,4.06516 -3.73916,6.23195 -0.53999,1.07996 0,11.69614 0,13.71028 0,0.83093 -0.58756,1.90523 0,2.49278 0.0565,0.0565 5.64427,0 6.23194,0 0.41547,0 0.95262,0.29378 1.24639,0 0.32993,-0.32993 0,-3.22595 0,-3.73917 0,-1.82785 0.48948,-11.48494 0,-12.46389 -1.08339,-2.16679 -2.49278,-4.15463 -3.73917,-6.23195 z"
         style="fill:#ffffff;stroke:#000000;stroke-width:1px;stroke-linecap:butt;stroke-linejoin:miter;stroke-opacity:1" />
      <path
         transform="translate(0,308.2677)"
         inkscape:connector-curvature="0"
         id="path4025"
         d="m 562.12163,253.01705 c 0.41546,1.66185 0.83092,3.32371 1.24639,4.98556 0.41546,0.41546 0.98362,0.72086 1.24639,1.24639 0.1858,0.3716 -0.29378,0.95261 0,1.24639 0.29377,0.29378 0.95261,-0.29378 1.24639,0 0.29377,0.29378 -0.29378,0.95261 0,1.24639 0.29377,0.29377 0.95261,-0.29378 1.24639,0 0.29377,0.29377 -0.29378,0.95261 0,1.24639 0.29377,0.29377 0.95261,-0.29378 1.24638,0 0.29378,0.29377 -0.29377,0.95261 0,1.24639 0.29378,0.29377 0.95262,-0.29378 1.24639,0 0.29378,0.29377 -0.29377,0.95261 0,1.24639 0.6232,0.62319 3.11598,-0.6232 3.73917,0 0.29378,0.29377 -0.29377,0.95261 0,1.24639 0.58756,0.58755 1.90523,-0.58756 2.49278,0 0.29378,0.29377 -0.29378,0.95261 0,1.24638 0.58755,0.58756 2.49278,-0.83092 2.49278,0 0,0.41547 -1.24639,0.41547 -1.24639,0 0,-0.58755 0.98363,-0.72086 1.24639,-1.24638 0.3716,-0.74321 0,-1.66186 0,-2.49278 0,-2.49278 0,-4.98556 0,-7.47834 0,-4.54711 0.20347,-1.04292 -1.24639,-2.49278 -0.29378,-0.29378 0.29378,-0.95261 0,-1.24639 -0.58755,-0.58755 -1.74958,0.3716 -2.49278,0 -0.52552,-0.26276 -0.72086,-0.98363 -1.24639,-1.24639 -1.59172,-0.79586 -10.20943,1.04478 -11.2175,1.24639 z"
         style="fill:#ffffff;stroke:#000000;stroke-width:1px;stroke-linecap:butt;stroke-linejoin:miter;stroke-opacity:1" />
      <path
         inkscape:connector-curvature="0"
         d="m 543.76127,559.53742 c -0.0543,2.4735 -0.0228,4.94851 -0.0146,7.42262 0.0203,1.33922 0.0171,2.67866 0.0236,4.01804 -0.003,1.06674 0.007,2.13328 2e-5,3.20002 0.006,1.12385 -2.3e-4,2.24769 -0.005,3.37154 0.0105,1.12033 0.003,2.24069 0.006,3.36105 0.0107,1.10498 -0.007,2.20995 -0.005,3.31496 0.008,1.11683 -10e-4,2.23366 0.008,3.35049 1e-5,1.0788 -0.007,2.1576 -0.004,3.2364 -0.001,1.22751 -0.007,2.45509 -0.002,3.68259 -0.009,1.17922 0.007,2.35849 0.003,3.53765 -0.009,1.16479 0.003,2.32954 -0.002,3.49438 0.001,1.07937 5.7e-4,2.15871 0.005,3.23806 6.8e-4,1.04001 0.43898,1.93641 0.61318,2.94717 0.0369,1.04279 0.50267,1.81663 0.74861,2.74689 0.16107,0.8766 0.30007,1.57564 0.7211,2.25518 0.46131,0.36167 0.85227,0.81712 1.07071,1.6101 0.26804,0.80665 0.68325,1.50566 0.87913,2.39953 0.36264,0.55943 0.63408,1.09934 0.84494,1.80477 0,0 -5.92576,0.38409 -5.92576,0.38409 l 0,0 c -0.23888,-0.66866 -0.64008,-1.17313 -0.84087,-1.87907 -0.24766,-0.80655 -0.64122,-1.47846 -0.88207,-2.28785 -0.31289,-0.58237 -0.7663,-0.86357 -1.06742,-1.45453 -0.36292,-0.76653 -0.52693,-1.60164 -0.71716,-2.47969 -0.31016,-0.92806 -0.67039,-1.81366 -0.74539,-2.8652 -0.22311,-1.05764 -0.66331,-2.04163 -0.62289,-3.18139 0.004,-1.07935 0.003,-2.15869 0.005,-3.23806 -0.005,-1.16484 0.007,-2.32959 -0.002,-3.49438 -0.004,-1.17916 0.0119,-2.35843 0.003,-3.53765 0.005,-1.2275 -3.6e-4,-2.45508 -0.002,-3.68259 0.003,-1.0788 -0.004,-2.1576 -0.004,-3.2364 0.01,-1.11683 2.1e-4,-2.23366 0.008,-3.35049 0.001,-1.10501 -0.0158,-2.20998 -0.005,-3.31496 0.003,-1.12036 -0.004,-2.24072 0.006,-3.36105 -0.005,-1.12385 -0.0121,-2.24769 -0.005,-3.37154 -0.007,-1.06674 0.003,-2.13328 2e-5,-3.20002 0.006,-1.33938 0.003,-2.67882 0.0236,-4.01804 0.008,-2.47411 0.0396,-4.94912 -0.0147,-7.42262 0,0 5.89982,0 5.89982,0 z"
         id="path4029"
         style="fill:#ffffff;fill-opacity:1;stroke:none" />
      <path
         inkscape:connector-curvature="0"
         d="m 558.41075,558.03612 c 0.2598,2.16123 0.48471,4.31882 0.58612,6.52015 0.2733,2.19381 0.55873,4.37115 0.74238,6.59378 0.0992,1.54047 0.14891,3.09027 0.15656,4.63998 0.0661,0.99099 -0.1172,2.07212 0.0923,3.01136 0.35607,1.03181 0.50994,2.20836 0.59849,3.38678 0.0895,1.28566 0.0838,2.58348 0.0981,3.87625 -0.116,1.43051 0.10985,2.66704 0.34185,4.01018 0.27236,1.83733 0.33982,3.731 0.39839,5.61638 0.0255,1.50696 0.0456,3.01491 0.0421,4.52261 -0.0139,1.95398 -0.0284,3.90798 -0.0222,5.86211 0.0138,1.49323 0.007,2.98667 0.02,4.47989 0.002,1.18231 -0.005,2.3646 -0.002,3.54691 -0.01,1.25822 0.004,2.51652 6.3e-4,3.7747 0.003,0.74526 0.003,0.36026 -10e-4,1.15497 0,0 -5.45075,0 -5.45075,0 l 0,0 c -0.004,-0.79471 -0.004,-0.40971 -10e-4,-1.15497 -0.004,-1.25817 0.0103,-2.51647 6.3e-4,-3.77469 0.003,-1.18233 -0.004,-2.36465 -0.003,-3.54697 0.0132,-1.49342 0.006,-2.98707 0.0215,-4.48047 0.008,-1.95428 -0.005,-3.9085 -0.0135,-5.86275 -10e-4,-1.49226 0.0181,-2.98519 -0.0198,-4.47681 -0.0432,-1.80919 -0.11916,-3.63179 -0.40609,-5.38214 -0.2569,-1.41648 -0.4465,-2.78293 -0.36277,-4.2831 0.005,-1.25027 -0.003,-2.50447 -0.0888,-3.74749 -0.10585,-1.14332 -0.31079,-2.20934 -0.60333,-3.25268 -0.14789,-1.07518 -0.0872,-2.16923 -0.0906,-3.26971 -0.0118,-1.51018 -0.0195,-3.02293 -0.12773,-4.52436 -0.16568,-2.24141 -0.47721,-4.42759 -0.7314,-6.64177 -0.10914,-2.1481 -0.30341,-4.27934 -0.62046,-6.36766 0,0 5.44475,-0.23048 5.44475,-0.23048 z"
         id="path4031"
         style="fill:#ffffff;fill-opacity:1;stroke:none" />
      <path
         inkscape:connector-curvature="0"
         d="m 540.65363,526.12246 c -0.61603,2.3024 -1.07956,4.76787 -1.3782,7.31641 -0.17034,1.63076 -0.18953,3.29823 -0.20503,4.95784 -0.0112,1.82441 -0.16294,2.3638 0.65841,3.29781 0.70015,0.40093 1.30836,0.61364 1.94939,1.36503 0.50601,0.36489 0.25437,0.18791 0.75488,0.53133 0,0 -6.18003,1.5417 -6.18003,1.5417 l 0,0 c -0.50652,-0.41071 -0.25066,-0.18755 -0.76684,-0.67298 -0.65054,-0.56593 -1.4068,-0.57435 -1.95967,-1.59051 -0.67436,-1.28689 -0.75163,-2.68098 -0.68119,-4.48631 0.003,-1.76039 0.0542,-3.51561 0.22258,-5.24708 0.32226,-2.6269 0.79658,-5.16372 1.37767,-7.59995 0,0 6.20803,0.58671 6.20803,0.58671 z"
         id="path4033"
         style="fill:#ffffff;fill-opacity:1;stroke:none" />
      <path
         inkscape:connector-curvature="0"
         d="m 553.02374,524.65248 c 0.45534,2.3024 0.79796,4.76787 1.01869,7.31641 0.12591,1.63076 0.1401,3.29823 0.15155,4.95784 0.008,1.82441 0.12044,2.3638 -0.48666,3.29781 -0.51751,0.40093 -0.96707,0.61364 -1.44089,1.36503 -0.37401,0.36489 -0.18801,0.18791 -0.55796,0.53133 0,0 4.56795,1.5417 4.56795,1.5417 l 0,0 c 0.37439,-0.41071 0.18528,-0.18755 0.56681,-0.67298 0.48084,-0.56593 1.03983,-0.57435 1.44848,-1.59051 0.49846,-1.28689 0.55557,-2.68098 0.5035,-4.48631 -0.002,-1.76039 -0.0401,-3.51561 -0.16452,-5.24708 -0.23819,-2.6269 -0.58879,-5.16372 -1.0183,-7.59995 0,0 -4.58865,0.58671 -4.58865,0.58671 z"
         id="path4033-8"
         style="fill:#ffffff;fill-opacity:1;stroke:none" />
      <path
         transform="translate(0,308.2677)"
         inkscape:connector-curvature="0"
         id="path4053"
         d="M 534.70106,213.13259 C 458.67131,152.05951 451.19297,164.5234 451.19297,164.5234"
         style="fill:none;stroke:#000000;stroke-width:4;stroke-linecap:butt;stroke-linejoin:miter;stroke-miterlimit:4;stroke-opacity:1;stroke-dasharray:none" />
      <path
         sodipodi:nodetypes="cc"
         transform="translate(0,308.2677)"
         inkscape:connector-curvature="0"
         id="path4055"
         d="m 548.41134,215.62537 c 0,0 38.63807,-61.07308 76.02976,-56.08752"
         style="fill:none;stroke:#000000;stroke-width:4;stroke-linecap:butt;stroke-linejoin:miter;stroke-miterlimit:4;stroke-opacity:1;stroke-dasharray:none" />
    </g>
  </g>
</svg>
