<?xml version="1.0" encoding="UTF-8" standalone="no"?>
<!-- Created with Inkscape (http://www.inkscape.org/) -->

<svg
   xmlns:dc="http://purl.org/dc/elements/1.1/"
   xmlns:cc="http://creativecommons.org/ns#"
   xmlns:rdf="http://www.w3.org/1999/02/22-rdf-syntax-ns#"
   xmlns:svg="http://www.w3.org/2000/svg"
   xmlns="http://www.w3.org/2000/svg"
   xmlns:xlink="http://www.w3.org/1999/xlink"
   xmlns:sodipodi="http://sodipodi.sourceforge.net/DTD/sodipodi-0.dtd"
   xmlns:inkscape="http://www.inkscape.org/namespaces/inkscape"
   width="349.7326"
   height="321.10052"
   id="svg2"
   sodipodi:version="0.32"
   inkscape:version="0.48.4 r9939"
   version="1.0"
   sodipodi:docname="9.svg">
  <defs
     id="defs4">
    <linearGradient
       inkscape:collect="always"
       id="linearGradient3953">
      <stop
         style="stop-color:#ffffff;stop-opacity:1"
         offset="0"
         id="stop3955" />
      <stop
         id="stop3961"
         offset="0.88923383"
         style="stop-color:#a98b68;stop-opacity:1" />
      <stop
         style="stop-color:#aa8b68;stop-opacity:1"
         offset="1"
         id="stop3957" />
    </linearGradient>
    <inkscape:path-effect
       effect="skeletal"
       id="path-effect3935"
       is_visible="true"
       pattern="M 0,0 1,0"
       copytype="single_stretched"
       prop_scale="1"
       scale_y_rel="false"
       spacing="0"
       normal_offset="0"
       tang_offset="0"
       prop_units="false"
       vertical_pattern="false"
       fuse_tolerance="0" />
    <inkscape:path-effect
       effect="skeletal"
       id="path-effect3931"
       is_visible="true"
       pattern="M 0,0 1,0"
       copytype="single_stretched"
       prop_scale="1"
       scale_y_rel="false"
       spacing="0"
       normal_offset="0"
       tang_offset="0"
       prop_units="false"
       vertical_pattern="false"
       fuse_tolerance="0" />
    <inkscape:path-effect
       effect="skeletal"
       id="path-effect3927"
       is_visible="true"
       pattern="M 0,5 C 0,2.24 2.24,0 5,0 7.76,0 10,2.24 10,5 10,7.76 7.76,10 5,10 2.24,10 0,7.76 0,5 z"
       copytype="single_stretched"
       prop_scale="1"
       scale_y_rel="false"
       spacing="0"
       normal_offset="0"
       tang_offset="0"
       prop_units="false"
       vertical_pattern="false"
       fuse_tolerance="0" />
    <inkscape:path-effect
       effect="skeletal"
       id="path-effect3923"
       is_visible="true"
       pattern="M 0,5 C 0,2.24 2.24,0 5,0 7.76,0 10,2.24 10,5 10,7.76 7.76,10 5,10 2.24,10 0,7.76 0,5 z"
       copytype="single_stretched"
       prop_scale="1"
       scale_y_rel="false"
       spacing="0"
       normal_offset="0"
       tang_offset="0"
       prop_units="false"
       vertical_pattern="false"
       fuse_tolerance="0" />
    <inkscape:path-effect
       effect="skeletal"
       id="path-effect3919"
       is_visible="true"
       pattern="m 3.8230088,7.8672566 c 0,-2.76 2.24,-5 5,-5 2.7600002,0 5.0000002,2.24 5.0000002,5 0,2.7600004 -2.24,5.0000004 -5.0000002,5.0000004 -2.76,0 -5,-2.24 -5,-5.0000004 z"
       copytype="single_stretched"
       prop_scale="1"
       scale_y_rel="false"
       spacing="0"
       normal_offset="0"
       tang_offset="0"
       prop_units="false"
       vertical_pattern="false"
       fuse_tolerance="0" />
    <inkscape:path-effect
       effect="skeletal"
       id="path-effect3915"
       is_visible="true"
       pattern="m -374.65487,10.734513 c 0,-2.7599997 2.24,-4.9999997 5,-4.9999997 2.76,0 5,2.24 5,4.9999997 0,2.76 -2.24,5 -5,5 -2.76,0 -5,-2.24 -5,-5 z"
       copytype="single_stretched"
       prop_scale="1"
       scale_y_rel="false"
       spacing="0"
       normal_offset="0"
       tang_offset="0"
       prop_units="false"
       vertical_pattern="false"
       fuse_tolerance="0" />
    <inkscape:path-effect
       effect="skeletal"
       id="path-effect3911"
       is_visible="true"
       pattern="m 159.35475,85.335864 c 0,-2.76 2.24,-5 5,-5 2.76,0 5,2.24 5,5 0,2.76 -2.24,5 -5,5 -2.76,0 -5,-2.24 -5,-5 z"
       copytype="single_stretched"
       prop_scale="1"
       scale_y_rel="false"
       spacing="0"
       normal_offset="0"
       tang_offset="0"
       prop_units="false"
       vertical_pattern="false"
       fuse_tolerance="0" />
    <inkscape:path-effect
       effect="skeletal"
       id="path-effect3907"
       is_visible="true"
       pattern="m 198.86419,53.728311 c 0,-2.76 2.24,-5 5,-5 2.76,0 5,2.24 5,5 0,2.76 -2.24,5 -5,5 -2.76,0 -5,-2.24 -5,-5 z"
       copytype="single_stretched"
       prop_scale="1"
       scale_y_rel="false"
       spacing="0"
       normal_offset="0"
       tang_offset="0"
       prop_units="false"
       vertical_pattern="false"
       fuse_tolerance="0" />
    <inkscape:path-effect
       effect="skeletal"
       id="path-effect3135"
       is_visible="true"
       pattern="M 0,5 C 0,2.24 2.24,0 5,0 7.76,0 10,2.24 10,5 10,7.76 7.76,10 5,10 2.24,10 0,7.76 0,5 z"
       copytype="single_stretched"
       prop_scale="1"
       scale_y_rel="false"
       spacing="0"
       normal_offset="0"
       tang_offset="0"
       prop_units="false"
       vertical_pattern="false"
       fuse_tolerance="0" />
    <inkscape:path-effect
       effect="skeletal"
       id="path-effect3131"
       is_visible="true"
       pattern="m -348.84956,2.1327434 c 0,-2.76000002 2.24,-5 5,-5 2.76,0 5,2.23999998 5,5 0,2.76 -2.24,5 -5,5 -2.76,0 -5,-2.24 -5,-5 z"
       copytype="single_stretched"
       prop_scale="1"
       scale_y_rel="false"
       spacing="0"
       normal_offset="0"
       tang_offset="0"
       prop_units="false"
       vertical_pattern="false"
       fuse_tolerance="0" />
    <linearGradient
       id="linearGradient6336"
       inkscape:collect="always">
      <stop
         id="stop6338"
         offset="0"
         style="stop-color:#552200;stop-opacity:1" />
      <stop
         id="stop6340"
         offset="1"
         style="stop-color:#d7b489;stop-opacity:0;" />
    </linearGradient>
    <linearGradient
       inkscape:collect="always"
       id="linearGradient4764">
      <stop
         style="stop-color:#d7b489;stop-opacity:1;"
         offset="0"
         id="stop4766" />
      <stop
         style="stop-color:#d7b489;stop-opacity:0;"
         offset="1"
         id="stop4768" />
    </linearGradient>
    <linearGradient
       inkscape:collect="always"
       id="linearGradient4570">
      <stop
         style="stop-color:#000000;stop-opacity:1;"
         offset="0"
         id="stop4572" />
      <stop
         style="stop-color:#000000;stop-opacity:0;"
         offset="1"
         id="stop4574" />
    </linearGradient>
    <linearGradient
       inkscape:collect="always"
       id="linearGradient4526">
      <stop
         style="stop-color:#d38d5f;stop-opacity:1;"
         offset="0"
         id="stop4528" />
      <stop
         style="stop-color:#d38d5f;stop-opacity:0;"
         offset="1"
         id="stop4530" />
    </linearGradient>
    <linearGradient
       inkscape:collect="always"
       id="linearGradient4428">
      <stop
         style="stop-color:#00ffff;stop-opacity:1;"
         offset="0"
         id="stop4430" />
      <stop
         style="stop-color:#00ffff;stop-opacity:0;"
         offset="1"
         id="stop4432" />
    </linearGradient>
    <inkscape:perspective
       sodipodi:type="inkscape:persp3d"
       inkscape:vp_x="0 : 526.18109 : 1"
       inkscape:vp_y="0 : 1000 : 0"
       inkscape:vp_z="744.09448 : 526.18109 : 1"
       inkscape:persp3d-origin="372.04724 : 350.78739 : 1"
       id="perspective10" />
    <inkscape:perspective
       id="perspective2469"
       inkscape:persp3d-origin="372.04724 : 350.78739 : 1"
       inkscape:vp_z="744.09448 : 526.18109 : 1"
       inkscape:vp_y="0 : 1000 : 0"
       inkscape:vp_x="0 : 526.18109 : 1"
       sodipodi:type="inkscape:persp3d" />
    <inkscape:perspective
       id="perspective4070"
       inkscape:persp3d-origin="372.04724 : 350.78739 : 1"
       inkscape:vp_z="744.09448 : 526.18109 : 1"
       inkscape:vp_y="0 : 1000 : 0"
       inkscape:vp_x="0 : 526.18109 : 1"
       sodipodi:type="inkscape:persp3d" />
    <filter
       inkscape:collect="always"
       id="filter4254"
       x="-0.43018869"
       width="1.8603774"
       y="-0.31286448"
       height="1.625729"
       color-interpolation-filters="sRGB">
      <feGaussianBlur
         inkscape:collect="always"
         stdDeviation="1.4339623"
         id="feGaussianBlur4256" />
    </filter>
    <filter
       inkscape:collect="always"
       id="filter4422"
       x="-0.37924528"
       width="1.7584906"
       y="-0.37924528"
       height="1.7584906"
       color-interpolation-filters="sRGB">
      <feGaussianBlur
         inkscape:collect="always"
         stdDeviation="1.0271226"
         id="feGaussianBlur4424" />
    </filter>
    <linearGradient
       inkscape:collect="always"
       xlink:href="#linearGradient4428"
       id="linearGradient4448"
       gradientUnits="userSpaceOnUse"
       x1="460"
       y1="325.09448"
       x2="485"
       y2="297.59448" />
    <linearGradient
       inkscape:collect="always"
       xlink:href="#linearGradient4428"
       id="linearGradient4466"
       gradientUnits="userSpaceOnUse"
       x1="460"
       y1="325.09448"
       x2="485"
       y2="297.59448" />
    <inkscape:perspective
       id="perspective4660"
       inkscape:persp3d-origin="372.04724 : 350.78739 : 1"
       inkscape:vp_z="744.09448 : 526.18109 : 1"
       inkscape:vp_y="0 : 1000 : 0"
       inkscape:vp_x="0 : 526.18109 : 1"
       sodipodi:type="inkscape:persp3d" />
    <linearGradient
       inkscape:collect="always"
       xlink:href="#linearGradient4764"
       id="linearGradient4770"
       x1="62.77383"
       y1="493.26974"
       x2="698.69037"
       y2="512.34735"
       gradientUnits="userSpaceOnUse"
       gradientTransform="matrix(0.9296195,0,0,0.7437585,-47.887693,-179.08234)" />
    <linearGradient
       inkscape:collect="always"
       xlink:href="#linearGradient4526"
       id="linearGradient4819"
       gradientUnits="userSpaceOnUse"
       x1="458.50513"
       y1="324.70575"
       x2="483.21463"
       y2="284.76514" />
    <linearGradient
       inkscape:collect="always"
       xlink:href="#linearGradient4526"
       id="linearGradient4821"
       gradientUnits="userSpaceOnUse"
       x1="458.50513"
       y1="324.70575"
       x2="483.21463"
       y2="284.76514" />
    <radialGradient
       inkscape:collect="always"
       xlink:href="#linearGradient4570"
       id="radialGradient4823"
       gradientUnits="userSpaceOnUse"
       gradientTransform="matrix(1.5436418,0.03779357,-0.01297325,0.9936524,-1064.6556,-289.72518)"
       cx="756.01636"
       cy="178.96812"
       fx="756.01636"
       fy="178.96812"
       r="26.524023" />
    <linearGradient
       inkscape:collect="always"
       xlink:href="#linearGradient6336"
       id="linearGradient6559"
       gradientUnits="userSpaceOnUse"
       gradientTransform="matrix(0.9296195,0,0,0.7437585,243.78208,151.3769)"
       x1="104.74818"
       y1="416.9592"
       x2="212.80551"
       y2="450.34503" />
    <filter
       inkscape:collect="always"
       id="filter3941"
       color-interpolation-filters="sRGB">
      <feGaussianBlur
         inkscape:collect="always"
         stdDeviation="3.0166335"
         id="feGaussianBlur3943" />
    </filter>
    <radialGradient
       inkscape:collect="always"
       xlink:href="#linearGradient3953"
       id="radialGradient3959"
       cx="258.2048"
       cy="211.07013"
       fx="258.2048"
       fy="211.07013"
       r="72.417297"
       gradientTransform="matrix(-0.85931619,0.09146518,-0.11532811,-1.0835086,517.52007,390.77394)"
       gradientUnits="userSpaceOnUse" />
  </defs>
  <sodipodi:namedview
     id="base"
     pagecolor="#ffffff"
     bordercolor="#666666"
     borderopacity="1.0"
     gridtolerance="10000"
     guidetolerance="10"
     objecttolerance="10"
     inkscape:pageopacity="0.0"
     inkscape:pageshadow="2"
     inkscape:zoom="0.75931218"
     inkscape:cx="-62.725931"
     inkscape:cy="900.78276"
     inkscape:document-units="px"
     inkscape:current-layer="layer1"
     showgrid="false"
     showguides="true"
     inkscape:guide-bbox="true"
     fit-margin-top="0"
     fit-margin-left="0"
     fit-margin-right="0"
     fit-margin-bottom="0"
     inkscape:window-width="1317"
     inkscape:window-height="744"
     inkscape:window-x="49"
     inkscape:window-y="24"
     inkscape:window-maximized="1" />
  <metadata
     id="metadata7">
    <rdf:RDF>
      <cc:Work
         rdf:about="">
        <dc:format>image/svg+xml</dc:format>
        <dc:type
           rdf:resource="http://purl.org/dc/dcmitype/StillImage" />
        <dc:title />
      </cc:Work>
    </rdf:RDF>
  </metadata>
  <g
     inkscape:label="Layer 1"
     inkscape:groupmode="layer"
     id="layer1"
     transform="translate(-9.435213,-3.5028971)">
    <rect
       style="opacity:0.96999996;fill:#d38d5f;fill-opacity:1;fill-rule:evenodd;stroke:none"
       id="rect4534"
       width="0"
       height="2.3648589"
       x="699.40698"
       y="220.86946" />
    <flowRoot
       xml:space="preserve"
       id="flowRoot6518"
       style="font-size:10px;font-style:normal;font-weight:normal;writing-mode:tb-rl;fill:#000000;fill-opacity:1;stroke:none;font-family:Bitstream Vera Sans"><flowRegion
         id="flowRegion6520"><rect
           id="rect6522"
           width="614.86328"
           height="111.14837"
           x="57.939041"
           y="29.907114" /></flowRegion><flowPara
         id="flowPara6524" /></flowRoot>    <flowRoot
       xml:space="preserve"
       id="flowRoot6526"
       style="font-size:10px;font-style:normal;font-weight:normal;writing-mode:tb-rl;fill:#000000;fill-opacity:1;stroke:none;font-family:Bitstream Vera Sans"><flowRegion
         id="flowRegion6528"><rect
           id="rect6530"
           width="617.22815"
           height="126.51995"
           x="53.209324"
           y="25.177397" /></flowRegion><flowPara
         id="flowPara6532" /></flowRoot>    <g
       id="g3133"
       transform="translate(-5.2679255,2.6339628)">
      <path
         inkscape:connector-curvature="0"
         sodipodi:nodetypes="cssssssssssssssssssssssssssssssssssssssssssssssssssss"
         id="path6282"
         d="m 335.7364,128.1005 c 0,0 -17.17373,-24.7221 -26.38103,-34.298236 -5.54658,-5.76877 -16.48814,-14.95051 -20.88498,-17.58884 -4.39684,-2.63832 -51.66284,-18.46828 -61.55573,-20.22715 -9.89288,-1.75889 -41.76995,-3.51777 -46.16679,-3.51777 -4.39684,0 -27.48024,0 -32.97628,0 -5.49605,0 -47.32668,1.3167 -63.754143,9.67385 -12.35728,6.28653 -23.8569,20.56981 -28.57945,31.65991 -3.40474,7.995466 1.02394,19.867946 -1.09921,28.142136 -3.63288,14.15784 -18.40089,30.68561 -21.98419,44.85154 -2.55185,10.08833 0,28.14214 -1.09921,34.29824 -1.0992,6.1561 -15.38892,22.86549 -15.38892,26.38325 0,3.51777 1.09921,7.03554 0,12.31219 -1.09921,5.27665 0.40835,22.23514 -1.09921,31.65991 -0.55849,3.49149 -2.79979,7.93539 -3.29763,11.43275 -0.18658,1.31069 -1.10832,3.42052 0,4.3972 6.90365,6.08372 24.61498,5.8366 34.07549,2.63833 3.89001,-1.31508 7.91868,-5.48903 8.79367,-8.79441 1.34239,-5.07101 -4.66477,-11.56876 -5.49605,-16.7094 -0.84622,-5.23304 0,-13.19163 0,-17.58884 0,-4.39721 7.69447,-22.86549 9.89289,-26.38326 2.19842,-3.51777 14.36405,-16.15996 20.88498,-22.86549 7.62263,-7.83842 23.083403,-21.1066 26.381033,-25.50381 3.29762,-4.39722 6.94205,-14.02431 13.1905,-13.19163 13.47859,1.79617 11.11588,23.91418 15.38893,34.29823 3.22989,7.84904 6.8973,18.47497 9.89289,26.38326 4.90112,12.93884 14.28972,38.69544 16.48814,43.09265 2.19842,4.39722 9.09423,19.39525 9.89288,28.14214 0.75098,8.2247 -10.724,20.75262 -4.39683,27.2627 6.72888,6.92342 28.57944,5.27666 36.27391,3.51777 7.69446,-1.75888 10.84136,-0.76009 13.19051,-3.51777 3.53349,-4.14799 3.29763,-10.5533 -1.09921,-16.7094 -4.39684,-6.15608 -15.38893,-20.22715 -16.48814,-29.02158 -1.09921,-8.79441 -9.52209,-29.81999 1.09921,-36.93655 3.32529,-2.22804 9.89288,1.75888 14.28972,1.75888 4.39684,0 30.09934,1.92988 41.76996,-1.75888 7.6182,-2.40791 12.79806,-13.02896 20.88498,-14.07107 1.75324,-0.22593 4.48638,0.59009 5.49605,1.75887 9.75136,11.28811 -2.5106,32.31653 1.0992,45.73098 1.05718,3.92856 4.69546,8.59216 6.59526,12.3122 2.40892,4.7169 3.23567,12.19158 7.69447,15.82995 4.24445,3.46347 12.0913,6.15609 18.68656,6.15609 6.59525,0 27.48023,0.87944 32.97628,-0.87944 5.49605,-1.75889 1.24727,-6.67136 0,-11.43275 -1.62624,-6.20808 -2.89019,-2.30279 -9.89288,-5.27665 -7.86977,-3.34209 -12.30385,-13.53977 -15.38893,-20.22717 -3.13538,-6.79642 -4.9414,-11.56407 -2.19843,-18.46827 2.86051,-7.20004 10.70786,-15.57626 13.19052,-22.86549 2.61393,-7.67462 1.08703,-18.62793 3.29763,-26.38326 1.71642,-6.02156 7.61978,-13.24339 8.79367,-19.34772 1.15446,-6.00324 -0.008,-14.21634 -1.09921,-20.22716 -1.1724,-6.45911 -6.59525,-17.58884 -6.59525,-21.10661 0,-3.51777 -5.49605,-9.67386 -3.29763,-8.79442 z"
         style="fill:#28170b;fill-opacity:1;fill-rule:evenodd;stroke:none" />
      <path
         inkscape:connector-curvature="0"
         style="fill:url(#linearGradient4770);fill-opacity:1;fill-rule:evenodd;stroke:#000000;stroke-width:3;stroke-linecap:butt;stroke-linejoin:miter;stroke-miterlimit:4;stroke-opacity:1;stroke-dasharray:none"
         d="m 335.7364,128.1005 c 0,0 -17.17373,-24.7221 -26.38103,-34.298236 -5.54658,-5.76877 -16.48814,-14.95051 -20.88498,-17.58884 -4.39684,-2.63832 -51.66284,-18.46828 -61.55573,-20.22715 -9.89288,-1.75889 -41.76995,-3.51777 -46.16679,-3.51777 -4.39684,0 -27.48024,0 -32.97628,0 -5.49605,0 -47.32668,1.3167 -63.754143,9.67385 -12.35728,6.28653 -23.8569,20.56981 -28.57945,31.65991 -3.40474,7.995466 1.02394,19.867946 -1.09921,28.142136 -3.63288,14.15784 -18.40089,30.68561 -21.98419,44.85154 -2.55185,10.08833 0,28.14214 -1.09921,34.29824 -1.0992,6.1561 -15.38892,22.86549 -15.38892,26.38325 0,3.51777 1.09921,7.03554 0,12.31219 -1.09921,5.27665 0.40835,22.23514 -1.09921,31.65991 -0.55849,3.49149 -2.79979,7.93539 -3.29763,11.43275 -0.18658,1.31069 -1.10832,3.42052 0,4.3972 6.90365,6.08372 24.61498,5.8366 34.07549,2.63833 3.89001,-1.31508 7.91868,-5.48903 8.79367,-8.79441 1.34239,-5.07101 -4.66477,-11.56876 -5.49605,-16.7094 -0.84622,-5.23304 0,-13.19163 0,-17.58884 0,-4.39721 7.69447,-22.86549 9.89289,-26.38326 2.19842,-3.51777 14.36405,-16.15996 20.88498,-22.86549 7.62263,-7.83842 23.083393,-21.1066 26.381023,-25.50381 3.29763,-4.39722 6.94206,-14.02431 13.19051,-13.19163 13.47859,1.79617 11.11588,23.91418 15.38893,34.29823 3.22989,7.84904 6.8973,18.47497 9.89289,26.38326 4.90112,12.93884 14.28972,38.69544 16.48814,43.09265 2.19842,4.39722 9.09423,19.39525 9.89288,28.14214 0.75098,8.2247 -10.724,20.75262 -4.39683,27.2627 6.72888,6.92342 28.57944,5.27666 36.27391,3.51777 7.69446,-1.75888 10.84136,-0.76009 13.19051,-3.51777 3.53349,-4.14799 3.29763,-10.5533 -1.09921,-16.7094 -4.39684,-6.15608 -15.38893,-20.22715 -16.48814,-29.02158 -1.09921,-8.79441 -9.52209,-29.81999 1.09921,-36.93655 3.32529,-2.22804 9.89288,1.75888 14.28972,1.75888 4.39684,0 30.09934,1.92988 41.76996,-1.75888 7.6182,-2.40791 12.79806,-13.02896 20.88498,-14.07107 1.75324,-0.22593 4.48638,0.59009 5.49605,1.75887 9.75136,11.28811 -2.5106,32.31653 1.0992,45.73098 1.05718,3.92856 4.69546,8.59216 6.59526,12.3122 2.40892,4.7169 3.23567,12.19158 7.69447,15.82995 4.24445,3.46347 12.0913,6.15609 18.68656,6.15609 6.59525,0 27.48023,0.87944 32.97628,-0.87944 5.49605,-1.75889 1.24727,-6.67136 0,-11.43275 -1.62624,-6.20808 -2.89019,-2.30279 -9.89288,-5.27665 -7.86977,-3.34209 -12.30385,-13.53977 -15.38893,-20.22717 -3.13538,-6.79642 -4.9414,-11.56407 -2.19843,-18.46827 2.86051,-7.20004 10.70786,-15.57626 13.19052,-22.86549 2.61393,-7.67462 1.08703,-18.62793 3.29763,-26.38326 1.71642,-6.02156 7.61978,-13.24339 8.79367,-19.34772 1.15446,-6.00324 -0.008,-14.21634 -1.09921,-20.22716 -1.1724,-6.45911 -6.59525,-17.58884 -6.59525,-21.10661 0,-3.51777 -5.49605,-9.67386 -3.29763,-8.79442 z"
         id="path4762"
         sodipodi:nodetypes="cssssssssssssssssssssssssssssssssssssssssssssssssssss" />
      <path
         inkscape:connector-curvature="0"
         id="path6344"
         d="m 233.85604,137.68766 c -0.44284,7.38546 -10.99834,6.36252 -20.1013,11.82429 -12.39636,7.43782 -7.28147,9.21151 -9.45943,20.1013 -2.45378,12.26889 -9.2525,9.66638 1.18243,20.1013 7.14305,7.14306 -1.49082,16.57105 -5.91215,22.46616 -5.96096,7.94795 -6.42902,11.12332 -2.36486,21.28373 3.074,7.68501 16.66663,-1.36073 24.83102,0 6.5159,1.08598 12.67346,2.36486 20.1013,2.36486 7.82717,0 11.47785,-3.28746 16.55401,-7.09458 5.00458,-3.75343 16.87098,-5.22951 22.46616,-7.09458 7.17506,-2.39168 15.20525,-2.0951 22.46616,-3.54728 0.7834,-0.15668 9.80373,-12.16859 10.64186,-13.00673 6.65469,-6.65468 10.64187,-0.97113 10.64187,-13.00672 0,-10.41804 -13.27635,-3.21025 -3.54729,-15.37158 6.60002,-8.25002 0.12534,-11.51094 -2.36486,-17.73644 -3.0474,-7.6185 5.78704,-7.21969 -1.18243,-14.18916 -3.48922,-3.48922 -26.95329,0 -31.92559,0 -9.41273,0 -19.73767,0.5457 -28.37831,-1.18243 -8.53733,-1.70746 -14.13432,-4.32643 -23.64859,-5.91214 z"
         style="opacity:0.9375;fill:url(#radialGradient3959);fill-opacity:1;fill-rule:evenodd;stroke:none;filter:url(#filter3941)" />
      <path
         inkscape:connector-curvature="0"
         d="m 195.4269,80.892744 c -3.24901,3.51333 -6.33234,7.22332 -9.26019,11.01384 -2.35873,2.73456 -4.79749,5.38255 -7.00566,8.244046 -3.85983,4.95738 -6.986,10.41046 -9.89929,15.96069 -4.1467,7.68777 -7.29751,15.84668 -11.00886,23.74225 -1.86657,4.79939 -4.37227,9.30776 -6.21156,14.12221 -0.50643,1.32561 -1.12436,2.62667 -1.41146,4.01638 -0.3436,1.66323 -0.31095,3.38244 -0.46642,5.07366 0.40402,2.28904 0.80803,4.57808 1.21205,6.86712 l -0.372,0.0105 c -0.93245,-2.29412 -1.86489,-4.58825 -2.79734,-6.88238 -0.0736,-1.71586 -0.37709,-3.43728 -0.22073,-5.14759 0.22803,-2.49428 1.54916,-5.28282 2.5583,-7.5311 1.60926,-3.58528 3.4669,-7.04837 5.05058,-10.64549 3.69787,-7.9066 7.30906,-15.85081 11.02858,-23.74645 2.50613,-5.44556 4.698,-11.11022 8.00021,-16.136836 2.22636,-2.92944 4.71159,-5.59688 7.26799,-8.24419 3.10031,-3.47874 6.49205,-6.79 8.57449,-11.02483 l 4.96131,0.30812 z"
         id="path6284"
         style="opacity:0.36213995;fill:#28170b;fill-opacity:1;fill-rule:evenodd;stroke:none" />
      <path
         inkscape:connector-curvature="0"
         d="m 193.98203,71.118934 c -5.57077,2.13416 -10.44806,5.5059 -14.889,9.43176 -3.77585,4.05683 -7.41502,8.206 -10.87505,12.53169 -3.41386,4.06392 -6.04788,8.681196 -8.6258,13.295836 -2.80161,4.76989 -4.425,9.98675 -5.52234,15.36932 l -3.36062,-0.0711 c 1.20219,-5.32868 2.76515,-10.50931 5.04434,-15.49002 2.50592,-4.7097 5.22587,-9.372196 8.8138,-13.353076 3.52103,-4.28689 6.7873,-8.8316 10.89485,-12.59422 4.23397,-3.60859 8.8481,-6.64892 13.51764,-9.64818 l 5.00218,0.528 z"
         id="path6286"
         style="opacity:0.36213995;fill:#28170b;fill-opacity:1;fill-rule:evenodd;stroke:none" />
      <path
         inkscape:connector-curvature="0"
         d="m 182.85561,66.409094 c -2.21939,2.84089 -4.98303,4.95988 -8.12667,6.66785 -4.4047,2.3294 -8.7183,4.75443 -13.3343,6.64699 -4.11678,1.69353 -8.37927,3.01014 -12.45362,4.80613 -5.39213,2.67013 -9.63636,6.95838 -13.46923,11.50131 -3.35821,4.541456 -5.73333,9.211456 -7.78735,14.462526 l -2.52941,-0.0792 c 1.35829,-5.29493 2.94114,-10.448196 6.62759,-14.642976 3.76212,-4.42831 8.16248,-8.43368 12.95163,-11.72291 4.06412,-1.95787 8.47704,-3.00694 12.61224,-4.80614 4.55877,-1.85323 8.98851,-3.97628 13.15631,-6.61227 2.79962,-1.68082 5.53346,-3.52739 7.08639,-6.50623 l 5.26642,0.28488 z"
         id="path6288"
         style="opacity:0.36213995;fill:#28170b;fill-opacity:1;fill-rule:evenodd;stroke:none" />
      <path
         inkscape:connector-curvature="0"
         d="m 194.57625,113.52934 c -3.198,2.02091 -5.81805,4.8244 -7.81561,8.01178 -2.61606,3.36872 -3.84167,7.26411 -4.59284,11.38975 -0.5358,4.02863 0.2394,8.02178 1.35443,11.88244 1.00326,2.88248 2.06873,5.72419 2.85933,8.67741 0.58808,3.92655 1.02074,7.86691 1.7648,11.77598 1.15908,4.64834 4.33962,8.07475 7.9452,11.01552 3.29121,2.00236 6.65508,3.8269 9.51431,6.44725 1.43547,1.80255 2.32507,3.95285 3.3637,5.99174 l -3.78288,0.20114 c -1.31304,-1.97093 -2.49723,-4.05151 -4.08471,-5.81985 -2.78234,-2.57733 -6.15564,-4.19961 -9.17181,-6.45793 -3.53489,-3.10416 -6.72995,-6.68294 -8.09112,-11.29188 -0.83395,-3.89468 -1.04956,-7.8855 -2.11956,-11.72811 -0.9353,-2.89474 -2.03801,-5.74478 -2.77029,-8.69763 -0.867,-3.95336 -1.33188,-8.02896 -1.21206,-12.07829 0.79751,-4.12797 2.257,-8.16951 4.83267,-11.53751 1.82739,-3.07142 4.14988,-5.74476 6.66445,-8.27859 l 5.34199,0.49678 z"
         id="path6290"
         style="opacity:0.36213995;fill:#28170b;fill-opacity:1;fill-rule:evenodd;stroke:none" />
      <path
         inkscape:connector-curvature="0"
         sodipodi:nodetypes="cccccccscccccc"
         d="m 130.0758,176.59184 c -0.27429,-3.10751 -8.45419,-13.65036 -10.18824,-16.17693 -1.75834,-2.67835 -4.15747,-4.83898 -6.02366,-7.43056 -2.1753,-2.5917 -4.05824,-5.37649 -5.72171,-8.31954 -2.37831,-4.46474 -4.2232,-9.19135 -5.9931,-13.92685 -2.402313,-7.2453 -1.8675,-14.77174 -1.2958,-22.2421 l 0.28528,6.2e-4 c 0.0795,2.42183 -0.0126,4.85539 0.23841,7.26549 0.53287,5.11701 2.108,10.10751 4.05029,14.8417 2.29912,4.64838 4.6058,9.29883 7.12523,13.82819 1.761,2.93179 3.91866,5.55192 6.01607,8.24545 1.97131,2.44304 4.11944,4.73956 5.70267,7.47476 1.86949,2.75446 3.67852,5.54383 4.66624,8.75398 l 1.13832,7.68579 z"
         id="path6292"
         style="opacity:0.96999996;fill:#28170b;fill-opacity:1;fill-rule:evenodd;stroke:none" />
      <path
         inkscape:connector-curvature="0"
         sodipodi:nodetypes="ccccccccccc"
         d="m 77.931327,195.95949 c 2.3098,-2.67574 7.1937,-4.82289 8.80468,-7.93192 1.8621,-3.31537 4.48076,-6.12742 7.36756,-8.57052 2.7211,-2.55399 5.8621,-4.57068 8.797253,-6.85467 3.5962,-2.75066 6.19955,-6.38987 8.44214,-10.27456 2.42254,-10.09799 8.83758,-13.38868 3.98201,0.20961 -2.23223,3.8253 -4.39175,7.70645 -7.97457,10.46269 -2.85659,2.39392 -6.14204,4.21656 -8.820073,6.8357 -2.77467,2.49689 -5.57395,5.02277 -7.27793,8.4198 -1.72344,2.93653 -6.56899,4.9268 -8.05466,7.98875 l -5.26641,-0.28488 z"
         id="path6294"
         style="opacity:0.96999996;fill:#28170b;fill-opacity:1;fill-rule:evenodd;stroke:none" />
      <path
         inkscape:connector-curvature="0"
         d="m 194.38271,264.73567 c -0.0334,-2.9147 -0.56944,-5.78316 -1.10444,-8.63776 -0.63466,-2.86841 -0.70551,-5.79415 -0.81072,-8.71535 -0.0794,-4.22891 0.35701,-8.42468 0.90865,-12.60999 1.11752,-6.34025 3.14709,-12.44572 4.97784,-18.60236 1.3397,-4.48855 2.03638,-9.11706 2.76349,-13.73134 l 1.81318,0.019 c -0.24652,4.62394 -0.43895,9.26619 -1.5191,13.79331 -1.51186,6.16615 -3.24633,12.27801 -4.18026,18.57058 -0.52343,4.19061 -0.13713,8.34073 0.0353,12.5473 0.058,2.89228 0.26629,5.78278 0.68685,8.64644 0.48683,2.88806 1.0079,5.79544 1.78241,8.61445 l -5.35316,0.10568 z"
         id="path6296"
         style="opacity:0.96999996;fill:#28170b;fill-opacity:1;fill-rule:evenodd;stroke:none" />
      <path
         inkscape:connector-curvature="0"
         d="m 199.88325,261.3675 c -0.60352,2.57533 0.14535,4.92882 1.15607,7.27853 1.16688,2.71988 2.64803,5.27609 3.63017,8.07284 0.719,2.42715 1.42149,4.83957 1.80223,7.3458 0.3664,2.62565 1.14427,5.00125 2.69109,7.16596 1.09993,2.29495 2.96788,3.83136 4.73663,5.56355 1.53784,1.89046 2.67641,4.11029 3.63771,6.34679 0.8842,2.61865 0.99116,5.45 0.80086,8.1868 -0.81125,3.14664 -1.54339,4.28127 -3.83971,6.58368 l -4.03248,-0.29189 c 1.48678,-1.95209 2.63279,-3.88049 3.13097,-6.32175 0.15245,-2.68425 -0.14735,-5.40953 -1.04105,-7.95718 -0.92168,-2.21054 -2.06895,-4.33783 -3.65443,-6.14814 -1.78584,-1.75322 -3.46925,-3.47967 -4.73451,-5.67485 -1.33345,-2.28806 -2.19202,-4.77518 -2.67684,-7.37977 -0.35608,-2.47295 -1.02905,-4.8546 -1.67821,-7.2626 -0.88976,-2.82222 -2.26785,-5.4322 -3.67132,-8.0295 -1.04749,-2.41828 -1.49829,-4.85091 -1.62222,-7.47827 l 5.36504,0 z"
         id="path6298"
         style="opacity:0.96999996;fill:#28170b;fill-opacity:1;fill-rule:evenodd;stroke:none" />
      <path
         inkscape:connector-curvature="0"
         d="m 241.37077,236.50376 c 3.39746,-0.19191 6.55321,-1.19459 9.70585,-2.39641 2.94756,-1.3352 5.61959,-3.16943 8.38826,-4.82481 2.10545,-1.57239 4.33606,-2.96137 6.44655,-4.52817 2.59278,-2.1519 6.02832,-2.70139 9.26741,-3.17177 2.72427,-0.33765 5.47255,-0.36464 8.2135,-0.35626 3.01531,-0.003 6.03055,-0.003 9.04572,0.024 0.53436,0.005 2.13571,0.0578 1.60308,0.0146 -2.71972,-0.22038 -4.22435,0.0375 -1.25836,-0.304 3.2609,-0.68444 5.87541,-2.59487 8.28926,-4.79007 2.06943,-1.93233 0.92791,-0.94193 3.45626,-2.93425 l 4.02962,0.34529 c -2.08173,2.02143 -1.11752,1.02823 -2.90793,2.9647 -2.3984,2.30603 -4.97971,4.27747 -8.278,5.08634 -3.19445,0.38169 -6.40925,0.35338 -9.62324,0.35825 -0.51589,7.8e-4 -1.03178,0.002 -1.54766,8.1e-4 -0.46358,-8.2e-4 -1.8543,-0.004 -1.39073,-0.006 1.12358,-0.004 2.24717,-9.5e-4 3.37075,-0.001 -2.80358,0.0114 -5.61323,-0.0138 -8.4068,0.264 -3.16419,0.37922 -6.49029,0.8158 -9.0104,2.9437 -2.03768,1.72771 -4.44136,2.98504 -6.57711,4.58803 -2.90048,1.59401 -5.61474,3.528 -8.64968,4.86816 -2.89911,1.10029 -5.75206,2.24128 -8.86256,2.58829 l -5.30379,-0.73304 z"
         id="path6300"
         style="opacity:0.43209881;fill:#28170b;fill-opacity:1;fill-rule:evenodd;stroke:none" />
      <path
         inkscape:connector-curvature="0"
         sodipodi:nodetypes="ccccccccccc"
         d="m 281.6278,261.24957 c 1.10182,-3.01282 0.0127,-13.34754 1.25429,-16.30719 1.33092,-3.01348 0.43629,-7.43589 1.3552,-10.60295 0.75647,-2.88168 -1.64914,-5.89057 -1.94673,-8.85053 -0.34217,-1.44882 -1.28717,-2.57896 -2.28188,-3.65048 l 4.8703,-0.36157 c 1.11014,1.14732 1.92943,2.34551 2.09366,3.97622 0.17511,3.00929 1.90918,4.59374 1.34552,7.54931 -1.10644,3.1555 0.26363,9.07259 -1.16421,12.09364 -1.03531,2.91183 -1.4121,5.77626 -1.87691,8.84683 l -3.64924,7.30672 z"
         id="path6302"
         style="opacity:0.96999996;fill:#28170b;fill-opacity:1;fill-rule:evenodd;stroke:none" />
      <path
         inkscape:connector-curvature="0"
         d="m 284.28035,148.83747 c -2.85019,0.4294 -5.69221,1.10247 -8.37756,2.15736 -3.39338,1.53888 -5.75425,4.3911 -7.80421,7.39927 -1.83872,3.36031 -3.25216,6.93094 -4.9916,10.34512 -1.28196,2.9189 -3.06532,5.57839 -4.98329,8.11252 -2.2365,2.2506 -4.77877,4.22019 -7.31799,6.12234 l -4.19822,-0.38054 c 2.3192,-1.92367 4.66404,-3.86442 6.73407,-6.05309 1.94785,-2.55061 3.96859,-5.10898 5.37848,-8.00277 1.67013,-3.48734 3.11598,-7.08996 5.18195,-10.38536 0.0754,-0.12229 2.09439,-3.40996 2.23771,-3.59367 1.3161,-1.68694 3.17842,-3.10846 5.03314,-4.12566 2.50769,-1.06777 5.17446,-1.63748 7.80373,-2.32856 l 5.30379,0.73304 z"
         id="path6304"
         style="opacity:0.43209881;fill:#28170b;fill-opacity:1;fill-rule:evenodd;stroke:none" />
      <path
         inkscape:connector-curvature="0"
         d="m 283.41488,149.10086 c 3.3829,0.85145 6.7042,1.69725 9.90701,3.10368 4.03294,1.6329 5.96882,4.61198 8.39243,7.9817 2.516,3.95992 4.49082,8.2201 6.63204,12.3847 2.03522,3.73568 2.05991,8.14331 4.486,11.66296 1.76567,1.35869 0.78614,0.77773 2.9651,1.69742 l -4.37646,0.5135 c -2.43305,-1.04541 -1.37927,-0.36403 -3.21459,-1.95934 -1.93022,-3.67933 -1.93157,-8.03978 -3.92688,-11.72702 -2.02732,-4.23523 -4.23506,-8.37354 -6.81197,-12.30353 -2.37288,-3.18632 -4.7384,-6.19555 -8.54377,-7.73587 -3.41371,-1.43762 -7.0049,-2.42779 -10.69983,-2.79604 l 5.19092,-0.82216 z"
         id="path6306"
         style="opacity:0.43209881;fill:#28170b;fill-opacity:1;fill-rule:evenodd;stroke:none" />
      <path
         inkscape:connector-curvature="0"
         d="m 84.205627,195.26136 c -3.18336,1.55871 -6.16828,3.46831 -9.08666,5.47003 -2.27234,1.95498 -4.51731,3.98128 -6.43566,6.28983 -2.00819,2.4236 -3.85393,4.96095 -5.67797,7.52352 -1.76892,2.5971 -2.40247,5.58194 -2.81338,8.63596 -0.60219,2.89587 -0.70412,5.86736 -1.22051,8.77157 -0.68108,2.81321 -2.06111,5.28724 -3.41931,7.81145 -1.36086,2.94781 -3.20224,5.64611 -4.60761,8.56468 -1.22607,2.8512 -1.3841,5.96869 -1.5771,9.02248 -0.21066,3.2416 0.40448,6.486 1.21423,9.61438 0.81131,2.6624 1.09043,5.38202 1.09612,8.14965 0.20652,3.16431 0.07894,6.26725 -0.5896,9.36806 -0.87126,3.05475 -2.40917,4.50333 -5.35267,5.48203 -0.44557,0.0972 -0.89114,0.19434 -1.33671,0.29151 l -4.81774,-0.66537 c 0.4404,-0.0809 0.8808,-0.16189 1.32119,-0.24284 2.70762,-0.78292 4.52251,-2.22156 5.47702,-4.96956 0.71305,-3.0379 0.77901,-6.13317 0.57636,-9.24186 -0.24737,-2.7027 -0.50925,-5.41246 -1.13091,-8.06029 -0.69866,-3.20402 -1.18652,-6.45265 -1.08695,-9.74436 0.05523,-3.13407 0.2742,-6.27307 1.43488,-9.2235 1.4847,-2.91659 3.51181,-5.50941 4.77851,-8.55251 1.09726,-2.55093 2.37479,-5.01241 3.13586,-7.69635 0.593,-2.88611 0.88463,-5.83496 1.44298,-8.72998 0.27038,-3.1881 0.99606,-6.17866 2.83781,-8.8598 1.68239,-2.66047 3.68546,-5.07742 5.59931,-7.57195 1.93609,-2.41998 4.18624,-4.4947 6.62716,-6.4049 2.78233,-1.94338 5.72874,-3.59989 8.51297,-5.53456 l 5.09838,0.50268 z"
         id="path6308"
         style="opacity:0.96999996;fill:#28170b;fill-opacity:1;fill-rule:evenodd;stroke:none" />
      <g
         transform="translate(191.17845,156.48434)"
         id="g4772">
        <path
           inkscape:connector-curvature="0"
           style="fill:#d7b489;fill-opacity:1;fill-rule:evenodd;stroke:#000000;stroke-width:3.4000001;stroke-linecap:butt;stroke-linejoin:miter;stroke-miterlimit:4;stroke-opacity:1;stroke-dasharray:none"
           d="m 52.147757,-143.66556 c -41.71361,-3.02389 -70.37847,1.53627 -59.4798001,46.101504 0,0 16.61678,0.8645 15.14743,-3.631204 -1.46936,-4.49569 3.9857201,-6.81096 3.9857201,-6.81096 l 4.59787,-1.50275 9.00838,5.76361 z"
           id="path4736"
           sodipodi:nodetypes="ccscccc" />
        <path
           inkscape:connector-curvature="0"
           style="fill:#d7b489;fill-opacity:1;fill-rule:evenodd;stroke:#000000;stroke-width:1px;stroke-linecap:butt;stroke-linejoin:miter;stroke-opacity:1"
           d="m 109.70095,-143.73055 c -6.5974,-5.53416 -19.354773,-3.22362 -29.560733,-1.18243 -9.5052,1.90104 -20.42745,0 -30.74317,0 -10.01227,9.27535 -4.88966,6.42375 -15.37158,17.73644 -9.72952,10.53384 -1.38944,6.58231 -3.54729,9.45944 -3.50519,4.67358 -6.58153,9.45807 -9.45943,14.18915 -3.92003,6.444284 -2.18957,6.587234 -4.72972,21.283734 -1.28421,7.43005 -3.54729,14.8403 -3.54729,23.64859 0,8.41361 6.71455,14.99155 7.09458,15.37158 5.5763,5.57631 14.11559,5.41993 18.91887,11.8243 4.67262,6.23017 6.4305,12.12128 10.64186,17.73644 5.5947,7.4595901 -2.95594,9.3412201 9.45944,11.8242901 6.33048,1.26610002 10.07592,3.06421 17.73644,0 7.00996,-2.80398 9.07968,-5.59971 16.55401,-7.09457 6.43298,-1.2866001 14.216893,-1.1454401 17.736443,3.54729 2.07793,2.77057 15.74659,-2.76283 17.73644,-2.36486 7.69643,1.53928 5.7901,2.97509 8.27701,-9.4594401 1.37315,-6.86576 2.07684,-12.74904 3.54729,-20.1013 1.59219,-7.96098 5.52699,-14.62825 7.09457,-22.46616 1.56347,-7.81732 0,-17.95781 0,-26.01344 0,-11.19184 2.39247,-10.66948 8.27701,-16.554024 3.88186,-3.88186 2.61828,10.979764 5.91215,15.371594 3.18159,4.24212 7.46027,-7.58218 10.64186,-11.8243 4.77407,-6.365424 3.80842,-7.194334 -2.36486,-11.824294 -7.42691,-5.57019 -12.25645,-8.06493 -17.73644,-15.37158 -4.96822,-6.6243 -9.58871,-11.95358 -16.55401,-18.91888 -4.62111,-4.6211 -19.19836,-2.90662 -26.01345,1.18243 z"
           id="path4668"
           sodipodi:nodetypes="csccssssssssssssssssssssssc" />
        <path
           inkscape:connector-curvature="0"
           style="fill:#f2f2f2;fill-opacity:1;fill-rule:evenodd;stroke:#000000;stroke-width:0.72446287px;stroke-linecap:butt;stroke-linejoin:miter;stroke-opacity:1"
           d="m 119.14535,-89.664556 c -3.07218,-1.36863 -16.46942,-1.00243 -21.960813,-1.00243 -5.30261,0 -5.37702,6.22397 -6.58824,12.02921 -0.96873,4.64299 7.34513,6.22189 10.248383,7.01703 5.52641,1.51357 6.40969,11.43427 10.9804,1.00243 2.43803,-5.56437 3.56261,-2.73141 8.05229,-6.01459 5.69821,-4.16695 1.50668,-12.41851 -0.73202,-13.03165 z"
           id="path4670"
           sodipodi:nodetypes="csssssc" />
        <path
           inkscape:connector-curvature="0"
           style="fill:none;stroke:none"
           d="m 107.3361,-65.690196 c -2.69383,1.8795 -11.419563,8.26905 -17.736453,13.00672 -4.63893,3.4792 -7.50094,14.22581 -9.45943,20.1013 -2.55287,7.65861 -8.42717,12.07457 -11.82429,17.73644 -4.21669,7.0278101 -12.42965,5.9121501 -14.18916,5.9121501 -0.25869,0 1.18243,-19.3432001 1.18243,-21.2837301 0,-6.62926 4.4453,-12.76705 5.91215,-20.1013 1.25592,-6.27962 5.8021,-12.45648 7.09458,-18.91887 1.47799,-7.38998 9.06227,-13.89128 14.18915,-17.73644 5.15065,-3.863 7.15469,-7.11863 13.00672,-9.45944 5.467073,-2.18683 10.198243,-0.41393 14.189153,1.18243 4.19872,1.67949 10.16781,8.22905 14.18916,10.64186 5.45269,3.27162 5.25732,4.82078 9.45943,11.8243 2.71941,4.53234 4.59425,12.32935 5.91215,18.91887 1.2021,6.01048 1.18243,12.89921 1.18243,18.91887 0,7.63395 2.3383,14.02979 3.54729,21.28373 1.76301,10.5780801 -10.55683,9.8188201 -14.18916,7.0945801 -2.83061,-2.12297 2.36486,-18.1126101 2.36486,-21.2837301 0,-9.37681 0.01,-13.78235 -4.72971,-20.1013 -4.29153,-5.72204 -7.42867,-10.97595 -11.8243,-15.37159 -3.45741,-3.45741 -2.09638,-1.12873 -8.277,-2.36485 z"
           id="path4666" />
        <path
           inkscape:connector-curvature="0"
           style="fill:#a05a2c;fill-rule:evenodd;stroke:none"
           d="m 45.849767,-39.676756 c 6.40129,-1.85537 6.68695,-14.04059 9.45943,-20.1013 2.90668,-6.35407 5.91215,-16.55401 9.45944,-21.28373 3.54729,-4.72971 23.1292,-12.56618 26.01344,-22.466164 1.0359,-3.55565 -2.32626,-8.32789 -3.54728,-11.82429 -1.88943,-5.41039 -1.18243,-11.82429 -7.09458,-17.73644 -5.91215,-5.91215 -4.63302,-9.18122 -8.96966,-11.75256 -4.96707,-2.94514 -17.74564,-2.36691 -23.09939,-0.20288 -12.50169,5.05328 -23.88092,31.1016 -28.52175,43.76219 -4.28864,11.699784 2.47929,17.259544 1.46933,29.679584 -0.37486,4.60988 -3.25084,11.23477 -1.18243,15.37158 4.13681,8.27363 17.12892,19.12913 26.01345,16.55401 z"
           id="path4672"
           sodipodi:nodetypes="csssssssssss" />
        <g
           id="g4542"
           transform="matrix(0.5870664,-0.1739607,0.1643187,0.5545275,-377.72549,-61.729076)">
          <path
             inkscape:connector-curvature="0"
             inkscape:transform-center-y="8.5"
             inkscape:transform-center-x="-6.5"
             sodipodi:nodetypes="cssssssssssssss"
             id="path4476"
             d="m 687.51001,164.62218 c -0.96541,-2.1397 1.05824,-7.83473 2.05746,-10.24036 0.94613,-2.27781 2.78806,-3.139 4.44978,-5.27853 1.61686,-2.08178 5.25795,-4.31903 8.06604,-5.56023 3.45707,-1.52803 8.98961,-3.78572 12.37437,-3.01349 6.30173,1.43773 5.72569,3.42628 7.76709,4.88409 2.64304,1.88744 3.77822,3.5409 5.45594,5.99851 0.75031,1.09909 2.07109,2.43366 3.30006,3.24177 1.05202,0.69175 4.36103,0.62506 4.0944,1.77476 -0.20451,0.88179 -2.7349,0.91063 -3.79631,1.46764 -2.01388,1.05687 -4.17225,2.97199 -6.04954,4.17017 -2.70241,1.72481 -6.19801,4.24216 -9.28823,5.48328 -3.20414,1.28685 -7.93664,2.79656 -11.25916,2.70445 -2.11179,-0.0585 -4.16857,-1.48039 -5.98114,-2.08317 -3.32457,-1.10559 -10.02999,-0.97625 -11.19076,-3.54889 z"
             style="fill:#ffffff;fill-rule:evenodd;stroke:#000000;stroke-width:0.96282238px;stroke-linecap:butt;stroke-linejoin:miter;stroke-opacity:1" />
          <path
             inkscape:transform-center-y="8.2997641"
             inkscape:transform-center-x="-5.3426509"
             transform="matrix(1.1152189,-0.3090432,0.2139239,0.7719697,118.29386,67.587548)"
             d="m 485,303.09448 c 0,9.66499 -5.59644,17.5 -12.5,17.5 -6.90356,0 -12.5,-7.83501 -12.5,-17.5 0,-9.66498 5.59644,-17.5 12.5,-17.5 6.90356,0 12.5,7.83502 12.5,17.5 z"
             sodipodi:ry="17.5"
             sodipodi:rx="12.5"
             sodipodi:cy="303.09448"
             sodipodi:cx="472.5"
             id="path4486"
             style="opacity:0.96999996;fill:#502d16;fill-opacity:1;fill-rule:evenodd;stroke:none"
             sodipodi:type="arc" />
          <path
             inkscape:transform-center-y="9.0717341"
             inkscape:transform-center-x="-5.5565709"
             transform="matrix(1.1152189,-0.3090432,0.2139239,0.7719697,118.50778,67.359518)"
             d="m 485,303.09448 c 0,9.66499 -5.59644,17.5 -12.5,17.5 -6.90356,0 -12.5,-7.83501 -12.5,-17.5 0,-9.66498 5.59644,-17.5 12.5,-17.5 6.90356,0 12.5,7.83502 12.5,17.5 z"
             sodipodi:ry="17.5"
             sodipodi:rx="12.5"
             sodipodi:cy="303.09448"
             sodipodi:cx="472.5"
             id="path4478"
             style="opacity:0.96999996;fill:url(#linearGradient4819);fill-opacity:1;fill-rule:evenodd;stroke:none"
             sodipodi:type="arc" />
          <path
             inkscape:transform-center-y="8.2997615"
             inkscape:transform-center-x="-5.3426399"
             transform="matrix(1.4497845,-0.4017562,0.2797467,1.0094989,-60.184068,39.611028)"
             d="m 478,302.09448 c 0,3.58985 -2.23858,6.5 -5,6.5 -2.76142,0 -5,-2.91015 -5,-6.5 0,-3.58985 2.23858,-6.5 5,-6.5 2.76142,0 5,2.91015 5,6.5 z"
             sodipodi:ry="6.5"
             sodipodi:rx="5"
             sodipodi:cy="302.09448"
             sodipodi:cx="473"
             id="path4480"
             style="opacity:0.96999996;fill:#241c1c;fill-opacity:1;fill-rule:evenodd;stroke:none"
             sodipodi:type="arc" />
          <path
             inkscape:transform-center-y="4.2097298"
             inkscape:transform-center-x="2.3954843"
             transform="matrix(1.1152189,-0.3090432,0.2139239,0.7719697,121.71542,66.825878)"
             d="m 469.5,292.09448 c 0,3.03757 -1.79086,5.5 -4,5.5 -2.20914,0 -4,-2.46243 -4,-5.5 0,-3.03756 1.79086,-5.5 4,-5.5 2.20914,0 4,2.46244 4,5.5 z"
             sodipodi:ry="5.5"
             sodipodi:rx="4"
             sodipodi:cy="292.09448"
             sodipodi:cx="465.5"
             id="path4482"
             style="opacity:0.96999996;fill:#ffffff;fill-opacity:1;fill-rule:evenodd;stroke:none;filter:url(#filter4254)"
             sodipodi:type="arc" />
          <path
             inkscape:transform-center-y="-15.581513"
             inkscape:transform-center-x="-16.116951"
             transform="matrix(1.1152189,0.5198784,0.2139239,-1.2986221,116.50778,307.04069)"
             d="m 484.5,306.84448 c 0,1.79493 -1.45507,3.25 -3.25,3.25 -1.79493,0 -3.25,-1.45507 -3.25,-3.25 0,-1.79492 1.45507,-3.25 3.25,-3.25 1.79493,0 3.25,1.45508 3.25,3.25 z"
             sodipodi:ry="3.25"
             sodipodi:rx="3.25"
             sodipodi:cy="306.84448"
             sodipodi:cx="481.25"
             id="path4484"
             style="opacity:0.96999996;fill:#ffffff;fill-opacity:1;fill-rule:evenodd;stroke:none;filter:url(#filter4422)"
             sodipodi:type="arc" />
        </g>
        <path
           inkscape:connector-curvature="0"
           style="fill:#a05a2c;fill-opacity:1;fill-rule:evenodd;stroke:none"
           d="m 88.417227,-144.91297 c -5.59748,7.33014 11.824293,22.46615 11.824293,28.3783 0,5.91215 -1.719883,9.50419 0,13.00672 4.34707,8.852774 19.17209,12.997474 26.01345,20.101304 4.23349,4.39591 9.46196,10.92678 11.82429,16.55402 2.3703,5.64622 -1.14391,16.16547 3.54729,20.1013 0.27175,0.228 0.87622,0.17908 1.18243,0 5.62118,-3.28753 8.99172,-12.61946 10.64186,-18.91887 2.24722,-8.57877 2.74245,-21.12721 0,-29.56074 -2.9841,-9.176674 -13.90623,-17.767874 -18.91887,-26.013454 -3.29629,-5.42226 -4.28656,-15.24357 -9.45943,-18.91887 -9.03865,-6.42193 -29.926063,-13.54195 -36.655313,-4.72971 z"
           id="path4674"
           sodipodi:nodetypes="csssssssssss" />
        <g
           id="g4552"
           transform="matrix(-0.5219217,-0.213327,-0.2188226,0.5353672,536.1479,-32.601606)">
          <path
             inkscape:connector-curvature="0"
             inkscape:transform-center-y="8.5"
             inkscape:transform-center-x="-6.5"
             sodipodi:nodetypes="cssssssssssssss"
             id="path4554"
             d="m 687.51001,164.62218 c -0.96541,-2.1397 1.05824,-7.83473 2.05746,-10.24036 0.94613,-2.27781 2.78806,-3.139 4.44978,-5.27853 1.61686,-2.08178 5.25795,-4.31903 8.06604,-5.56023 3.45707,-1.52803 8.98961,-3.78572 12.37437,-3.01349 6.30173,1.43773 5.72569,3.42628 7.76709,4.88409 2.64304,1.88744 3.77822,3.5409 5.45594,5.99851 0.75031,1.09909 2.07109,2.43366 3.30006,3.24177 1.05202,0.69175 4.36103,0.62506 4.0944,1.77476 -0.20451,0.88179 -2.7349,0.91063 -3.79631,1.46764 -2.01388,1.05687 -4.17225,2.97199 -6.04954,4.17017 -2.70241,1.72481 -6.19801,4.24216 -9.28823,5.48328 -3.20414,1.28685 -7.93664,2.79656 -11.25916,2.70445 -2.11179,-0.0585 -4.16857,-1.48039 -5.98114,-2.08317 -3.32457,-1.10559 -10.02999,-0.97625 -11.19076,-3.54889 z"
             style="fill:#ffffff;fill-rule:evenodd;stroke:#000000;stroke-width:0.96282238px;stroke-linecap:butt;stroke-linejoin:miter;stroke-opacity:1" />
          <path
             inkscape:transform-center-y="8.2997641"
             inkscape:transform-center-x="-5.3426509"
             transform="matrix(1.1152189,-0.3090432,0.2139239,0.7719697,118.29386,67.587548)"
             d="m 485,303.09448 c 0,9.66499 -5.59644,17.5 -12.5,17.5 -6.90356,0 -12.5,-7.83501 -12.5,-17.5 0,-9.66498 5.59644,-17.5 12.5,-17.5 6.90356,0 12.5,7.83502 12.5,17.5 z"
             sodipodi:ry="17.5"
             sodipodi:rx="12.5"
             sodipodi:cy="303.09448"
             sodipodi:cx="472.5"
             id="path4556"
             style="opacity:0.96999996;fill:#502d16;fill-opacity:1;fill-rule:evenodd;stroke:none"
             sodipodi:type="arc" />
          <path
             inkscape:transform-center-y="9.0717341"
             inkscape:transform-center-x="-5.5565709"
             transform="matrix(1.1152189,-0.3090432,0.2139239,0.7719697,118.50778,67.359518)"
             d="m 485,303.09448 c 0,9.66499 -5.59644,17.5 -12.5,17.5 -6.90356,0 -12.5,-7.83501 -12.5,-17.5 0,-9.66498 5.59644,-17.5 12.5,-17.5 6.90356,0 12.5,7.83502 12.5,17.5 z"
             sodipodi:ry="17.5"
             sodipodi:rx="12.5"
             sodipodi:cy="303.09448"
             sodipodi:cx="472.5"
             id="path4558"
             style="opacity:0.96999996;fill:url(#linearGradient4821);fill-opacity:1;fill-rule:evenodd;stroke:none"
             sodipodi:type="arc" />
          <path
             inkscape:transform-center-y="8.2997615"
             inkscape:transform-center-x="-5.3426399"
             transform="matrix(1.4497845,-0.4017562,0.2797467,1.0094989,-60.184068,39.611028)"
             d="m 478,302.09448 c 0,3.58985 -2.23858,6.5 -5,6.5 -2.76142,0 -5,-2.91015 -5,-6.5 0,-3.58985 2.23858,-6.5 5,-6.5 2.76142,0 5,2.91015 5,6.5 z"
             sodipodi:ry="6.5"
             sodipodi:rx="5"
             sodipodi:cy="302.09448"
             sodipodi:cx="473"
             id="path4560"
             style="opacity:0.96999996;fill:#241c1c;fill-opacity:1;fill-rule:evenodd;stroke:none"
             sodipodi:type="arc" />
          <path
             inkscape:transform-center-y="4.2097298"
             inkscape:transform-center-x="2.3954843"
             transform="matrix(1.1152189,-0.3090432,0.2139239,0.7719697,121.71542,66.825878)"
             d="m 469.5,292.09448 c 0,3.03757 -1.79086,5.5 -4,5.5 -2.20914,0 -4,-2.46243 -4,-5.5 0,-3.03756 1.79086,-5.5 4,-5.5 2.20914,0 4,2.46244 4,5.5 z"
             sodipodi:ry="5.5"
             sodipodi:rx="4"
             sodipodi:cy="292.09448"
             sodipodi:cx="465.5"
             id="path4562"
             style="opacity:0.96999996;fill:#ffffff;fill-opacity:1;fill-rule:evenodd;stroke:none;filter:url(#filter4254)"
             sodipodi:type="arc" />
          <path
             inkscape:transform-center-y="-15.581513"
             inkscape:transform-center-x="-16.116951"
             transform="matrix(1.1152189,0.5198784,0.2139239,-1.2986221,116.50778,307.04069)"
             d="m 484.5,306.84448 c 0,1.79493 -1.45507,3.25 -3.25,3.25 -1.79493,0 -3.25,-1.45507 -3.25,-3.25 0,-1.79492 1.45507,-3.25 3.25,-3.25 1.79493,0 3.25,1.45508 3.25,3.25 z"
             sodipodi:ry="3.25"
             sodipodi:rx="3.25"
             sodipodi:cy="306.84448"
             sodipodi:cx="481.25"
             id="path4564"
             style="opacity:0.96999996;fill:#ffffff;fill-opacity:1;fill-rule:evenodd;stroke:none;filter:url(#filter4422)"
             sodipodi:type="arc" />
        </g>
        <path
           inkscape:connector-curvature="0"
           style="opacity:0.96999996;fill:#502d16;fill-opacity:1;fill-rule:evenodd;stroke:none"
           d="m 65.140097,-0.13813588 c -5.07303,-1.19824002 -5.27802,-1.40140002 -2.82103,-2.79601002 3.79865,-2.1562 15.7771,-19.3651401 17.52074,-25.1714001 0.81176,-2.70312 3.03931,-8.4482 4.9501,-12.76683 2.99867,-6.77739 4.81226,-8.86812 13.25124,-15.2762 5.377393,-4.0833 10.808843,-7.42418 12.069903,-7.42418 3.52958,0 14.28205,12.97384 19.27869,23.2614 2.63605,5.42731 6.37027,16.36303 4.22912,26.41119 -1.51861,7.1265501 -5.07126,8.6553601 -9.56735,9.4610001 -3.50961,0.62888 -10.09293,3.06298 -13.96656,0.92158 -7.09314,-3.9212 -10.944503,-5.95641 -23.692893,0.16617 -10.45268,5.02004 -12.37297,5.31037 -21.25192,3.21325002 l -4e-5,3e-5 z"
           id="path4676"
           sodipodi:nodetypes="csssssssssscc" />
        <path
           inkscape:connector-curvature="0"
           style="fill:#ffffff;fill-rule:evenodd;stroke:none"
           d="m 108.51853,-66.872626 c 4.39174,9.76516 -4.21602,11.31059 -10.641873,17.73644 -6.42585,6.42585 -10.14299,12.50785 -15.37158,17.73644 -5.22859,5.22859 -6.3252,12.76917 -11.8243,20.1013 -5.4991,7.3321301 -5.69572,11.54452012 -13.00672,13.0067201 -7.311,1.4622 -12.03265,-11.68364 -13.00672,-16.5540101 -0.97408,-4.87037 -1.73182,-9.6881 -0.35864,-16.55401 1.37318,-6.8659 2.74052,-13.52506 4.9326,-20.1013 2.19208,-6.57624 8.43168,-19.32834 12.24234,-25.67943 3.81066,-6.3511 9.70777,-11.07721 17.3307,-16.33883 7.82349,-5.40005 7.93332,-2.84234 16.90033,-1.58818 8.557173,1.19683 7.625923,4.43228 10.844743,5.07605 3.21882,0.64377 6.53345,-3.93299 14.61951,-4.58627 8.08606,-0.65328 12.7406,6.47105 15.31217,17.3307 2.54767,10.7587 1.04492,3.8393 2.98578,13.54362 1.94086,9.70432 5.81394,22.29086 10.42669,29.97878 4.61275,7.68792 3.54728,19.09588 3.54728,28.3783101 0,9.28243 -8.98736,6.06950002 -16.55401,3.54728 -7.56665,-2.52222 -7.52828,-13.2030901 -5.91215,-21.2837201 1.61613,-8.08063 -9.65767,-19.24928 -13.00672,-24.83102 -3.34905,-5.58174 -5.78834,-5.47587 -8.14586,-14.81008"
           id="path4680"
           sodipodi:nodetypes="czzzzzzzzzzzzzzzzzzzz" />
        <path
           inkscape:connector-curvature="0"
           style="opacity:0.96999996;fill:#ffffff;fill-opacity:1;fill-rule:evenodd;stroke:none"
           id="path4682"
           d="m 44.287297,-111.41982 c 2.05573,-1.20783 4.22675,-2.20373 6.43178,-3.10373 1.98922,-0.80948 4.10811,-1.12379 6.23482,-1.28043 1.88441,-0.2377 3.42049,0.20731 5.11993,0.87284 1.28216,0.60678 2.34247,1.55774 3.36116,2.52729 0.96398,0.9937 2.04348,1.86375 3.18977,2.63629 1.47425,0.80155 3.03823,1.40298 4.64909,1.86194 1.16748,0.29737 2.36874,0.38994 3.56839,0.42798 l -0.82624,0.12802 c -1.20138,-0.0427 -2.40405,-0.14226 -3.5713,-0.44836 -1.61238,-0.46724 -3.18149,-1.07112 -4.65207,-1.88819 -1.14476,-0.78076 -2.22474,-1.65365 -3.19099,-2.6499 -1.01617,-0.96175 -2.07433,-1.90616 -3.35793,-2.49518 -0.64304,-0.25175 -1.27056,-0.52521 -1.94809,-0.67422 -0.24485,-0.0538 -0.50128,-0.0552 -0.74105,-0.12842 -0.03176,-0.01 0.09311,-0.0776 0.05996,-0.0796 -0.27773,-0.0162 -0.55593,0.0229 -0.8339,0.0343 -2.12404,0.1491 -4.24235,0.4524 -6.2313,1.25434 -2.20421,0.89513 -4.371,1.89028 -6.42996,3.087 l -0.83207,-0.082 z" />
        <path
           inkscape:connector-curvature="0"
           style="opacity:0.96999996;fill:#ffffff;fill-opacity:1;fill-rule:evenodd;stroke:none"
           id="path4684"
           d="m 113.62796,-109.09574 c 1.04239,0.1989 2.10327,0.26555 3.1614,0.31483 -0.0784,-0.01 -0.31197,-0.0105 -0.23531,-0.0299 0.18389,-0.0465 0.37984,-0.02 0.56648,-0.0538 0.8216,-0.14886 1.52348,-0.52217 2.2383,-0.93081 0.94478,-0.65614 1.84388,-1.37239 2.75361,-2.0754 0.77945,-0.6555 1.41943,-1.43636 2.26972,-2.00299 1.19047,-0.89056 2.55497,-1.14796 3.99418,-1.34384 1.59314,-0.18921 3.19914,-0.20644 4.80131,-0.21784 1.32917,-0.002 0.48883,-0.001 2.52104,-2.9e-4 l -0.82582,0.13071 c -0.38054,-0.003 -0.0908,-0.001 -0.86932,-1.7e-4 -1.60147,0.01 -3.20668,0.0244 -4.79973,0.2074 -1.43461,0.1885 -2.80038,0.42015 -3.98965,1.30669 -0.85926,0.55453 -1.49561,1.33437 -2.26911,1.99653 -0.91164,0.70504 -1.81479,1.4192 -2.75473,2.08677 -1.46686,0.84714 -2.48055,1.15257 -4.2274,1.05381 -1.05905,-0.0524 -2.12077,-0.12239 -3.1632,-0.32719 l 0.82823,-0.11447 z" />
        <path
           inkscape:connector-curvature="0"
           style="opacity:0.96999996;fill:#000000;fill-opacity:1;fill-rule:evenodd;stroke:none"
           id="path4686"
           d="m 44.237487,-110.53569 c 1.55108,-0.95625 3.29111,-1.51304 5.00025,-2.10795 1.66208,-0.66738 3.38609,-1.136 5.15742,-1.38834 1.44213,-0.13292 2.92507,-0.28013 4.35318,0.0236 1.15245,0.3625 2.26639,0.81629 3.38669,1.26328 1.21015,0.48325 2.26546,1.26447 3.34941,1.97345 1.21537,0.77984 2.35267,1.67002 3.46463,2.58963 1.05886,0.90847 2.3532,1.3792 3.68914,1.70132 1.29329,0.27176 2.62333,0.24441 3.93754,0.25984 l -0.82597,0.12977 c -1.31578,-0.0171 -2.64764,0.007 -3.94029,-0.27871 -1.34032,-0.33436 -2.63309,-0.82177 -3.69328,-1.73868 -1.11192,-0.91634 -2.24918,-1.80313 -3.46377,-2.58043 -1.0808,-0.70813 -2.13699,-1.48213 -3.34761,-1.95699 -1.1163,-0.45042 -2.23157,-0.89709 -3.38477,-1.24836 -0.19278,-0.0378 -0.40359,-0.0236 -0.57833,-0.11336 -0.08241,-0.0423 0.36673,-0.0327 0.27462,-0.0426 -0.78872,-0.0852 -1.60778,0.11987 -2.39365,0.13763 -1.77081,0.24198 -3.49577,0.7027 -5.15523,1.37206 -1.70615,0.59417 -3.44689,1.14077 -4.99831,2.09088 l -0.83167,-0.086 z" />
        <path
           inkscape:connector-curvature="0"
           style="opacity:0.96999996;fill:#000000;fill-opacity:1;fill-rule:evenodd;stroke:none"
           id="path4690"
           d="m 114.88211,-106.58744 c 0.61823,0.0427 1.29931,0.33521 1.92371,0.19486 0.0718,-0.0162 -0.13864,-0.0497 -0.20796,-0.0745 0.20832,-0.0362 0.41665,-0.0724 0.62497,-0.10864 1.09783,-0.34888 2.14551,-0.85105 3.15122,-1.40948 0.83163,-0.47177 1.53874,-1.11225 2.29244,-1.69413 0.8673,-0.59127 1.78064,-1.11236 2.60193,-1.7677 0.78318,-0.61181 1.66911,-1.08327 2.5861,-1.46006 0.98485,-0.33338 2.02555,-0.38791 3.05554,-0.42318 1.49279,-0.0268 2.98602,-0.0133 4.47898,-0.0103 l -0.82583,0.13063 c -1.56694,-0.003 -1.21332,-0.0116 -2.82692,0.008 -1.02719,0.0314 -2.06452,0.0788 -3.05154,0.39401 -0.91645,0.36515 -1.79949,0.83388 -2.58356,1.43572 -0.81688,0.66206 -1.72881,1.18607 -2.6021,1.76954 -0.75891,0.58042 -1.46263,1.22859 -2.29361,1.70598 -1.00323,0.57234 -2.06283,1.06055 -3.15468,1.4375 -1.33057,0.23935 -2.67422,0.28126 -3.99692,-0.0136 l 0.82823,-0.11447 z" />
        <path
           inkscape:connector-curvature="0"
           style="opacity:0.96999996;fill:#000000;fill-opacity:1;fill-rule:evenodd;stroke:none"
           id="path4696"
           d="m 125.32758,-123.10271 c -1.08712,-0.85269 -2.51099,-1.19045 -3.82795,-1.53334 -2.041,-0.45827 -4.14284,-0.46885 -6.2238,-0.51164 -2.78172,0.0297 -5.55438,-0.18179 -8.33232,-0.2811 -2.94239,-0.15733 -5.89194,-0.0461 -8.833613,-0.19351 -1.8012,-0.14887 -3.62058,-0.18593 -5.3972,-0.54924 -1.16069,-0.23735 -2.05033,-0.5342 -3.19097,-0.8765 -3.96609,-1.30347 -8.04186,-2.205 -12.15127,-2.9151 -1.40311,-0.20083 -2.80856,-0.41233 -4.22259,-0.5241 -0.4686,-0.037 -0.94514,0.002 -1.40785,-0.081 -0.31644,-0.0566 1.27796,-0.0691 0.96438,0.002 -0.45092,0.10173 -0.92242,0.0619 -1.38364,0.0929 -3.37849,0.30303 -6.55388,1.60918 -9.73824,2.68844 -4.78866,1.70906 -9.29438,4.09822 -13.77821,6.47122 l -0.10831,-0.0118 c 4.2,-2.22315 8.51942,-4.21 12.62542,-6.60762 1.67233,-0.91601 3.76357,-2.03669 5.62741,-2.49609 0.63535,-0.1566 2.20866,-0.34216 2.85579,-0.42609 3.58015,-0.22208 7.28909,-0.30644 10.78899,0.59003 3.80723,1.10501 7.59291,2.29621 11.50202,3.00807 1.82387,0.39174 3.642,0.78258 5.50218,0.96249 1.27694,0.12351 1.86691,0.0991 3.15267,0.15265 0.433253,0.018 0.866003,0.0466 1.299013,0.0699 2.65762,0.13929 5.32038,0.17832 7.97814,0.3224 3.09509,0.14594 6.18845,0.14181 9.28609,0.1272 2.28846,0.0409 4.59948,0.0776 6.85459,0.50116 1.65551,0.43078 3.24447,1.09823 4.9314,1.41982 l -4.77213,0.59918 z" />
        <path
           inkscape:connector-curvature="0"
           style="opacity:0.96999996;fill:#000000;fill-opacity:1;fill-rule:evenodd;stroke:none"
           id="path4698"
           d="m 117.87437,-131.95352 c -1.0902,-0.80424 -2.39068,-1.26234 -3.56653,-1.92203 -1.30389,-0.65061 -2.53776,-1.3864 -3.93883,-1.81051 -1.75164,-0.40954 -3.56727,-0.4071 -5.35622,-0.42469 0.91152,0.0262 -3.12914,-0.009 -2.34756,0.0308 0.82294,0.0416 1.65196,-0.0378 2.4715,0.0476 0.33348,0.0348 -0.66755,0.0643 -1.00026,0.10578 -1.04953,0.13073 -0.88212,0.11993 -1.9102,0.35755 -1.77799,0.73693 -3.650753,0.91492 -5.551843,1.03739 -2.10542,0.12444 -4.25032,0.28705 -6.34152,-0.0421 -0.89853,-0.14144 -1.7912,-0.39496 -2.68495,-0.569 -1.53403,-0.4683 -3.01411,-1.08704 -4.54333,-1.5689 -2.58915,-0.60499 -5.27946,-0.65645 -7.92528,-0.81832 -3.08443,-0.18436 -6.17349,-0.23656 -9.26266,-0.21455 -0.38202,0.003 -1.52771,-0.009 -1.14607,0.009 0.86201,0.0396 1.72885,-0.0217 2.58814,0.0575 0.28307,0.0261 -0.56548,0.0605 -0.84657,0.10295 -1.29893,0.19602 -2.43788,0.5959 -3.65771,1.07252 -2.53426,1.14759 -5.2364,1.87126 -7.80485,2.93234 -1.2138,0.50144 -5.73094,2.63973 -6.71704,3.1023 -5.14554,2.44071 -10.26547,4.93333 -15.40717,7.38232 l -0.10825,-0.0122 c 5.14173,-2.44893 10.26167,-4.94157 15.40718,-7.38237 1.96064,-0.91966 4.46457,-2.03145 6.38542,-3.13955 2.6581,-1.53342 0.7519,-0.66929 3.02396,-2.04461 0.38571,-0.23348 0.79981,-0.41658 1.20368,-0.617 0.38263,-0.18987 0.77042,-0.36918 1.15563,-0.55377 0.9228,-0.45766 1.85659,-1.03083 2.87049,-1.26823 2.00244,-0.46885 4.10937,-0.15235 6.15058,-0.12642 2.73114,0.12896 5.46471,0.21229 8.19327,0.39134 3.17264,0.18766 6.36781,0.18328 9.51547,0.65362 1.58633,0.39079 3.07109,1.04631 4.62532,1.53816 0.84687,0.21131 1.69421,0.41774 2.55855,0.54696 1.06916,0.15985 2.60298,0.17133 -1.54016,0.12486 -0.36071,-0.004 0.72087,-0.0289 1.08131,-0.0434 1.8147,-0.15195 3.59136,-0.47139 5.33493,-1.01061 2.997833,-0.79068 6.098993,-0.63943 9.178743,-0.5455 2.18777,0.024 4.42057,-0.1004 6.56953,0.36989 1.25955,0.48573 2.36291,1.2827 3.54986,1.91725 1.46411,0.7188 2.93387,1.48323 4.56557,1.7348 l -4.77213,0.59918 z" />
        <path
           inkscape:connector-curvature="0"
           style="opacity:0.31275719;fill:#000000;fill-opacity:1;fill-rule:evenodd;stroke:none"
           id="path4702"
           d="m 127.89763,-85.695336 c -0.28881,-2.88081 -1.83208,-1.53001 -2.68259,-2.21309 -0.95058,-0.76345 -0.93544,-0.73842 -1.90933,-1.46373 -1.52681,-0.99402 -3.12737,-1.89322 -4.86775,-2.44908 -1.3997,-0.31013 -4.55225,-0.435 2.11111,-0.13856 0.22172,0.01 -0.44238,0.0394 -0.66193,0.0718 -0.7175,0.10604 -0.69159,0.12485 -1.37149,0.33048 -0.91504,0.31358 -1.68778,0.8958 -2.59951,1.21922 -0.94523,0.28889 -1.93432,0.25334 -2.91023,0.24533 -2.79207,-0.003 -5.58333,0.005 -8.37477,-0.0502 -2.41375,-0.0503 -4.826463,-0.10427 -7.240823,-0.10636 -2.71806,-0.0726 -5.43257,-0.21928 -8.1514,-0.27635 0.75228,0.0118 1.51142,-0.0667 2.25684,0.0353 0.36834,0.0504 -0.74111,0.0658 -1.10863,0.1218 -1.952,0.29756 -3.7089,1.00059 -5.50928,1.78069 -2.13223,1.06759 -4.01041,2.50688 -5.87622,3.97051 -2.19289,1.89486 -4.78216,3.15685 -7.39053,4.36803 -0.91294,0.41473 -1.82589,0.82946 -2.73883,1.24419 l -0.3576,-0.0369 c 0.52783,-0.45394 1.05567,-0.90788 1.5835,-1.36182 1.81201,-1.60328 3.667,-3.15294 5.66629,-4.52004 2.13562,-1.43351 4.24187,-2.92259 6.61435,-3.95287 1.54108,-0.709 3.09679,-1.5482 4.75394,-1.96076 1.69017,-0.42077 3.73455,-0.18092 5.30862,-0.18358 2.41459,0.12915 4.82692,0.29869 7.2426,0.40853 2.847733,-0.002 5.694313,-0.0621 8.541713,-0.0991 0.28992,-0.004 1.54307,-0.0207 1.86924,-0.0232 0.25176,-0.002 0.50355,-0.002 0.75532,-0.003 0.24103,-8e-4 0.96413,-0.002 0.7231,-0.002 -3.39942,-0.003 -4.49886,0.0225 -2.75358,-0.0121 0.84616,-0.0276 1.69861,-0.0377 2.53517,-0.17876 1.099,-0.24648 2.08387,-0.77015 3.14532,-1.13167 2.50125,-0.89963 5.37229,-1.05723 7.91831,-0.2491 1.49226,0.59918 2.75967,1.60389 3.96182,2.6589 1.78138,1.44861 6.58716,6.07171 8.66452,7.07494 l -7.14727,-3.11761 z"
           sodipodi:nodetypes="csccsscccsccssccccccccsccssssccccccc" />
        <path
           inkscape:connector-curvature="0"
           style="opacity:0.96999996;fill:#000000;fill-opacity:1;fill-rule:evenodd;stroke:none"
           id="path4710"
           d="m 92.963067,-81.894456 c -1.48191,0.92869 -2.73149,2.15645 -4.0301,3.31587 -1.1388,1.29898 -2.57576,2.06765 -4.12271,2.77068 -1.95174,0.89961 -3.8695,1.86961 -5.7584,2.89392 -1.57132,0.95439 -3.18917,1.82265 -4.82335,2.66255 -0.36858,0.21578 -0.75304,0.40648 -1.10573,0.64734 -2.22256,1.51786 -4.60995,3.86713 -6.23161,5.98248 -0.59934,0.78181 -1.10194,1.63324 -1.65291,2.44987 -2.88485,4.74998 -5.29536,9.73928 -7.52418,14.82195 l -0.10885,-0.0045 c 2.22887,-5.08319 4.63938,-10.07302 7.52426,-14.82356 1.54998,-2.65948 1.23659,-2.02562 2.52567,-4.57383 0.88236,-1.74422 1.53854,-3.63112 3.15097,-4.85642 1.54676,-1.05704 3.24047,-1.84577 4.92178,-2.66389 0.60702,-0.33071 1.20051,-0.68719 1.81914,-0.99563 1.25585,-0.62615 2.61358,-1.07483 3.74991,-1.92222 1.34794,-0.85159 2.76113,-1.62862 3.95515,-2.69684 2.03223,-1.86586 -0.75465,0.70494 1.2429,-1.17714 0.54451,-0.51303 1.22081,-0.9992 1.60322,-1.66012 0.079,-0.13654 3.64914,-3.25467 3.70006,-3.40397 l 1.16478,3.23346 z"
           sodipodi:nodetypes="cccccssccccsccsccsscc" />
        <path
           inkscape:connector-curvature="0"
           style="opacity:0.96999996;fill:#000000;fill-opacity:1;fill-rule:evenodd;stroke:none"
           id="path4712"
           d="m 122.70511,-83.500766 c -1.20509,0.87186 1.13393,5.5556 1.30368,6.83955 0.36032,1.29334 0.98272,2.5575 1.8755,3.56537 1.10269,1.08787 2.10761,2.27264 3.28517,3.28083 1.48873,1.54525 3.43519,2.46351 5.24345,3.56202 1.56325,1.01585 3.40414,1.49738 4.98599,2.47028 0.98686,0.68499 1.97692,1.65091 2.23576,2.87803 0.0792,0.37564 0.0813,0.7635 0.12199,1.14525 0.20448,1.96555 0.61052,4.83968 0.84322,6.76072 0.26653,2.20024 1.26146,5.27907 1.8413,7.29986 l -0.1089,0.0031 c -0.39414,-1.37381 -0.81056,-2.74142 -1.18243,-4.12143 -0.28379,-1.05311 -0.4548,-2.13692 -0.78421,-3.17667 -0.67656,-2.13551 -2.51651,-4.7234 -3.6361,-6.64992 -0.9821,-1.37572 -1.89352,-2.84183 -3.37707,-3.73476 -1.37756,-0.94884 -2.82754,-1.75782 -4.31471,-2.52401 -0.2051,-0.11933 -1.54547,-0.89494 -1.75231,-1.03185 -1.2093,-0.80038 -2.29186,-1.78507 -3.51502,-2.56659 -1.41573,-0.96813 -2.77777,-2.02725 -3.92225,-3.31227 -0.30669,-0.38412 -0.66485,-0.73116 -0.92612,-1.1475 -0.4872,-0.77635 -0.51166,-1.76675 -0.81245,-2.6098 -0.0857,-0.25545 -0.19658,-0.50381 -0.25721,-0.76635 -0.24794,-1.0737 -0.0255,-2.16998 0.13121,-3.23587 l 2.72151,-2.92794 z"
           sodipodi:nodetypes="ccccccsssccsscccsccssscc" />
        <path
           inkscape:connector-curvature="0"
           style="opacity:0.31687245;fill:#000000;fill-opacity:1;fill-rule:evenodd;stroke:none"
           id="path4714"
           d="m 37.157907,-106.0184 c -1.70744,1.59746 -2.52868,3.84771 -3.04711,6.074434 -0.43373,2.04359 -0.86646,4.1752 -0.77912,6.27876 0.02156,0.51911 0.10152,1.03414 0.15228,1.55121 0.41124,2.24178 1.69116,4.35073 1.53541,6.68746 -0.12797,1.92006 -0.69848,2.89273 -1.41517,4.71166 -1.23548,4.3957 -2.76796,8.69698 -4.0953,13.06539 l -0.10889,-0.0032 c 1.32593,-4.36411 2.88646,-8.65412 4.05077,-13.06518 0.003,-2.11127 0.08817,-2.68473 -0.20148,-4.6845 -0.33453,-2.30956 -1.20615,-4.48312 -1.98807,-6.6657 -0.4058,-1.27246 -0.63272,-1.71018 -0.7323,-3.0186 -0.12563,-1.65059 0.24648,-3.32309 0.49555,-4.941624 0.66662,-2.03834 1.45856,-4.07709 1.72985,-6.2136 l 4.40358,0.2235 z" />
        <path
           inkscape:connector-curvature="0"
           style="opacity:0.2469136;fill:#000000;fill-opacity:1;fill-rule:evenodd;stroke:none"
           id="path4716"
           d="m 144.40318,-96.010116 c 0.0756,0.90998 -0.0883,1.81254 -0.1386,2.71576 -0.0347,0.62408 -0.0289,1.20409 -0.0317,1.83068 0.0534,1.30831 0.0713,2.64542 0.4098,3.87828 0.066,0.24049 0.67173,2.02342 0.73281,2.20443 0.67362,1.8009 1.14598,3.74237 1.66538,5.64444 1.12514,4.12037 -0.12778,-0.74519 0.98485,3.65236 0.67822,3.51235 1.19302,7.0855 1.31204,10.74244 0.027,0.82879 0.0152,1.65934 0.0227,2.48902 -0.23299,3.55212 -0.0471,1.73842 -0.58189,5.43557 l 0.0708,0.0022 c 0.53531,-3.70181 0.32549,-1.88808 0.64543,-5.4371 0.12849,-2.37141 0.2474,-4.7405 0.10453,-7.11968 -0.12457,-2.07441 -0.44915,-4.12109 -0.76225,-6.14572 -0.0369,-0.27417 -0.44435,-3.32501 -0.5026,-3.68006 -0.31427,-1.91543 -0.72969,-3.79718 -1.11252,-5.68418 -0.3664,-1.94539 -0.77627,-3.91277 -0.74676,-5.95317 0.17276,-1.50429 0.28883,-3.22679 1.08133,-4.32368 l -3.15332,-0.25158 z" />
        <path
           inkscape:connector-curvature="0"
           style="opacity:0.37037036;fill:#000000;fill-opacity:1;fill-rule:evenodd;stroke:none"
           id="path4718"
           d="m 147.99302,-97.083026 c -1.0759,1.92581 -1.02743,4.21311 -0.87751,6.35118 0.0307,1.58711 0.15281,3.24813 -0.34975,4.7867 -0.27817,0.85159 -1.06721,2.32494 -1.45772,3.09455 -1.04179,2.3408 -2.40127,4.54213 -3.28318,6.95404 -0.46811,1.28019 -0.62953,2.09603 -0.94749,3.40371 -0.27943,1.66304 -0.65927,3.3069 -1.01377,4.95492 l -1.78028,-0.02078 c 0.0354,-1.73269 0.0723,-3.39464 0.84515,-4.99544 1.40686,-3.45355 2.86833,-6.88522 4.19401,-10.37101 0.14844,-0.53043 0.33626,-1.05138 0.4453,-1.59128 0.41364,-2.04798 0.13497,-4.14862 0.26044,-6.21541 0.14992,-2.13807 0.19839,-4.42537 -0.87752,-6.35118 l 4.84232,0 z" />
        <path
           inkscape:connector-curvature="0"
           style="opacity:0.31687245;fill:#000000;fill-opacity:1;fill-rule:evenodd;stroke:none"
           id="path4724"
           d="m 47.235617,-96.196106 c -0.13371,0.90998 0.1563,1.81254 0.24528,2.71576 0.06146,0.62408 0.05115,1.20409 0.05619,1.83068 -0.09447,1.30831 -0.12625,2.64542 -0.72522,3.87828 -0.11683,0.24049 -1.18875,2.02342 -1.29684,2.20443 -1.19209,1.8009 -2.02802,3.74237 -2.94719,5.64444 -1.99115,4.12037 0.22613,-0.74519 -1.74288,3.65236 -1.20023,3.51235 -2.11127,7.0855 -2.32189,10.74244 -0.04773,0.82879 -0.02683,1.65934 -0.04025,2.48902 0.41232,3.55212 0.08334,1.73842 1.02977,5.43557 l -0.12526,0.0022 c -0.94733,-3.70181 -0.57602,-1.88808 -1.14221,-5.4371 -0.22739,-2.37141 -0.43782,-4.7405 -0.18499,-7.11968 0.22045,-2.07441 0.79486,-4.12109 1.34895,-6.14572 0.06524,-0.27417 0.78636,-3.32501 0.88944,-3.68006 0.55616,-1.91543 1.29132,-3.79718 1.96881,-5.68418 0.64841,-1.94539 1.37375,-3.91277 1.32153,-5.95317 -0.30573,-1.50429 -0.51114,-3.22679 -1.91362,-4.32368 l 5.58038,-0.25158 z" />
        <path
           inkscape:connector-curvature="0"
           style="opacity:0.96999996;fill:#000000;fill-opacity:1;fill-rule:evenodd;stroke:none"
           id="path4728"
           d="m 110.01862,-64.983006 c -0.24189,2.83041 -0.3868,5.5851 -1.14446,8.33577 -1.07224,2.94309 -3.55211,5.18325 -5.93051,7.12085 -2.60863,2.00557 -5.145323,4.07989 -7.600153,6.27178 -2.00162,2.12768 -4.03184,4.21251 -6.08664,6.29909 -1.72917,1.74168 -3.4814,3.40015 -5.43958,4.87677 -3.26962,2.93164 -3.37971,9.23386 -6.11659,12.63353 -3.79675,4.57371 -7.21282,9.42437 -10.61399,14.2925001 l -0.50877,-0.02803 c 2.55712,-4.8322801 5.1013,-9.6718101 7.71994,-14.4712101 2.07537,-3.55031 1.74753,-9.88589 4.62791,-12.85968 1.81918,-1.63695 3.77498,-3.11842 5.55024,-4.81465 2.05076,-2.11387 4.17996,-4.14275 6.14015,-6.34017 2.60246,-2.08635 5.08919,-4.31798 7.8047,-6.26472 2.333223,-1.85808 4.342783,-4.13981 5.632873,-6.85275 0.83574,-2.71747 1.20598,-5.37133 0.59983,-8.19908 l 5.36505,0 z"
           sodipodi:nodetypes="ccccccccccccccccc" />
        <path
           inkscape:connector-curvature="0"
           style="opacity:0.96999996;fill:#000000;fill-opacity:1;fill-rule:evenodd;stroke:none"
           id="path4732"
           d="m 111.46093,-65.084246 c 0.62961,3.00689 1.90182,5.84758 3.17322,8.63137 1.50145,2.28392 2.61867,4.83476 4.32737,6.9727 1.79413,1.91828 3.03493,4.22211 4.41848,6.44269 1.34306,2.76688 6.32126,6.62074 7.09375,9.65631 0.20891,0.82091 0.26801,1.67282 0.40202,2.50924 0.0319,5.26464 -0.23092,14.54381 -0.44577,20.64133 l -1.83777,-12.10629 c -0.99316,-6.07344 -0.40935,-3.26597 -1.6599,-8.44092 -1.26654,-3.85035 -5.82635,-8.73181 -8.24138,-11.99201 -1.45917,-2.21273 -3.05991,-4.29706 -4.67805,-6.39209 -1.55519,-2.22229 -2.76631,-4.66594 -3.95436,-7.099 -1.25796,-2.89417 -2.54455,-5.7802 -3.91666,-8.62084 l 5.31905,-0.20249 z"
           sodipodi:nodetypes="ccccsccccccccc" />
        <path
           inkscape:connector-curvature="0"
           style="fill:#ffffff;fill-opacity:1;fill-rule:evenodd;stroke:#000000;stroke-width:0.72446287px;stroke-linecap:butt;stroke-linejoin:miter;stroke-opacity:1"
           d="m 119.14535,-89.664556 c -3.07218,-1.36863 -16.46942,-1.00243 -21.960813,-1.00243 -5.30261,0 -5.37702,6.22397 -6.58824,12.02921 -0.96873,4.64299 7.34513,6.22189 10.248383,7.01703 5.52641,1.51357 6.40969,11.43427 10.9804,1.00243 2.43803,-5.56437 3.56261,-2.73141 8.05229,-6.01459 5.69821,-4.16695 1.50668,-12.41851 -0.73202,-13.03165 z"
           id="path4734"
           sodipodi:nodetypes="csssssc" />
        <path
           inkscape:connector-curvature="0"
           sodipodi:nodetypes="csssssc"
           id="path4568"
           d="m 119.14535,-89.664556 c -3.07218,-1.36863 -16.46942,-1.00243 -21.960813,-1.00243 -5.30261,0 -5.37702,6.22397 -6.58824,12.02921 -0.96873,4.64299 7.34513,6.22189 10.248383,7.01703 5.52641,1.51357 6.40969,11.43427 10.9804,1.00243 2.43803,-5.56437 3.56261,-2.73141 8.05229,-6.01459 5.69821,-4.16695 1.50668,-12.41851 -0.73202,-13.03165 z"
           style="fill:url(#radialGradient4823);fill-opacity:1;fill-rule:evenodd;stroke:#000000;stroke-width:0.72446287px;stroke-linecap:butt;stroke-linejoin:miter;stroke-opacity:1" />
        <path
           inkscape:connector-curvature="0"
           style="opacity:0.3374486;fill:#000000;fill-opacity:1;fill-rule:evenodd;stroke:none"
           id="path4742"
           d="m 70.888097,-125.67575 c 0.87588,0.039 1.71031,0.3586 2.48137,0.74912 0.95995,0.57285 1.7526,1.36269 2.432,2.23382 0.57958,0.72561 0.9472,1.58036 1.46816,2.34395 0.72917,0.99167 1.64576,1.83113 2.64051,2.55901 0.77624,0.4823 1.57641,0.92562 2.36509,1.38756 1.15511,0.45307 1.85921,1.24929 2.62842,2.1729 0.22742,0.29128 0.58943,0.71944 0.74694,1.0604 0.48725,1.05487 0.51317,2.3113 0.57798,3.44272 0.03761,1.33888 -0.05071,2.67839 -0.03668,4.01697 0.0141,1.34516 0.12933,2.68738 0.24508,4.02669 0.03199,0.44889 0.06397,0.89778 0.09596,1.34666 l -0.18319,0.002 c -0.05898,-0.44899 -0.11795,-0.89797 -0.17692,-1.34697 -0.07858,-2.68165 -0.01128,-5.37523 -0.37965,-8.0409 -0.237,-1.63648 -0.49769,-3.14078 -1.59184,-4.45909 -0.82537,-0.94881 -1.61434,-1.62629 -2.78283,-2.13384 -0.78485,-0.4632 -1.63661,-0.81807 -2.3432,-1.40126 -0.93762,-0.80409 -1.81644,-1.67117 -2.6461,-2.58289 -0.06462,-0.0909 -0.53787,-0.75382 -0.59887,-0.8508 -0.30776,-0.48934 -0.51622,-1.04041 -0.89359,-1.48788 -0.65973,-0.87782 -1.38436,-1.68645 -2.38697,-2.19942 -0.86482,-0.41945 -1.80359,-0.71312 -2.77963,-0.66431 l 1.11796,-0.17423 z" />
        <path
           inkscape:connector-curvature="0"
           style="opacity:0.3374486;fill:#000000;fill-opacity:1;fill-rule:evenodd;stroke:none"
           id="path4744"
           d="m 119.7874,-122.37755 c -1.15195,0.17359 -2.26039,0.45083 -3.36796,0.72072 -1.18532,0.27552 -2.24804,0.73679 -3.30167,1.1857 -0.99706,0.45581 -2.02201,0.88038 -2.93229,1.41397 -0.96231,0.59395 -1.56312,1.37988 -2.17879,2.14105 -0.483,0.61057 -0.65196,1.28337 -0.72313,1.96416 -0.0989,0.51715 0.19178,1.01174 0.30607,1.51586 0.23208,0.73035 -0.0667,1.37246 -0.48393,2.03884 -0.56582,0.85958 -1.18191,1.69798 -1.67369,2.57835 -0.59621,0.94975 -0.89112,1.95607 -1.03469,2.97707 -0.20713,1.73125 0.24538,3.44028 0.75758,5.12835 0.19921,0.835584 0.0967,0.41184 0.30776,1.271164 l -0.77317,0.0098 c -0.27913,-0.858714 -0.1918,-0.43347 -0.27386,-1.274584 -0.14344,-1.72376 -0.50483,-3.42537 -0.82697,-5.13677 -0.0151,-0.49623 -0.0521,-0.70144 0.0426,-1.1801 0.12501,-0.63205 0.49879,-1.22612 0.82806,-1.81836 0.48463,-0.87335 1.05122,-1.71752 1.56991,-2.58071 0.31455,-0.6542 0.6559,-1.30621 0.35853,-1.99617 -0.20787,-0.50948 -0.45211,-1.00445 -0.32624,-1.54152 0.14652,-0.68781 0.3917,-1.37075 0.86833,-1.99215 0.64178,-0.75885 1.30171,-1.5387 2.21919,-2.16196 0.87116,-0.57045 1.91147,-0.98249 2.92678,-1.42726 1.06235,-0.44401 2.09571,-0.93555 3.29447,-1.20134 1.01381,-0.24791 2.04794,-0.46942 3.03386,-0.76257 l 1.38329,0.12842 z" />
        <path
           inkscape:connector-curvature="0"
           style="opacity:0.3374486;fill:#000000;fill-opacity:1;fill-rule:evenodd;stroke:none"
           id="path4746"
           d="m 85.973037,-125.12794 c 0.67535,0.53475 0.8833,1.00379 1.02024,1.84152 0.06384,1.22018 0.12512,2.43317 0.29724,3.6439 0.11744,1.03024 0.12463,2.08416 0.45096,3.0794 0.06063,0.18489 0.14491,0.36116 0.21736,0.54175 0.4461,0.9504 1.15629,1.72869 1.84833,2.5043 0.85921,0.7974 1.55932,1.71029 2.03705,2.77957 0.58745,1.39056 0.33201,2.88305 0.06939,4.31624 -0.26503,1.44484 -0.58066,2.8874 -0.7411,4.34944 -0.06524,0.59453 -0.0821,1.17224 -0.10872,1.76844 l -0.39316,-0.003 c 0.26806,-2.04938 0.75617,-4.06259 0.99129,-6.11765 0.10866,-1.49696 0.11731,-2.86958 -0.44534,-4.28665 -0.14658,-0.3282 -0.27988,-0.65228 -0.46391,-0.9624 -0.40543,-0.68321 -0.98031,-1.23098 -1.52536,-1.79989 -0.73944,-0.75681 -1.51287,-1.50051 -1.86352,-2.52691 -0.39823,-1.18029 -0.55273,-2.3971 -0.65643,-3.63495 -0.04356,-0.4046 -0.09703,-0.80823 -0.13191,-1.21367 -0.06956,-0.80875 -0.05661,-1.62939 -0.25556,-2.42252 -0.22528,-0.77686 -0.49136,-1.38387 -1.24812,-1.76762 l 0.90127,-0.0889 z" />
        <path
           inkscape:connector-curvature="0"
           style="opacity:0.3374486;fill:#000000;fill-opacity:1;fill-rule:evenodd;stroke:none"
           id="path4748"
           d="m 102.01509,-122.76128 c -0.67393,0.32403 -1.11971,0.93315 -1.52734,1.5364 -0.615253,0.9412 -0.894253,2.01736 -1.073923,3.11272 -0.15601,0.85297 0.09914,1.598 0.53673,2.31473 0.531833,0.74928 0.551423,1.05762 0.333193,1.94914 -0.22435,0.79848 -0.668113,1.50753 -1.001073,2.26021 -0.30647,0.69279 -0.33177,0.8477 -0.55577,1.5691 -0.34154,1.35306 -0.55619,2.75439 -0.5056,4.15371 0.01225,0.33884 0.04939,0.67631 0.07408,1.01446 0.12588,1.03846 0.39732,2.03851 0.70219,3.03504 l -0.22481,0.007 c -0.31209,-0.99651 -0.62039,-1.99536 -0.73335,-3.03926 -0.07118,-0.57049 -0.18771,-1.38701 -0.20464,-1.96873 -0.0319,-1.09588 0.22129,-2.16048 0.49107,-3.21394 0.39156,-1.28548 0.88295,-2.5374 1.23851,-3.83251 0.15696,-0.86053 0.04996,-1.16144 -0.39567,-1.89208 -0.49451,-0.85879 -0.53411,-1.3771 -0.33902,-2.36588 0.16959,-1.09029 0.39905,-2.1844 0.97603,-3.14171 0.343733,-0.59289 0.723963,-1.18031 1.282003,-1.59404 l 0.92739,0.0959 z" />
        <path
           inkscape:connector-curvature="0"
           style="opacity:0.23456792;fill:#000000;fill-opacity:1;fill-rule:evenodd;stroke:none"
           id="path4752"
           d="m 45.066237,-92.166766 c 0.43997,1.13409 0.80345,2.29046 1.17516,3.44798 0.46934,1.27851 0.5226,2.64065 0.7203,3.97465 0.30434,1.78418 0.68365,3.55448 1.07785,5.32104 0.25833,1.49244 0.61359,2.96533 0.98102,4.43411 0.37805,1.21694 0.72118,2.45497 1.15924,3.65329 0.52806,1.29604 1.14826,2.5312 1.43648,3.90706 0.35371,1.83408 0.06425,3.6561 -0.29192,5.46261 -0.16712,0.4711 -0.29698,0.95713 -0.50135,1.41331 -0.2985,0.66631 -0.66928,1.29781 -1.00392,1.94671 -0.43799,0.86038 -0.92055,1.69948 -1.31397,2.58113 -0.64766,1.45137 -3.07191,7.79946 -3.44251,8.75911 l -0.04177,-0.0015 c 0.65144,-1.68694 1.29287,-3.37779 1.95433,-5.06084 1.24057,-3.15654 2.62998,-6.28314 3.18844,-9.65554 0.19793,-1.81021 0.26766,-3.61554 -0.11366,-5.41104 -0.31366,-1.36091 -0.83421,-2.63385 -1.45089,-3.88545 -0.44221,-1.20509 -0.82546,-2.43537 -1.15557,-3.67523 -0.26973,-1.48052 -0.6493,-2.94051 -0.80757,-4.44083 -0.2944,-1.79287 -0.77078,-3.54518 -1.15706,-5.3193 -0.31686,-1.30964 -0.41216,-2.65656 -0.78197,-3.9547 -0.38593,-1.17363 -0.77036,-2.37899 -1.49262,-3.39581 l 1.86196,-0.10072 z" />
        <path
           inkscape:connector-curvature="0"
           style="opacity:0.31687245;fill:#000000;fill-opacity:1;fill-rule:evenodd;stroke:none"
           id="path4754"
           d="m 66.102317,-82.908286 c -1.0918,1.07009 -2.1117,2.21876 -3.12737,3.36238 -1.14499,1.36988 -2.41499,2.62307 -3.67673,3.88325 -1.40456,1.40008 -2.65644,2.95066 -3.88943,4.50222 -1.59855,2.15416 -2.86405,4.52387 -4.05881,6.91804 -1.41116,2.86728 -2.51404,5.84656 -3.48821,8.88503 l -0.0418,-9.3e-4 c 0.11703,-0.86922 0.18784,-1.74592 0.35109,-2.60766 0.41515,-2.19154 1.31944,-4.27275 2.16148,-6.32307 1.16364,-2.39028 2.42499,-4.73204 3.90195,-6.94631 1.10446,-1.61124 2.25587,-3.17635 3.67149,-4.53533 1.23904,-1.29772 2.55557,-2.5182 3.73552,-3.87275 0.84701,-0.93929 1.41085,-1.66753 2.07942,-2.72921 0.0949,-0.15069 0.36343,-0.4949 0.4885,-0.65763 l 1.8929,0.12197 z" />
      </g>
      <path
         inkscape:connector-curvature="0"
         sodipodi:nodetypes="cssssssscc"
         id="path6561"
         d="m 283.5015,269.5521 c 1.05718,3.92856 4.69546,8.59216 6.59526,12.3122 2.40892,4.7169 3.23567,12.19158 7.69447,15.82995 4.24445,3.46347 12.0913,6.15609 18.68656,6.15609 6.59525,0 27.48023,0.87944 32.97628,-0.87944 5.49605,-1.75889 1.24727,-6.67136 0,-11.43275 -1.62624,-6.20808 -2.89019,-2.30279 -9.89288,-5.27665 -7.86977,-3.34209 -12.30385,-13.53977 -15.38893,-20.22717 -3.13538,-6.79642 -4.9414,-11.56407 -2.19843,-18.46827 -35.95218,3.5002 -25.36234,10.54275 -38.47233,21.98604 z"
         style="fill:#7c6348;fill-opacity:1;fill-rule:evenodd;stroke:none" />
    </g>
    <flowRoot
       xml:space="preserve"
       id="flowRoot6586"
       style="font-size:10px;font-style:normal;font-weight:normal;writing-mode:tb-rl;fill:#000000;fill-opacity:1;stroke:none;font-family:Bitstream Vera Sans"><flowRegion
         id="flowRegion6588"><rect
           id="rect6590"
           width="74.49305"
           height="99.324074"
           x="137.16182"
           y="467.40601" /></flowRegion><flowPara
         id="flowPara6592" /></flowRoot>    <flowRoot
       xml:space="preserve"
       id="flowRoot6594"
       style="font-size:10px;font-style:normal;font-weight:normal;writing-mode:tb-rl;fill:#000000;fill-opacity:1;stroke:none;font-family:Bitstream Vera Sans"><flowRegion
         id="flowRegion6596"><rect
           id="rect6598"
           width="88.682205"
           height="93.411926"
           x="119.42537"
           y="475.68301" /></flowRegion><flowPara
         id="flowPara6600" /></flowRoot>  </g>
</svg>
