<?xml version="1.0" encoding="UTF-8" standalone="no"?>
<!-- Created with Inkscape (http://www.inkscape.org/) -->

<svg
   xmlns:dc="http://purl.org/dc/elements/1.1/"
   xmlns:cc="http://creativecommons.org/ns#"
   xmlns:rdf="http://www.w3.org/1999/02/22-rdf-syntax-ns#"
   xmlns:svg="http://www.w3.org/2000/svg"
   xmlns="http://www.w3.org/2000/svg"
   xmlns:xlink="http://www.w3.org/1999/xlink"
   xmlns:sodipodi="http://sodipodi.sourceforge.net/DTD/sodipodi-0.dtd"
   xmlns:inkscape="http://www.inkscape.org/namespaces/inkscape"
   width="585.88861"
   height="521.10718"
   id="svg3982"
   version="1.1"
   inkscape:version="0.48.4 r9939"
   sodipodi:docname="monsterr.svg">
  <defs
     id="defs3984">
    <linearGradient
       inkscape:collect="always"
       id="linearGradient4605">
      <stop
         style="stop-color:#ffffff;stop-opacity:1;"
         offset="0"
         id="stop4607" />
      <stop
         id="stop4613"
         offset="0.51639295"
         style="stop-color:#f3f3f3;stop-opacity:1;" />
      <stop
         style="stop-color:#cccccc;stop-opacity:1"
         offset="1"
         id="stop4609" />
    </linearGradient>
    <linearGradient
       inkscape:collect="always"
       id="linearGradient4568">
      <stop
         style="stop-color:#008000;stop-opacity:1;"
         offset="0"
         id="stop4570" />
      <stop
         style="stop-color:#008000;stop-opacity:0;"
         offset="1"
         id="stop4572" />
    </linearGradient>
    <linearGradient
       inkscape:collect="always"
       id="linearGradient4542">
      <stop
         style="stop-color:#008000;stop-opacity:1;"
         offset="0"
         id="stop4544" />
      <stop
         style="stop-color:#005500;stop-opacity:1"
         offset="1"
         id="stop4546" />
    </linearGradient>
    <linearGradient
       inkscape:collect="always"
       id="linearGradient4532">
      <stop
         style="stop-color:#165016;stop-opacity:1;"
         offset="0"
         id="stop4534" />
      <stop
         style="stop-color:#165016;stop-opacity:0;"
         offset="1"
         id="stop4536" />
    </linearGradient>
    <linearGradient
       inkscape:collect="always"
       xlink:href="#linearGradient4532"
       id="linearGradient4540"
       x1="289.77252"
       y1="576.66052"
       x2="301.64035"
       y2="188.9785"
       gradientUnits="userSpaceOnUse"
       gradientTransform="translate(-42.839522,-132.24374)" />
    <radialGradient
       inkscape:collect="always"
       xlink:href="#linearGradient4542"
       id="radialGradient4550"
       cx="376.80319"
       cy="366.7962"
       fx="376.80319"
       fy="366.7962"
       r="197.0123"
       gradientTransform="matrix(-1.224859,0.24597579,-0.21178937,-1.0546245,873.17797,529.88881)"
       gradientUnits="userSpaceOnUse" />
    <linearGradient
       inkscape:collect="always"
       xlink:href="#linearGradient4568"
       id="linearGradient4576"
       x1="515.93683"
       y1="346.44135"
       x2="478.68509"
       y2="359.47946"
       gradientUnits="userSpaceOnUse"
       gradientTransform="translate(-42.839522,-122.9308)" />
    <linearGradient
       inkscape:collect="always"
       xlink:href="#linearGradient4605"
       id="linearGradient4611"
       x1="212.33502"
       y1="264.48749"
       x2="255.17455"
       y2="270.07526"
       gradientUnits="userSpaceOnUse"
       spreadMethod="reflect" />
    <linearGradient
       inkscape:collect="always"
       xlink:href="#linearGradient4605"
       id="linearGradient4615"
       x1="355.7543"
       y1="299.87665"
       x2="234.68608"
       y2="298.01407"
       gradientUnits="userSpaceOnUse" />
  </defs>
  <sodipodi:namedview
     id="base"
     pagecolor="#ffffff"
     bordercolor="#666666"
     borderopacity="1.0"
     inkscape:pageopacity="0.0"
     inkscape:pageshadow="2"
     inkscape:zoom="1.0842299"
     inkscape:cx="292.94431"
     inkscape:cy="260.55359"
     inkscape:document-units="px"
     inkscape:current-layer="layer1"
     showgrid="false"
     fit-margin-top="0"
     fit-margin-left="0"
     fit-margin-right="0"
     fit-margin-bottom="0"
     inkscape:window-width="1317"
     inkscape:window-height="744"
     inkscape:window-x="49"
     inkscape:window-y="24"
     inkscape:window-maximized="1" />
  <metadata
     id="metadata3987">
    <rdf:RDF>
      <cc:Work
         rdf:about="">
        <dc:format>image/svg+xml</dc:format>
        <dc:type
           rdf:resource="http://purl.org/dc/dcmitype/StillImage" />
        <dc:title></dc:title>
      </cc:Work>
    </rdf:RDF>
  </metadata>
  <g
     inkscape:label="Layer 1"
     inkscape:groupmode="layer"
     id="layer1"
     transform="translate(-8.5876845,-6.2755367)">
    <path
       sodipodi:nodetypes="ccscccccccccc"
       inkscape:connector-curvature="0"
       id="path4566"
       d="m 442.6652,249.8356 c 65.3521,-14.59138 91.08961,-32.86411 127.59831,-84.41961 0.87962,-0.79937 4.36015,-1.44571 5.27734,-1.93783 4.72921,-2.5374 11.73145,-8.05144 18.93545,-20.87657 -10.0547,9.07063 -7.33655,6.8377 -21.82241,13.90014 9.4908,-16.74509 14.11158,-22.08345 16.05943,-36.81423 -7.70045,14.61565 -16.12403,23.11795 -23.65068,31.97634 0.93292,-12.64278 -1.57034,-22.80832 -1.25093,-35.0165 -5.61014,12.50117 0.13766,14.16355 -8.53782,39.33765 -5.56442,-11.31199 -14.0819,-14.64897 -17.83847,-26.69883 1.56517,11.12079 -1.34814,14.84481 13.18629,33.68192 -26.95928,49.53727 -60.96537,48.54716 -113.09998,59.42516 z"
       style="fill:url(#linearGradient4576);fill-opacity:1;stroke:none" />
    <path
       inkscape:connector-curvature="0"
       id="path4519"
       d="m 348.97646,371.02422 14.71609,100.25338 37.70999,32.19146 -43.22853,-20.23463 20.23463,44.14828 -36.79023,-42.30877 1.83951,36.79023 -15.63585,-46.90754 -1.83951,-114.96948 z"
       style="fill:#008000;fill-opacity:1;stroke:none"
       sodipodi:nodetypes="cccccccccc" />
    <path
       style="fill:#008000;fill-opacity:1;stroke:none"
       d="m 228.48844,373.78349 13.79634,93.81509 -37.70999,32.19146 43.22853,-20.23463 -20.23463,44.14828 36.79023,-42.30877 -1.83951,36.79023 15.63585,-46.90754 -26.67292,-108.53119 z"
       id="path4517"
       inkscape:connector-curvature="0" />
    <path
       style="fill:#008000;fill-opacity:1;stroke:none"
       d="M 161.88032,204.09349 C 104.02881,230.69573 74.84835,245.99894 52.103013,309.91486 28.030023,309.18345 20.285542,321.51485 8.5876845,330.68354 23.422456,323.51749 38.257227,314.86207 53.091998,317.82673 30.004931,326.3412 29.178065,338.5657 20.455502,349.47425 c 12.856802,-9.66879 25.713604,-23.23469 38.570406,-25.71361 -7.47427,11.86782 -2.510672,23.73564 -2.966956,35.60345 4.892206,-12.80408 1.540516,-17.36427 15.823756,-39.55939 8.84933,0.5358 14.5282,9.79747 20.76868,20.76868 -3.90133,-10.53097 0.41634,-18.32227 -17.80173,-33.62548 16.9273,-49.95764 52.382772,-56.7736 97.909492,-77.14081 z"
       id="path4521"
       inkscape:connector-curvature="0"
       sodipodi:nodetypes="cccccccccccc" />
    <path
       style="fill:url(#radialGradient4550);fill-opacity:1;stroke:#000000;stroke-width:2.32500005;stroke-linecap:butt;stroke-linejoin:miter;stroke-miterlimit:4;stroke-opacity:1;stroke-dasharray:none"
       d="m 290.55811,37.226597 c -11.16484,-2.17168 -29.77875,-5.40458 -41.03125,-5.25 -3.87275,0.0532 -6.8459,0.51486 -8.3125,1.5625 -7.8219,5.58742 29.3125,16.75 29.3125,16.75 l -27.375,1.875 c 0,0 -58.66014,3.73141 -68.4375,14.90625 -9.77735,11.17484 46.9375,7.4375 46.9375,7.4375 0,0 -56.70467,7.45016 -68.4375,18.625 -11.73284,11.174843 33.21875,11.187503 33.21875,11.187503 0,0 -46.91484,11.15638 -52.78125,20.46875 -5.86641,9.31236 35.1875,5.59375 35.1875,5.59375 0,0 -44.96875,13.03139 -44.96875,22.34375 0,9.31237 31.28125,5.59375 31.28125,5.59375 0,0 -43.01798,5.60641 -41.0625,16.78125 1.95547,11.17484 37.15625,3.71875 37.15625,3.71875 0,0 -66.483622,27.92496 -41.0625,26.0625 25.42113,-1.86248 -5.875,18.625 -5.875,18.625 l 45,-11.15625 c 0,0 -41.09375,18.60641 -41.09375,29.78125 0,11.17483 33.25,-3.71875 33.25,-3.71875 0,0 -25.40625,16.75013 -25.40625,26.0625 l 0,9.3125 10,-4.0625 c -4.46856,3.38301 -8.0625,8.26573 -8.0625,15.25 0,18.62473 27.375,-9.3125 27.375,-9.3125 l -21.5,37.25 35.1875,-11.1875 c 0,0 -23.46875,14.91891 -23.46875,26.09375 0,11.17484 15.67342,-11.1875 27.40625,-11.1875 11.73283,0 -17.625,29.8125 -17.625,29.8125 l 35.21875,-14.90625 c 0,0 -23.46875,20.46888 -23.46875,29.78125 0,9.31236 27.375,-13.03125 27.375,-13.03125 0,0 -11.75,9.3315 -11.75,26.09375 0,16.76226 23.46875,-13.0625 23.46875,-13.0625 l -1.9375,39.125 25.40625,-31.65625 5.875,48.40625 19.5625,-35.375 9.78125,48.4375 9.75,-39.125 19.5625,31.65625 6.34375,-10.5625 0,1.28125 c 6.83333,-17.74836 13.66667,-31.1193 20.5,0 l 0,-1.28125 6.34375,10.5625 19.5625,-31.65625 9.75,39.125 9.78125,-48.4375 19.5625,35.375 5.875,-48.40625 25.40625,31.65625 -1.9375,-39.125 c 0,0 23.46875,29.82476 23.46875,13.0625 0,-16.76225 -11.75,-26.09375 -11.75,-26.09375 0,0 27.375,22.34361 27.375,13.03125 0,-9.31237 -23.46875,-29.78125 -23.46875,-29.78125 l 35.21875,14.90625 c 0,0 -29.35783,-29.8125 -17.625,-29.8125 11.73283,0 27.375,22.36234 27.375,11.1875 0,-11.17484 -23.4375,-26.09375 -23.4375,-26.09375 l 35.1875,11.1875 -21.5,-37.25 c 0,0 27.375,27.93723 27.375,9.3125 0,-6.98427 -3.59394,-11.86699 -8.0625,-15.25 l 10,4.0625 0,-9.3125 c 0,-9.31237 -25.40625,-26.0625 -25.40625,-26.0625 0,0 33.25,14.89358 33.25,3.71875 0,-11.17484 -41.09375,-29.78125 -41.09375,-29.78125 l 45,11.15625 c 0,0 -31.29613,-20.48748 -5.875,-18.625 25.42112,1.86246 -41.0625,-26.0625 -41.0625,-26.0625 0,0 35.20078,7.45609 37.15625,-3.71875 1.95548,-11.17484 -41.0625,-16.78125 -41.0625,-16.78125 0,0 31.28125,3.71862 31.28125,-5.59375 0,-9.31236 -44.96875,-22.34375 -44.96875,-22.34375 0,0 41.05391,3.71861 35.1875,-5.59375 -5.86641,-9.31237 -52.78125,-20.46875 -52.78125,-20.46875 0,0 44.95159,-0.0127 33.21875,-11.187503 -11.73283,-11.17484 -68.4375,-18.625 -68.4375,-18.625 0,0 61.7787,-7.89829 46.9375,-7.4375 -40.12942,1.24595 -108.34356,-4.58984 -43.60409,-25.94332 l -52.20841,9.16207 c -10.2515,-1.02515 22.99182,-29.13244 29.3125,-33.3056 -15.16773,-4.31843 -33.56325,17.19438 -49.34375,20.2431 L 305.47035,7.4380367 C 298.35274,19.492937 290.55811,23.486987 290.55811,37.226597 z"
       id="path4500"
       inkscape:connector-curvature="0"
       sodipodi:nodetypes="cssccscscscscscsccscsccscccssccscsccccccccccccccccccccscsccsscccsccscsccscscscscscscccccc" />
    <path
       style="color:#000000;fill:#000000;fill-opacity:1;fill-rule:nonzero;stroke:none;stroke-width:3;marker:none;visibility:visible;display:inline;overflow:visible;enable-background:accumulate"
       d="m 401.47178,263.29182 c 0,-25.39835 -39.36644,0.91976 -94.73485,0.91976 -55.36841,0 -105.77191,-26.31811 -105.77191,-0.91976 0,25.39836 44.88497,45.98779 100.25338,45.98779 55.36841,0 100.25338,-20.58943 100.25338,-45.98779 z"
       id="path4514"
       inkscape:connector-curvature="0"
       sodipodi:nodetypes="sssss" />
    <path
       style="fill:url(#linearGradient4540);fill-opacity:1;stroke:none"
       d="m 302.81673,19.943757 c -1.20841,1.57179 -2.45966,3.13806 -3.375,4.5 -1.91714,2.85253 -3.18374,5.32551 -3.6875,8.9375 0.43972,0.20498 0.85596,0.39024 1.3125,0.625 3.08434,1.58604 6.21883,3.35964 9.4375,5.03125 a 4.929787,4.929787 0 0 1 -0.28125,-0.90625 l -3.40625,-18.1875 z m 37.25,7.75 c -0.50875,0.30293 -0.98298,0.52494 -1.5,0.84375 -0.36846,0.2272 -0.75495,0.45496 -1.125,0.6875 0.11657,0.1765 0.23325,0.35324 0.34375,0.53125 0.75761,-0.67107 1.50862,-1.34382 2.28125,-2.0625 z m -9.1875,5.75 c -5.7783,3.662 -11.81146,7.11718 -18.3125,8.5 3.90244,1.69914 7.90914,3.03115 12.03125,3.5 a 4.929787,4.929787 0 0 0 0.15625,0 c 0.40165,-1.02433 0.96617,-1.90608 1.53125,-2.8125 1.10968,-1.77996 2.53825,-3.59551 4.1875,-5.46875 l 0.40625,-3.71875 z m -35.15625,0.03125 c -0.15233,1.12719 -0.21875,2.35238 -0.21875,3.75 a 4.929787,4.929787 0 0 1 -5.875,4.84375 c -11.05691,-2.15069 -29.79728,-5.29684 -40.03125,-5.15625 -0.0775,0.0011 -0.11101,0.0293 -0.1875,0.03125 1.61527,0.83469 3.48331,1.71035 5.4375,2.53125 7.96196,3.34461 17.09375,6.09375 17.09375,6.09375 a 4.929787,4.929787 0 0 1 -1.0625,9.625 l -27.375,1.875 a 4.929787,4.929787 0 0 1 -0.0312,0 c 0,0 -14.513,0.92482 -30.15625,3.21875 -7.82163,1.14697 -15.90115,2.67318 -22.4375,4.5 -4.26135,1.19099 -7.3496,2.55763 -9.59375,3.78125 3.25541,0.71696 8.04617,1.27741 13.40625,1.46875 12.59189,0.4495 26.65625,-0.4375 26.65625,-0.4375 a 4.929787,4.929787 0 0 1 0.96875,9.78125 c 0,0 -14.04107,1.84792 -29.46875,5.0625 -7.71384,1.60729 -15.78222,3.57115 -22.46875,5.75 -5.93267,1.9332 -10.40884,4.17837 -12.625,5.8125 1.89591,0.70385 4.80227,1.51935 8.375,2.03125 9.24707,1.32491 20.3125,1.34375 20.3125,1.34375 a 4.929787,4.929787 0 0 1 1.125,9.718753 c 0,0 -11.5632,2.77059 -23.8125,6.65625 -6.12465,1.94283 -12.41841,4.18512 -17.34375,6.40625 -2.32425,1.04814 -4.25887,2.20584 -5.75,3.1875 2.3001,0.39856 5.18196,0.73089 8.5,0.8125 9.12294,0.22438 19.25,-0.6875 19.25,-0.6875 a 4.929787,4.929787 0 0 1 1.8125,9.65625 c 0,0 -11.09454,3.21722 -22.0625,7.53125 -5.48398,2.15702 -10.93177,4.60124 -14.71875,6.875 -1.83549,1.10206 -3.22253,2.13983 -4,2.90625 0.29269,0.15402 0.35538,0.23599 0.875,0.40625 2.0931,0.68585 5.67784,1.14012 9.34375,1.25 7.33182,0.21975 14.90625,-0.6875 14.90625,-0.6875 a 4.929787,4.929787 0 0 1 1.21875,9.78125 c 0,0 -10.52741,1.40512 -20.625,4.09375 -5.04879,1.34432 -9.97415,3.05785 -13.0625,4.78125 -1.54417,0.8617 -2.59395,1.72417 -2.96875,2.1875 -0.0803,0.0993 -0.0599,0.0581 -0.0937,0.0937 -0.004,0.02 -0.0634,-0.001 0.1875,0.1875 0.37637,0.28337 1.32259,0.72941 2.6875,1.0625 2.72981,0.66618 6.98272,0.84541 11.25,0.625 8.53456,-0.44082 17.0625,-2.21875 17.0625,-2.21875 a 4.929787,4.929787 0 0 1 2.9375,9.34375 c 0,0 -16.54446,6.96465 -29.75,13.59375 -2.21459,1.11171 -4.09473,2.20422 -6.03125,3.28125 0.32907,0.0594 0.71261,0.0478 1.03125,0.125 2.41603,0.58513 5.10589,2.07527 6.1875,4.875 1.08161,2.79973 0.18778,5.30642 -0.75,7.0625 -0.32579,0.61007 -0.83269,1.04702 -1.21875,1.59375 l 25.5,-6.3125 a 4.929787,4.929787 0 0 1 3.21875,9.28125 c 0,0 -10.07499,4.55738 -20.0625,10.4375 -4.99375,2.94006 -9.97405,6.23782 -13.4375,9.21875 -2.62886,2.26262 -3.68952,4.01268 -4.1875,4.84375 0.0266,0.002 0.004,-0.002 0.0312,0 2.01796,0.11341 5.90283,-0.53074 9.8125,-1.625 7.81935,-2.18852 15.96875,-5.8125 15.96875,-5.8125 a 4.929787,4.929787 0 0 1 4.71875,8.625 c 0,0 -6.16779,4.06287 -12.25,9.1875 -3.0411,2.56232 -6.02373,5.40339 -8.09375,7.90625 -2.07002,2.50286 -2.84375,4.75703 -2.84375,4.84375 l 0,2 3.21875,-1.3125 a 4.929787,4.929787 0 0 1 4.8125,8.5 c -3.66282,2.77301 -6.09375,6.01923 -6.09375,11.3125 0,1.00781 0.0477,0.9066 0.125,1.1875 1.01714,-0.31209 3.27027,-1.1866 5.84375,-2.9375 6.21195,-4.22636 12.9375,-11 12.9375,-11 a 4.929787,4.929787 0 0 1 7.8125,5.90625 l -15.15625,26.21875 23.0625,-7.3125 a 4.929787,4.929787 0 0 1 4.15625,8.84375 c 0,0 -5.62315,3.57158 -11.15625,8.40625 -2.16745,1.89386 -4.18404,3.97246 -5.90625,6 4.87202,-3.95254 10.81135,-8.59375 18.34375,-8.59375 1.25518,0 2.59212,0.1751 3.96875,0.875 1.37663,0.6999 2.64913,2.08068 3.21875,3.53125 1.13925,2.90113 0.35025,5.08197 -0.40625,7 -1.37361,3.48262 -3.81236,6.92946 -6.53125,10.4375 l 15.4375,-6.53125 a 4.929787,4.929787 0 0 1 5.15625,8.25 c 0,0 -5.71518,4.97199 -11.375,11.03125 -2.82991,3.02963 -5.62644,6.33197 -7.59375,9.21875 -0.14186,0.20816 -0.18222,0.3575 -0.3125,0.5625 1.30068,-0.70909 2.13873,-0.98633 3.5625,-1.90625 6.51254,-4.20786 13.25,-9.6875 13.25,-9.6875 l 3.125,3.8125 3.0625,3.875 c 0,0 -9.19833,7.3411 -9.78125,20.9375 1.02112,-0.68873 2.19892,-1.51916 3.375,-2.59375 5.39502,-4.92948 11.1875,-12.25 11.1875,-12.25 a 4.929787,4.929787 0 0 1 8.8125,3.3125 l -1.1875,23.90625 15.875,-19.78125 a 4.929787,4.929787 0 0 1 8.625,1.9375 c 0.007,-0.0134 0.0233,-0.0174 0.0312,-0.0312 1.73763,-3.03059 4.28844,-6.54138 6.875,-9.78125 5.17312,-6.47974 10.46875,-11.875 10.46875,-11.875 a 4.929787,4.929787 0 0 0 -5.78125,-7.8125 l -14.875,7.6875 c 2.43879,-3.70824 4.58797,-7.32763 5.6875,-10.90625 0.60555,-1.9709 1.2357,-4.19591 -0.125,-7 -0.68035,-1.40205 -2.04201,-2.69016 -3.46875,-3.28125 -1.42674,-0.59109 -2.77985,-0.65979 -4.03125,-0.5625 -7.48184,0.5817 -13.02599,5.62908 -17.5625,9.9375 1.55463,-2.14707 3.37158,-4.32708 5.375,-6.375 5.13406,-5.24814 10.4375,-9.25 10.4375,-9.25 a 4.929787,4.929787 0 0 0 -4.8125,-8.5 l -22.4375,9.0625 13.09375,-27.3125 a 4.929787,4.929787 0 0 0 -8.25,-5.28125 c 0,0 -6.19684,7.27359 -12.0625,11.96875 -2.43002,1.94511 -4.60386,2.98501 -5.59375,3.375 -0.0989,-0.27406 -0.14063,-0.15147 -0.21875,-1.15625 -0.4103,-5.27734 1.7819,-8.70141 5.21875,-11.75 a 4.929787,4.929787 0 0 0 -5.46875,-8.09375 l -3.09375,1.5625 -0.15625,-2 c -0.007,-0.0865 0.56771,-2.40672 2.4375,-5.0625 1.86979,-2.65578 4.63541,-5.70966 7.46875,-8.5 5.66668,-5.58067 11.5,-10.125 11.5,-10.125 a 4.929787,4.929787 0 0 0 -5.375,-8.21875 c 0,0 -7.84257,4.24321 -15.46875,7.03125 -3.81309,1.39402 -7.63557,2.33165 -9.65625,2.375 -0.0275,5.9e-4 -0.005,-2.1e-4 -0.0312,0 0.43206,-0.86717 1.36693,-2.69666 3.8125,-5.15625 3.22197,-3.24043 7.90542,-6.90045 12.65625,-10.21875 9.50167,-6.6366 19.21875,-11.96875 19.21875,-11.96875 a 4.929787,4.929787 0 0 0 -3.9375,-9 l -24.9375,8.28125 c 0.34252,-0.57501 0.81623,-1.05401 1.09375,-1.6875 0.79884,-1.82349 1.48287,-4.41753 0.1875,-7.125 -1.29537,-2.70747 -4.07713,-3.97891 -6.53125,-4.375 -0.32366,-0.0522 -0.69857,0.002 -1.03125,-0.0312 1.84721,-1.2239 3.62825,-2.46997 5.75,-3.75 12.65196,-7.63277 28.59375,-15.84375 28.59375,-15.84375 a 4.929787,4.929787 0 0 0 -3.65625,-9.09375 c 0,0 -8.33779,2.43021 -16.8125,3.53125 -4.23736,0.55052 -8.50802,0.70258 -11.28125,0.25 -1.38662,-0.22629 -2.3528,-0.59041 -2.75,-0.84375 -0.2648,-0.16889 -0.22161,-0.16725 -0.21875,-0.1875 0.031,-0.0382 0.0214,0.0115 0.0937,-0.0937 0.33776,-0.49099 1.30852,-1.42745 2.78125,-2.40625 2.94547,-1.9576 7.72685,-4.04962 12.65625,-5.78125 9.8588,-3.46324 20.25,-5.6875 20.25,-5.6875 a 4.929787,4.929787 0 0 0 -1.96875,-9.65625 c 0,0 -7.48571,1.49452 -14.8125,1.84375 -3.6634,0.17461 -7.26628,-0.01 -9.40625,-0.53125 -0.53125,-0.12947 -0.6025,-0.18163 -0.90625,-0.3125 0.71572,-0.82438 2.00546,-1.97773 3.75,-3.21875 3.59934,-2.56046 8.85597,-5.42439 14.15625,-8 10.60056,-5.15122 21.40625,-9.21875 21.40625,-9.21875 a 4.929787,4.929787 0 0 0 -2.5625,-9.5 c 0,0 -10.01212,1.70405 -19.125,2.1875 -3.31438,0.17583 -6.20718,0.0628 -8.53125,-0.15625 1.41055,-1.09429 3.23274,-2.39985 5.46875,-3.625 4.73835,-2.59623 10.85687,-5.30702 16.8125,-7.71875 11.91125,-4.82346 23.21875,-8.46875 23.21875,-8.46875 a 4.929787,4.929787 0 0 0 -1.875,-9.625 c 0,0 -11.0218,0.85415 -20.34375,0.25 -3.60166,-0.23342 -6.58649,-0.82023 -8.53125,-1.375 2.08282,-1.801 6.39128,-4.394 12.15625,-6.78125 6.49752,-2.690593 14.37146,-5.268373 21.9375,-7.468753 15.13209,-4.40077 29,-7.34375 29,-7.34375 a 4.929787,4.929787 0 0 0 0.625,-9.46875 c 4.9748,-1.08372 9.51074,-2.32401 13.28125,-3.71875 3.74204,-1.38421 6.82282,-2.77676 9.25,-5.28125 1.2136,-1.25224 2.31422,-2.96997 2.59375,-5.09375 0.27953,-2.12378 -0.4511,-4.3475 -1.5625,-5.9375 -0.11384,-0.16286 -0.25536,-0.28152 -0.375,-0.4375 l 21.53125,2.09375 a 4.929787,4.929787 0 0 0 1.34375,-0.03125 c 1.24768,-0.22351 2.6725,-0.68231 3.9375,-1.90625 1.265,-1.22394 1.95154,-3.22581 1.9375,-4.71875 -0.0281,-2.9859 -1.27535,-4.54568 -2.53125,-6.25 -2.5118,-3.40863 -6.35755,-6.8938 -10.6875,-10.53125 -1.32211,-1.11067 -2.64276,-2.02955 -4,-3.09375 z m 132.25,38.5 c 0.29006,0.06292 0.3759,-0.0027 0.40625,0 0.0331,0.003 -0.31938,0.0013 -0.40625,0 z m -187.875,283.343753 c 0,0 -6.27072,5.98749 -12.4375,10.6875 -1.22121,0.93074 -2.03416,1.33862 -3.09375,2 a 4.929787,4.929787 0 0 1 0.0312,0.1875 l 4.03125,33.28125 10.09375,-18.25 c -0.0689,-13.04456 8.15625,-20.71875 8.15625,-20.71875 l -3.375,-3.625 -3.40625,-3.5625 z m 15.875,10.6875 a 4.929787,4.929787 0 0 0 -3.875,2.21875 c 0,0 -2.87179,4.29481 -6.40625,8.6875 a 4.929787,4.929787 0 0 1 4.28125,3.9375 l 5.4375,26.96875 4.46875,-17.875 a 4.929787,4.929787 0 0 1 1.71875,-2.6875 l -0.4375,-16.40625 a 4.929787,4.929787 0 0 0 -5.1875,-4.84375 z m 24.125,5.65625 a 4.929787,4.929787 0 0 0 -3.96875,2.15625 l -8.9375,13.09375 a 4.929787,4.929787 0 0 1 1.65625,1.625 l 15.3125,24.78125 2.1875,-3.625 a 4.929787,4.929787 0 0 1 1.03125,-1.21875 c 0.94792,-2.36216 1.86404,-4.75197 2.84375,-6.90625 l -5.1875,-25.9375 a 4.929787,4.929787 0 0 0 -4.9375,-3.96875 z m 25.96875,11.03125 a 4.929787,4.929787 0 0 0 -4,2.875 l -2.15625,4.71875 c 1.78369,-0.48594 3.95401,-0.4076 5.65625,0.4375 2.12621,1.05558 3.45703,2.73174 4.59375,4.625 1.92937,3.21345 3.41963,7.90068 4.90625,14.03125 a 4.929787,4.929787 0 0 1 0.21875,0.3125 l 2.1875,3.625 1.03125,-1.65625 -7.1875,-25.375 a 4.929787,4.929787 0 0 0 -5.25,-3.59375 z m 20.375,7.78125 a 4.929787,4.929787 0 0 0 -4.53125,4.09375 l -2.71875,15.96875 11.3125,-18.3125 a 4.929787,4.929787 0 0 0 -4.0625,-1.75 z m 43.21875,4.9375 3.34375,6.0625 0.125,-1.0625 c -0.0738,-0.12087 -0.14465,-0.25677 -0.21875,-0.375 -1.05979,-1.69084 -2.04549,-3.26634 -3.25,-4.625 z"
       id="path4525"
       inkscape:connector-curvature="0" />
    <path
       id="path4578"
       d="m 329.06616,36.860347 c 1.09851,1.650471 2.24014,3.298353 3.06056,4.719494 1.71833,2.976522 2.81349,5.530053 3.06999,9.167973 -0.45267,0.174544 -0.88056,0.331014 -1.35204,0.534122 -3.18523,1.372208 -6.43328,2.928123 -9.75836,4.376549 a 4.929787,4.929787 0 0 0 0.34234,-0.884981 l 4.63751,-17.913157 z m -37.69147,5.19402 c 0.48693,0.336889 0.94493,0.590694 1.43903,0.94399 0.35212,0.251776 0.72219,0.50534 1.07554,0.762552 -0.12833,0.168148 -0.25678,0.336527 -0.37915,0.506595 -0.71012,-0.72113 -1.41355,-1.443485 -2.13542,-2.213137 z m 8.77438,6.362614 c 5.51537,4.047186 11.2991,7.905397 17.69081,9.727942 -4.00914,1.429305 -8.09728,2.485229 -12.24176,2.672136 a 4.929787,4.929787 0 0 1 -0.15588,-0.01065 c -0.33093,-1.049315 -0.83406,-1.967479 -1.33607,-2.910293 -0.98583,-1.851431 -2.28738,-3.760095 -3.80516,-5.741351 l -0.15194,-3.737788 z m 35.07243,2.426444 c 0.0752,1.13495 0.058,2.361818 -0.0373,3.75619 a 4.929787,4.929787 0 0 0 5.53133,5.232778 c 11.17775,-1.392346 30.08893,-3.254339 40.28954,-2.4168 0.0772,0.0063 0.10875,0.03679 0.18494,0.0439 -1.66839,0.722696 -3.59175,1.469046 -5.59733,2.154892 -8.17134,2.794362 -17.46922,4.914934 -17.46922,4.914934 a 4.929787,4.929787 0 0 0 0.40425,9.675025 l 27.18364,3.735796 a 4.929787,4.929787 0 0 0 0.0311,0.0021 c 0,0 14.41627,1.911491 29.86687,5.265919 7.72531,1.67722 15.68207,3.750369 22.07876,6.018288 4.1703,1.478562 7.15826,3.05244 9.31383,4.426118 -3.2967,0.493492 -8.11451,0.726228 -13.47517,0.551923 -12.59326,-0.409473 -26.5645,-2.252666 -26.5645,-2.252666 a 4.929787,4.929787 0 0 0 -1.63293,9.692518 c 0,0 13.88254,2.80029 29.05535,7.05854 7.5864,2.12912 15.50223,4.63815 22.02477,7.26751 5.78717,2.33292 10.09996,4.87785 12.19963,6.65918 -1.93946,0.57304 -4.89462,1.18862 -8.49393,1.45591 -9.31585,0.6918 -20.35685,-0.0433 -20.35685,-0.0433 a 4.929787,4.929787 0 0 0 -1.78456,9.61951 c 0,0 11.34756,3.552 23.30365,8.26321 5.97805,2.35561 12.10441,5.02151 16.86697,7.57306 2.24743,1.20406 4.09868,2.49088 5.51946,3.57186 -2.32191,0.24092 -5.21971,0.37612 -8.5356,0.23147 -9.11703,-0.39772 -19.15843,-1.99747 -19.15843,-1.99747 a 4.929787,4.929787 0 0 0 -2.4662,9.51032 c 0,0 10.84956,3.96565 21.4981,9.01694 5.32427,2.52565 10.59287,5.33537 14.21613,7.86187 1.75614,1.22456 3.06925,2.35442 3.79269,3.17203 -0.3025,0.13372 -0.37063,0.21123 -0.90064,0.34569 -2.13497,0.54164 -5.74233,0.75062 -9.40721,0.61047 -7.32975,-0.2803 -14.82477,-1.70152 -14.82477,-1.70152 a 4.929787,4.929787 0 0 0 -1.88235,9.67549 c 0,0 10.40721,2.11912 20.29815,5.48949 4.94547,1.68518 9.74263,3.73031 12.70639,5.66013 1.48187,0.96491 2.47045,1.8969 2.81281,2.38469 0.0733,0.10454 0.0558,0.062 0.0871,0.0999 0.003,0.0202 0.0633,0.003 -0.19983,0.17429 -0.39481,0.25707 -1.36922,0.6376 -2.75365,0.87692 -2.76886,0.47865 -7.0241,0.36769 -11.26644,-0.14295 -8.4847,-1.02128 -16.87168,-3.37612 -16.87168,-3.37612 a 4.929787,4.929787 0 0 0 -3.5673,9.1219 c 0,0 16.03149,8.07569 28.75468,15.58913 2.1337,1.26001 3.93503,2.47808 5.79367,3.68455 -0.33235,0.0368 -0.71421,-8.6e-4 -1.03737,0.0545 -2.45028,0.41916 -5.23542,1.72256 -6.50527,4.44209 -1.26985,2.71953 -0.54889,5.2813 0.26707,7.09719 0.28346,0.63085 0.75941,1.10132 1.10733,1.67309 l -25.01066,-8.03524 a 4.929787,4.929787 0 0 0 -3.84363,9.04038 c 0,0 9.74107,5.23323 19.30474,11.78017 4.78183,3.27347 9.52586,6.90289 12.77817,10.11287 2.46859,2.43648 3.40754,4.25474 3.84774,5.11781 -0.0267,1.8e-4 -0.004,-0.002 -0.0311,-0.002 -2.021,-0.0243 -5.85296,-0.93169 -9.67899,-2.28978 -7.65206,-2.7162 -15.53561,-6.887 -15.53561,-6.887 a 4.929787,4.929787 0 0 0 -5.29544,8.28345 c 0,0 5.87664,4.47366 11.59556,10.00079 2.85945,2.76356 5.64158,5.80125 7.53626,8.43933 1.89468,2.63808 2.51303,4.93973 2.50712,5.02625 l -0.13626,1.99535 -3.12185,-1.52875 a 4.929787,4.929787 0 0 0 -5.38045,8.15235 c 3.46537,3.01613 5.66948,6.42043 5.30883,11.7014 -0.0687,1.00547 -0.10936,0.90125 -0.20562,1.17623 -0.99351,-0.38067 -3.18182,-1.40666 -5.63003,-3.32883 -5.90956,-4.63978 -12.15797,-11.85592 -12.15797,-11.85592 a 4.929787,4.929787 0 0 0 -8.19675,5.36023 l 13.33465,27.19048 -22.51068,-8.86684 a 4.929787,4.929787 0 0 0 -4.74915,8.54002 c 0,0 5.36674,3.9464 10.55758,9.14683 2.03338,2.03713 3.90366,4.2483 5.48373,6.38847 -4.5914,-4.2753 -10.20071,-9.31039 -17.7156,-9.8236 -1.25227,-0.0855 -2.59803,-0.002 -4.01915,0.60256 -1.42112,0.60448 -2.78474,1.89535 -3.45187,3.30374 -1.33426,2.81677 -0.69568,5.0463 -0.0716,7.01141 1.13313,3.56812 3.33137,7.17311 5.80493,10.85824 l -14.95659,-7.56773 a 4.929787,4.929787 0 0 0 -5.70637,7.87952 c 0,0 5.36314,5.34983 10.59697,11.78063 2.61691,3.2154 5.18194,6.70061 6.948,9.71472 0.12734,0.21734 0.15743,0.36908 0.27344,0.58248 -1.24934,-0.79606 -2.06655,-1.12975 -3.42434,-2.14454 -6.21071,-4.64181 -12.55917,-10.56776 -12.55917,-10.56776 l -3.37749,3.59072 -3.3194,3.65734 c 0,0 8.67678,7.95076 8.33197,21.55528 -0.97182,-0.7567 -2.0903,-1.66545 -3.19043,-2.81768 -5.04662,-5.2856 -10.32687,-12.98377 -10.32687,-12.98377 a 4.929787,4.929787 0 0 0 -9.01771,2.70437 l -0.44408,23.93161 -14.49034,-20.8169 a 4.929787,4.929787 0 0 0 -8.73697,1.34535 c -0.006,-0.0138 -0.0221,-0.0189 -0.029,-0.0333 -1.52711,-3.14194 -3.83279,-6.81836 -6.1926,-10.22694 -4.71961,-6.81714 -9.63533,-12.56067 -9.63533,-12.56067 a 4.929787,4.929787 0 0 1 6.3001,-7.40045 l 14.31666,8.68312 c -2.18046,-3.86579 -4.07805,-7.6232 -4.9312,-11.26842 -0.46986,-2.00757 -0.94695,-4.27035 0.60164,-6.97521 0.7743,-1.35244 2.22056,-2.54478 3.68426,-3.03729 1.46369,-0.49251 2.81834,-0.46886 4.0602,-0.28653 7.42482,1.09011 12.61219,6.5035 16.84462,11.111 -1.40473,-2.248 -3.06893,-4.54674 -4.92816,-6.7264 -4.76456,-5.58575 -9.78301,-9.93965 -9.78301,-9.93965 a 4.929787,4.929787 0 0 1 5.38045,-8.15236 l 21.7679,10.57019 -11.20243,-28.14115 a 4.929787,4.929787 0 0 1 8.59066,-4.70688 c 0,0 5.68686,7.6789 11.21899,12.7628 2.29185,2.10615 4.38979,3.29175 5.35081,3.74827 0.11734,-0.26668 0.15062,-0.14153 0.29702,-1.13865 0.76891,-5.23713 -1.18491,-8.8026 -4.40606,-12.07827 a 4.929787,4.929787 0 0 1 6.0075,-7.70234 l 2.9801,1.76966 0.29215,-1.98471 c 0.0129,-0.0858 -0.40241,-2.43981 -2.08691,-5.21681 -1.68449,-2.777 -4.23561,-6.01222 -6.87226,-8.98912 -5.27328,-5.95379 -10.78342,-10.88501 -10.78342,-10.88501 a 4.929787,4.929787 0 0 1 5.92248,-7.83343 c 0,0 7.53524,4.76769 14.95374,8.06885 3.70925,1.65058 7.45896,2.84647 9.472,3.0274 0.0274,0.002 0.005,1.3e-4 0.0311,0.002 -0.37197,-0.89459 -1.18002,-2.78353 -3.45232,-5.40403 -2.99371,-3.45242 -7.4169,-7.42303 -11.93061,-11.05731 -9.02741,-7.26856 -18.35861,-13.25038 -18.35861,-13.25038 a 4.929787,4.929787 0 0 1 4.54155,-8.71081 l 24.31532,9.96108 c -0.30255,-0.59701 -0.74252,-1.10717 -0.97623,-1.7581 -0.67275,-1.87368 -1.17845,-4.50829 0.29838,-7.12121 1.47683,-2.61292 4.33875,-3.69188 6.81416,-3.91984 0.32646,-0.03 0.69681,0.0496 1.03098,0.0391 -1.75953,-1.34691 -3.45153,-2.71143 -5.48114,-4.13305 -12.10251,-8.47715 -27.44781,-17.75522 -27.44781,-17.75522 a 4.929787,4.929787 0 0 1 4.26734,-8.82351 c 0,0 8.15284,2.99265 16.53284,4.66854 4.19,0.83795 8.44038,1.28063 11.238,1.01805 1.39882,-0.13129 2.38756,-0.42873 2.8011,-0.65442 0.27569,-0.15046 0.23249,-0.15176 0.23101,-0.17216 -0.0283,-0.0402 -0.0221,0.01 -0.0871,-0.0999 -0.30353,-0.51286 -1.20823,-1.51329 -2.61084,-2.59015 -2.80525,-2.15374 -7.43298,-4.56667 -12.23295,-6.63013 -9.59993,-4.12691 -19.81543,-7.05399 -19.81543,-7.05399 a 4.929787,4.929787 0 0 1 2.62209,-9.49967 c 0,0 7.36648,2.00107 14.65245,2.84869 3.64299,0.4238 7.25008,0.4851 9.42059,0.11086 0.53884,-0.093 0.61348,-0.14015 0.92544,-0.25002 -0.65789,-0.87123 -1.86605,-2.10978 -3.52198,-3.46677 -3.41653,-2.79975 -8.46581,-6.01518 -13.57829,-8.94593 -10.22496,-5.8615 -20.7284,-10.65581 -20.7284,-10.65581 a 4.929787,4.929787 0 0 1 3.20381,-9.30333 c 0,0 9.87275,2.38225 18.93152,3.48547 3.2947,0.40124 6.18847,0.48557 8.52207,0.42538 -1.33272,-1.18786 -3.06172,-2.61453 -5.20906,-3.98918 -4.55045,-2.91304 -10.47005,-6.03441 -16.24753,-8.84631 -11.55493,-5.62381 -22.58778,-10.03105 -22.58778,-10.03105 a 4.929787,4.929787 0 0 1 2.52642,-9.47488 c 0,0 10.93799,1.60312 20.27944,1.63551 3.6092,0.0125 6.62707,-0.36956 8.60511,-0.79054 -1.95527,-1.93873 -6.07705,-4.81925 -11.66597,-7.59374 -6.2991,-3.12704 -13.97911,-6.2353 -21.37765,-8.94607 -14.79709,-5.42155 -28.43225,-9.30256 -28.43225,-9.30256 A 4.929787,4.929787 0 0 1 366.8,98.010937 c -4.88941,-1.420155 -9.3303,-2.966612 -12.99702,-4.615009 -3.63903,-1.635951 -6.61777,-3.235169 -8.86867,-5.899211 -1.12546,-1.332017 -2.10649,-3.120745 -2.24067,-5.258635 -0.13418,-2.13789 0.74626,-4.306662 1.96341,-5.817244 0.12467,-0.154725 0.27395,-0.263467 0.40394,-0.410933 l -21.62392,0.621833 a 4.929787,4.929787 0 0 1 -1.3385,-0.122682 c -1.22955,-0.307999 -2.6198,-0.862811 -3.79847,-2.170096 -1.17867,-1.307284 -1.72722,-3.351279 -1.6115,-4.839793 0.23148,-2.977047 1.5821,-4.448223 2.95121,-6.063013 2.7382,-3.229572 6.81247,-6.444619 11.38019,-9.778602 1.39471,-1.018009 2.7749,-1.844773 4.20149,-2.814027 z M 200.65568,80.243311 c -0.29367,0.04299 -0.37482,-0.0286 -0.4053,-0.02768 -0.0332,7.38e-4 0.31857,0.02276 0.4053,0.02768 z M 368.78892,375.7292 c 0,0 5.8482,6.40082 11.68042,11.51008 1.15496,1.01178 1.93823,1.4741 2.95029,2.20614 a 4.929787,4.929787 0 0 0 -0.0439,0.18494 l -6.28945,32.92924 -8.82686,-18.89531 c 0.95751,-13.0095 -6.72571,-21.22627 -6.72571,-21.22627 l 3.61414,-3.38663 3.64106,-3.32214 z m -16.56629,9.58105 a 4.929787,4.929787 0 0 1 3.71482,2.47761 c 0,0 2.5725,4.48049 5.79946,9.10379 a 4.929787,4.929787 0 0 0 -4.53958,3.63666 l -7.26234,26.5356 -3.24048,-18.13793 a 4.929787,4.929787 0 0 0 -1.53165,-2.79831 l 1.5543,-16.33832 a 4.929787,4.929787 0 0 1 5.50547,-4.47905 z m -24.45432,3.99938 a 4.929787,4.929787 0 0 1 3.81262,2.42165 l 8.0246,13.67226 a 4.929787,4.929787 0 0 0 -1.76311,1.50838 l -16.96535,23.68037 -1.93544,-3.76562 a 4.929787,4.929787 0 0 0 -0.94581,-1.28618 c -0.78478,-2.42125 -1.53594,-4.86793 -2.3666,-7.08395 l 6.94266,-25.52379 a 4.929787,4.929787 0 0 1 5.19643,-3.62312 z m -26.66,9.23628 a 4.929787,4.929787 0 0 1 3.79482,3.14085 l 1.82974,4.8547 c -1.74644,-0.60634 -3.91705,-0.67605 -5.67292,0.0511 -2.19319,0.90827 -3.63512,2.48986 -4.89819,4.30127 -2.14383,3.07453 -3.94999,7.64933 -5.85085,13.66436 a 4.929787,4.929787 0 0 0 -0.23953,0.29687 l -2.4294,3.46754 -0.91601,-1.72267 8.89969,-24.82632 a 4.929787,4.929787 0 0 1 5.48265,-3.2277 z m -20.85782,6.37495 a 4.929787,4.929787 0 0 1 4.2418,4.39297 l 1.62443,16.11688 L 276.0782,406.39 a 4.929787,4.929787 0 0 1 4.17229,-1.46914 z m -43.45472,1.98138 -3.74904,5.82059 -0.0523,-1.06854 c 0.0819,-0.11556 0.16181,-0.24632 0.24379,-0.35923 1.17253,-1.6147 2.26328,-3.11938 3.55757,-4.39282 z"
       style="opacity:0.27160495;fill:#00ff00;fill-opacity:1;stroke:none"
       inkscape:connector-curvature="0" />
    <path
       sodipodi:type="arc"
       style="color:#000000;fill:#ffffff;fill-opacity:1;fill-rule:nonzero;stroke:none;stroke-width:3;marker:none;visibility:visible;display:inline;overflow:visible;enable-background:accumulate"
       id="path3990"
       sodipodi:cx="393.93735"
       sodipodi:cy="457.26535"
       sodipodi:rx="168.56421"
       sodipodi:ry="179.73973"
       d="m 562.50156,457.26535 c 0,99.26751 -75.46877,179.73973 -168.56421,179.73973 -93.09544,0 -168.56421,-80.47222 -168.56421,-179.73973 0,-99.26751 75.46877,-179.73973 168.56421,-179.73973 93.09544,0 168.56421,80.47222 168.56421,179.73973 z"
       transform="matrix(0.28820692,0,0,0.26510594,125.80708,44.523497)" />
    <path
       transform="matrix(0.28820692,0,0,0.26510594,248.73788,46.409167)"
       d="m 562.50156,457.26535 c 0,99.26751 -75.46877,179.73973 -168.56421,179.73973 -93.09544,0 -168.56421,-80.47222 -168.56421,-179.73973 0,-99.26751 75.46877,-179.73973 168.56421,-179.73973 93.09544,0 168.56421,80.47222 168.56421,179.73973 z"
       sodipodi:ry="179.73973"
       sodipodi:rx="168.56421"
       sodipodi:cy="457.26535"
       sodipodi:cx="393.93735"
       id="path4508"
       style="color:#000000;fill:#ffffff;fill-opacity:1;fill-rule:nonzero;stroke:none;stroke-width:3;marker:none;visibility:visible;display:inline;overflow:visible;enable-background:accumulate"
       sodipodi:type="arc" />
    <path
       transform="matrix(0.10037956,0,0,0.08109562,214.1082,135.13292)"
       d="m 562.50156,457.26535 a 168.56421,179.73973 0 1 1 -337.12842,0 168.56421,179.73973 0 1 1 337.12842,0 z"
       sodipodi:ry="179.73973"
       sodipodi:rx="168.56421"
       sodipodi:cy="457.26535"
       sodipodi:cx="393.93735"
       id="path4510"
       style="color:#000000;fill:#000000;fill-opacity:1;fill-rule:nonzero;stroke:none;stroke-width:3;marker:none;visibility:visible;display:inline;overflow:visible;enable-background:accumulate"
       sodipodi:type="arc" />
    <path
       sodipodi:type="arc"
       style="color:#000000;fill:#000000;fill-opacity:1;fill-rule:nonzero;stroke:none;stroke-width:3;marker:none;visibility:visible;display:inline;overflow:visible;enable-background:accumulate"
       id="path4512"
       sodipodi:cx="393.93735"
       sodipodi:cy="457.26535"
       sodipodi:rx="168.56421"
       sodipodi:ry="179.73973"
       d="m 562.50156,457.26535 a 168.56421,179.73973 0 1 1 -337.12842,0 168.56421,179.73973 0 1 1 337.12842,0 z"
       transform="matrix(0.10037956,0,0,0.08109562,305.66447,135.10969)" />
    <path
       sodipodi:type="arc"
       style="color:#000000;fill:none;stroke:#000000;stroke-width:8.62746525;stroke-miterlimit:4;stroke-dasharray:none;marker:none;visibility:visible;display:inline;overflow:visible;enable-background:accumulate"
       id="path4552"
       sodipodi:cx="282.84964"
       sodipodi:cy="312.10712"
       sodipodi:rx="70.217918"
       sodipodi:ry="64.778503"
       d="m 353.06756,312.10712 c 0,35.77618 -31.43763,64.7785 -70.21792,64.7785 -38.78029,0 -70.21792,-29.00232 -70.21792,-64.7785 0,-35.77618 31.43763,-64.77851 70.21792,-64.77851 38.78029,0 70.21792,29.00233 70.21792,64.77851 z"
       transform="matrix(0.89674684,0,0,0.88044314,-15.117879,-106.79701)" />
    <path
       transform="matrix(0.89674684,0,0,0.88044314,115.42811,-105.80803)"
       d="m 353.06756,312.10712 c 0,35.77618 -31.43763,64.7785 -70.21792,64.7785 -38.78029,0 -70.21792,-29.00232 -70.21792,-64.7785 0,-35.77618 31.43763,-64.77851 70.21792,-64.77851 38.78029,0 70.21792,29.00233 70.21792,64.77851 z"
       sodipodi:ry="64.778503"
       sodipodi:rx="70.217918"
       sodipodi:cy="312.10712"
       sodipodi:cx="282.84964"
       id="path4554"
       style="color:#000000;fill:none;stroke:#000000;stroke-width:8.62746525;stroke-miterlimit:4;stroke-dasharray:none;marker:none;visibility:visible;display:inline;overflow:visible;enable-background:accumulate"
       sodipodi:type="arc" />
    <path
       style="fill:none;stroke:#000000;stroke-width:7.66599989;stroke-linecap:butt;stroke-linejoin:miter;stroke-miterlimit:4;stroke-opacity:1;stroke-dasharray:none"
       d="m 247.92199,111.12892 c 36.12771,8.19801 73.00185,11.17104 111.75528,0.98898"
       id="path4556"
       inkscape:connector-curvature="0"
       sodipodi:nodetypes="cc" />
    <path
       sodipodi:nodetypes="cc"
       inkscape:connector-curvature="0"
       id="path4558"
       d="m 278.67722,125.07142 c 16.24291,4.22231 32.8214,4.49479 50.24482,0.57033"
       style="fill:none;stroke:#000000;stroke-width:3.90348101;stroke-linecap:butt;stroke-linejoin:miter;stroke-miterlimit:4;stroke-opacity:1;stroke-dasharray:none" />
    <path
       style="fill:none;stroke:#000000;stroke-width:7.66599989;stroke-linecap:butt;stroke-linejoin:miter;stroke-miterlimit:4;stroke-opacity:1;stroke-dasharray:none"
       d="m 207.37362,117.06283 c -4.94492,0.98899 -46.48228,15.82376 -46.48228,15.82376"
       id="path4560"
       inkscape:connector-curvature="0" />
    <path
       style="fill:none;stroke:#000000;stroke-width:7.66599989;stroke-linecap:butt;stroke-linejoin:miter;stroke-miterlimit:4;stroke-opacity:1;stroke-dasharray:none"
       d="m 403.1926,119.0408 40.54837,14.83477"
       id="path4562"
       inkscape:connector-curvature="0" />
    <path
       style="fill:none;stroke:#000000;stroke-width:1px;stroke-linecap:butt;stroke-linejoin:miter;stroke-opacity:1"
       d="m 309.59523,63.923557 c 1.5777,-3.62772 -18.0582,-22.95206 -18.0582,-22.95206 l 6.8987,21.33417 -23.18572,-11.16199 11.59162,17.9828 -26.41902,-13.64662 20.77898,24.13534"
       id="path4564"
       inkscape:connector-curvature="0" />
    <path
       style="color:#000000;fill:url(#linearGradient4615);fill-opacity:1;fill-rule:nonzero;stroke:#000000;stroke-width:1.93318129;stroke-linecap:round;stroke-linejoin:round;stroke-miterlimit:4;stroke-opacity:1;stroke-dasharray:none;stroke-dashoffset:0;marker:none;visibility:visible;display:inline;overflow:visible;enable-background:accumulate"
       d="m 234.48538,286.64185 c -4.97174,0 -9.24831,2.26903 -11.40602,5.58805 16.59645,9.27079 44.96432,15.38467 77.18554,15.38467 8.5089,0 16.7467,-0.41794 24.57348,-1.21581 l 0,-2.3381 c 0,-5.79028 -5.75644,-10.45128 -12.90757,-10.45128 -7.15113,0 -12.90757,4.661 -12.90757,10.45128 0,-5.79028 -5.75645,-10.45128 -12.90758,-10.45128 -7.15113,0 -12.90757,4.661 -12.90757,10.45128 l 0,-2.78233 c 0,-5.79028 -5.75644,-10.45129 -12.90757,-10.45129 -7.15113,0 -12.90757,4.66101 -12.90757,10.45129 l 0,-4.18519 c 0,-5.79028 -5.75644,-10.45129 -12.90757,-10.45129 z m 130.80828,0 c -7.15113,0 -12.90757,4.66101 -12.90757,10.45129 l 0,4.18519 c 0,-5.79028 -5.75645,-10.45129 -12.90758,-10.45129 -7.15113,0 -12.90757,4.66101 -12.90757,10.45129 l 0,4.93338 c 20.73945,-2.2777 38.4427,-7.18773 50.33087,-13.67786 -2.08744,-3.48651 -6.48442,-5.892 -11.60815,-5.892 z"
       id="rect4582"
       inkscape:connector-curvature="0" />
    <path
       style="color:#000000;fill:url(#linearGradient4611);fill-opacity:1;fill-rule:nonzero;stroke:none;stroke-width:3;marker:none;visibility:visible;display:inline;overflow:visible;enable-background:accumulate"
       d="m 216.21875,254.11259 c -0.0935,0.65514 -0.15625,1.3182 -0.15625,2 l 0,13.03125 c 0,7.73905 6.2297,13.96875 13.96875,13.96875 7.73905,0 13.96875,-6.2297 13.96875,-13.96875 l 0,5.59375 c 0,7.73905 6.2297,13.96875 13.96875,13.96875 7.73905,0 13.96875,-6.2297 13.96875,-13.96875 l 0,3.71875 c 0,7.73905 6.2297,13.96875 13.96875,13.96875 7.73905,0 13.96875,-6.2297 13.96875,-13.96875 0,7.73905 6.2297,13.96875 13.96875,13.96875 7.73905,0 13.96875,-6.2297 13.96875,-13.96875 l 0,-13.03125 c 0,-0.18937 -0.0239,-0.37501 -0.0312,-0.5625 -6.6991,0.73805 -13.72038,1.21875 -21.03125,1.21875 -11.92151,0 -23.61739,-1.24499 -34.625,-2.90625 -0.11847,0.73481 -0.1875,1.48072 -0.1875,2.25 l 0,-2.25 c -9.83401,-1.48952 -19.05575,-3.33749 -27.46875,-4.96875 -0.28922,1.12304 -0.46875,2.28414 -0.46875,3.5 l 0,-3.59375 c -11.00971,-2.13267 -20.53885,-3.88073 -27.78125,-4 z m 169.21875,0.25 c -7.19775,0.74709 -16.66151,3.05007 -27.8125,5.4375 l 0,1.90625 c 0,-0.6372 -0.0432,-1.26089 -0.125,-1.875 -8.37519,1.79134 -17.66353,3.60439 -27.8125,4.8125 l 0,10.09375 c 0,7.73905 6.2297,13.96875 13.96875,13.96875 7.73905,0 13.96875,-6.2297 13.96875,-13.96875 l 0,-5.59375 c 0,7.73905 6.2297,13.96875 13.96875,13.96875 7.73905,0 13.96875,-6.2297 13.96875,-13.96875 l 0,-13.03125 c 0,-0.59432 -0.0537,-1.17562 -0.125,-1.75 z"
       id="path4595"
       inkscape:connector-curvature="0" />
    <path
       sodipodi:type="arc"
       style="color:#000000;fill:#ffffff;fill-opacity:1;fill-rule:nonzero;stroke:#ffffff;stroke-width:2.32500005;stroke-linecap:round;stroke-linejoin:round;stroke-miterlimit:4;stroke-opacity:1;stroke-dasharray:none;stroke-dashoffset:0;marker:none;visibility:visible;display:inline;overflow:visible;enable-background:accumulate"
       id="path4621"
       sodipodi:cx="253.19331"
       sodipodi:cy="158.89539"
       sodipodi:rx="6.4227943"
       sodipodi:ry="6.9298568"
       d="m 259.61611,158.89539 a 6.4227943,6.9298568 0 1 1 -12.84559,0 6.4227943,6.9298568 0 1 1 12.84559,0 z"
       transform="matrix(0.81827924,0,0,0.74704943,50.961347,47.151759)" />
    <path
       transform="matrix(0.81827924,0,0,0.74704943,145.20354,48.150963)"
       d="m 259.61611,158.89539 a 6.4227943,6.9298568 0 1 1 -12.84559,0 6.4227943,6.9298568 0 1 1 12.84559,0 z"
       sodipodi:ry="6.9298568"
       sodipodi:rx="6.4227943"
       sodipodi:cy="158.89539"
       sodipodi:cx="253.19331"
       id="path4623"
       style="color:#000000;fill:#ffffff;fill-opacity:1;fill-rule:nonzero;stroke:#ffffff;stroke-width:2.32500005;stroke-linecap:round;stroke-linejoin:round;stroke-miterlimit:4;stroke-opacity:1;stroke-dasharray:none;stroke-dashoffset:0;marker:none;visibility:visible;display:inline;overflow:visible;enable-background:accumulate"
       sodipodi:type="arc" />
  </g>
</svg>
