<?xml version="1.0" encoding="UTF-8" standalone="no"?>
<!-- Created with Inkscape (http://www.inkscape.org/) -->

<svg
   xmlns:dc="http://purl.org/dc/elements/1.1/"
   xmlns:cc="http://creativecommons.org/ns#"
   xmlns:rdf="http://www.w3.org/1999/02/22-rdf-syntax-ns#"
   xmlns:svg="http://www.w3.org/2000/svg"
   xmlns="http://www.w3.org/2000/svg"
   xmlns:sodipodi="http://sodipodi.sourceforge.net/DTD/sodipodi-0.dtd"
   xmlns:inkscape="http://www.inkscape.org/namespaces/inkscape"
   id="svg4723"
   version="1.1"
   inkscape:version="0.48.3.1 r9886"
   viewBox="0 0 100 100"
   width="100"
   height="100"
   sodipodi:docname="bird.svg">
  <metadata
     id="metadata4729">
    <rdf:RDF>
      <cc:Work
         rdf:about="">
        <dc:format>image/svg+xml</dc:format>
        <dc:type
           rdf:resource="http://purl.org/dc/dcmitype/StillImage" />
        <dc:title></dc:title>
      </cc:Work>
    </rdf:RDF>
  </metadata>
  <defs
     id="defs4727" />
  <sodipodi:namedview
     pagecolor="#ffffff"
     bordercolor="#666666"
     borderopacity="1"
     objecttolerance="10"
     gridtolerance="10"
     guidetolerance="10"
     inkscape:pageopacity="0"
     inkscape:pageshadow="2"
     inkscape:window-width="1317"
     inkscape:window-height="744"
     id="namedview4725"
     showgrid="false"
     inkscape:zoom="0.5"
     inkscape:cx="130"
     inkscape:cy="378.50587"
     inkscape:window-x="49"
     inkscape:window-y="24"
     inkscape:window-maximized="1"
     inkscape:current-layer="svg4723" />
  <text
     xml:space="preserve"
     style="font-size:40px;font-style:normal;font-variant:normal;font-weight:500;font-stretch:normal;line-height:125%;letter-spacing:0px;word-spacing:0px;fill:#000000;fill-opacity:1;stroke:none;font-family:TSS Symbols;-inkscape-font-specification:TSS Symbols Medium"
     x="-89.830505"
     y="36.440678"
     id="text4733"
     sodipodi:linespacing="125%"><tspan
       sodipodi:role="line"
       x="-89.830505"
       y="36.440678"
       id="tspan4737" /></text>
  <rect
     style="fill:#ffffff;fill-opacity:1;fill-rule:nonzero;stroke:none"
     id="rect4808"
     width="100"
     height="100"
     x="-1.317755"
     y="-0.65436798"
     ry="0" />
  <path
     inkscape:connector-curvature="0"
     id="path4782"
     style="font-size:40px;font-style:normal;font-variant:normal;font-weight:500;font-stretch:normal;line-height:125%;letter-spacing:0px;word-spacing:0px;fill:#000000;fill-opacity:1;stroke:none;font-family:TSS Symbols;-inkscape-font-specification:TSS Symbols Medium"
     d="m 62.71259,24.87104 c -2.26194,-0.18584 -3.62526,0.58879 -4.08995,2.32384 -0.30992,1.85914 0.44919,3.14499 2.27736,3.85759 2.35474,0.093 3.68708,-0.79006 3.997,-2.64918 0.0928,-1.76605 -0.63526,-2.94346 -2.18441,-3.53225 M 52.44121,24.59218 c -1.98307,-0.30978 -3.31539,0.41836 -3.99701,2.18441 -0.34088,1.95209 0.41824,3.28443 2.27739,3.99701 l 1.71962,0 c 1.54918,-0.80555 2.32379,-1.65762 2.32384,-2.55623 0.0928,-1.859 -0.68171,-3.06739 -2.32384,-3.62519 m 26.16645,56.37635 c 0.0928,2.13794 -0.32544,3.45479 -1.25489,3.95053 l -38.018,0 -4.13644,-0.13944 -0.65068,-0.46479 -0.74362,-1.30134 c 0.0928,-1.983 0.60415,-4.55471 1.53373,-7.71515 l 2.13793,-7.52923 2.13794,-5.57722 C 42.80498,54.91057 46.61607,49.10096 51.0469,44.7631 l 0.46479,-1.48726 c 0.0928,-0.4957 -0.0621,-1.19285 -0.46479,-2.09147 l -2.78859,-2.18441 c -3.59426,-3.62512 -4.7097,-7.65311 -3.34633,-12.08395 1.23933,-3.71807 3.95046,-6.36725 8.13344,-7.94752 l 0.32534,0.13944 c 0.61963,-0.40272 1.4717,-0.60413 2.55623,-0.6042 6.56863,-0.0928 10.79801,3.40836 12.68816,10.50374 0.0928,3.1295 -0.48035,5.67024 -1.71965,7.62221 l -1.11545,1.48726 -1.34783,1.30133 c -2.04504,1.17748 -3.11401,2.02955 -3.20688,2.55623 -0.21702,1.76617 -0.17062,2.6957 0.13944,2.78862 3.06739,4.02802 5.53067,7.68419 7.38981,10.96851 l 4.92654,9.85309 c 2.23081,5.48427 3.87298,10.61221 4.92655,15.38381 m 16.49925,-58.2819 c -0.92964,-0.15491 -1.65778,-0.0619 -2.18441,0.27887 L 78.1429,28.54271 C 77.02738,22.56277 75.38519,18.68972 73.21636,16.92352 l 0,-0.65068 C 75.57111,10.2929 76.12882,5.27342 74.88954,1.21435 73.58811,1.33833 72.10085,1.69472 70.42777,2.28332 68.5686,3.15097 66.92643,4.42135 65.50121,6.09443 L 63.08443,9.76608 62.29433,9.95193 60.43526,9.34774 C 58.35921,9.03799 56.14382,8.94502 53.78907,9.06888 l -4.32235,1.02249 C 47.29775,6.24937 44.27677,3.53823 40.40376,1.95793 L 38.07993,1.4002 c -0.49582,0.18608 -0.79018,1.20851 -0.88308,3.06748 -0.18585,1.79718 -5e-5,4.35341 0.55773,7.66866 l 1.58021,4.78711 0,0.55773 c -2.66471,3.22245 -4.13648,6.7547 -4.4153,10.5967 L 18.83853,22.45419 c -1.82811,-0.18585 -2.78864,0.41836 -2.88157,1.8126 -2e-5,0.99156 0.40278,1.73519 1.20839,2.23088 l 17.38233,5.90256 c 0.34078,0.18585 0.46471,0.61975 0.37181,1.30134 l -15.15144,3.3928 c -2.54076,0.46483 -3.87308,1.00705 -3.99698,1.6267 -0.40285,1.17746 -0.40285,1.9056 0,2.18441 l 1.06894,0.88305 1.53376,0 17.56822,-4.27585 c 1.64212,3.65623 2.97446,5.9181 3.99701,6.78561 l -0.46479,0.88305 c -1.70418,1.45632 -3.64071,3.98156 -5.80958,7.57573 -0.96058,1.64222 -2.09151,3.95056 -3.39281,6.92502 l -2.92804,8.08697 -2.13793,8.22639 -1.11545,5.94903 c -0.27889,1.17743 -1.03801,2.21539 -2.27736,3.11393 -1.45629,0.18585 -2.2774,-0.0619 -2.46327,-0.74362 L 13.95847,60.98346 C 12.6261,54.50772 11.06139,50.57268 9.26431,49.17835 L 7.91647,48.62061 c -2.26187,-0.0928 -3.71814,1.03804 -4.3688,3.39283 0.15491,6.56875 2.32381,18.28089 6.50674,35.13644 l 1.5802,4.22938 c 0.71262,1.08446 1.67316,2.0295 2.88157,2.83509 l 70.92358,0 c 2.10686,-1.27036 3.39271,-3.6252 3.85757,-7.06447 -0.18609,-5.01948 -0.92962,-9.82209 -2.23089,-14.40781 l -2.6027,-7.29684 c -1.92113,-4.5547 -3.31542,-7.51372 -4.1829,-8.87707 -2.44786,-4.39976 -4.95762,-8.44324 -7.52924,-12.13045 1.4252,-1.17736 2.71107,-3.22233 3.85757,-6.13493 l 1.53373,0.27885 15.24438,4.69416 c 1.85898,0.093 2.83498,-0.44922 2.92804,-1.62668 -0.093,-1.48721 -0.6043,-2.32378 -1.53373,-2.50975 L 78.00345,34.4452 c -0.093,-1.17736 0.0143,-1.76606 0.32534,-1.76613 L 95.5252,26.49765 c 0.92943,-0.99142 1.23928,-1.78152 0.92955,-2.37031 -0.37194,-0.86748 -0.82121,-1.34776 -1.34784,-1.44078" />
</svg>
