<?xml version="1.0" encoding="UTF-8" standalone="no"?>
<!-- Created with Inkscape (http://www.inkscape.org/) -->

<svg
   xmlns:dc="http://purl.org/dc/elements/1.1/"
   xmlns:cc="http://creativecommons.org/ns#"
   xmlns:rdf="http://www.w3.org/1999/02/22-rdf-syntax-ns#"
   xmlns:svg="http://www.w3.org/2000/svg"
   xmlns="http://www.w3.org/2000/svg"
   xmlns:sodipodi="http://sodipodi.sourceforge.net/DTD/sodipodi-0.dtd"
   xmlns:inkscape="http://www.inkscape.org/namespaces/inkscape"
   id="svg4723"
   version="1.1"
   inkscape:version="0.48.3.1 r9886"
   viewBox="0 0 100 100"
   width="100"
   height="100"
   sodipodi:docname="PICTURES.svg">
  <metadata
     id="metadata4729">
    <rdf:RDF>
      <cc:Work
         rdf:about="">
        <dc:format>image/svg+xml</dc:format>
        <dc:type
           rdf:resource="http://purl.org/dc/dcmitype/StillImage" />
        <dc:title></dc:title>
      </cc:Work>
    </rdf:RDF>
  </metadata>
  <defs
     id="defs4727" />
  <sodipodi:namedview
     pagecolor="#ffffff"
     bordercolor="#666666"
     borderopacity="1"
     objecttolerance="10"
     gridtolerance="10"
     guidetolerance="10"
     inkscape:pageopacity="0"
     inkscape:pageshadow="2"
     inkscape:window-width="1317"
     inkscape:window-height="744"
     id="namedview4725"
     showgrid="false"
     inkscape:zoom="0.5"
     inkscape:cx="50"
     inkscape:cy="50"
     inkscape:window-x="49"
     inkscape:window-y="24"
     inkscape:window-maximized="1"
     inkscape:current-layer="svg4723" />
  <text
     xml:space="preserve"
     style="font-size:40px;font-style:normal;font-variant:normal;font-weight:500;font-stretch:normal;line-height:125%;letter-spacing:0px;word-spacing:0px;fill:#000000;fill-opacity:1;stroke:none;font-family:TSS Symbols;-inkscape-font-specification:TSS Symbols Medium"
     x="-89.830505"
     y="36.440678"
     id="text4733"
     sodipodi:linespacing="125%"><tspan
       sodipodi:role="line"
       x="-89.830505"
       y="36.440678"
       id="tspan4737" /></text>
  <rect
     style="fill:#ffffff;fill-opacity:1;fill-rule:nonzero;stroke:none"
     id="rect4808"
     width="100"
     height="100"
     x="-3.3792804e-07"
     y="2.1336443e-06"
     ry="0" />
  <path
     inkscape:connector-curvature="0"
     id="path4766"
     style="font-size:40px;font-style:normal;font-variant:normal;font-weight:500;font-stretch:normal;line-height:125%;letter-spacing:0px;word-spacing:0px;fill:#000000;fill-opacity:1;stroke:none;font-family:TSS Symbols;-inkscape-font-specification:TSS Symbols Medium"
     d="m 82.124177,10.006087 -0.04973,8.268632 c -2.689878,1.162335 -4.184215,2.141953 -4.482986,2.938848 l -0.249167,0 0,-13.1002978 4.781859,1.8928178 M 71.364969,8.7110015 c -1.02e-4,2.0589435 -1.012912,3.5864805 -3.038482,4.5826145 -2.058928,0.498196 -3.636278,-0.630853 -4.732051,-3.3871498 0.166026,-1.8927285 0.398412,-2.9221543 0.697361,-3.088285 l 2.141865,-1.4943295 c 2.224826,-0.4648094 3.868587,0.6642397 4.931307,3.3871498 M 51.689598,70.127997 c -1.594004,-0.498081 -5.080782,0.282293 -10.460309,2.341119 l -3.885267,-0.199257 c -0.929848,-0.332047 -2.656622,-1.627133 -5.180347,-3.885262 -2.855879,-1.09581 -4.449832,-0.929774 -4.781858,0.498112 -0.298898,0.531347 0.03315,1.892848 0.996233,4.084503 4.582551,6.243003 8.55083,9.364491 11.904839,9.364473 l 4.732025,0 c 4.914628,-1.26186 7.704046,-2.307891 8.368252,-3.138095 1.693518,-1.759967 2.473892,-2.872411 2.341122,-3.337337 0.298796,-3.187881 -1.046092,-5.097301 -4.03469,-5.728269 M 88.001833,60.016345 c 0.232335,5.446039 -0.315552,9.929028 -1.643761,13.448978 l -2.59016,4.582615 c -4.582704,4.94791 -8.949472,8.052795 -13.100304,9.31466 -3.154776,0.963025 -8.218905,1.760002 -15.192359,2.390929 -3.354009,0.464914 -8.584163,10e-6 -15.69049,-1.394709 C 28.79309,85.469795 19.91013,78.662293 13.135856,67.936299 l 0,-0.498112 c 0.66413,-0.132795 3.901844,-1.477691 9.713166,-4.034692 l 9.065614,-2.44074 c 3.453497,-0.132795 6.6248,0.03326 9.513884,0.498109 7.60443,1.926064 12.203634,2.889077 13.797664,2.889041 3.486702,0.166077 6.591594,0.01658 9.314652,-0.448299 3.951601,-0.962977 7.338763,-2.639945 10.161462,-5.030915 l 4.084498,-4.632425 c 1.261799,-1.560699 2.208199,-3.221065 2.839226,-4.981103 l 0.69736,-0.498109 c 2.390828,2.09211 4.283653,5.844538 5.678451,11.257291 M 67.828383,0.34273633 C 59.891748,-0.2881043 55.226107,3.2152689 53.831488,10.852861 l 0.249167,5.32978 1.64376,4.33356 1.394722,2.092062 3.586394,3.38715 c 4.748577,3.021941 8.30174,6.37588 10.659566,10.061829 2.224801,4.150977 2.15839,8.052838 -0.199181,11.705592 -1.726875,2.590221 -5.462693,4.682283 -11.207477,6.276188 l -4.233947,0 -11.207478,-2.39093 C 36.580404,50.5523 29.606873,50.718336 23.596395,52.146204 l -6.42562,2.092062 c -4.615857,2.756253 -10.1780895,4.615863 -16.68669572,5.578835 0.19918035,4.150954 2.04222332,9.497332 5.52902652,16.039152 4.4165502,7.006766 11.0746052,13.166724 19.9742192,18.479889 6.475376,3.353944 13.282881,5.180349 20.422514,5.479214 7.969688,0.498104 15.590772,0.03321 22.863252,-1.394709 l 5.927515,-1.693576 c 2.390853,-0.9298 5.479118,-2.606771 9.264845,-5.030913 3.353855,-2.556956 5.811195,-4.881467 7.372045,-6.973544 C 95.490198,80.571716 97.54905,73.780819 98.01405,64.349905 98.013948,57.940926 97.067548,52.910019 95.174825,49.257163 L 92.08656,44.425494 C 85.411774,36.62183 80.912186,30.395457 78.587769,25.746359 77.292587,23.82041 77.989947,22.143439 80.679826,20.715445 l 9.513909,-3.835448 c 4.5825,-0.8301 7.355315,-1.77651 8.318445,-2.83923 l 1.394695,-1.44452 c 0.498005,-0.830094 0.265545,-1.643673 -0.69736,-2.440739 L 85.411876,9.0098537 C 81.493303,8.0137249 79.368041,7.2831641 79.036065,6.8181685 L 76.396071,5.0747819 C 73.839014,2.551121 70.983186,0.97377334 67.828587,0.34273633" />
</svg>
