<?xml version="1.0" encoding="UTF-8" standalone="no"?>
<!-- Created with Inkscape (http://www.inkscape.org/) -->

<svg
   xmlns:dc="http://purl.org/dc/elements/1.1/"
   xmlns:cc="http://creativecommons.org/ns#"
   xmlns:rdf="http://www.w3.org/1999/02/22-rdf-syntax-ns#"
   xmlns:svg="http://www.w3.org/2000/svg"
   xmlns="http://www.w3.org/2000/svg"
   xmlns:sodipodi="http://sodipodi.sourceforge.net/DTD/sodipodi-0.dtd"
   xmlns:inkscape="http://www.inkscape.org/namespaces/inkscape"
   id="svg4723"
   version="1.1"
   inkscape:version="0.48.3.1 r9886"
   viewBox="0 0 100 100"
   width="100"
   height="100"
   sodipodi:docname="duck.svg">
  <metadata
     id="metadata4729">
    <rdf:RDF>
      <cc:Work
         rdf:about="">
        <dc:format>image/svg+xml</dc:format>
        <dc:type
           rdf:resource="http://purl.org/dc/dcmitype/StillImage" />
        <dc:title></dc:title>
      </cc:Work>
    </rdf:RDF>
  </metadata>
  <defs
     id="defs4727" />
  <sodipodi:namedview
     pagecolor="#ffffff"
     bordercolor="#666666"
     borderopacity="1"
     objecttolerance="10"
     gridtolerance="10"
     guidetolerance="10"
     inkscape:pageopacity="0"
     inkscape:pageshadow="2"
     inkscape:window-width="1317"
     inkscape:window-height="744"
     id="namedview4725"
     showgrid="false"
     inkscape:zoom="0.5"
     inkscape:cx="50"
     inkscape:cy="50"
     inkscape:window-x="49"
     inkscape:window-y="24"
     inkscape:window-maximized="1"
     inkscape:current-layer="svg4723" />
  <text
     xml:space="preserve"
     style="font-size:40px;font-style:normal;font-variant:normal;font-weight:500;font-stretch:normal;line-height:125%;letter-spacing:0px;word-spacing:0px;fill:#000000;fill-opacity:1;stroke:none;font-family:TSS Symbols;-inkscape-font-specification:TSS Symbols Medium"
     x="-89.830505"
     y="36.440678"
     id="text4733"
     sodipodi:linespacing="125%"><tspan
       sodipodi:role="line"
       x="-89.830505"
       y="36.440678"
       id="tspan4737" /></text>
  <rect
     style="fill:#ffffff;fill-opacity:1;fill-rule:nonzero;stroke:none"
     id="rect4808"
     width="100"
     height="100"
     x="0"
     y="-0.023131967"
     ry="0" />
  <path
     inkscape:connector-curvature="0"
     id="path4768"
     style="font-size:40px;font-style:normal;font-variant:normal;font-weight:500;font-stretch:normal;line-height:125%;letter-spacing:0px;word-spacing:0px;fill:#000000;fill-opacity:1;stroke:none;font-family:TSS Symbols;-inkscape-font-specification:TSS Symbols Medium"
     d="m 55.543386,0.49719639 c 4.743995,1.02854741 7.680001,3.18493201 8.808042,6.46920491 7.298484,2.7204566 9.10655,8.4100147 5.424173,17.0687017 2.653932,2.952669 3.168142,6.104325 1.542655,9.454945 -0.962174,3.251252 -2.886348,5.192011 -5.772517,5.822277 -1.924248,5.109053 -5.772567,7.547435 -11.545008,7.315146 -0.232366,2.3555 -0.331809,4.395779 -0.298584,6.120861 l 0,24.682432 0.895752,-0.298584 0.597143,-0.895726 1.244071,-1.841239 4.876789,-5.772492 c 1.658687,-1.69191 3.002276,-3.002353 4.030799,-3.931279 1.061515,-0.962047 3.052035,-2.604223 5.971555,-4.926549 l 9.405185,-6.419419 c 0.961997,-0.198988 1.774791,-0.298533 2.438383,-0.298584 -6.104325,14.066375 -15.924226,22.409966 -29.459677,25.030775 -0.0665,1.625614 -0.165867,2.736993 -0.29856,3.334135 0.03312,1.924173 -0.0665,3.54976 -0.298583,4.876764 l 0,4.279622 c -0.564046,3.085311 -1.177801,6.236942 -1.84124,9.454942 -3.218054,-3.251173 -5.540329,-5.390972 -6.966802,-6.419417 l 0.895726,-6.369659 0.298585,-9.454945 0,-8.559244 -0.895728,-0.597142 C 43.367985,68.125124 41.825329,67.378676 39.96758,66.383379 38.109704,65.354984 36.567048,64.625124 35.339615,64.193796 34.145252,63.76257 31.159487,62.286261 26.382293,59.764895 22.0363,55.684389 19.398852,51.006663 18.469978,45.731745 l 0.895726,0.298583 c 4.511809,2.090089 7.59712,3.599572 9.255907,4.528421 1.691909,0.895778 4.213223,2.952643 7.56397,6.170621 3.383844,3.218028 5.473883,5.556891 6.270141,7.016562 0.796157,1.459747 1.80799,2.77019 3.035551,3.931278 l 0,-1.194311 0.298583,-19.25826 C 39.91777,47.357383 35.969905,44.919001 33.946264,39.909467 26.315896,36.990126 24.491268,31.599125 28.472331,23.736518 24.789827,17.035177 26.116857,11.843243 32.453369,8.160713 c 2.720328,-7.63024143 8.078129,-9.2558296 16.07343,-4.8767902 2.089986,-2.0235901 4.42885,-2.95249032 7.016587,-2.78672641 l 0,0 m 0.597168,8.26065871 c -2.853148,-0.099371 -4.279697,1.2275872 -4.279621,3.9810379 -0.96215,3.516664 -0.04993,6.170697 2.736966,7.962075 4.544931,0.829458 7.480962,-0.597066 8.808042,-4.279622 C 62.311073,14.497275 60.801591,13.46883 58.877495,13.336061 58.048064,11.445138 57.135724,9.9190958 56.140554,8.7578551 M 42.754307,9.404784 c -1.061671,7.59e-5 -1.874464,0.099617 -2.438383,0.2985844 -0.96215,1.0948676 -1.559292,2.2062456 -1.791479,3.3341096 -7.165894,4.644627 -5.440786,7.398181 5.175348,8.260659 0.663464,-0.928849 1.360127,-1.642099 2.090063,-2.139825 0.232112,-4.014108 -0.779697,-7.265284 -3.035549,-9.753528 m 13.983391,17.068701 c -2.023769,0.497699 -3.549812,1.509534 -4.578181,3.035525 -0.365007,4.014288 0.762958,6.867359 3.383869,8.559244 2.554437,-0.530746 3.765335,-2.056815 3.632693,-4.578206 3.284274,-0.132744 4.793756,-1.758204 4.528446,-4.876765 -2.322352,-1.3933 -4.644628,-2.106549 -6.966827,-2.139798 m -12.73932,0.597143 c -3.516639,-0.132744 -6.552165,0.580632 -9.106628,2.139824 0.06625,3.052187 1.575778,4.793882 4.528447,5.225108 3.914615,8.426576 6.352997,6.784401 7.315147,-4.92655 l -0.646928,-0.298558 -2.090038,-2.139824" />
</svg>
