<?xml version="1.0" encoding="UTF-8" standalone="no"?>
<!-- Created with Inkscape (http://www.inkscape.org/) -->

<svg
   xmlns:dc="http://purl.org/dc/elements/1.1/"
   xmlns:cc="http://creativecommons.org/ns#"
   xmlns:rdf="http://www.w3.org/1999/02/22-rdf-syntax-ns#"
   xmlns:svg="http://www.w3.org/2000/svg"
   xmlns="http://www.w3.org/2000/svg"
   xmlns:sodipodi="http://sodipodi.sourceforge.net/DTD/sodipodi-0.dtd"
   xmlns:inkscape="http://www.inkscape.org/namespaces/inkscape"
   id="svg4723"
   version="1.1"
   inkscape:version="0.48.3.1 r9886"
   viewBox="0 0 100 100"
   width="100"
   height="100"
   sodipodi:docname="boot.svg">
  <metadata
     id="metadata4729">
    <rdf:RDF>
      <cc:Work
         rdf:about="">
        <dc:format>image/svg+xml</dc:format>
        <dc:type
           rdf:resource="http://purl.org/dc/dcmitype/StillImage" />
        <dc:title></dc:title>
      </cc:Work>
    </rdf:RDF>
  </metadata>
  <defs
     id="defs4727" />
  <sodipodi:namedview
     pagecolor="#ffffff"
     bordercolor="#666666"
     borderopacity="1"
     objecttolerance="10"
     gridtolerance="10"
     guidetolerance="10"
     inkscape:pageopacity="0"
     inkscape:pageshadow="2"
     inkscape:window-width="1317"
     inkscape:window-height="744"
     id="namedview4725"
     showgrid="false"
     inkscape:zoom="0.5"
     inkscape:cx="130"
     inkscape:cy="210"
     inkscape:window-x="49"
     inkscape:window-y="24"
     inkscape:window-maximized="1"
     inkscape:current-layer="svg4723" />
  <text
     xml:space="preserve"
     style="font-size:40px;font-style:normal;font-variant:normal;font-weight:500;font-stretch:normal;line-height:125%;letter-spacing:0px;word-spacing:0px;fill:#000000;fill-opacity:1;stroke:none;font-family:TSS Symbols;-inkscape-font-specification:TSS Symbols Medium"
     x="-89.830505"
     y="36.440678"
     id="text4733"
     sodipodi:linespacing="125%"><tspan
       sodipodi:role="line"
       x="-89.830505"
       y="36.440678"
       id="tspan4737" /></text>
  <rect
     style="fill:#ffffff;fill-opacity:1;fill-rule:nonzero;stroke:none"
     id="rect4808"
     width="100"
     height="100"
     x="0"
     y="-0.023131967"
     ry="0" />
  <path
     inkscape:connector-curvature="0"
     id="path4772"
     style="font-size:40px;font-style:normal;font-variant:normal;font-weight:500;font-stretch:normal;line-height:125%;letter-spacing:0px;word-spacing:0px;fill:#000000;fill-opacity:1;stroke:none;font-family:TSS Symbols;-inkscape-font-specification:TSS Symbols Medium"
     d="m 54.429095,42.90748 0,0.403328 -8.308243,-1.895571 -0.604971,-5.283407 -0.96795,-8.509886 0.161273,-1.693908 c 0.537716,-0.268816 1.142687,0.295827 1.814914,1.693908 3.280231,5.565769 5.915202,10.660955 7.904936,15.285536 m 32.506972,23.795443 0,0.766286 -2.702186,0.564643 c -3.737454,0.242013 -11.212155,-0.578045 -22.424185,-2.460194 1.424987,-2.876943 -0.04047,-4.812843 -4.396094,-5.8077 -1.210005,-0.295743 -2.124183,-0.05369 -2.742535,0.725958 -2.419927,3.791163 -4.88012,7.125206 -7.380622,10.00215 -5.431319,5.780835 -9.867742,10.109714 -13.309307,12.986657 l -3.912129,2.702186 -0.241993,-0.241972 1.008279,-2.823192 c 2.392958,-5.269944 6.41263,-13.376502 12.059057,-24.319737 -0.107585,-1.532551 -1.546077,-2.729051 -4.315457,-3.589499 l -3.186151,0.161273 -1.9359,3.065186 C 21.78759,54.401873 13.963333,50.812395 9.9840105,47.666531 c -0.2688991,-0.537715 0.2554145,-0.92758 1.5729215,-1.169614 4.543965,-0.24193 13.067294,0.322692 25.570008,1.693908 l 12.139714,2.097235 c 9.141681,2.52747 16.952495,5.364085 23.432443,8.509886 l 11.333079,5.8077 2.90385,2.097236 m -75.379094,-28.1109 0,0.201747 -4.3154569,0 0.96795,-3.2265 c 0.2688785,-0.268817 1.3847003,0.739462 3.3475069,3.024836 M 43.539611,15.522579 c -2.419927,8.3e-5 -4.275149,0.524376 -5.565707,1.572921 -1.478863,1.505769 -2.218263,3.320683 -2.218222,5.444722 -4.1e-5,5.780876 0.537695,11.696119 1.61325,17.74575 L 21.720397,38.430729 C 20.134012,35.742027 17.95614,33.026398 15.186739,30.283822 l -4.355785,-3.428164 c -3.0651855,-1.882046 -5.7673716,-1.424967 -8.1065789,1.371257 -1.88212851,3.253448 -3.28027164,7.851226 -4.1944501,13.793293 -0.32265,1.478862 0,3.414762 0.96795001,5.8077 l 3.95247809,5.283386 c 2.6349509,2.258591 7.9990149,5.283448 16.0921509,9.07455 l 9.276193,3.18615 0.846964,0.604972 c -5.969056,11.93807 -8.819135,18.982599 -8.550236,21.133585 -0.268899,5.780815 1.841779,8.805651 6.332014,9.074529 l 3.387815,-0.604971 c 2.500501,-0.994836 6.076537,-3.562593 10.728128,-7.703272 l 10.486115,-10.042479 3.347507,-3.589478 0.20154,0.201746 -0.20154,-0.201746 1.25025,-1.492264 c 13.336132,2.769441 22.988746,3.831492 28.957843,3.186171 8.819011,-1.129244 13.362997,-3.266808 13.631958,-6.412671 -1.03e-4,-1.747659 -0.255518,-2.99793 -0.766286,-3.750794 L 96.091233,62.95213 C 93.321709,60.666735 89.423043,58.139307 84.395155,55.369844 75.522207,50.987235 69.243986,48.096828 65.560469,46.698643 l -0.766286,-0.96795 C 63.584178,41.966478 61.527271,37.126748 58.623504,31.211443 52.788856,21.021154 47.760885,15.79154 43.539611,15.522579" />
</svg>
