<?xml version="1.0" encoding="UTF-8" standalone="no"?>
<!-- Created with Inkscape (http://www.inkscape.org/) -->

<svg
   xmlns:dc="http://purl.org/dc/elements/1.1/"
   xmlns:cc="http://creativecommons.org/ns#"
   xmlns:rdf="http://www.w3.org/1999/02/22-rdf-syntax-ns#"
   xmlns:svg="http://www.w3.org/2000/svg"
   xmlns="http://www.w3.org/2000/svg"
   xmlns:sodipodi="http://sodipodi.sourceforge.net/DTD/sodipodi-0.dtd"
   xmlns:inkscape="http://www.inkscape.org/namespaces/inkscape"
   id="svg4723"
   version="1.1"
   inkscape:version="0.48.3.1 r9886"
   viewBox="0 0 100 100"
   width="100"
   height="100"
   sodipodi:docname="house.svg">
  <metadata
     id="metadata4729">
    <rdf:RDF>
      <cc:Work
         rdf:about="">
        <dc:format>image/svg+xml</dc:format>
        <dc:type
           rdf:resource="http://purl.org/dc/dcmitype/StillImage" />
        <dc:title></dc:title>
      </cc:Work>
    </rdf:RDF>
  </metadata>
  <defs
     id="defs4727" />
  <sodipodi:namedview
     pagecolor="#ffffff"
     bordercolor="#666666"
     borderopacity="1"
     objecttolerance="10"
     gridtolerance="10"
     guidetolerance="10"
     inkscape:pageopacity="0"
     inkscape:pageshadow="2"
     inkscape:window-width="1317"
     inkscape:window-height="744"
     id="namedview4725"
     showgrid="false"
     inkscape:zoom="0.5"
     inkscape:cx="130"
     inkscape:cy="210"
     inkscape:window-x="49"
     inkscape:window-y="24"
     inkscape:window-maximized="1"
     inkscape:current-layer="svg4723" />
  <text
     xml:space="preserve"
     style="font-size:40px;font-style:normal;font-variant:normal;font-weight:500;font-stretch:normal;line-height:125%;letter-spacing:0px;word-spacing:0px;fill:#000000;fill-opacity:1;stroke:none;font-family:TSS Symbols;-inkscape-font-specification:TSS Symbols Medium"
     x="-89.830505"
     y="36.440678"
     id="text4733"
     sodipodi:linespacing="125%"><tspan
       sodipodi:role="line"
       x="-89.830505"
       y="36.440678"
       id="tspan4737" /></text>
  <rect
     style="fill:#ffffff;fill-opacity:1;fill-rule:nonzero;stroke:none"
     id="rect4808"
     width="100"
     height="100"
     x="0"
     y="-1.1041059"
     ry="0" />
  <path
     inkscape:connector-curvature="0"
     id="path4776"
     style="font-size:40px;font-style:normal;font-variant:normal;font-weight:500;font-stretch:normal;line-height:125%;letter-spacing:0px;word-spacing:0px;fill:#000000;fill-opacity:1;stroke:none;font-family:TSS Symbols;-inkscape-font-specification:TSS Symbols Medium"
     d="m -200.41917,-438.87742 c -0.57294,0.62504 -0.93752,1.20447 -1.09375,1.73829 -9.47918,2.83857 -15.32552,8.15758 -17.53906,15.95703 -0.0651,1.48439 0.0846,2.76694 0.44922,3.84765 5.84634,-4.04945 9.71353,-3.78904 11.60156,0.78125 l 0.87891,0 c 1.06769,-1.71873 2.60415,-2.68227 4.60937,-2.89062 l 0.60547,10.44922 c 0.0651,4.16667 -0.86591,6.17187 -2.79297,6.01562 -1.9271,-0.15625 -2.87762,-1.34765 -2.85156,-3.57422 -0.91147,0.1823 -1.64064,0.50131 -2.1875,0.95703 -0.3646,3.98438 1.67967,5.91146 6.13281,5.78125 1.84894,-0.32552 3.15102,-1.17838 3.90625,-2.55859 0.76821,-1.39322 1.09373,-4.36848 0.97657,-8.92578 -0.1042,-4.5703 -0.0521,-7.28514 0.15625,-8.14453 2.03122,0.58595 3.56116,1.6146 4.58984,3.08594 3.98434,-4.34894 7.85803,-4.47915 11.62109,-0.39063 l 0.66407,0 c 0.1562,-0.97654 0.37105,-1.80988 0.64453,-2.5 -1.75786,-9.1406 -7.45447,-15.10413 -17.08985,-17.89062 -0.53388,-0.7682 -1.04169,-1.34762 -1.52343,-1.73829 l -1.75782,0 m -3.73046,5.95704 c 0.24737,0.13024 0.31899,0.64456 0.21484,1.54296 l -1.97266,6.17188 -1.09375,2.87109 c -2.03126,-0.69008 -3.78256,-1.07419 -5.2539,-1.15234 -2.56512,0.55992 -2.05079,-1.10675 1.54297,-5 l 0.42968,-0.19531 c 1.86197,-1.9531 3.90624,-3.36586 6.13282,-4.23828 m 8.98437,0.19531 c 5.40361,2.16149 8.84111,5.50133 10.3125,10.01953 -2.6042,-0.42967 -4.94144,-0.17576 -7.01172,0.76172 l -0.66406,-0.58594 c -0.87243,-3.16404 -1.51696,-5.29945 -1.93359,-6.40625 -0.4167,-1.10674 -0.65108,-2.36976 -0.70313,-3.78906 m -4.375,0.39062 c 1.0156,1.61462 1.7643,3.37894 2.24609,5.29297 0.48175,1.91409 0.75518,3.3594 0.82032,4.33594 l -2.63672,-0.58594 -3.4961,0.39063 c 1.263,-4.88279 2.28514,-8.02732 3.06641,-9.4336" />
  <path
     inkscape:connector-curvature="0"
     id="path4778"
     style="font-size:40px;font-style:normal;font-variant:normal;font-weight:500;font-stretch:normal;line-height:125%;letter-spacing:0px;word-spacing:0px;fill:#000000;fill-opacity:1;stroke:none;font-family:TSS Symbols;-inkscape-font-specification:TSS Symbols Medium"
     d="m -436.4348,-388.89695 c 1.73174,0.36462 2.92965,0.86593 3.59375,1.50391 0.66403,0.62504 1.56246,1.69274 2.69531,3.20312 1.13277,1.51045 3.13798,2.47399 6.01563,2.89063 l -0.76172,0.60547 c -1.849,0.49482 -3.32035,1.34117 -4.41406,2.53906 5.16922,11.01564 2.63667,18.91277 -7.59766,23.69141 l -0.13672,0.89843 -0.3125,3.75 -3.33984,0 c -0.013,-1.57552 -0.31904,-2.87109 -0.91797,-3.88671 l 0,0.58593 -0.60547,3.30078 -3.18359,0 0,-1.21093 -0.3125,-2.08985 -0.3125,-1.03515 -2.42188,-0.89844 c -2.26564,-1.26302 -4.34246,-2.10937 -6.23047,-2.53906 -1.57553,-0.39062 -2.64324,-0.66406 -3.20312,-0.82032 -0.54689,-0.16926 -1.13283,-0.36457 -1.75782,-0.58593 -0.61198,-0.22135 -1.19141,-0.47525 -1.73828,-0.76172 -0.54688,-0.28645 -1.04818,-0.45572 -1.5039,-0.50781 0.71614,-0.59895 1.47134,-0.95051 2.26562,-1.05469 l 0,-0.44922 c -1.14584,-0.63801 -1.90105,-1.47785 -2.26562,-2.51953 l 0.44922,-0.15625 0.44921,-0.15625 c 1.15885,-0.36457 2.07031,-0.70962 2.73438,-1.03516 -0.31251,-0.50779 -0.61199,-0.90493 -0.89844,-1.1914 -1.82292,-2.65623 -2.83855,-4.25129 -3.04687,-4.78516 l 1.8164,-0.58594 c 0.0391,-1.06768 0.29296,-1.95961 0.76172,-2.67578 1.88801,2.76044 2.96223,4.37502 3.22266,4.84375 0.27342,0.45575 0.61848,0.9245 1.03515,1.40625 0.41666,0.48179 0.77473,0.83335 1.07422,1.05469 3.30728,-1.45832 5.63149,-2.96873 6.97266,-4.53125 1.34112,-1.5755 2.21352,-2.61065 2.61719,-3.10547 0.40362,-0.49477 1.00258,-1.67966 1.79687,-3.55469 -0.67711,-6.69267 1.80987,-10.07157 7.46094,-10.13672 m 0,4.02344 c -1.22399,-0.14319 -2.18753,0.15629 -2.89063,0.89844 -0.24742,0.88545 -0.40367,1.52998 -0.46875,1.93359 l -0.29296,4.62891 c -1.99222,3.45054 -3.65888,5.84637 -5,7.1875 -1.34117,1.34116 -2.34378,2.24611 -3.00782,2.71484 -0.66408,0.46877 -1.64715,1.11981 -2.94922,1.95313 -1.28907,0.82032 -2.85808,1.68621 -4.70703,2.59765 l -1.05468,0.60547 c 0.37759,0.32553 0.72915,0.52085 1.05468,0.58594 4.46613,0.37761 8.41795,-0.36457 11.85547,-2.22656 l 1.52344,-0.15625 c 2.69528,1.96615 1.3281,3.85417 -4.10156,5.66406 5.05205,1.52344 9.20569,0.67709 12.46093,-2.53906 4.10153,-4.24478 4.60934,-8.86066 1.52344,-13.84766 -0.52087,-1.43226 -0.82686,-2.52601 -0.91797,-3.28125 0.2083,-1.17185 0.61846,-2.11585 1.23047,-2.83203 l -0.46875,-0.3125 -0.76172,-0.74219 c -0.93753,-1.27601 -1.94664,-2.22002 -3.02734,-2.83203 m 0.44922,1.93359 c 0.45569,0.36462 0.80726,0.71618 1.05469,1.05469 0.013,1.22399 -0.5404,1.96618 -1.66016,2.22656 -1.21097,-0.36455 -1.77086,-1.10674 -1.67969,-2.22656 0.65101,-0.70309 1.41273,-1.05465 2.28516,-1.05469" />
  <path
     inkscape:connector-curvature="0"
     id="path4780"
     style="font-size:40px;font-style:normal;font-variant:normal;font-weight:500;font-stretch:normal;line-height:125%;letter-spacing:0px;word-spacing:0px;fill:#000000;fill-opacity:1;stroke:none;font-family:TSS Symbols;-inkscape-font-specification:TSS Symbols Medium"
     d="m 73.571123,42.242078 24.103194,0 1.023693,2.512693 0,39.598085 -3.489859,0.46533 -7.026198,0 -0.697971,4.141279 C 84.257831,96.869771 78.767161,100.918 71.011901,101.10411 62.015911,99.242856 57.099114,93.814224 56.26151,84.818186 l -9.492387,0 C 45.156119,93.938299 40.363397,99.366956 32.390982,101.10411 22.061134,100.97999 15.981058,95.551399 14.150732,84.818186 l -8.515222,0 0,-76.77658 67.935613,0 0,34.200472 m -58.164056,-24.428892 0,57.23342 2.60575,0 c 7.786326,-8.871915 16.317033,-8.871915 25.592193,0 l 14.750391,0 c 9.182223,-8.871915 17.961105,-8.871915 26.336694,0 l 4.234358,0.04646 0,-22.61417 -25.126886,0 0,-34.665778 -48.3925,0 m 58.722443,60.49061 c -3.970627,-0.248151 -6.653924,1.287377 -8.049915,4.606585 -0.527297,3.877618 0.868623,6.607467 4.187806,8.1895 3.846623,0.558387 6.421355,-0.868552 7.724194,-4.280863 1.023717,-3.939632 -0.263637,-6.778024 -3.862085,-8.515222 M 32.06526,78.62945 c -3.908542,-0.09315 -6.607348,1.58208 -8.096443,5.025363 -0.06194,3.939679 1.582151,6.545406 4.932306,7.81725 3.412383,0.651467 5.863015,-0.542854 7.351944,-3.582892 1.427033,-4.373919 0.03097,-7.460485 -4.187807,-9.259721" />
  <path
     inkscape:connector-curvature="0"
     id="path4782"
     style="font-size:40px;font-style:normal;font-variant:normal;font-weight:500;font-stretch:normal;line-height:125%;letter-spacing:0px;word-spacing:0px;fill:#000000;fill-opacity:1;stroke:none;font-family:TSS Symbols;-inkscape-font-specification:TSS Symbols Medium"
     d="m -340.67307,-378.93601 c -0.95055,-0.0781 -1.52347,0.24743 -1.71875,0.97656 -0.13024,0.78128 0.18877,1.32164 0.95703,1.6211 0.98955,0.0391 1.54945,-0.33201 1.67969,-1.11328 0.039,-0.74216 -0.26696,-1.23695 -0.91797,-1.48438 m -4.31641,-0.11719 c -0.83336,-0.13018 -1.39325,0.17581 -1.67969,0.91797 -0.14325,0.82034 0.17576,1.38024 0.95704,1.67969 l 0.72265,0 c 0.65102,-0.33852 0.97654,-0.69659 0.97656,-1.07422 0.039,-0.78122 -0.28648,-1.28903 -0.97656,-1.52344 m 10.9961,23.69141 c 0.039,0.89844 -0.13676,1.45183 -0.52735,1.66016 l -15.97656,0 -1.73828,-0.0586 -0.27344,-0.19532 -0.3125,-0.54687 c 0.039,-0.83333 0.25389,-1.91406 0.64453,-3.24219 l 0.89844,-3.16406 0.89844,-2.34375 c 1.34112,-3.05988 2.94268,-5.50129 4.80468,-7.32422 l 0.19532,-0.625 c 0.039,-0.20831 -0.0261,-0.50128 -0.19532,-0.87891 l -1.17187,-0.91797 c -1.51044,-1.52341 -1.97919,-3.21612 -1.40625,-5.07812 0.52081,-1.56247 1.66013,-2.67575 3.41797,-3.33984 l 0.13672,0.0586 c 0.26039,-0.16924 0.61846,-0.25388 1.07422,-0.25391 2.76038,-0.039 4.53772,1.43232 5.33203,4.41406 0.039,1.31513 -0.20186,2.38284 -0.72266,3.20313 l -0.46875,0.625 -0.56641,0.54687 c -0.8594,0.49482 -1.30862,0.85289 -1.34765,1.07422 -0.0912,0.74221 -0.0717,1.13283 0.0586,1.17188 1.28903,1.69272 2.32419,3.22918 3.10547,4.60937 l 2.07031,4.14063 c 0.93747,2.30469 1.62757,4.45964 2.07032,6.46484 m 6.93359,-24.49219 c -0.39067,-0.0651 -0.69666,-0.026 -0.91797,0.11719 l -6.21094,2.34375 c -0.46878,-2.51299 -1.15889,-4.14059 -2.07031,-4.88281 l 0,-0.27344 c 0.98955,-2.51299 1.22392,-4.62236 0.70313,-6.32813 -0.54691,0.0521 -1.17191,0.20187 -1.875,0.44922 -0.78129,0.36462 -1.47139,0.89848 -2.07032,1.60157 l -1.01562,1.54296 -0.33203,0.0781 -0.78125,-0.2539 c -0.87243,-0.13017 -1.80342,-0.16924 -2.79297,-0.11719 l -1.81641,0.42969 c -0.91148,-1.61455 -2.18101,-2.75387 -3.80859,-3.41797 l -0.97656,-0.23438 c -0.20836,0.0782 -0.33206,0.50786 -0.3711,1.28907 -0.0781,0.75524 -2e-5,1.82946 0.23438,3.22265 l 0.66406,2.01172 0,0.23438 c -1.11981,1.35419 -1.7383,2.83857 -1.85547,4.45312 l -6.75781,-2.36328 c -0.76824,-0.0781 -1.17189,0.17581 -1.21094,0.76172 -10e-6,0.41669 0.16926,0.72919 0.50781,0.9375 l 7.30469,2.48047 c 0.14321,0.0781 0.19529,0.26044 0.15625,0.54687 l -6.36719,1.42578 c -1.06772,0.19534 -1.62761,0.4232 -1.67968,0.6836 -0.16929,0.49481 -0.16929,0.8008 0,0.91797 l 0.44921,0.37109 0.64454,0 7.38281,-1.79687 c 0.69008,1.53648 1.24998,2.487 1.67969,2.85156 l -0.19532,0.37109 c -0.71616,0.612 -1.52996,1.6732 -2.4414,3.1836 -0.40367,0.69012 -0.87893,1.66017 -1.42578,2.91015 l -1.23047,3.39844 -0.89844,3.45703 -0.46875,2.5 c -0.1172,0.4948 -0.43621,0.93099 -0.95703,1.30859 -0.61199,0.0781 -0.95705,-0.026 -1.03516,-0.3125 l -2.26562,-9.80468 c -0.55991,-2.72134 -1.21746,-4.37499 -1.97266,-4.96094 l -0.56641,-0.23438 c -0.95052,-0.039 -1.5625,0.43622 -1.83593,1.42579 0.0651,2.76043 0.97655,7.6823 2.73437,14.76562 l 0.66406,1.77734 c 0.29947,0.45573 0.70312,0.85287 1.21094,1.19141 l 29.80469,0 c 0.88538,-0.53385 1.42574,-1.52344 1.62109,-2.96875 -0.0782,-2.10937 -0.39066,-4.1276 -0.9375,-6.05469 l -1.09375,-3.0664 c -0.80733,-1.91405 -1.39326,-3.15754 -1.75781,-3.73047 -1.02868,-1.84894 -2.08337,-3.54816 -3.16406,-5.09766 0.59892,-0.49477 1.13929,-1.35414 1.62109,-2.57812 l 0.64453,0.11718 6.40625,1.97266 c 0.78121,0.0391 1.19136,-0.18878 1.23047,-0.68359 -0.0391,-0.62498 -0.25395,-0.97654 -0.64453,-1.05469 l -7.05079,-1.97266 c -0.0391,-0.49477 0.006,-0.74216 0.13672,-0.74219 l 7.22656,-2.59766 c 0.39058,-0.41663 0.52079,-0.74866 0.39063,-0.99609 -0.1563,-0.36455 -0.3451,-0.56638 -0.56641,-0.60547" />
  <path
     inkscape:connector-curvature="0"
     id="path4784"
     style="font-size:40px;font-style:normal;font-variant:normal;font-weight:500;font-stretch:normal;line-height:125%;letter-spacing:0px;word-spacing:0px;fill:#000000;fill-opacity:1;stroke:none;font-family:TSS Symbols;-inkscape-font-specification:TSS Symbols Medium"
     d="m -288.62229,-354.63913 c 0.96351,-0.11719 1.70569,-0.89193 2.22656,-2.32422 0.0781,-2.0052 -0.93102,-3.40494 -3.02734,-4.19922 -0.65108,-0.1953 -1.45837,0.0195 -2.42188,0.64453 -3e-5,0.24741 0.28643,0.8724 0.85938,1.875 l 2.36328,4.00391 m -17.08984,0 c 0.3906,0.13021 0.64451,0.006 0.76171,-0.3711 l 2.53907,-5.23437 -0.0977,-0.3711 c -0.44273,-0.29947 -0.9245,-0.51431 -1.44531,-0.64453 -1.69273,10e-6 -2.89715,1.02866 -3.61328,3.08594 -0.13023,0.92449 0.0325,1.75782 0.48828,2.5 l 1.36719,1.03516 m -6.07422,-1.48438 c -0.1823,-2.48697 0.39712,-4.56379 1.73828,-6.23047 1.04165,-1.18488 1.8229,-1.86847 2.34375,-2.05078 0.91144,-0.49478 1.69269,-0.76821 2.34375,-0.82031 l 2.05078,0 1.875,0.64453 0.85937,0.64453 0.39063,-0.74219 0,-0.37109 c -0.83336,-1.43228 -2.19403,-4.41404 -4.08203,-8.94531 -1.88804,-5.02602 -3.25522,-9.06247 -4.10156,-12.10938 -0.40366,-1.61454 -0.40366,-2.48043 0,-2.59765 l 10.625,18.53515 0.29296,0.27344 9.66797,-18.98438 0.3125,0.0781 c 0.18226,0.69015 -0.6706,4.44665 -2.55859,11.26954 -1.1068,3.60679 -2.63675,7.82554 -4.58984,12.65625 l 0,0.29296 0.39062,0.54688 c 0.65101,-0.42967 1.36065,-0.73566 2.12891,-0.91797 1.44528,-0.31248 2.88408,-0.22134 4.3164,0.27344 3.04684,1.18491 4.79814,3.48308 5.25391,6.89453 0.13017,1.92709 -0.41671,3.69792 -1.64063,5.3125 -1.30212,1.48438 -3.02737,2.35026 -5.17578,2.59766 l -0.78125,-0.0781 c -0.65107,-0.11719 -1.1719,-0.52735 -1.5625,-1.23047 l -5.66406,-9.96094 -5.46875,10.72266 c -0.58596,0.55989 -1.52997,0.74218 -2.83203,0.54687 -1.6797,-0.54687 -3.01434,-1.25651 -4.00391,-2.12891 -1.47136,-1.74478 -2.181,-3.11848 -2.1289,-4.12109" />
  <path
     inkscape:connector-curvature="0"
     id="path4786"
     style="font-size:40px;font-style:normal;font-variant:normal;font-weight:500;font-stretch:normal;line-height:125%;letter-spacing:0px;word-spacing:0px;fill:#000000;fill-opacity:1;stroke:none;font-family:TSS Symbols;-inkscape-font-specification:TSS Symbols Medium"
     d="m -261.39573,-360.85007 -1.21094,-1.11328 c -0.85938,-1.00259 -1.34115,-1.80337 -1.44531,-2.40235 l 0,-6.05468 c 0.0521,-0.2604 0.1953,-0.41014 0.42969,-0.44922 0.24739,-0.0521 0.59895,-0.0325 1.05469,0.0586 l 1.34765,0.50781 c -0.16928,1.40627 -0.25391,2.57163 -0.2539,3.49609 -0.0261,2.03127 -10e-6,4.02996 0.0781,5.9961 l 0,-0.0391 m 5.6836,7.03125 c -1.09377,-2.52604 -1.69273,-5.76822 -1.79688,-9.72657 -2e-5,-1.28904 0.0651,-2.8255 0.19531,-4.60937 l 0.3125,-2.36328 c 0.36457,-2.03123 0.63801,-3.34633 0.82032,-3.94531 1.54946,0.0261 2.44789,0.0651 2.69531,0.11718 l 0.0391,-0.0195 3.02734,0.0586 c 2.16144,3e-5 4.28383,-0.0521 6.36719,-0.15625 l 2.8125,-0.21484 0.46875,0 c 0.71611,3.52867 1.12627,6.47788 1.23047,8.84766 l -0.0586,0.11718 c 0.0781,2.26564 -0.007,4.40757 -0.25391,6.42578 l -0.37109,2.16797 -0.625,2.12891 -0.3711,1.17187 -14.49218,0 m 3.75,-24.58984 -1.69922,-0.0781 c 0.013,-0.39059 0.29946,-1.00257 0.85937,-1.83594 1.13279,-1.34111 2.58461,-2.04423 4.35547,-2.10937 2.47393,0.13024 4.18617,1.39326 5.13672,3.78906 l 0,0.0781 c -1.77086,0.26045 -4.65497,0.29951 -8.65234,0.11719 l 0,0.0391 m 23.16406,-0.39063 -0.0391,-0.0977 -0.97657,0.13672 -3.20312,0.35157 -0.80078,4.88281 -0.50782,2.38281 c -0.62503,2.68231 -1.01566,4.23179 -1.17187,4.64844 -0.48181,-4.80467 -1.24353,-8.96482 -2.28516,-12.48047 l -0.0586,-0.0391 -1.17188,0.15625 c -0.33857,-1.3932 -0.78128,-2.49997 -1.32812,-3.32031 -0.23441,-0.41664 -0.76826,-1.04815 -1.60156,-1.89454 l -1.25,-0.97656 c -1.21097,-0.70309 -2.28519,-1.15231 -3.22266,-1.34765 0.16924,-0.63799 0.0456,-1.23695 -0.37109,-1.79688 -0.20836,-0.24736 -0.63805,-0.48173 -1.28907,-0.70312 l -0.89843,0.0781 c -0.88544,0.39066 -1.36721,0.95055 -1.44532,1.67968 l 0.0586,0.74219 c -1.19794,0.27347 -2.23961,0.67061 -3.125,1.19141 -0.70315,0.4167 -1.37372,0.95706 -2.01172,1.62109 -0.6771,0.76826 -1.21095,1.54951 -1.60156,2.34375 -0.44273,0.88545 -0.72267,1.73831 -0.83985,2.55859 l -1.23047,-0.11718 c -0.13022,0.15628 -0.41017,0.97008 -0.83984,2.4414 l -0.52734,2.01172 -1.66016,-0.39062 0,-0.0977 -0.0391,0.0586 c -1.48439,-0.45571 -2.78647,-0.40362 -3.90625,0.15625 -0.92449,0.53388 -1.50391,1.40627 -1.73828,2.61719 l 0,8.78906 c 0.0781,0.52084 0.53385,1.45834 1.36718,2.8125 0.83333,1.00261 1.46484,1.69923 1.89454,2.08984 1.05467,1.10678 2.12889,2.12891 3.22265,3.06641 0.78124,0.91146 1.24999,1.73828 1.40625,2.48047 0.15624,0.72917 0.45572,1.71224 0.89844,2.94922 l 21.40625,0 c 0.2734,-0.41667 0.81377,-1.39323 1.62109,-2.92969 1.78382,-3.8151 3.37887,-8.46353 4.78516,-13.94531 1.23694,-5.013 2.06376,-9.04946 2.48047,-12.10938" />
  <path
     inkscape:connector-curvature="0"
     id="path4790"
     style="font-size:40px;font-style:normal;font-variant:normal;font-weight:500;font-stretch:normal;line-height:125%;letter-spacing:0px;word-spacing:0px;fill:#000000;fill-opacity:1;stroke:none;font-family:TSS Symbols;-inkscape-font-specification:TSS Symbols Medium"
     d="m -444.18871,-337.82273 -1.05468,2.07032 c -1.18492,1.9792 -2.4219,3.7956 -3.71094,5.44922 -1.9271,2.487 -3.13153,3.91929 -3.61328,4.29687 1.00258,0.71617 2.03123,1.10029 3.08593,1.15234 -0.52085,1.22399 -2.46095,3.55471 -5.82031,6.99219 0.84634,0.66408 1.7578,1.02215 2.73438,1.07422 -0.27346,0.91147 -1.92059,3.08595 -4.94141,6.52344 -0.39064,0.20834 -0.65756,0.47527 -0.80078,0.80078 l 0.27344,0.0977 c 2.89061,0.84636 5.3841,1.42578 7.48047,1.73828 2.09633,0.3125 3.77602,0.50782 5.03906,0.58593 l 0,4.02344 -3.33985,0 0,3.20313 10.07813,0 0,-3.20313 -3.55469,0 c -0.0912,-2.40885 -0.0912,-3.80859 0,-4.19922 1.40622,-0.14322 2.86456,-0.27343 4.375,-0.39062 1.52341,-0.11718 3.29424,-0.51432 5.3125,-1.19141 2.01819,-0.67707 3.07939,-1.1979 3.1836,-1.5625 -1.87504,-2.08332 -3.19014,-3.60024 -3.94532,-4.55078 -0.74222,-0.9505 -1.15889,-1.60806 -1.25,-1.97266 1.05466,-0.15623 1.90752,-0.48175 2.5586,-0.97656 -0.76827,-0.59894 -1.6016,-1.40623 -2.5,-2.42187 -0.89847,-1.01561 -1.58207,-1.81639 -2.05078,-2.40235 -0.46879,-0.58591 -0.83337,-1.27601 -1.09375,-2.07031 1.2109,-0.33852 2.08981,-0.69659 2.63671,-1.07422 -0.11722,-0.16924 -0.20185,-0.31898 -0.2539,-0.44922 -1.67972,-1.73174 -3.15107,-3.457 -4.41406,-5.17578 -1.25003,-1.73174 -2.13545,-3.13147 -2.65625,-4.19922 -0.52086,-1.06767 -0.96357,-2.1484 -1.32813,-3.24219 l -0.42969,1.07422 m 0.25391,5.91797 c 0.26039,0.16931 0.70961,0.70316 1.34766,1.60157 0.65101,0.89846 1.35413,1.88153 2.10937,2.94921 l -2.20703,0.44922 c 2.73435,4.20575 4.14059,6.47138 4.21875,6.79688 0.29945,0.18231 0.50778,0.39064 0.625,0.625 l 0,0.27344 -0.25391,0 c -0.5469,0.18231 -0.98961,0.29949 -1.32812,0.35156 l 1.85547,3.49609 c 0.96351,1.18491 1.61455,2.01824 1.95312,2.5 0.35153,0.46876 0.61195,0.94402 0.78125,1.42578 -2.63024,0.50783 -5.74872,0.83986 -9.35547,0.9961 l -3.96484,-0.0977 -4.41406,-0.625 3.78906,-5.625 0.87891,-1.89453 c -0.7943,-0.039 -1.47138,-0.15623 -2.03125,-0.35156 0.039,-0.10415 0.0976,-0.16274 0.17578,-0.17578 l 0.0977,-0.17579 c 1.31509,-1.80987 2.49347,-3.54164 3.53516,-5.19531 l 0.17578,-0.0781 0.0781,-0.3711 0.17578,-0.0781 0.70312,-1.79688 c -1.22398,-0.22132 -1.9857,-0.33851 -2.28515,-0.35156 1.99216,-2.77341 3.10544,-4.32288 3.33984,-4.64844" />
  <path
     inkscape:connector-curvature="0"
     id="path4792"
     style="font-size:40px;font-style:normal;font-variant:normal;font-weight:500;font-stretch:normal;line-height:125%;letter-spacing:0px;word-spacing:0px;fill:#000000;fill-opacity:1;stroke:none;font-family:TSS Symbols;-inkscape-font-specification:TSS Symbols Medium"
     d="m -404.96996,-303.81882 -2.89062,-5.35156 25.9375,0 -2.77344,5.35156 -20.27344,0 m 8.1836,-17.28516 -6.23047,0 6.23047,-7.08984 0,7.08984 m 10.33203,0 -6.44531,0 0,-7.20703 6.44531,7.20703 m 11.15234,7.85157 -17.57812,0 0,-3.84766 14.86328,0 -14.90235,-17.73437 0,-4.04298 -6.95312,0 0,4.10157 2.91016,0 -14.4336,17.67578 14.60938,0 0,3.84766 -17.57813,0 6.83594,13.45703 25.42969,0 6.79687,-13.45703" />
  <text
     xml:space="preserve"
     style="font-size:30.05018806px;font-style:normal;font-variant:normal;font-weight:500;font-stretch:normal;line-height:125%;letter-spacing:1.53255963px;word-spacing:0px;fill:#000000;fill-opacity:1;stroke:none;font-family:TSS Letters;-inkscape-font-specification:TSS Letters Medium"
     x="-472.50439"
     y="-530.82941"
     id="text4757"
     sodipodi:linespacing="125%"><tspan
       sodipodi:role="line"
       x="-472.50439"
       y="-530.82941"
       id="tspan4761">ifghPSGHJKNM</tspan></text>
</svg>
